<svg width="22" height="23" viewBox="0 0 22 23" fill="none" xmlns="http://www.w3.org/2000/svg">
    <path fill-rule="evenodd" clip-rule="evenodd"
        d="M4.5002 15.4248C4.87299 15.4248 5.1752 15.727 5.1752 16.0998V17.8998C5.1752 18.0241 5.27593 18.1248 5.4002 18.1248H16.2002C16.3245 18.1248 16.4252 18.0241 16.4252 17.8998V16.0998C16.4252 15.727 16.7274 15.4248 17.1002 15.4248C17.473 15.4248 17.7752 15.727 17.7752 16.0998V17.8998C17.7752 18.7697 17.07 19.4748 16.2002 19.4748H5.4002C4.53035 19.4748 3.8252 18.7697 3.8252 17.8998V16.0998C3.8252 15.727 4.1274 15.4248 4.5002 15.4248Z"
        fill="#092682" />
    <path
        d="M9.66435 4.1748C9.2014 4.1748 8.81521 4.52861 8.77479 4.9898C8.63651 6.56724 8.61212 8.15244 8.70173 9.73306C8.47945 9.74535 8.25725 9.75958 8.03515 9.77577L6.6946 9.87349C6.17773 9.91117 5.88879 10.4875 6.16783 10.9242C7.12367 12.4201 8.35528 13.7205 9.79703 14.7562L10.3341 15.142C10.6127 15.3421 10.9878 15.3421 11.2664 15.142L11.8034 14.7562C13.2452 13.7205 14.4768 12.4201 15.4327 10.9242C15.7117 10.4875 15.4228 9.91117 14.9059 9.87349L13.5653 9.77577C13.3432 9.75958 13.121 9.74535 12.8987 9.73306C12.9884 8.15244 12.964 6.56724 12.8257 4.98979C12.7853 4.52861 12.3991 4.1748 11.9361 4.1748H9.66435Z"
        fill="#092682" />
</svg>