<svg width="123" height="106" viewBox="0 0 123 106" fill="none" xmlns="http://www.w3.org/2000/svg">
<circle cx="1.71826" cy="78.9336" r="1.5" fill="#84A5FF"/>
<circle cx="1.71826" cy="86.9336" r="1.5" fill="#84A5FF"/>
<circle cx="1.71826" cy="94.9336" r="1.5" fill="#84A5FF"/>
<circle cx="9.71826" cy="78.9336" r="1.5" fill="#84A5FF"/>
<circle cx="9.71826" cy="86.9336" r="1.5" fill="#84A5FF"/>
<circle cx="9.71826" cy="94.9336" r="1.5" fill="#84A5FF"/>
<circle cx="17.7183" cy="78.9336" r="1.5" fill="#84A5FF"/>
<circle cx="17.7183" cy="86.9336" r="1.5" fill="#84A5FF"/>
<circle cx="17.7183" cy="94.9336" r="1.5" fill="#84A5FF"/>
<circle cx="25.7183" cy="78.9336" r="1.5" fill="#84A5FF"/>
<circle cx="33.7183" cy="78.9336" r="1.5" fill="#84A5FF"/>
<circle cx="41.7183" cy="78.9336" r="1.5" fill="#84A5FF"/>
<circle cx="25.7183" cy="86.9336" r="1.5" fill="#84A5FF"/>
<circle cx="33.7183" cy="86.9336" r="1.5" fill="#84A5FF"/>
<circle cx="41.7183" cy="86.9336" r="1.5" fill="#84A5FF"/>
<circle cx="25.7183" cy="94.9336" r="1.5" fill="#84A5FF"/>
<circle cx="33.7183" cy="94.9336" r="1.5" fill="#84A5FF"/>
<circle cx="41.7183" cy="94.9336" r="1.5" fill="#84A5FF"/>
<rect x="14.7617" y="0.703125" width="29.5796" height="29.5796" rx="4" fill="#E2E9FF"/>
<path d="M29.5518 17.4926C30.6563 17.4926 31.5518 16.5972 31.5518 15.4926C31.5518 14.388 30.6563 13.4926 29.5518 13.4926C28.4472 13.4926 27.5518 14.388 27.5518 15.4926C27.5518 16.5972 28.4472 17.4926 29.5518 17.4926Z" stroke="#2862FF" stroke-width="1.4" stroke-linecap="round" stroke-linejoin="round"/>
<path d="M34.4849 17.4929C34.3962 17.694 34.3697 17.9171 34.4089 18.1333C34.4481 18.3496 34.5512 18.5492 34.7049 18.7063L34.7449 18.7463C34.8689 18.8701 34.9672 19.0172 35.0343 19.179C35.1014 19.3409 35.136 19.5144 35.136 19.6896C35.136 19.8648 35.1014 20.0383 35.0343 20.2002C34.9672 20.3621 34.8689 20.5091 34.7449 20.6329C34.6211 20.7569 34.474 20.8553 34.3122 20.9224C34.1503 20.9895 33.9768 21.024 33.8016 21.024C33.6264 21.024 33.4529 20.9895 33.291 20.9224C33.1291 20.8553 32.9821 20.7569 32.8583 20.6329L32.8183 20.5929C32.6611 20.4392 32.4616 20.3361 32.2453 20.2969C32.0291 20.2577 31.806 20.2842 31.6049 20.3729C31.4077 20.4574 31.2396 20.5978 31.1211 20.7766C31.0027 20.9555 30.9391 21.1651 30.9383 21.3796V21.4929C30.9383 21.8466 30.7978 22.1857 30.5477 22.4357C30.2977 22.6858 29.9585 22.8263 29.6049 22.8263C29.2513 22.8263 28.9122 22.6858 28.6621 22.4357C28.4121 22.1857 28.2716 21.8466 28.2716 21.4929V21.4329C28.2664 21.2123 28.195 20.9983 28.0666 20.8187C27.9382 20.6392 27.7588 20.5025 27.5516 20.4263C27.3505 20.3375 27.1275 20.3111 26.9112 20.3503C26.6949 20.3895 26.4954 20.4926 26.3383 20.6463L26.2983 20.6863C26.1744 20.8102 26.0274 20.9086 25.8655 20.9757C25.7037 21.0428 25.5301 21.0773 25.3549 21.0773C25.1797 21.0773 25.0062 21.0428 24.8443 20.9757C24.6825 20.9086 24.5354 20.8102 24.4116 20.6863C24.2876 20.5624 24.1893 20.4154 24.1222 20.2535C24.0551 20.0917 24.0205 19.9182 24.0205 19.7429C24.0205 19.5677 24.0551 19.3942 24.1222 19.2324C24.1893 19.0705 24.2876 18.9234 24.4116 18.7996L24.4516 18.7596C24.6053 18.6025 24.7084 18.4029 24.7476 18.1867C24.7868 17.9704 24.7603 17.7474 24.6716 17.5463C24.5871 17.3491 24.4468 17.1809 24.2679 17.0625C24.089 16.944 23.8795 16.8805 23.6649 16.8796H23.5516C23.198 16.8796 22.8588 16.7391 22.6088 16.4891C22.3587 16.239 22.2183 15.8999 22.2183 15.5463C22.2183 15.1927 22.3587 14.8535 22.6088 14.6035C22.8588 14.3534 23.198 14.2129 23.5516 14.2129H23.6116C23.8323 14.2078 24.0463 14.1364 24.2258 14.0079C24.4053 13.8795 24.5421 13.7001 24.6183 13.4929C24.707 13.2919 24.7335 13.0688 24.6943 12.8525C24.6551 12.6363 24.552 12.4367 24.3983 12.2796L24.3583 12.2396C24.2343 12.1158 24.1359 11.9687 24.0688 11.8069C24.0017 11.645 23.9672 11.4715 23.9672 11.2963C23.9672 11.1211 24.0017 10.9476 24.0688 10.7857C24.1359 10.6238 24.2343 10.4768 24.3583 10.3529C24.4821 10.229 24.6291 10.1306 24.791 10.0635C24.9529 9.99643 25.1264 9.96189 25.3016 9.96189C25.4768 9.96189 25.6503 9.99643 25.8122 10.0635C25.974 10.1306 26.1211 10.229 26.2449 10.3529L26.2849 10.3929C26.442 10.5466 26.6416 10.6497 26.8579 10.6889C27.0741 10.7282 27.2972 10.7017 27.4983 10.6129H27.5516C27.7488 10.5284 27.9169 10.3881 28.0354 10.2093C28.1538 10.0304 28.2174 9.8208 28.2183 9.60627V9.49294C28.2183 9.13932 28.3587 8.80018 28.6088 8.55013C28.8588 8.30008 29.198 8.15961 29.5516 8.15961C29.9052 8.15961 30.2444 8.30008 30.4944 8.55013C30.7445 8.80018 30.8849 9.13932 30.8849 9.49294V9.55294C30.8858 9.76746 30.9493 9.97706 31.0678 10.1559C31.1862 10.3348 31.3544 10.4751 31.5516 10.5596C31.7527 10.6484 31.9757 10.6748 32.192 10.6356C32.4082 10.5964 32.6078 10.4933 32.7649 10.3396L32.8049 10.2996C32.9288 10.1756 33.0758 10.0773 33.2377 10.0102C33.3995 9.94309 33.573 9.90856 33.7483 9.90856C33.9235 9.90856 34.097 9.94309 34.2588 10.0102C34.4207 10.0773 34.5678 10.1756 34.6916 10.2996C34.8156 10.4234 34.9139 10.5705 34.981 10.7324C35.0481 10.8942 35.0826 11.0677 35.0826 11.2429C35.0826 11.4182 35.0481 11.5917 34.981 11.7535C34.9139 11.9154 34.8156 12.0624 34.6916 12.1863L34.6516 12.2263C34.4979 12.3834 34.3948 12.583 34.3556 12.7992C34.3164 13.0155 34.3428 13.2385 34.4316 13.4396V13.4929C34.5161 13.6901 34.6564 13.8583 34.8353 13.9767C35.0141 14.0952 35.2237 14.1588 35.4383 14.1596H35.5516C35.9052 14.1596 36.2444 14.3001 36.4944 14.5501C36.7445 14.8002 36.8849 15.1393 36.8849 15.4929C36.8849 15.8466 36.7445 16.1857 36.4944 16.4357C36.2444 16.6858 35.9052 16.8263 35.5516 16.8263H35.4916C35.2771 16.8271 35.0675 16.8907 34.8886 17.0091C34.7098 17.1276 34.5694 17.2958 34.4849 17.4929V17.4929Z" stroke="#2862FF" stroke-width="1.4" stroke-linecap="round" stroke-linejoin="round"/>
<rect x="31.8848" y="17.2031" width="63" height="87" rx="6.5" fill="white" stroke="#42526E" stroke-width="3"/>
<rect x="43.3848" y="34.6055" width="24" height="5" rx="2.5" fill="#84A5FF"/>
<rect x="43.3848" y="44.4043" width="40" height="4" rx="2" fill="#BED0FF"/>
<rect x="43.3848" y="51.0039" width="32" height="4" rx="2" fill="#BED0FF"/>
<rect x="43.3848" y="66.4033" width="24" height="5" rx="2.5" fill="#84A5FF"/>
<rect x="43.3848" y="76.2021" width="35" height="4" rx="2" fill="#BED0FF"/>
<rect x="43.3848" y="82.8018" width="22" height="4" rx="2" fill="#BED0FF"/>
<g filter="url(#filter0_f_2_16412)">
<rect x="88.9717" y="67.1436" width="29.5796" height="29.5796" rx="4" fill="#2862FF" fill-opacity="0.2"/>
</g>
<rect x="85.9717" y="64.1436" width="29.5796" height="29.5796" rx="4" fill="#2862FF"/>
<path d="M105.667 77.0352C105.667 78.377 105.228 79.4053 104.349 80.1201C103.47 80.835 102.219 81.1924 100.596 81.1924H99.2598V86H97.1592V73.1504H100.859C102.465 73.1504 103.666 73.4785 104.463 74.1348C105.266 74.791 105.667 75.7578 105.667 77.0352ZM99.2598 79.4258H100.376C101.454 79.4258 102.245 79.2383 102.749 78.8633C103.253 78.4883 103.505 77.9023 103.505 77.1055C103.505 76.3672 103.279 75.8164 102.828 75.4531C102.377 75.0898 101.674 74.9082 100.719 74.9082H99.2598V79.4258Z" fill="white"/>
<defs>
<filter id="filter0_f_2_16412" x="84.9717" y="63.1436" width="37.5796" height="37.5797" filterUnits="userSpaceOnUse" color-interpolation-filters="sRGB">
<feFlood flood-opacity="0" result="BackgroundImageFix"/>
<feBlend mode="normal" in="SourceGraphic" in2="BackgroundImageFix" result="shape"/>
<feGaussianBlur stdDeviation="2" result="effect1_foregroundBlur_2_16412"/>
</filter>
</defs>
</svg>
