<svg width="64" height="56" viewBox="0 0 64 56" fill="none" xmlns="http://www.w3.org/2000/svg">
<path d="M16.9414 3.27956V14.4719H64.0002V3.27956C64.0002 1.88051 62.8556 0.73584 61.4565 0.73584H19.4851C18.0861 0.73584 16.9414 1.88051 16.9414 3.27956Z" fill="#6FABE8"/>
<path d="M64.0002 14.4717H16.9414V28.2078H64.0002V14.4717Z" fill="#6A9EE7"/>
<path d="M64.0002 28.2078H16.9414V41.9439H64.0002V28.2078Z" fill="#5B84DD"/>
<path d="M64.0002 53.137V41.9446H16.9414V53.137C16.9414 54.536 18.0861 55.6807 19.4851 55.6807H61.4565C62.8556 55.6807 64.0002 54.536 64.0002 53.137Z" fill="#4B67C1"/>
<path d="M16.585 3.27956V14.4719H63.6438V3.27956C63.6438 1.88051 62.4991 0.73584 61.1001 0.73584H19.1287C17.7296 0.73584 16.585 1.88051 16.585 3.27956Z" fill="#74B3FC"/>
<path d="M63.6438 14.4717H16.585V28.2078H63.6438V14.4717Z" fill="#6AA1F5"/>
<path d="M63.6438 28.2078H16.585V41.9439H63.6438V28.2078Z" fill="url(#paint0_linear_2_93986)"/>
<path d="M63.6438 53.137V41.9446H16.585V53.137C16.585 54.536 17.7296 55.6807 19.1287 55.6807H61.1001C62.5245 55.6807 63.6438 54.536 63.6438 53.137Z" fill="url(#paint1_linear_2_93986)"/>
<path d="M63.6438 14.4717H16.585V27.928H63.6438V14.4717Z" fill="url(#paint2_linear_2_93986)"/>
<path d="M16.585 3.27956V14.2176H63.6438V3.27956C63.6438 1.88051 62.4991 0.73584 61.1001 0.73584H19.1287C17.7296 0.73584 16.585 1.88051 16.585 3.27956Z" fill="url(#paint3_linear_2_93986)"/>
<g opacity="0.1">
<path opacity="0.01" d="M29.6614 48.7111H16.7393V10.6316H31.3911C34.3927 10.6316 36.8346 13.0736 36.8346 16.0752V41.5378C36.8092 45.4806 33.6041 48.7111 29.6614 48.7111Z" fill="black"/>
<path opacity="0.02623" d="M29.6349 48.636H16.7383V10.6582H31.3392C34.3154 10.6582 36.7319 13.1002 36.7319 16.0509V41.539C36.7319 45.4309 33.5523 48.636 29.6349 48.636Z" fill="black"/>
<path opacity="0.042459" d="M29.634 48.5586H16.7373V10.6826H31.2874C34.2381 10.6826 36.6546 13.0992 36.6546 16.0499V41.5379C36.6546 45.4044 33.5004 48.5586 29.634 48.5586Z" fill="black"/>
<path opacity="0.058689" d="M29.6085 48.482H16.7373V10.7078H31.2619C34.1872 10.7078 36.5783 13.0989 36.5783 16.0241V41.5122C36.5783 45.3532 33.4495 48.482 29.6085 48.482Z" fill="black"/>
<path opacity="0.074918" d="M29.6085 48.4052H16.7373V10.7327H31.2365C34.1364 10.7327 36.502 13.0983 36.502 16.0236V41.5117C36.502 45.3018 33.3987 48.4052 29.6085 48.4052Z" fill="black"/>
<path opacity="0.091148" d="M29.5831 48.3295H16.7373V10.7588H31.1856C34.06 10.7588 36.4257 13.1244 36.4257 15.9989V41.4869C36.4257 45.2516 33.3478 48.3295 29.5831 48.3295Z" fill="black"/>
<path opacity="0.1074" d="M29.5831 48.2529H16.7373V10.7839H31.1602C34.0092 10.7839 36.3494 13.1242 36.3494 15.9986V41.5121C36.3239 45.2005 33.2969 48.2529 29.5831 48.2529Z" fill="black"/>
<path opacity="0.1236" d="M29.5831 48.1761H16.7373V10.8088H31.1093C33.9583 10.8088 36.2731 13.1236 36.2731 15.9726V41.4861C36.2476 45.1745 33.246 48.1761 29.5831 48.1761Z" fill="black"/>
<path opacity="0.1398" d="M29.5577 48.0995H16.7373V10.834H31.0584C33.882 10.834 36.1713 13.1488 36.1713 15.9723V41.4858C36.1713 45.1233 33.1952 48.0995 29.5577 48.0995Z" fill="black"/>
<path opacity="0.1561" d="M29.5577 48.0236H16.7373V10.8599H31.033C33.8311 10.8599 36.1205 13.1492 36.1205 15.9473V41.4608C36.095 45.0729 33.1443 48.0236 29.5577 48.0236Z" fill="black"/>
<path opacity="0.1723" d="M29.5322 47.948H16.7373V10.886H30.9821C33.7548 10.886 36.0187 13.1499 36.0187 15.948V41.4615C36.0187 45.0227 33.0934 47.948 29.5322 47.948Z" fill="black"/>
<path opacity="0.1885" d="M29.5322 47.8714H16.7373V10.9111H30.9567C33.7039 10.9111 35.9424 13.175 35.9424 15.9223V41.4612C35.9424 44.997 33.0425 47.8714 29.5322 47.8714Z" fill="black"/>
<path opacity="0.2048" d="M29.5068 47.7955H16.7373V10.937H30.9058C33.6276 10.937 35.8661 13.1755 35.8661 15.8973V41.4362C35.8406 44.9466 32.9917 47.7955 29.5068 47.7955Z" fill="black"/>
<path opacity="0.221" d="M29.5068 47.7179H16.7373V10.9612H30.855C33.5513 10.9612 35.7643 13.1742 35.7643 15.896V41.435C35.7643 44.8944 32.9408 47.7179 29.5068 47.7179Z" fill="black"/>
<path opacity="0.2372" d="M29.4813 47.6421H16.7373V10.9871H30.8295C33.5004 10.9871 35.7135 13.2001 35.7135 15.871V41.4354C35.688 44.844 32.8899 47.6421 29.4813 47.6421Z" fill="black"/>
<path opacity="0.2534" d="M29.4813 47.5655H16.7373V11.0122H30.7786C33.4495 11.0122 35.6117 13.1998 35.6117 15.8707V41.4097C35.6117 44.7928 32.8391 47.5655 29.4813 47.5655Z" fill="black"/>
<path opacity="0.2697" d="M29.4559 47.4898H16.7373V11.0383H30.7532C33.3987 11.0383 35.5608 13.2005 35.5608 15.846V41.4104C35.5354 44.7681 32.7882 47.4898 29.4559 47.4898Z" fill="black"/>
<path opacity="0.2859" d="M29.4559 47.414H16.7373V11.0642H30.7023C33.3224 11.0642 35.4591 13.2264 35.4591 15.8464V41.4108C35.4591 44.7176 32.7373 47.414 29.4559 47.414Z" fill="black"/>
<path opacity="0.3021" d="M29.4305 47.3374H16.7119V11.0894H30.6261C33.2207 11.0894 35.3319 13.2261 35.3319 15.8207V41.3851C35.3574 44.6665 32.6865 47.3374 29.4305 47.3374Z" fill="black"/>
<path opacity="0.3184" d="M29.4305 47.2608H16.7373V11.1145H30.626C33.1952 11.1145 35.3065 13.2258 35.3065 15.8204V41.3848C35.281 44.6153 32.661 47.2608 29.4305 47.2608Z" fill="black"/>
<path opacity="0.3346" d="M29.405 47.1839H16.7373V11.1394H30.5751C33.1189 11.1394 35.2047 13.2253 35.2047 15.7944V41.3588C35.2047 44.5639 32.6101 47.1839 29.405 47.1839Z" fill="black"/>
<path opacity="0.3508" d="M29.405 47.1083H16.7373V11.1655H30.5243C33.0425 11.1655 35.1284 13.2514 35.1284 15.7951V41.3849C35.1284 44.5391 32.5592 47.1083 29.405 47.1083Z" fill="black"/>
<path opacity="0.367" d="M29.3796 47.0314H16.7373V11.1904H30.4988C32.9917 11.1904 35.0521 13.2508 35.0521 15.7691V41.359C35.0521 44.4877 32.5084 47.0314 29.3796 47.0314Z" fill="black"/>
<path opacity="0.3833" d="M29.3796 46.9558H16.7373V11.2166H30.4734C32.9662 11.2166 34.9758 13.2515 34.9758 15.7698V41.3596C34.9758 44.4375 32.4575 46.9558 29.3796 46.9558Z" fill="black"/>
<path opacity="0.3995" d="M29.3542 46.9047H16.7373V11.2417H30.4225C32.8899 11.2417 34.8995 13.2767 34.8995 15.7441V41.3339C34.874 44.3864 32.4066 46.9047 29.3542 46.9047Z" fill="black"/>
<path opacity="0.4157" d="M29.3542 46.8278H16.7373V11.2666H30.3716C32.8136 11.2666 34.7977 13.2761 34.7977 15.7435V41.3334C34.7977 44.3604 32.3557 46.8278 29.3542 46.8278Z" fill="black"/>
<path opacity="0.432" d="M29.3287 46.7522H16.7373V11.2927H30.3462C32.7627 11.2927 34.7468 13.2768 34.7468 15.7188V41.3341C34.7214 44.3102 32.3049 46.7522 29.3287 46.7522Z" fill="black"/>
<path opacity="0.4482" d="M29.3287 46.6753H16.7373V11.3176H30.2953C32.6864 11.3176 34.6451 13.3017 34.6451 15.6928V41.3081C34.6451 44.2588 32.254 46.6753 29.3287 46.6753Z" fill="black"/>
<path opacity="0.4644" d="M29.3033 46.5997H16.7373V11.3438H30.2699C32.6356 11.3438 34.5942 13.3024 34.5942 15.6935V41.3088C34.5688 44.2086 32.2031 46.5997 29.3033 46.5997Z" fill="black"/>
<path opacity="0.4807" d="M29.3033 46.5231H16.7373V11.3689H30.219C32.5592 11.3689 34.4925 13.3021 34.4925 15.6678V41.2831C34.467 44.1575 32.1522 46.5231 29.3033 46.5231Z" fill="black"/>
<path opacity="0.4969" d="M29.3033 46.4472H16.7373V11.3948H30.1681C32.5084 11.3948 34.3907 13.328 34.3907 15.6682V41.2835C34.3907 44.1325 32.1014 46.4472 29.3033 46.4472Z" fill="black"/>
<path opacity="0.5131" d="M29.2778 46.3706H16.7373V11.4199H30.1427C32.4575 11.4199 34.3398 13.3277 34.3398 15.6425V41.2832C34.3144 44.0813 32.0505 46.3706 29.2778 46.3706Z" fill="black"/>
<path opacity="0.5293" d="M29.2778 46.2938H16.7373V11.4448H30.0918C32.3812 11.4448 34.2381 13.3272 34.2381 15.642V41.2827C34.2381 44.0299 31.9996 46.2938 29.2778 46.2938Z" fill="black"/>
<path opacity="0.5456" d="M29.2524 46.2172H16.7373V11.47H30.0664C32.3303 11.47 34.1872 13.3269 34.1872 15.6162V41.2569C34.1618 43.9787 31.9488 46.2172 29.2524 46.2172Z" fill="black"/>
<path opacity="0.5618" d="M29.2524 46.1416H16.7373V11.4961H30.0155C32.254 11.4961 34.0855 13.353 34.0855 15.6169V41.2576C34.0855 43.9285 31.8979 46.1416 29.2524 46.1416Z" fill="black"/>
<path opacity="0.578" d="M29.227 46.0657H16.7373V11.522H29.9647C32.1777 11.522 33.9837 13.3535 33.9837 15.5919V41.2326C33.9837 43.9035 31.847 46.0657 29.227 46.0657Z" fill="black"/>
<path opacity="0.5943" d="M29.227 45.9891H16.7373V11.5471H29.9392C32.1268 11.5471 33.9329 13.3532 33.9329 15.5916V41.2578C33.9074 43.8524 31.7961 45.9891 29.227 45.9891Z" fill="black"/>
<path opacity="0.6105" d="M29.2015 45.9122H16.7373V11.572H29.8883C32.0505 11.572 33.8311 13.3781 33.8311 15.5657V41.2318C33.8311 43.801 31.7453 45.9122 29.2015 45.9122Z" fill="black"/>
<path opacity="0.6267" d="M29.2015 45.8357H16.7373V11.5972H29.8629C32.0251 11.5972 33.7802 13.3778 33.7802 15.5654V41.2315C33.7548 43.7498 31.6944 45.8357 29.2015 45.8357Z" fill="black"/>
<path opacity="0.643" d="M29.1761 45.76H16.7119V11.6233H29.7866C31.9234 11.6233 33.6531 13.3785 33.6531 15.5406V41.2068C33.6785 43.725 31.6435 45.76 29.1761 45.76Z" fill="black"/>
<path opacity="0.6592" d="M29.1761 45.6832H16.7373V11.6482H29.7612C31.8724 11.6482 33.6022 13.4034 33.6022 15.5401V41.2062C33.6022 43.6736 31.5926 45.6832 29.1761 45.6832Z" fill="black"/>
<path opacity="0.6754" d="M29.1507 45.6075H16.7373V11.6743H29.7357C31.8216 11.6743 33.5259 13.404 33.5259 15.5153V41.2069C33.5004 43.6234 31.5418 45.6075 29.1507 45.6075Z" fill="black"/>
<path opacity="0.6916" d="M29.1507 45.5317H16.7373V11.7002H29.6848C31.7453 11.7002 33.4241 13.4045 33.4241 15.5158V41.2074C33.4241 43.573 31.4909 45.5317 29.1507 45.5317Z" fill="black"/>
<path opacity="0.7079" d="M29.1252 45.4551H16.7373V11.7253H29.6594C31.6944 11.7253 33.3732 13.4296 33.3732 15.49V41.1816C33.3478 43.5219 31.4654 45.4551 29.1252 45.4551Z" fill="black"/>
<path opacity="0.7241" d="M29.1252 45.3785H16.7373V11.7505H29.6085C31.6181 11.7505 33.2715 13.4293 33.2715 15.4643V41.1559C33.2715 43.4961 31.4146 45.3785 29.1252 45.3785Z" fill="black"/>
<path opacity="0.7403" d="M29.0998 45.3016H16.7373V11.7754H29.5831C31.5672 11.7754 33.2206 13.4288 33.2206 15.4638V41.1554C33.1952 43.4447 31.3637 45.3016 29.0998 45.3016Z" fill="black"/>
<path opacity="0.7566" d="M29.0998 45.226H16.7373V11.8015H29.5322C31.5163 11.8015 33.1189 13.4549 33.1189 15.439V41.156C33.1189 43.3945 31.3128 45.226 29.0998 45.226Z" fill="black"/>
<path opacity="0.7728" d="M29.0743 45.1492H16.7373V11.8264H29.4813C31.44 11.8264 33.0171 13.4544 33.0171 15.4385V41.1555C33.0171 43.3431 31.2619 45.1492 29.0743 45.1492Z" fill="black"/>
<path opacity="0.789" d="M29.0743 45.0735H16.7373V11.8525H29.4559C31.3891 11.8525 32.9662 13.4551 32.9662 15.4137V41.1308C32.9408 43.2929 31.2111 45.0735 29.0743 45.0735Z" fill="black"/>
<path opacity="0.8052" d="M29.0489 44.9969H16.7373V11.8777H29.405C31.3128 11.8777 32.8645 13.4548 32.8645 15.4135V41.1305C32.8645 43.2672 31.1602 44.9969 29.0489 44.9969Z" fill="black"/>
<path opacity="0.8215" d="M29.0489 44.9201H16.7373V11.9026H29.3796C31.2619 11.9026 32.8136 13.4797 32.8136 15.3875V41.1045C32.7882 43.2158 31.1093 44.9201 29.0489 44.9201Z" fill="black"/>
<path opacity="0.8377" d="M29.0235 44.8444H16.7373V11.9287H29.3287C31.1856 11.9287 32.7119 13.4804 32.7119 15.3882V41.1306C32.7119 43.1656 31.0584 44.8444 29.0235 44.8444Z" fill="black"/>
<path opacity="0.8539" d="M29.0235 44.7676H16.7373V11.9536H29.2778C31.1093 11.9536 32.6356 13.4798 32.6356 15.3622V41.1046C32.6356 43.1142 31.0076 44.7676 29.0235 44.7676Z" fill="black"/>
<path opacity="0.8702" d="M29.0235 44.692H16.7373V11.9797H29.2524C31.0585 11.9797 32.5592 13.506 32.5592 15.3629V41.1053C32.5338 43.0894 30.9567 44.692 29.0235 44.692Z" fill="black"/>
<path opacity="0.8864" d="M28.998 44.6154H16.7373V12.0049H29.2015C31.0076 12.0049 32.4575 13.5057 32.4575 15.3372V41.0796C32.4575 43.0383 30.9058 44.6154 28.998 44.6154Z" fill="black"/>
<path opacity="0.9026" d="M28.998 44.5395H16.7373V12.0308H29.1761C30.9567 12.0308 32.4066 13.5061 32.4066 15.3376V41.08C32.3812 42.9878 30.8549 44.5395 28.998 44.5395Z" fill="black"/>
<path opacity="0.9189" d="M28.9726 44.4619H16.7373V12.0549H29.1252C30.8804 12.0549 32.3049 13.5303 32.3049 15.3109V41.0788C32.3049 42.9357 30.8041 44.4619 28.9726 44.4619Z" fill="black"/>
<path opacity="0.9351" d="M28.9726 44.3861H16.7373V12.0808H29.0998C30.8295 12.0808 32.254 13.5307 32.254 15.3113V41.0792C32.2286 42.8853 30.7532 44.3861 28.9726 44.3861Z" fill="black"/>
<path opacity="0.9513" d="M28.9472 44.3095H16.7373V12.106H29.0489C30.7532 12.106 32.1523 13.5304 32.1523 15.2856V41.0535C32.1523 42.8595 30.7023 44.3095 28.9472 44.3095Z" fill="black"/>
<path opacity="0.9675" d="M28.9472 44.2338H16.7373V12.1321H28.998C30.6769 12.1321 32.0759 13.5566 32.0759 15.2609V41.0287C32.0505 42.8093 30.6515 44.2338 28.9472 44.2338Z" fill="black"/>
<path opacity="0.9838" d="M28.9218 44.158H16.7119V12.158H28.9472C30.6006 12.158 31.9742 13.557 31.9742 15.2613V41.0292C31.9742 42.7589 30.6006 44.158 28.9218 44.158Z" fill="black"/>
<path opacity="0.1" d="M28.9217 44.0814H16.7373V12.1831H28.9217C30.5751 12.1831 31.8979 13.5567 31.8979 15.2356V41.0289C31.8979 42.7077 30.5497 44.0814 28.9217 44.0814Z" fill="black"/>
</g>
<path d="M29.4306 43.9796H3.73899C2.06013 43.9796 0.686523 42.606 0.686523 40.9272V15.2356C0.686523 13.5567 2.06013 12.1831 3.73899 12.1831H29.4306C31.1094 12.1831 32.483 13.5567 32.483 15.2356V40.9272C32.483 42.606 31.1094 43.9796 29.4306 43.9796Z" fill="#5478CC"/>
<path d="M29.0487 44.1317H3.35715C1.6783 44.1317 0.304688 42.7581 0.304688 41.0792V15.3877C0.304688 13.7088 1.6783 12.3352 3.35715 12.3352H29.0487C30.7276 12.3352 32.1012 13.7088 32.1012 15.3877V41.0792C32.1012 42.7327 30.7276 44.1317 29.0487 44.1317Z" fill="#5478CC"/>
<path d="M28.744 43.9796H3.05246C1.37361 43.9796 0 42.606 0 40.9272V15.2356C0 13.5567 1.37361 12.1831 3.05246 12.1831H28.744C30.4229 12.1831 31.7965 13.5567 31.7965 15.2356V40.9272C31.7965 42.606 30.4229 43.9796 28.744 43.9796Z" fill="#5478CC"/>
<path d="M29.0487 43.9796H3.35715C1.6783 43.9796 0.304688 42.606 0.304688 40.9272V15.2356C0.304688 13.5567 1.6783 12.1831 3.35715 12.1831H29.0487C30.7276 12.1831 32.1012 13.5567 32.1012 15.2356V40.9272C32.1012 42.606 30.7276 43.9796 29.0487 43.9796Z" fill="url(#paint4_linear_2_93986)"/>
<g opacity="0.1">
<path opacity="0.01" d="M24.4962 18.8987L21.7745 33.3979L18.1878 18.8987H17.2721H15.3134H14.3977L10.8365 33.2453L7.93663 18.8987H4.14648L8.62343 37.5187H9.79354H11.7013H12.6679L16.3055 22.8669L19.9175 37.5187H21.0113H22.792H23.8094L28.2864 18.8987H24.4962Z" fill="black"/>
<path opacity="0.02623" d="M24.4972 18.9233L21.7754 33.3971L18.1888 18.9233H17.273H15.3143H14.3986L10.8628 33.2445L7.93756 18.9233H4.17285L8.62436 37.4925H9.79447H11.7277H12.6689L16.3064 22.8915L19.9185 37.4925H21.0123H22.7929H23.8104L28.2619 18.9233H24.4972Z" fill="black"/>
<path opacity="0.042459" d="M24.4707 18.9485L21.7489 33.3714L18.1877 18.9485H17.272H15.3133H14.3976L10.8618 33.2188L7.96197 18.9485H4.19727L8.64878 37.4668H9.81889H11.7267H12.6933L16.3054 22.8913L19.9175 37.4668H20.9858H22.7664H23.7839L28.2354 18.9485H24.4707Z" fill="black"/>
<path opacity="0.058689" d="M24.4452 18.9744L21.7489 33.3718L18.1877 18.9744H17.2719H15.3133H14.3975L10.8872 33.2192L7.98736 18.9744H4.22266L8.64873 37.4418H9.81884H11.7266H12.6932L16.3053 22.9171L19.892 37.4418H20.9858H22.7664H23.7839L28.2099 18.9744H24.4452Z" fill="black"/>
<path opacity="0.074918" d="M24.4452 18.9744L21.7488 33.3464L18.1876 18.9744H17.2719H15.3132H14.4229L10.8872 33.2192L7.98732 18.9744H4.24805L8.67412 37.4418H9.84423H11.752H12.6932L16.3053 22.9171L19.8919 37.4418H20.9857H22.7409H23.7584L28.1845 18.9744H24.4452Z" fill="black"/>
<path opacity="0.091148" d="M24.4197 18.9995L21.7234 33.3461L18.1622 18.9995H17.2719H15.3132H14.4229L10.8871 33.1935L8.01271 18.9995H4.27344L8.69951 37.416H9.84419H11.752H12.7186L16.3052 22.9423L19.8919 37.416H20.9602H22.7409H23.7329L28.159 18.9995H24.4197Z" fill="black"/>
<path opacity="0.1074" d="M24.3942 19.0254L21.7233 33.3211L18.1621 19.0254H17.2718H15.3131H14.4228L10.9125 33.1939L8.0381 19.0254H4.29883L8.69947 37.3911H9.86958H11.7774H12.7185L16.3052 22.9427L19.8664 37.3911H20.9602H22.7154H23.7329L28.1335 19.0254H24.3942Z" fill="black"/>
<path opacity="0.1236" d="M24.3942 19.0505L21.6978 33.3208L18.1621 19.0505H17.2718H15.3131H14.4228L10.9125 33.1682L8.03805 19.0505H4.32422L8.72485 37.3653H9.86953H11.7773H12.7185L16.3051 22.9424L19.8663 37.3653H20.9347H22.7153H23.7074L28.108 19.0505H24.3942Z" fill="black"/>
<path opacity="0.1398" d="M24.3687 19.0505L21.6978 33.3208L18.162 19.0505H17.2717H15.3385H14.4227L10.9378 33.1682L8.06344 19.0505H4.34961L8.75025 37.3653H9.89492H11.7773H12.7184L16.3051 22.9679L19.8663 37.3653H20.9347H22.6898H23.6819L28.0825 19.0505H24.3687Z" fill="black"/>
<path opacity="0.1561" d="M24.3432 19.0757L21.6723 33.2951L18.162 19.0757H17.2717H15.3384H14.4227L10.9378 33.1679L8.08883 19.0757H4.375L8.7502 37.3396H9.89487H11.8027H12.7438L16.305 22.9676L19.8408 37.3396H20.9346H22.6898H23.6818L28.057 19.0757H24.3432Z" fill="black"/>
<path opacity="0.1723" d="M24.3432 19.1006L21.6723 33.2945L18.1619 19.1006H17.2462H15.3384H14.4226L10.9632 33.1419L8.08879 19.1006H4.40039L8.77559 37.3136H9.92026H11.8026H12.7438L16.305 22.9925L19.8408 37.3136H20.9091H22.6643H23.6564L28.0316 19.1006H24.3432Z" fill="black"/>
<path opacity="0.1885" d="M24.3186 19.1267L21.6477 33.2698L18.1628 19.1267H17.2471H15.3393H14.449L10.9641 33.1426L8.11515 19.1267H4.42676L8.77652 37.2889H9.94663H11.8035H12.7447L16.3059 22.9932L19.8417 37.2889H20.9101H22.6652H23.6573L28.007 19.1267H24.3186Z" fill="black"/>
<path opacity="0.2048" d="M24.2932 19.1267L21.6477 33.2698L18.1374 19.1267H17.2471H15.3393H14.449L10.9895 33.1172L8.14054 19.1267H4.45215L8.80191 37.2889H9.94658H11.8289H12.7701L16.3059 23.0186L19.8417 37.2889H20.8846H22.6397H23.6318L27.9816 19.1267H24.2932Z" fill="black"/>
<path opacity="0.221" d="M24.2931 19.1526L21.6477 33.2702L18.1373 19.1526H17.247H15.3392H14.4489L10.9895 33.1176L8.1405 19.1526H4.47754L8.8273 37.2639H9.97197H11.8289H12.7701L16.3058 23.019L19.8162 37.2639H20.8845H22.6397H23.6063L27.9561 19.1526H24.2931Z" fill="black"/>
<path opacity="0.2372" d="M24.2676 19.1777L21.6222 33.2445L18.1373 19.1777H17.247H15.3392H14.4489L10.9894 33.1173L8.16589 19.1777H4.50293L8.82725 37.2382H9.97193H11.8288H12.77L16.3058 23.0188L19.8161 37.2382H20.8845H22.6142H23.6063L27.9306 19.1777H24.2676Z" fill="black"/>
<path opacity="0.2534" d="M24.2422 19.2039L21.6221 33.2452L18.1372 19.2039H17.2469H15.3391H14.4488L11.0148 33.0926L8.19128 19.2039H4.52832L8.85264 37.2134H9.99732H11.8542H12.77L16.3057 23.0449L19.8161 37.2134H20.859H22.5887H23.5808L27.9051 19.2039H24.2422Z" fill="black"/>
<path opacity="0.2697" d="M24.2421 19.2039L21.5966 33.2198L18.1372 19.2039H17.2469H15.3391H14.4488L11.0148 33.0926L8.19123 19.2039H4.55371L8.8526 37.2134H9.99727H11.8542H12.7954L16.3057 23.0449L19.7906 37.2134H20.859H22.5887H23.5807L27.8796 19.2039H24.2421Z" fill="black"/>
<path opacity="0.2859" d="M24.2166 19.2278L21.5966 33.2182L18.1371 19.2278H17.2468H15.339H14.4487L11.0402 33.0656L8.21662 19.2278H4.5791L8.87799 37.1865H10.0227H11.8796H12.7953L16.3057 23.0688L19.7905 37.1865H20.8335H22.5632H23.5553L27.8541 19.2278H24.2166Z" fill="black"/>
<path opacity="0.3021" d="M24.1911 19.2539L21.5711 33.1935L18.1116 19.2539H17.2468H15.339H14.4741L11.0401 33.0663L8.24201 19.2539H4.60449L8.90338 37.1617H10.0226H11.8795H12.7953L16.3056 23.0695L19.7905 37.1617H20.8334H22.5632H23.5298L27.8287 19.2539H24.1911Z" fill="black"/>
<path opacity="0.3184" d="M24.1911 19.2788L21.5711 33.193L18.1116 19.2788H17.2467H15.3389H14.4741L11.0655 33.0658L8.24197 19.2788H4.62988L8.90333 37.1357H10.048H11.8795H12.8207L16.3056 23.0944L19.765 37.1357H20.8334H22.5377H23.5297L27.8032 19.2788H24.1911Z" fill="black"/>
<path opacity="0.3346" d="M24.1656 19.2788L21.5456 33.193L18.1116 19.2788H17.2467H15.3389H14.474L11.0654 33.0403L8.26736 19.2788H4.65527L8.92872 37.1357H10.048H11.9049H12.8206L16.3055 23.0944L19.765 37.1357H20.8079H22.5376H23.5042L27.7777 19.2788H24.1656Z" fill="black"/>
<path opacity="0.3508" d="M24.1401 19.3049L21.5455 33.1682L18.1115 19.3049H17.2212H15.3643H14.474L11.0654 33.041L8.29275 19.3049H4.68066L8.92868 37.111H10.0733H11.9048H12.8206L16.28 23.0951L19.7649 37.111H20.8078H22.5121H23.4788L27.7522 19.3049H24.1401Z" fill="black"/>
<path opacity="0.367" d="M24.1401 19.3311L21.5455 33.1689L18.1115 19.3311H17.2212H15.3642H14.4739L11.0908 33.0163L8.2927 19.3311H4.70605L8.95407 37.0862H10.0733H11.9048H12.8205L16.28 23.1212L19.7649 37.0862H20.8078H22.5121H23.4787L27.7267 19.3311H24.1401Z" fill="black"/>
<path opacity="0.3833" d="M24.1146 19.356L21.52 33.1429L18.1114 19.356H17.2211H15.3642H14.4739L11.0907 33.0157L8.31809 19.356H4.73145L8.97946 37.0603H10.0987H11.9302H12.8459L16.2799 23.1207L19.7394 37.0603H20.7823H22.4866H23.4532L27.7012 19.356H24.1146Z" fill="black"/>
<path opacity="0.3995" d="M24.0891 19.356L21.5199 33.1429L18.0859 19.356H17.2211H15.3641H14.4738L11.1161 32.9903L8.34348 19.356H4.75684L8.97941 37.0603H10.0986H11.9301H12.8459L16.2799 23.1461L19.7393 37.0603H20.7823H22.4866H23.4532L27.6758 19.356H24.0891Z" fill="black"/>
<path opacity="0.4157" d="M24.0891 19.3811L21.4945 33.1426L18.0859 19.3811H17.2211H15.3641H14.4993L11.1161 32.99L8.34348 19.3811H4.75684L9.00485 37.0345H10.1241H11.9301H12.8459L16.2799 23.1458L19.7393 37.0345H20.7568H22.4611H23.4277L27.6503 19.3811H24.0891Z" fill="black"/>
<path opacity="0.432" d="M24.0636 19.406L21.4945 33.1167L18.0859 19.406H17.221H15.3641H14.4992L11.1415 32.9895L8.36887 19.406H4.78223L9.03024 37.0086H10.124H11.9555H12.8713L16.2798 23.1707L19.7139 37.0086H20.7568H22.4611H23.4023L27.6248 19.406H24.0636Z" fill="black"/>
<path opacity="0.4482" d="M24.0381 19.4321L21.469 33.1173L18.0858 19.4321H17.221H15.3641H14.4992L11.1415 32.9647L8.39426 19.4321H4.80762L9.03019 36.9838H10.1494H11.9555H12.8712L16.2798 23.1714L19.7138 36.9838H20.7567H22.4356H23.4022L27.6248 19.4321H24.0381Z" fill="black"/>
<path opacity="0.4644" d="M24.0381 19.4321L21.4689 33.0919L18.0858 19.4321H17.2209H15.364H14.4991L11.1414 32.9647L8.39422 19.4321H4.83301L9.05558 36.9838H10.1494H11.9554H12.8712L16.2798 23.1714L19.7138 36.9838H20.7313H22.4356H23.3767L27.5993 19.4321H24.0381Z" fill="black"/>
<path opacity="0.4807" d="M24.0126 19.4573L21.4435 33.0916L18.0857 19.4573H17.2209H15.364H14.4991L11.1668 32.939L8.41961 19.4573H4.8584L9.05554 36.9581H10.1748H11.9808H12.8711L16.2797 23.1965L19.6883 36.9581H20.7312H22.4101H23.3767L27.5738 19.4573H24.0126Z" fill="black"/>
<path opacity="0.4969" d="M23.9871 19.4832L21.4434 33.0666L18.0857 19.4832H17.2208H15.3639H14.4991L11.1668 32.9394L8.445 19.4832H4.88379L9.08093 36.9331H10.1747H11.9808H12.8965L16.2797 23.197L19.6882 36.9331H20.7057H22.41H23.3512L27.5483 19.4832H23.9871Z" fill="black"/>
<path opacity="0.5131" d="M23.9871 19.5083L21.4179 33.0663L18.0602 19.5083H17.2208H15.3639H14.5244L11.1922 32.9391L8.44495 19.5083H4.90918L9.10632 36.9073H10.2001H12.0062H12.8965L16.2796 23.2221L19.6882 36.9073H20.7057H22.3845H23.3257L27.5228 19.5083H23.9871Z" fill="black"/>
<path opacity="0.5293" d="M23.9626 19.5083L21.4189 33.0663L18.0611 19.5083H17.2217H15.3648H14.5254L11.1931 32.9137L8.47132 19.5083H4.93555L9.10725 36.9073H10.201H12.0071H12.8974L16.2805 23.2221L19.6891 36.9073H20.7066H22.36H23.3266L27.4983 19.5083H23.9626Z" fill="black"/>
<path opacity="0.5456" d="M23.9371 19.5332L21.4188 33.0404L18.0611 19.5332H17.1962H15.3648H14.5253L11.2185 32.9132L8.49671 19.5332H4.96094L9.13264 36.8814H10.2264H12.007H12.9228L16.2805 23.247L19.6636 36.8814H20.6811H22.36H23.3012L27.4729 19.5332H23.9371Z" fill="black"/>
<path opacity="0.5618" d="M23.937 19.5593L21.3933 33.041L18.0611 19.5593H17.1962H15.3647H14.5253L11.2184 32.8884L8.49666 19.5593H4.98633L9.13259 36.8566H10.2264H12.0324H12.9227L16.2804 23.2477L19.6636 36.8566H20.6811H22.3345H23.3011L27.4474 19.5593H23.937Z" fill="black"/>
<path opacity="0.578" d="M23.9116 19.5845L21.3933 33.0153L18.061 19.5845H17.1961H15.3901H14.5252L11.2184 32.8881L8.52205 19.5845H5.01172L9.15798 36.8309H10.2518H12.0324H12.9227L16.2804 23.2474L19.6635 36.8309H20.681H22.3345H23.2756L27.4219 19.5845H23.9116Z" fill="black"/>
<path opacity="0.5943" d="M23.8861 19.5845L21.3678 33.0153L18.061 19.5845H17.1961H15.3901H14.5252L11.2438 32.8881L8.54744 19.5845H5.03711L9.18337 36.8309H10.2517H12.0323H12.9226L16.2804 23.2729L19.6381 36.8309H20.6556H22.309H23.2501L27.3964 19.5845H23.8861Z" fill="black"/>
<path opacity="0.6105" d="M23.8606 19.6104L21.3677 33.0158L18.0355 19.6104H17.196H15.39H14.5251L11.2437 32.8631L8.5474 19.6104H5.0625L9.18333 36.8059H10.2771H12.0577H12.948L16.2803 23.2733L19.638 36.8059H20.6555H22.3089H23.2501L27.3709 19.6104H23.8606Z" fill="black"/>
<path opacity="0.6267" d="M23.8605 19.6355L21.3423 32.99L18.0354 19.6355H17.196H15.39H14.5505L11.2691 32.8628L8.57279 19.6355H5.08789L9.20872 36.7802H10.3025H12.0577H12.948L16.2803 23.2985L19.638 36.7802H20.63H22.2834H23.2246L27.3454 19.6355H23.8605Z" fill="black"/>
<path opacity="0.643" d="M23.8351 19.6614L21.3422 32.9905L18.0354 19.6614H17.196H15.3899H14.5505L11.2691 32.8378L8.59818 19.6614H5.11328L9.20867 36.7552H10.3025H12.0576H12.9479L16.2802 23.2989L19.6125 36.7552H20.63H22.2834H23.1991L27.32 19.6614H23.8351Z" fill="black"/>
<path opacity="0.6592" d="M23.8096 19.6614L21.3167 32.965L18.0353 19.6614H17.1959H15.3899H14.5504L11.2945 32.8378L8.59813 19.6614H5.13867L9.23406 36.7552H10.3279H12.083H12.9733L16.2802 23.3243L19.6124 36.7552H20.6299H22.2579H23.1991L27.2945 19.6614H23.8096Z" fill="black"/>
<path opacity="0.6754" d="M23.8095 19.6865L21.3167 32.9647L18.0353 19.6865H17.1959H15.3898H14.5504L11.2944 32.8376L8.62352 19.6865H5.16406L9.25945 36.7295H10.3278H12.083H12.9733L16.2801 23.324L19.6124 36.7295H20.6044H22.2579H23.1736L27.269 19.6865H23.8095Z" fill="black"/>
<path opacity="0.6916" d="M23.784 19.7117L21.3166 32.939L18.0352 19.7117H17.1958H15.3898H14.5503L11.2944 32.8118L8.64891 19.7117H5.18945L9.25941 36.7037H10.3532H12.1084H12.9732L16.2801 23.3238L19.6123 36.7037H20.6044H22.2324H23.1736L27.2435 19.7117H23.784Z" fill="black"/>
<path opacity="0.7079" d="M23.7586 19.7366L21.2912 32.9385L18.0098 19.7366H17.1958H15.3897H14.5503L11.3198 32.8113L8.64887 19.7366H5.21484L9.2848 36.6777H10.3532H12.1083H12.9732L16.28 23.3487L19.5869 36.6777H20.5789H22.2323H23.1481L27.218 19.7366H23.7586Z" fill="black"/>
<path opacity="0.7241" d="M23.7585 19.7366L21.2911 32.9385L18.0097 19.7366H17.1957H15.3897H14.5502L11.3197 32.7859L8.67426 19.7366H5.24023L9.31019 36.6777H10.3785H12.1083H12.9986L16.28 23.3487L19.5868 36.6777H20.5789H22.2068H23.1226L27.1925 19.7366H23.7585Z" fill="black"/>
<path opacity="0.7403" d="M23.733 19.7627L21.2656 32.9137L18.0097 19.7627H17.1702H15.3896H14.5756L11.3451 32.7865L8.69965 19.7627H5.26562L9.31014 36.653H10.3785H12.1337H12.9985L16.2799 23.3748L19.5868 36.653H20.5788H22.2068H23.1225L27.1671 19.7627H23.733Z" fill="black"/>
<path opacity="0.7566" d="M23.7075 19.7886L21.2656 32.9142L18.0096 19.7886H17.1702H15.3896H14.5756L11.3451 32.787L8.6996 19.7886H5.29102L9.33553 36.628H10.4039H12.1336H12.9985L16.2799 23.3752L19.5613 36.628H20.5533H22.1813H23.0971L27.1416 19.7886H23.7075Z" fill="black"/>
<path opacity="0.7728" d="M23.7075 19.8137L21.2401 32.8884L18.0096 19.8137H17.1701H15.3895H14.5756L11.3705 32.7613L8.72499 19.8137H5.31641L9.33548 36.6023H10.4038H12.1336H13.0239L16.2798 23.4004L19.5612 36.6023H20.5533H22.1558H23.097L27.1161 19.8137H23.7075Z" fill="black"/>
<path opacity="0.789" d="M23.682 19.8137L21.24 32.8884L18.0095 19.8137H17.1701H15.3895H14.5755L11.3704 32.7613L8.75038 19.8137H5.3418L9.36087 36.6023H10.4292H12.159H13.0238L16.2798 23.4004L19.5612 36.6023H20.5532H22.1558H23.0715L27.0906 19.8137H23.682Z" fill="black"/>
<path opacity="0.8052" d="M23.6565 19.8389L21.2146 32.8627L17.984 19.8389H17.17H15.4149H14.5755L11.3958 32.7355L8.75034 19.8389H5.36719L9.38627 36.5765H10.4292H12.1589H13.0238L16.2797 23.4001L19.5357 36.5765H20.5278H22.1303H23.046L27.0651 19.8389H23.6565Z" fill="black"/>
<path opacity="0.8215" d="M23.6575 19.8638L21.2155 32.8622L17.985 19.8638H17.171H15.4158H14.5764L11.3967 32.735L8.7767 19.8638H5.39355L9.3872 36.5506H10.4556H12.1598H13.0247L16.2807 23.425L19.5366 36.5506H20.5287H22.1312H23.047L27.0406 19.8638H23.6575Z" fill="black"/>
<path opacity="0.8377" d="M23.631 19.8899L21.189 32.8629L17.9839 19.8899H17.17H15.4148H14.5754L11.3957 32.7357L8.80112 19.8899H5.41797L9.41161 36.5258H10.4545H12.1843H13.0491L16.2797 23.4257L19.5356 36.5258H20.5022H22.1048H23.0205L27.0142 19.8899H23.631Z" fill="black"/>
<path opacity="0.8539" d="M23.6065 19.8899L21.19 32.8374L17.9849 19.8899H17.1709H15.4157H14.6017L11.4221 32.7102L8.80205 19.8899H5.44434L9.41254 36.5258H10.4809H12.1852H13.0501L16.2806 23.4511L19.5365 36.5258H20.5032H22.1057H22.996L26.9896 19.8899H23.6065Z" fill="black"/>
<path opacity="0.8702" d="M23.6055 19.915L21.1889 32.8371L17.9839 19.915H17.1699H15.4147H14.6007L11.4211 32.7099L8.82646 19.915H5.46875L9.43695 36.5001H10.4799H12.2096H13.049L16.2796 23.4508L19.5101 36.5001H20.5021H22.0792H22.995L26.9632 19.915H23.6055Z" fill="black"/>
<path opacity="0.8864" d="M23.581 19.9409L21.1644 32.8121L17.9848 19.9409H17.1708H15.4156H14.6016L11.4474 32.685L8.85283 19.9409H5.49512L9.46332 36.4751H10.5062H12.2105H13.0754L16.2805 23.4767L19.511 36.4751H20.4776H22.0802H22.9705L26.9387 19.9409H23.581Z" fill="black"/>
<path opacity="0.9026" d="M23.5555 19.967L21.1644 32.8128L17.9847 19.967H17.1707H15.4156H14.6016L11.4474 32.6856L8.85278 19.967H5.52051L9.46327 36.4503H10.5062H12.2105H13.0754L16.2804 23.4774L19.511 36.4503H20.4776H22.0547H22.9704L26.9132 19.967H23.5555Z" fill="black"/>
<path opacity="0.9189" d="M23.5554 19.967L21.1389 32.8128L17.9593 19.967H17.1453H15.4155H14.6015L11.4728 32.6602L8.87817 19.967H5.5459L9.48866 36.4503H10.5316H12.2359H13.0753L16.2804 23.4774L19.4855 36.4503H20.4521H22.0546H22.9449L26.8877 19.967H23.5554Z" fill="black"/>
<path opacity="0.9351" d="M23.5299 19.9919L21.1389 32.7869L17.9592 19.9919H17.1452H15.4155H14.6015L11.4727 32.6597L8.90356 19.9919H5.57129L9.51405 36.4244H10.5315H12.2358H13.0753L16.2803 23.5023L19.4854 36.4244H20.452H22.0292H22.9195L26.8622 19.9919H23.5299Z" fill="black"/>
<path opacity="0.9513" d="M23.5045 20.0171L21.1134 32.7866L17.9592 20.0171H17.1452H15.4154H14.6014L11.4727 32.6594L8.90352 20.0171H5.59668L9.51401 36.3986H10.5569H12.2358H13.1007L16.2803 23.502L19.4854 36.3986H20.452H22.0291H22.9194L26.8367 20.0171H23.5045Z" fill="black"/>
<path opacity="0.9675" d="M23.5044 20.0422L21.1133 32.7608L17.9591 20.0422H17.1451H15.4154H14.6268L11.4981 32.6337L8.92891 20.0422H5.62207L9.5394 36.3729H10.5569H12.2612H13.1006L16.2803 23.5271L19.4853 36.3729H20.4265H22.0036H22.8939L26.8113 20.0422H23.5044Z" fill="black"/>
<path opacity="0.9838" d="M23.4789 20.0422L21.0878 32.7608L17.9591 20.0422H17.1451H15.4153H14.6268L11.498 32.6337L8.9543 20.0422H5.64746L9.53935 36.3729H10.5823H12.2611H13.1006L16.2802 23.5271L19.4599 36.3729H20.4265H22.0036H22.8939L26.7858 20.0422H23.4789Z" fill="black"/>
<path opacity="0.1" d="M23.4535 20.0681L21.0878 32.7358L17.9591 20.0681H17.1451H15.4153H14.6268L11.5235 32.6087L8.9543 20.0681H5.64746L9.56479 36.3479H10.5823H12.2611H13.126L16.2802 23.553L19.4599 36.3479H20.401H21.9781H22.8684L26.7603 20.0681H23.4535Z" fill="black"/>
</g>
<path d="M23.4535 20.0676L21.0878 32.7354L17.9591 20.0676H17.1451H15.4153H14.6268L11.5235 32.6082L8.9543 20.0676H5.64746L9.56479 36.3474H10.5823H12.2611H13.126L16.2802 23.5525L19.4599 36.3474H20.401H21.9781H22.8684L26.7603 20.0676H23.4535Z" fill="white"/>
<defs>
<linearGradient id="paint0_linear_2_93986" x1="19.5056" y1="23.1703" x2="60.7476" y2="46.9814" gradientUnits="userSpaceOnUse">
<stop stop-color="#365098"/>
<stop offset="0.2456" stop-color="#3A56A1"/>
<stop offset="0.6524" stop-color="#4568BB"/>
<stop offset="0.9944" stop-color="#517AD5"/>
</linearGradient>
<linearGradient id="paint1_linear_2_93986" x1="19.7383" y1="36.504" x2="60.1741" y2="59.8496" gradientUnits="userSpaceOnUse">
<stop stop-color="#223166"/>
<stop offset="0.2044" stop-color="#25366F"/>
<stop offset="0.5441" stop-color="#2E4389"/>
<stop offset="0.975" stop-color="#3D59B2"/>
<stop offset="0.9944" stop-color="#3E5AB4"/>
</linearGradient>
<linearGradient id="paint2_linear_2_93986" x1="19.5685" y1="9.32517" x2="60.6846" y2="33.0636" gradientUnits="userSpaceOnUse">
<stop stop-color="#4267AC"/>
<stop offset="0.2426" stop-color="#466EB5"/>
<stop offset="0.6446" stop-color="#5281CF"/>
<stop offset="0.9944" stop-color="#5F95EA"/>
</linearGradient>
<linearGradient id="paint3_linear_2_93986" x1="20.1352" y1="-3.53044" x2="60.4587" y2="19.7504" gradientUnits="userSpaceOnUse">
<stop stop-color="#4873AC"/>
<stop offset="0.237" stop-color="#4D7AB5"/>
<stop offset="0.6294" stop-color="#598ECF"/>
<stop offset="0.9944" stop-color="#67A5EC"/>
</linearGradient>
<linearGradient id="paint4_linear_2_93986" x1="-1.62307" y1="17.7825" x2="34.0533" y2="38.3802" gradientUnits="userSpaceOnUse">
<stop stop-color="#273762"/>
<stop offset="0.2399" stop-color="#293A6B"/>
<stop offset="0.6372" stop-color="#2F4385"/>
<stop offset="0.9949" stop-color="#364DA1"/>
</linearGradient>
</defs>
</svg>
