<svg width="56" height="56" viewBox="0 0 56 56" fill="none" xmlns="http://www.w3.org/2000/svg">
<circle cx="28" cy="28" r="28" fill="#FFEAE4"/>
<path d="M31.2524 15.2523C30.9634 14.9633 30.8189 14.8187 30.6351 14.7426C30.4514 14.6665 30.247 14.6665 29.8382 14.6665H20C19.2928 14.6665 18.6145 14.9475 18.1144 15.4476C17.6143 15.9476 17.3333 16.6259 17.3333 17.3332V38.6665C17.3333 39.3737 17.6143 40.052 18.1144 40.5521C18.6145 41.0522 19.2928 41.3332 20 41.3332H36C36.7072 41.3332 37.3855 41.0522 37.8856 40.5521C38.3857 40.052 38.6667 39.3737 38.6667 38.6665V23.4949C38.6667 23.0862 38.6667 22.8818 38.5905 22.698C38.5144 22.5143 38.3699 22.3697 38.0809 22.0807L31.2524 15.2523Z" fill="#FFCCBF" stroke="#E75D3B" stroke-width="1.5" stroke-linecap="round" stroke-linejoin="round"/>
<path d="M20.3289 35.612C19.4239 34.707 20.4031 33.4633 23.0605 32.1427L24.7326 31.3117L25.384 29.8864C25.7423 29.1026 26.277 27.8235 26.5723 27.0441L27.1091 25.627L26.7392 24.5783C26.2843 23.2888 26.122 21.351 26.4107 20.6542C26.8016 19.7104 28.0822 19.8073 28.5891 20.819C28.9851 21.6091 28.9446 23.0401 28.4752 24.8447L28.0905 26.3242L28.4294 26.8995C28.6158 27.216 29.1603 27.9673 29.6394 28.5692L30.5398 29.6893L31.6602 29.5431C35.2197 29.0786 36.4388 29.868 36.4388 30.9999C36.4388 32.4284 33.6439 32.5463 31.2969 30.8978C30.7688 30.5269 30.4061 30.1585 30.4061 30.1585C30.4061 30.1585 28.9358 30.4578 28.2119 30.6529C27.4646 30.8543 27.0918 30.9805 25.9972 31.3499C25.9972 31.3499 25.6132 31.9077 25.3629 32.3131C24.4318 33.8216 23.3447 35.0717 22.5683 35.5267C21.6991 36.0361 20.7878 36.0708 20.3289 35.612ZM21.7493 35.1046C22.258 34.7902 23.2877 33.5723 24.0005 32.442L24.2891 31.9843L22.9751 32.645C20.9455 33.6655 20.0171 34.6272 20.4999 35.2089C20.7711 35.5357 21.0956 35.5086 21.7493 35.1046ZM34.9322 31.4043C35.4298 31.0557 35.3575 30.3534 34.795 30.0702C34.3572 29.8498 34.0043 29.8045 32.867 29.8213C32.1681 29.869 31.0442 30.0098 30.8537 30.0527C30.8537 30.0527 31.4711 30.4794 31.7452 30.6362C32.1101 30.8446 32.9969 31.2315 33.6443 31.4297C34.2829 31.6251 34.6523 31.6045 34.9322 31.4042V31.4043ZM29.6315 29.2012C29.3304 28.8846 28.8183 28.2239 28.4936 27.7329C28.0689 27.1759 27.8559 26.783 27.8559 26.783C27.8559 26.783 27.5455 27.7814 27.2909 28.3822L26.4964 30.346L26.266 30.7914C26.266 30.7914 27.4906 30.3899 28.1137 30.2271C28.7736 30.0548 30.113 29.7914 30.113 29.7914L29.6315 29.2012ZM27.9233 22.3508C28.0001 21.7062 28.0327 21.0626 27.8256 20.738C27.2511 20.11 26.5578 20.6337 26.6752 22.1267C26.7147 22.629 26.8395 23.4876 27.0063 24.0168L27.3096 24.9789L27.5231 24.2543C27.6405 23.8557 27.8206 22.9991 27.9233 22.3508Z" fill="#E75D3B"/>
</svg>
