<svg width="56" height="56" viewBox="0 0 56 56" fill="none" xmlns="http://www.w3.org/2000/svg">
<circle cx="28" cy="28" r="28" fill="#E3F8FF"/>
<rect x="22.5" y="17" width="18" height="23" rx="1" fill="#F9FDFF" stroke="#1CAEE4" stroke-width="1.5"/>
<path d="M16 16.8755V39.1245C16 39.6257 16.371 40.0495 16.8678 40.1157L29.8678 41.849C30.4673 41.929 31 41.4626 31 40.8578V15.1422C31 14.5374 30.4673 14.071 29.8678 14.151L16.8678 15.8843C16.371 15.9505 16 16.3743 16 16.8755Z" fill="#CAF2FF" stroke="#1CAEE4" stroke-width="1.5"/>
<path d="M23.48 23.6101C24.3408 23.5512 25.1947 23.7992 25.89 24.3101C26.1689 24.5603 26.3881 24.8699 26.5318 25.216C26.6754 25.562 26.7397 25.9359 26.72 26.3101C26.737 26.8461 26.5964 27.3753 26.3155 27.8321C26.0347 28.2889 25.626 28.6533 25.14 28.8801C24.5848 29.1333 23.9802 29.2597 23.37 29.2501H21.71V32.3501H20V23.6101H23.48ZM21.7 27.9401H23.18C23.6453 27.9774 24.1081 27.8421 24.48 27.5601C24.6319 27.4135 24.75 27.2356 24.826 27.0387C24.9019 26.8418 24.934 26.6307 24.92 26.4201C24.92 25.4201 24.36 24.9701 23.23 24.9701H21.71L21.7 27.9401Z" fill="#1CAEE4"/>
</svg>
