<svg width="125" height="32" viewBox="0 0 125 32" fill="none" xmlns="http://www.w3.org/2000/svg">
<path d="M51.5195 20L50.5215 17.2246H46.7002L45.7227 20H44L47.7393 9.96484H49.5166L53.2559 20H51.5195ZM50.0908 15.8164L49.1543 13.0957C49.0859 12.9134 48.9902 12.6263 48.8672 12.2344C48.7487 11.8424 48.6667 11.5553 48.6211 11.373C48.498 11.9336 48.318 12.5465 48.0811 13.2119L47.1787 15.8164H50.0908ZM59.4834 17.8467C59.4834 18.585 59.2145 19.1523 58.6768 19.5488C58.139 19.9408 57.3688 20.1367 56.3662 20.1367C55.359 20.1367 54.5501 19.984 53.9395 19.6787V18.291C54.8281 18.7012 55.6553 18.9062 56.4209 18.9062C57.4098 18.9062 57.9043 18.6077 57.9043 18.0107C57.9043 17.8193 57.8496 17.6598 57.7402 17.5322C57.6309 17.4046 57.4508 17.2725 57.2002 17.1357C56.9495 16.999 56.6009 16.8441 56.1543 16.6709C55.2839 16.3337 54.6937 15.9964 54.3838 15.6592C54.0785 15.3219 53.9258 14.8844 53.9258 14.3467C53.9258 13.6995 54.1855 13.1982 54.7051 12.8428C55.2292 12.4827 55.9401 12.3027 56.8379 12.3027C57.7266 12.3027 58.5674 12.4827 59.3604 12.8428L58.8408 14.0527C58.0251 13.7155 57.3392 13.5469 56.7832 13.5469C55.9355 13.5469 55.5117 13.7884 55.5117 14.2715C55.5117 14.5085 55.6211 14.709 55.8398 14.873C56.0632 15.0371 56.5462 15.2627 57.2891 15.5498C57.9134 15.7913 58.3669 16.0124 58.6494 16.2129C58.932 16.4134 59.1416 16.6458 59.2783 16.9102C59.415 17.1699 59.4834 17.4821 59.4834 17.8467ZM66.3057 17.8467C66.3057 18.585 66.0368 19.1523 65.499 19.5488C64.9613 19.9408 64.1911 20.1367 63.1885 20.1367C62.1813 20.1367 61.3724 19.984 60.7617 19.6787V18.291C61.6504 18.7012 62.4775 18.9062 63.2432 18.9062C64.2321 18.9062 64.7266 18.6077 64.7266 18.0107C64.7266 17.8193 64.6719 17.6598 64.5625 17.5322C64.4531 17.4046 64.2731 17.2725 64.0225 17.1357C63.7718 16.999 63.4232 16.8441 62.9766 16.6709C62.1061 16.3337 61.516 15.9964 61.2061 15.6592C60.9007 15.3219 60.748 14.8844 60.748 14.3467C60.748 13.6995 61.0078 13.1982 61.5273 12.8428C62.0514 12.4827 62.7624 12.3027 63.6602 12.3027C64.5488 12.3027 65.3896 12.4827 66.1826 12.8428L65.6631 14.0527C64.8473 13.7155 64.1615 13.5469 63.6055 13.5469C62.7578 13.5469 62.334 13.7884 62.334 14.2715C62.334 14.5085 62.4434 14.709 62.6621 14.873C62.8854 15.0371 63.3685 15.2627 64.1113 15.5498C64.7357 15.7913 65.1891 16.0124 65.4717 16.2129C65.7542 16.4134 65.9639 16.6458 66.1006 16.9102C66.2373 17.1699 66.3057 17.4821 66.3057 17.8467ZM71.3506 20.1367C70.1748 20.1367 69.2542 19.7949 68.5889 19.1113C67.9281 18.4232 67.5977 17.4775 67.5977 16.2744C67.5977 15.0394 67.9053 14.0687 68.5205 13.3623C69.1357 12.6559 69.9811 12.3027 71.0566 12.3027C72.0547 12.3027 72.8431 12.6058 73.4219 13.2119C74.0007 13.818 74.29 14.652 74.29 15.7139V16.582H69.252C69.2747 17.3158 69.473 17.8809 69.8467 18.2773C70.2204 18.6693 70.7467 18.8652 71.4258 18.8652C71.8724 18.8652 72.2871 18.8242 72.6699 18.7422C73.0573 18.6556 73.472 18.5143 73.9141 18.3184V19.624C73.5221 19.8109 73.1257 19.943 72.7246 20.0205C72.3236 20.098 71.8656 20.1367 71.3506 20.1367ZM71.0566 13.5195C70.5462 13.5195 70.1361 13.6813 69.8262 14.0049C69.5208 14.3285 69.3385 14.8001 69.2793 15.4199H72.7109C72.7018 14.7956 72.5514 14.3239 72.2598 14.0049C71.9681 13.6813 71.5671 13.5195 71.0566 13.5195ZM81.1943 17.8467C81.1943 18.585 80.9255 19.1523 80.3877 19.5488C79.8499 19.9408 79.0798 20.1367 78.0771 20.1367C77.07 20.1367 76.2611 19.984 75.6504 19.6787V18.291C76.5391 18.7012 77.3662 18.9062 78.1318 18.9062C79.1208 18.9062 79.6152 18.6077 79.6152 18.0107C79.6152 17.8193 79.5605 17.6598 79.4512 17.5322C79.3418 17.4046 79.1618 17.2725 78.9111 17.1357C78.6605 16.999 78.3118 16.8441 77.8652 16.6709C76.9948 16.3337 76.4046 15.9964 76.0947 15.6592C75.7894 15.3219 75.6367 14.8844 75.6367 14.3467C75.6367 13.6995 75.8965 13.1982 76.416 12.8428C76.9401 12.4827 77.651 12.3027 78.5488 12.3027C79.4375 12.3027 80.2783 12.4827 81.0713 12.8428L80.5518 14.0527C79.736 13.7155 79.0501 13.5469 78.4941 13.5469C77.6465 13.5469 77.2227 13.7884 77.2227 14.2715C77.2227 14.5085 77.332 14.709 77.5508 14.873C77.7741 15.0371 78.2572 15.2627 79 15.5498C79.6243 15.7913 80.0778 16.0124 80.3604 16.2129C80.6429 16.4134 80.8525 16.6458 80.9893 16.9102C81.126 17.1699 81.1943 17.4821 81.1943 17.8467ZM88.0166 17.8467C88.0166 18.585 87.7477 19.1523 87.21 19.5488C86.6722 19.9408 85.902 20.1367 84.8994 20.1367C83.8923 20.1367 83.0833 19.984 82.4727 19.6787V18.291C83.3613 18.7012 84.1885 18.9062 84.9541 18.9062C85.943 18.9062 86.4375 18.6077 86.4375 18.0107C86.4375 17.8193 86.3828 17.6598 86.2734 17.5322C86.1641 17.4046 85.984 17.2725 85.7334 17.1357C85.4827 16.999 85.1341 16.8441 84.6875 16.6709C83.8171 16.3337 83.2269 15.9964 82.917 15.6592C82.6117 15.3219 82.459 14.8844 82.459 14.3467C82.459 13.6995 82.7188 13.1982 83.2383 12.8428C83.7624 12.4827 84.4733 12.3027 85.3711 12.3027C86.2598 12.3027 87.1006 12.4827 87.8936 12.8428L87.374 14.0527C86.5583 13.7155 85.8724 13.5469 85.3164 13.5469C84.4688 13.5469 84.0449 13.7884 84.0449 14.2715C84.0449 14.5085 84.1543 14.709 84.373 14.873C84.5964 15.0371 85.0794 15.2627 85.8223 15.5498C86.4466 15.7913 86.9001 16.0124 87.1826 16.2129C87.4652 16.4134 87.6748 16.6458 87.8115 16.9102C87.9482 17.1699 88.0166 17.4821 88.0166 17.8467ZM96.1309 20H94.5176V15.3379C94.5176 14.7591 94.4082 14.3285 94.1895 14.0459C93.9707 13.7588 93.6289 13.6152 93.1641 13.6152C92.5443 13.6152 92.0885 13.818 91.7969 14.2236C91.5098 14.6247 91.3662 15.2946 91.3662 16.2334V20H89.7598V12.4395H91.0176L91.2432 13.4307H91.3252C91.5348 13.0706 91.8379 12.7926 92.2344 12.5967C92.6354 12.4007 93.0752 12.3027 93.5537 12.3027C94.7158 12.3027 95.486 12.6992 95.8643 13.4922H95.9736C96.1969 13.1185 96.5114 12.8268 96.917 12.6172C97.3226 12.4076 97.7874 12.3027 98.3115 12.3027C99.2139 12.3027 99.8701 12.5306 100.28 12.9863C100.695 13.4421 100.902 14.137 100.902 15.0713V20H99.2959V15.3379C99.2959 14.7591 99.1842 14.3285 98.9609 14.0459C98.7422 13.7588 98.4004 13.6152 97.9355 13.6152C97.3112 13.6152 96.8532 13.8112 96.5615 14.2031C96.2744 14.5905 96.1309 15.1875 96.1309 15.9941V20ZM106.446 20.1367C105.271 20.1367 104.35 19.7949 103.685 19.1113C103.024 18.4232 102.693 17.4775 102.693 16.2744C102.693 15.0394 103.001 14.0687 103.616 13.3623C104.231 12.6559 105.077 12.3027 106.152 12.3027C107.15 12.3027 107.939 12.6058 108.518 13.2119C109.096 13.818 109.386 14.652 109.386 15.7139V16.582H104.348C104.37 17.3158 104.569 17.8809 104.942 18.2773C105.316 18.6693 105.842 18.8652 106.521 18.8652C106.968 18.8652 107.383 18.8242 107.766 18.7422C108.153 18.6556 108.568 18.5143 109.01 18.3184V19.624C108.618 19.8109 108.221 19.943 107.82 20.0205C107.419 20.098 106.961 20.1367 106.446 20.1367ZM106.152 13.5195C105.642 13.5195 105.232 13.6813 104.922 14.0049C104.617 14.3285 104.434 14.8001 104.375 15.4199H107.807C107.798 14.7956 107.647 14.3239 107.355 14.0049C107.064 13.6813 106.663 13.5195 106.152 13.5195ZM117.862 20H116.249V15.3516C116.249 14.7682 116.131 14.333 115.894 14.0459C115.661 13.7588 115.29 13.6152 114.779 13.6152C114.1 13.6152 113.604 13.8158 113.289 14.2168C112.975 14.6178 112.817 15.29 112.817 16.2334V20H111.211V12.4395H112.469L112.694 13.4307H112.776C113.004 13.0706 113.328 12.7926 113.747 12.5967C114.166 12.4007 114.631 12.3027 115.142 12.3027C116.955 12.3027 117.862 13.2256 117.862 15.0713V20ZM122.914 18.8379C123.306 18.8379 123.698 18.7764 124.09 18.6533V19.8633C123.912 19.9408 123.682 20.0046 123.399 20.0547C123.121 20.1094 122.832 20.1367 122.531 20.1367C121.009 20.1367 120.248 19.3346 120.248 17.7305V13.6562H119.216V12.9453L120.323 12.3574L120.87 10.7578H121.861V12.4395H124.015V13.6562H121.861V17.7031C121.861 18.0905 121.957 18.3776 122.148 18.5645C122.344 18.7467 122.6 18.8379 122.914 18.8379Z" fill="#7D5CCE"/>
<circle cx="16" cy="16" r="16" fill="#F4EFFF"/>
<g clip-path="url(#clip0_2_81907)">
<path d="M17.5238 8.38086H11.4286C11.0245 8.38086 10.6369 8.5414 10.3511 8.82717C10.0653 9.11294 9.90479 9.50053 9.90479 9.90467V22.0951C9.90479 22.4993 10.0653 22.8869 10.3511 23.1726C10.6369 23.4584 11.0245 23.619 11.4286 23.619H20.5715C20.9756 23.619 21.3632 23.4584 21.6489 23.1726C21.9347 22.8869 22.0953 22.4993 22.0953 22.0951V12.9523L17.5238 8.38086Z" fill="#DACAFF" stroke="#7D5CCE" stroke-width="0.857143" stroke-linecap="round" stroke-linejoin="round"/>
<path d="M17.5238 8.38086V12.9523H22.0952" stroke="#7D5CCE" stroke-width="0.857143" stroke-linecap="round" stroke-linejoin="round"/>
<path d="M19.0476 16.7617H12.9524" stroke="#7D5CCE" stroke-width="0.857143" stroke-linecap="round" stroke-linejoin="round"/>
<path d="M19.0476 19.8091H12.9524" stroke="#7D5CCE" stroke-width="0.857143" stroke-linecap="round" stroke-linejoin="round"/>
<path d="M14.4762 13.7139H13.7143H12.9524" stroke="#7D5CCE" stroke-width="0.857143" stroke-linecap="round" stroke-linejoin="round"/>
<circle cx="20.8571" cy="20.857" r="4.28571" fill="#E9E0FF"/>
<path d="M22.0715 18.4632C22.1277 18.4069 22.1946 18.3622 22.2681 18.3318C22.3416 18.3013 22.4204 18.2856 22.5 18.2856C22.5796 18.2856 22.6584 18.3013 22.732 18.3318C22.8055 18.3622 22.8723 18.4069 22.9286 18.4632C22.9849 18.5194 23.0295 18.5863 23.06 18.6598C23.0904 18.7333 23.1061 18.8121 23.1061 18.8917C23.1061 18.9713 23.0904 19.0501 23.06 19.1237C23.0295 19.1972 22.9849 19.264 22.9286 19.3203L20.0357 22.2132L18.8572 22.5346L19.1786 21.356L22.0715 18.4632Z" stroke="#7D5CCE" stroke-width="0.571429" stroke-linecap="round" stroke-linejoin="round"/>
</g>
<defs>
<clipPath id="clip0_2_81907">
<rect width="18.2857" height="18.2857" fill="white" transform="translate(6.85718 6.85693)"/>
</clipPath>
</defs>
</svg>
