<svg width="80" height="85" viewBox="0 0 80 85" fill="none" xmlns="http://www.w3.org/2000/svg">
<path d="M7.85059 80L6.85254 77.2246H3.03125L2.05371 80H0.331055L4.07031 69.9648H5.84766L9.58691 80H7.85059ZM6.42188 75.8164L5.48535 73.0957C5.41699 72.9134 5.32129 72.6263 5.19824 72.2344C5.07975 71.8424 4.99772 71.5553 4.95215 71.373C4.8291 71.9336 4.64909 72.5465 4.41211 73.2119L3.50977 75.8164H6.42188ZM15.8145 77.8467C15.8145 78.585 15.5456 79.1523 15.0078 79.5488C14.4701 79.9408 13.6999 80.1367 12.6973 80.1367C11.6901 80.1367 10.8812 79.984 10.2705 79.6787V78.291C11.1592 78.7012 11.9863 78.9062 12.752 78.9062C13.7409 78.9062 14.2354 78.6077 14.2354 78.0107C14.2354 77.8193 14.1807 77.6598 14.0713 77.5322C13.9619 77.4046 13.7819 77.2725 13.5312 77.1357C13.2806 76.999 12.932 76.8441 12.4854 76.6709C11.6149 76.3337 11.0247 75.9964 10.7148 75.6592C10.4095 75.3219 10.2568 74.8844 10.2568 74.3467C10.2568 73.6995 10.5166 73.1982 11.0361 72.8428C11.5602 72.4827 12.2712 72.3027 13.1689 72.3027C14.0576 72.3027 14.8984 72.4827 15.6914 72.8428L15.1719 74.0527C14.3561 73.7155 13.6702 73.5469 13.1143 73.5469C12.2666 73.5469 11.8428 73.7884 11.8428 74.2715C11.8428 74.5085 11.9521 74.709 12.1709 74.873C12.3942 75.0371 12.8773 75.2627 13.6201 75.5498C14.2445 75.7913 14.6979 76.0124 14.9805 76.2129C15.263 76.4134 15.4727 76.6458 15.6094 76.9102C15.7461 77.1699 15.8145 77.4821 15.8145 77.8467ZM22.6367 77.8467C22.6367 78.585 22.3678 79.1523 21.8301 79.5488C21.2923 79.9408 20.5221 80.1367 19.5195 80.1367C18.5124 80.1367 17.7035 79.984 17.0928 79.6787V78.291C17.9814 78.7012 18.8086 78.9062 19.5742 78.9062C20.5632 78.9062 21.0576 78.6077 21.0576 78.0107C21.0576 77.8193 21.0029 77.6598 20.8936 77.5322C20.7842 77.4046 20.6042 77.2725 20.3535 77.1357C20.1029 76.999 19.7542 76.8441 19.3076 76.6709C18.4372 76.3337 17.847 75.9964 17.5371 75.6592C17.2318 75.3219 17.0791 74.8844 17.0791 74.3467C17.0791 73.6995 17.3389 73.1982 17.8584 72.8428C18.3825 72.4827 19.0934 72.3027 19.9912 72.3027C20.8799 72.3027 21.7207 72.4827 22.5137 72.8428L21.9941 74.0527C21.1784 73.7155 20.4925 73.5469 19.9365 73.5469C19.0889 73.5469 18.665 73.7884 18.665 74.2715C18.665 74.5085 18.7744 74.709 18.9932 74.873C19.2165 75.0371 19.6995 75.2627 20.4424 75.5498C21.0667 75.7913 21.5202 76.0124 21.8027 76.2129C22.0853 76.4134 22.2949 76.6458 22.4316 76.9102C22.5684 77.1699 22.6367 77.4821 22.6367 77.8467ZM25.9863 80H24.3799V72.4395H25.9863V80ZM24.2842 70.4365C24.2842 70.1494 24.3617 69.9284 24.5166 69.7734C24.6761 69.6185 24.9017 69.541 25.1934 69.541C25.4759 69.541 25.6947 69.6185 25.8496 69.7734C26.0091 69.9284 26.0889 70.1494 26.0889 70.4365C26.0889 70.71 26.0091 70.9264 25.8496 71.0859C25.6947 71.2409 25.4759 71.3184 25.1934 71.3184C24.9017 71.3184 24.6761 71.2409 24.5166 71.0859C24.3617 70.9264 24.2842 70.71 24.2842 70.4365ZM34.6748 72.4395V73.3213L33.3828 73.5605C33.5013 73.7201 33.5993 73.916 33.6768 74.1484C33.7542 74.3809 33.793 74.627 33.793 74.8867C33.793 75.666 33.5241 76.279 32.9863 76.7256C32.4486 77.1722 31.708 77.3955 30.7646 77.3955C30.5231 77.3955 30.3044 77.3773 30.1084 77.3408C29.762 77.555 29.5889 77.8057 29.5889 78.0928C29.5889 78.266 29.6686 78.3958 29.8281 78.4824C29.9922 78.569 30.2907 78.6123 30.7236 78.6123H32.043C32.877 78.6123 33.5104 78.79 33.9434 79.1455C34.3763 79.501 34.5928 80.0137 34.5928 80.6836C34.5928 81.5404 34.2396 82.2012 33.5332 82.666C32.8268 83.1309 31.806 83.3633 30.4707 83.3633C29.4408 83.3633 28.6546 83.181 28.1123 82.8164C27.57 82.4518 27.2988 81.9323 27.2988 81.2578C27.2988 80.793 27.4447 80.401 27.7363 80.082C28.0326 79.7676 28.445 79.5488 28.9736 79.4258C28.7594 79.3346 28.5817 79.1888 28.4404 78.9883C28.3037 78.7832 28.2354 78.569 28.2354 78.3457C28.2354 78.0632 28.3151 77.8239 28.4746 77.6279C28.6341 77.432 28.8711 77.2383 29.1855 77.0469C28.7936 76.8783 28.4746 76.6048 28.2285 76.2266C27.987 75.8438 27.8662 75.3971 27.8662 74.8867C27.8662 74.0664 28.1237 73.4307 28.6387 72.9795C29.1582 72.5283 29.8965 72.3027 30.8535 72.3027C31.0677 72.3027 31.291 72.3187 31.5234 72.3506C31.7604 72.3779 31.9382 72.4076 32.0566 72.4395H34.6748ZM28.7344 81.1758C28.7344 81.5221 28.8893 81.7887 29.1992 81.9756C29.5137 82.1624 29.9535 82.2559 30.5186 82.2559C31.3936 82.2559 32.0452 82.1305 32.4736 81.8799C32.902 81.6292 33.1162 81.2965 33.1162 80.8818C33.1162 80.5537 32.9977 80.319 32.7607 80.1777C32.5283 80.041 32.0931 79.9727 31.4551 79.9727H30.2383C29.778 79.9727 29.4111 80.0798 29.1377 80.2939C28.8688 80.5127 28.7344 80.8066 28.7344 81.1758ZM29.4248 74.8867C29.4248 75.3607 29.5456 75.7253 29.7871 75.9805C30.0332 76.2357 30.3841 76.3633 30.8398 76.3633C31.7695 76.3633 32.2344 75.8665 32.2344 74.873C32.2344 74.3809 32.1182 74.0026 31.8857 73.7383C31.6579 73.4694 31.3092 73.335 30.8398 73.335C30.375 73.335 30.0218 73.4671 29.7803 73.7314C29.5433 73.9958 29.4248 74.3809 29.4248 74.8867ZM42.7344 80H41.1211V75.3516C41.1211 74.7682 41.0026 74.333 40.7656 74.0459C40.5332 73.7588 40.1618 73.6152 39.6514 73.6152C38.9723 73.6152 38.4756 73.8158 38.1611 74.2168C37.8467 74.6178 37.6895 75.29 37.6895 76.2334V80H36.083V72.4395H37.3408L37.5664 73.4307H37.6484C37.8763 73.0706 38.1999 72.7926 38.6191 72.5967C39.0384 72.4007 39.5033 72.3027 40.0137 72.3027C41.8275 72.3027 42.7344 73.2256 42.7344 75.0713V80ZM51.3408 80H49.7275V75.3379C49.7275 74.7591 49.6182 74.3285 49.3994 74.0459C49.1807 73.7588 48.8389 73.6152 48.374 73.6152C47.7542 73.6152 47.2985 73.818 47.0068 74.2236C46.7197 74.6247 46.5762 75.2946 46.5762 76.2334V80H44.9697V72.4395H46.2275L46.4531 73.4307H46.5352C46.7448 73.0706 47.0479 72.7926 47.4443 72.5967C47.8454 72.4007 48.2852 72.3027 48.7637 72.3027C49.9258 72.3027 50.696 72.6992 51.0742 73.4922H51.1836C51.4069 73.1185 51.7214 72.8268 52.127 72.6172C52.5326 72.4076 52.9974 72.3027 53.5215 72.3027C54.4238 72.3027 55.0801 72.5306 55.4902 72.9863C55.9049 73.4421 56.1123 74.137 56.1123 75.0713V80H54.5059V75.3379C54.5059 74.7591 54.3942 74.3285 54.1709 74.0459C53.9521 73.7588 53.6104 73.6152 53.1455 73.6152C52.5212 73.6152 52.0632 73.8112 51.7715 74.2031C51.4844 74.5905 51.3408 75.1875 51.3408 75.9941V80ZM61.6562 80.1367C60.4805 80.1367 59.5599 79.7949 58.8945 79.1113C58.2337 78.4232 57.9033 77.4775 57.9033 76.2744C57.9033 75.0394 58.2109 74.0687 58.8262 73.3623C59.4414 72.6559 60.2868 72.3027 61.3623 72.3027C62.3604 72.3027 63.1488 72.6058 63.7275 73.2119C64.3063 73.818 64.5957 74.652 64.5957 75.7139V76.582H59.5576C59.5804 77.3158 59.7786 77.8809 60.1523 78.2773C60.526 78.6693 61.0524 78.8652 61.7314 78.8652C62.1781 78.8652 62.5928 78.8242 62.9756 78.7422C63.363 78.6556 63.7777 78.5143 64.2197 78.3184V79.624C63.8278 79.8109 63.4313 79.943 63.0303 80.0205C62.6292 80.098 62.1712 80.1367 61.6562 80.1367ZM61.3623 73.5195C60.8519 73.5195 60.4417 73.6813 60.1318 74.0049C59.8265 74.3285 59.6442 74.8001 59.585 75.4199H63.0166C63.0075 74.7956 62.8571 74.3239 62.5654 74.0049C62.2738 73.6813 61.8727 73.5195 61.3623 73.5195ZM73.0723 80H71.459V75.3516C71.459 74.7682 71.3405 74.333 71.1035 74.0459C70.8711 73.7588 70.4997 73.6152 69.9893 73.6152C69.3102 73.6152 68.8135 73.8158 68.499 74.2168C68.1846 74.6178 68.0273 75.29 68.0273 76.2334V80H66.4209V72.4395H67.6787L67.9043 73.4307H67.9863C68.2142 73.0706 68.5378 72.7926 68.957 72.5967C69.3763 72.4007 69.8411 72.3027 70.3516 72.3027C72.1654 72.3027 73.0723 73.2256 73.0723 75.0713V80ZM78.124 78.8379C78.516 78.8379 78.9079 78.7764 79.2998 78.6533V79.8633C79.1221 79.9408 78.8919 80.0046 78.6094 80.0547C78.3314 80.1094 78.042 80.1367 77.7412 80.1367C76.2191 80.1367 75.458 79.3346 75.458 77.7305V73.6562H74.4258V72.9453L75.5332 72.3574L76.0801 70.7578H77.0713V72.4395H79.2246V73.6562H77.0713V77.7031C77.0713 78.0905 77.167 78.3776 77.3584 78.5645C77.5544 78.7467 77.8096 78.8379 78.124 78.8379Z" fill="#505F79"/>
<circle cx="40" cy="28" r="28" fill="#E7F8FF"/>
<path d="M42.6666 14.6665H31.9999C31.2927 14.6665 30.6144 14.9475 30.1143 15.4476C29.6142 15.9476 29.3333 16.6259 29.3333 17.3332V38.6665C29.3333 39.3737 29.6142 40.052 30.1143 40.5521C30.6144 41.0522 31.2927 41.3332 31.9999 41.3332H47.9999C48.7072 41.3332 49.3854 41.0522 49.8855 40.5521C50.3856 40.052 50.6666 39.3737 50.6666 38.6665V22.6665L42.6666 14.6665Z" fill="#9EE4FF" stroke="#039AD2" stroke-width="1.5" stroke-linecap="round" stroke-linejoin="round"/>
<path d="M42.6667 14.6665V22.6665H50.6667" stroke="#039AD2" stroke-width="1.5" stroke-linecap="round" stroke-linejoin="round"/>
<circle cx="48.5" cy="36.5" r="7.5" fill="#D0F2FF"/>
<path d="M50.625 32.3107C50.7235 32.2122 50.8404 32.134 50.9691 32.0807C51.0978 32.0274 51.2357 32 51.375 32C51.5143 32 51.6522 32.0274 51.7809 32.0807C51.9096 32.134 52.0265 32.2122 52.125 32.3107C52.2235 32.4092 52.3016 32.5261 52.3549 32.6548C52.4082 32.7834 52.4357 32.9214 52.4357 33.0607C52.4357 33.1999 52.4082 33.3379 52.3549 33.4666C52.3016 33.5952 52.2235 33.7122 52.125 33.8107L47.0625 38.8732L45 39.4357L45.5625 37.3732L50.625 32.3107Z" stroke="#039AD2" stroke-linecap="round" stroke-linejoin="round"/>
</svg>
