<svg width="9" height="14" viewBox="0 0 9 14" fill="none" xmlns="http://www.w3.org/2000/svg">
    <path
        d="M3.03748 4.83027V9.68629C3.04357 10.0414 3.20097 10.38 3.47572 10.6292C3.75047 10.8783 4.12053 11.0179 4.50605 11.0179C4.89156 11.0179 5.26163 10.8783 5.53637 10.6292C5.81112 10.38 5.96852 10.0414 5.97461 9.68629L5.97937 3.32131C5.98337 3.01781 5.92193 2.71659 5.79861 2.43512C5.6753 2.15366 5.49256 1.89754 5.26099 1.68161C5.02942 1.46569 4.75363 1.29426 4.4496 1.17725C4.14558 1.06025 3.81936 1 3.48987 1C3.16038 1 2.83416 1.06025 2.53014 1.17725C2.22611 1.29426 1.95032 1.46569 1.71875 1.68161C1.48718 1.89754 1.30444 2.15366 1.18113 2.43512C1.05781 2.71659 0.996369 3.01781 1.00037 3.32131V9.72916C0.993654 10.1565 1.07921 10.5807 1.25208 10.9773C1.42494 11.3738 1.68165 11.7348 2.00728 12.0391C2.33292 12.3435 2.72099 12.5851 3.14892 12.7501C3.57685 12.9151 4.03611 13 4.5 13C4.96389 13 5.42315 12.9151 5.85108 12.7501C6.27901 12.5851 6.66708 12.3435 6.99272 12.0391C7.31835 11.7348 7.57506 11.3738 7.74792 10.9773C7.92079 10.5807 8.00635 10.1565 7.99963 9.72916V3.74125"
        stroke="#A2A2A2" stroke-miterlimit="10" stroke-linecap="round" />
</svg>