<svg width="56" height="85" viewBox="0 0 56 85" fill="none" xmlns="http://www.w3.org/2000/svg">
<path d="M8.72266 70.0059H11.6895C13.0658 70.0059 14.0592 70.2064 14.6699 70.6074C15.2852 71.0085 15.5928 71.6419 15.5928 72.5078C15.5928 73.0911 15.4424 73.5765 15.1416 73.9639C14.8408 74.3512 14.4079 74.5951 13.8428 74.6953V74.7637C14.5446 74.8958 15.0596 75.1579 15.3877 75.5498C15.7204 75.9372 15.8867 76.4635 15.8867 77.1289C15.8867 78.0267 15.5723 78.7308 14.9434 79.2412C14.319 79.7471 13.4486 80 12.332 80H8.72266V70.0059ZM10.3564 74.1348H11.9287C12.6123 74.1348 13.1113 74.0277 13.4258 73.8135C13.7402 73.5947 13.8975 73.2256 13.8975 72.7061C13.8975 72.2367 13.7266 71.8971 13.3848 71.6875C13.0475 71.4779 12.5098 71.373 11.7715 71.373H10.3564V74.1348ZM10.3564 75.4609V78.626H12.0928C12.7764 78.626 13.2913 78.4961 13.6377 78.2363C13.9886 77.972 14.1641 77.5573 14.1641 76.9922C14.1641 76.4727 13.9863 76.0876 13.6309 75.8369C13.2754 75.5863 12.7354 75.4609 12.0107 75.4609H10.3564ZM24.5 76.2061C24.5 77.4411 24.1833 78.4049 23.5498 79.0977C22.9163 79.7904 22.0345 80.1367 20.9043 80.1367C20.1979 80.1367 19.5736 79.9772 19.0312 79.6582C18.4889 79.3392 18.0719 78.8812 17.7803 78.2842C17.4886 77.6872 17.3428 76.9945 17.3428 76.2061C17.3428 74.9801 17.6572 74.0231 18.2861 73.335C18.915 72.6468 19.8014 72.3027 20.9453 72.3027C22.0391 72.3027 22.9049 72.6559 23.543 73.3623C24.181 74.0641 24.5 75.012 24.5 76.2061ZM18.9971 76.2061C18.9971 77.9515 19.6419 78.8242 20.9316 78.8242C22.2077 78.8242 22.8457 77.9515 22.8457 76.2061C22.8457 74.4788 22.2031 73.6152 20.918 73.6152C20.2435 73.6152 19.7536 73.8385 19.4482 74.2852C19.1475 74.7318 18.9971 75.3721 18.9971 76.2061ZM33.0586 76.2061C33.0586 77.4411 32.7419 78.4049 32.1084 79.0977C31.4749 79.7904 30.5931 80.1367 29.4629 80.1367C28.7565 80.1367 28.1322 79.9772 27.5898 79.6582C27.0475 79.3392 26.6305 78.8812 26.3389 78.2842C26.0472 77.6872 25.9014 76.9945 25.9014 76.2061C25.9014 74.9801 26.2158 74.0231 26.8447 73.335C27.4736 72.6468 28.36 72.3027 29.5039 72.3027C30.5977 72.3027 31.4635 72.6559 32.1016 73.3623C32.7396 74.0641 33.0586 75.012 33.0586 76.2061ZM27.5557 76.2061C27.5557 77.9515 28.2005 78.8242 29.4902 78.8242C30.7663 78.8242 31.4043 77.9515 31.4043 76.2061C31.4043 74.4788 30.7617 73.6152 29.4766 73.6152C28.8021 73.6152 28.3122 73.8385 28.0068 74.2852C27.7061 74.7318 27.5557 75.3721 27.5557 76.2061ZM36.4629 76.0078L37.3721 74.873L39.6553 72.4395H41.5078L38.4658 75.6865L41.6992 80H39.8125L37.3857 76.6846L36.5039 77.4092V80H34.9111V69.3633H36.5039V74.5518L36.4219 76.0078H36.4629ZM48.002 77.8467C48.002 78.585 47.7331 79.1523 47.1953 79.5488C46.6576 79.9408 45.8874 80.1367 44.8848 80.1367C43.8776 80.1367 43.0687 79.984 42.458 79.6787V78.291C43.3467 78.7012 44.1738 78.9062 44.9395 78.9062C45.9284 78.9062 46.4229 78.6077 46.4229 78.0107C46.4229 77.8193 46.3682 77.6598 46.2588 77.5322C46.1494 77.4046 45.9694 77.2725 45.7188 77.1357C45.4681 76.999 45.1195 76.8441 44.6729 76.6709C43.8024 76.3337 43.2122 75.9964 42.9023 75.6592C42.597 75.3219 42.4443 74.8844 42.4443 74.3467C42.4443 73.6995 42.7041 73.1982 43.2236 72.8428C43.7477 72.4827 44.4587 72.3027 45.3564 72.3027C46.2451 72.3027 47.0859 72.4827 47.8789 72.8428L47.3594 74.0527C46.5436 73.7155 45.8577 73.5469 45.3018 73.5469C44.4541 73.5469 44.0303 73.7884 44.0303 74.2715C44.0303 74.5085 44.1396 74.709 44.3584 74.873C44.5817 75.0371 45.0648 75.2627 45.8076 75.5498C46.432 75.7913 46.8854 76.0124 47.168 76.2129C47.4505 76.4134 47.6602 76.6458 47.7969 76.9102C47.9336 77.1699 48.002 77.4821 48.002 77.8467Z" fill="#505F79"/>
<circle cx="28" cy="28" r="28" fill="#FFEEFA"/>
<path d="M14.6666 16H22.6666C24.0811 16 25.4377 16.5619 26.4379 17.5621C27.4381 18.5623 28 19.9188 28 21.3333V40C28 38.9391 27.5785 37.9217 26.8284 37.1716C26.0782 36.4214 25.0608 36 24 36H14.6666V16Z" fill="#FDC8EF" stroke="#F141C3" stroke-width="1.5" stroke-linecap="round" stroke-linejoin="round"/>
<path d="M41.3333 16H33.3333C31.9188 16 30.5623 16.5619 29.5621 17.5621C28.5619 18.5623 28 19.9188 28 21.3333V40C28 38.9391 28.4214 37.9217 29.1716 37.1716C29.9217 36.4214 30.9391 36 32 36H41.3333V16Z" fill="#FDC8EF" stroke="#F141C3" stroke-width="1.5" stroke-linecap="round" stroke-linejoin="round"/>
</svg>
