<svg width="41" height="41" viewBox="0 0 41 41" fill="none" xmlns="http://www.w3.org/2000/svg">
    <circle cx="20.5" cy="20.5" r="20.5" fill="white" />
    <path d="M15.8105 9V12.5167" stroke="#B5C2EB" stroke-width="1.5" stroke-miterlimit="10" stroke-linecap="round"
        stroke-linejoin="round" />
    <path d="M25.1875 9V12.5167" stroke="#B5C2EB" stroke-width="1.5" stroke-miterlimit="10" stroke-linecap="round"
        stroke-linejoin="round" />
    <path d="M10.5352 17.3115H30.4629" stroke="#B5C2EB" stroke-width="1.5" stroke-miterlimit="10" stroke-linecap="round"
        stroke-linejoin="round" />
    <path
        d="M31.0492 16.6199V26.5838C31.0492 30.1005 29.2909 32.4449 25.1881 32.4449H15.8103C11.7076 32.4449 9.94922 30.1005 9.94922 26.5838V16.6199C9.94922 13.1032 11.7076 10.7588 15.8103 10.7588H25.1881C29.2909 10.7588 31.0492 13.1032 31.0492 16.6199Z"
        stroke="#B5C2EB" stroke-width="1.5" stroke-miterlimit="10" stroke-linecap="round" stroke-linejoin="round" />
    <path d="M24.8297 22.715H24.8402" stroke="#B5C2EB" stroke-width="2" stroke-linecap="round"
        stroke-linejoin="round" />
    <path d="M24.8297 26.2316H24.8402" stroke="#B5C2EB" stroke-width="2" stroke-linecap="round"
        stroke-linejoin="round" />
    <path d="M20.4956 22.715H20.5061" stroke="#B5C2EB" stroke-width="2" stroke-linecap="round"
        stroke-linejoin="round" />
    <path d="M20.4956 26.2316H20.5061" stroke="#B5C2EB" stroke-width="2" stroke-linecap="round"
        stroke-linejoin="round" />
    <path d="M16.1558 22.715H16.1663" stroke="#B5C2EB" stroke-width="2" stroke-linecap="round"
        stroke-linejoin="round" />
    <path d="M16.1558 26.2316H16.1663" stroke="#B5C2EB" stroke-width="2" stroke-linecap="round"
        stroke-linejoin="round" />
</svg>