<svg width="56" height="85" viewBox="0 0 56 85" fill="none" xmlns="http://www.w3.org/2000/svg">
<path d="M17.876 71.2637C16.9372 71.2637 16.1989 71.5964 15.6611 72.2617C15.1234 72.9271 14.8545 73.8454 14.8545 75.0166C14.8545 76.2425 15.112 77.1699 15.627 77.7988C16.1465 78.4277 16.8962 78.7422 17.876 78.7422C18.2998 78.7422 18.71 78.7012 19.1064 78.6191C19.5029 78.5326 19.9154 78.4232 20.3438 78.291V79.6924C19.5599 79.9886 18.6712 80.1367 17.6777 80.1367C16.2148 80.1367 15.0915 79.6947 14.3076 78.8105C13.5238 77.9219 13.1318 76.6527 13.1318 75.0029C13.1318 73.9639 13.321 73.0547 13.6992 72.2754C14.082 71.4961 14.6335 70.8991 15.3535 70.4844C16.0736 70.0697 16.9189 69.8623 17.8896 69.8623C18.9105 69.8623 19.8538 70.0765 20.7197 70.5049L20.1318 71.8652C19.7946 71.7057 19.4368 71.5667 19.0586 71.4482C18.6849 71.3252 18.2907 71.2637 17.876 71.2637ZM28.9775 80H27.3643V75.3516C27.3643 74.7682 27.2458 74.333 27.0088 74.0459C26.7764 73.7588 26.4049 73.6152 25.8945 73.6152C25.2201 73.6152 24.7233 73.818 24.4043 74.2236C24.0898 74.6247 23.9326 75.2992 23.9326 76.2471V80H22.3262V69.3633H23.9326V72.0635C23.9326 72.4964 23.9053 72.959 23.8506 73.4512H23.9531C24.1719 73.0866 24.4749 72.804 24.8623 72.6035C25.2542 72.403 25.71 72.3027 26.2295 72.3027C28.0615 72.3027 28.9775 73.2256 28.9775 75.0713V80ZM35.9434 80L35.6221 78.9473H35.5674C35.2028 79.4076 34.8359 79.722 34.4668 79.8906C34.0977 80.0547 33.6237 80.1367 33.0449 80.1367C32.3021 80.1367 31.721 79.9362 31.3018 79.5352C30.887 79.1341 30.6797 78.5667 30.6797 77.833C30.6797 77.0537 30.9691 76.4658 31.5479 76.0693C32.1266 75.6729 33.0085 75.4564 34.1934 75.4199L35.499 75.3789V74.9756C35.499 74.4925 35.3851 74.1325 35.1572 73.8955C34.9339 73.654 34.5853 73.5332 34.1113 73.5332C33.724 73.5332 33.3525 73.5902 32.9971 73.7041C32.6416 73.818 32.2998 73.9525 31.9717 74.1074L31.4521 72.959C31.8623 72.7448 32.3112 72.583 32.7988 72.4736C33.2865 72.3597 33.7467 72.3027 34.1797 72.3027C35.1413 72.3027 35.8659 72.5124 36.3535 72.9316C36.8457 73.3509 37.0918 74.0094 37.0918 74.9072V80H35.9434ZM33.5508 78.9062C34.1341 78.9062 34.6012 78.7445 34.9521 78.4209C35.3076 78.0928 35.4854 77.6348 35.4854 77.0469V76.3906L34.5146 76.4316C33.7581 76.459 33.2067 76.5866 32.8604 76.8145C32.5186 77.0378 32.3477 77.3818 32.3477 77.8467C32.3477 78.1839 32.4479 78.446 32.6484 78.6328C32.849 78.8151 33.1497 78.9062 33.5508 78.9062ZM42.1504 78.8379C42.5423 78.8379 42.9342 78.7764 43.3262 78.6533V79.8633C43.1484 79.9408 42.9183 80.0046 42.6357 80.0547C42.3577 80.1094 42.0684 80.1367 41.7676 80.1367C40.2454 80.1367 39.4844 79.3346 39.4844 77.7305V73.6562H38.4521V72.9453L39.5596 72.3574L40.1064 70.7578H41.0977V72.4395H43.251V73.6562H41.0977V77.7031C41.0977 78.0905 41.1934 78.3776 41.3848 78.5645C41.5807 78.7467 41.8359 78.8379 42.1504 78.8379Z" fill="#505F79"/>
<circle cx="28" cy="28" r="28" fill="#DFFFFB"/>
<g clip-path="url(#clip0_2_80567)">
<path d="M40 27.3334C40.0046 29.0932 39.5934 30.8292 38.8 32.4C37.8592 34.2824 36.413 35.8656 34.6233 36.9724C32.8335 38.0792 30.771 38.6659 28.6667 38.6667C26.9068 38.6713 25.1708 38.2601 23.6 37.4667L16 40L18.5333 32.4C17.7399 30.8292 17.3287 29.0932 17.3333 27.3334C17.3341 25.229 17.9208 23.1665 19.0276 21.3768C20.1344 19.587 21.7177 18.1408 23.6 17.2C25.1708 16.4066 26.9068 15.9954 28.6667 16H29.3333C32.1125 16.1534 34.7374 17.3264 36.7055 19.2945C38.6737 21.2626 39.8467 23.8876 40 26.6667V27.3334Z" fill="#ABFFF4" stroke="#0AC0A7" stroke-width="1.5" stroke-linecap="round" stroke-linejoin="round"/>
<path d="M33 27H24" stroke="#0AC0A7" stroke-width="1.5" stroke-linecap="round" stroke-linejoin="round"/>
<path d="M33 30H24" stroke="#0AC0A7" stroke-width="1.5" stroke-linecap="round" stroke-linejoin="round"/>
<path d="M29 24H26.5H24" stroke="#0AC0A7" stroke-width="1.5" stroke-linecap="round" stroke-linejoin="round"/>
</g>
<defs>
<clipPath id="clip0_2_80567">
<rect width="32" height="32" fill="white" transform="translate(44 12) rotate(90)"/>
</clipPath>
</defs>
</svg>
