<svg width="56" height="85" viewBox="0 0 56 85" fill="none" xmlns="http://www.w3.org/2000/svg">
<path d="M8.04688 71.2637C7.10807 71.2637 6.36979 71.5964 5.83203 72.2617C5.29427 72.9271 5.02539 73.8454 5.02539 75.0166C5.02539 76.2425 5.28288 77.1699 5.79785 77.7988C6.31738 78.4277 7.06706 78.7422 8.04688 78.7422C8.4707 78.7422 8.88086 78.7012 9.27734 78.6191C9.67383 78.5326 10.0863 78.4232 10.5146 78.291V79.6924C9.73079 79.9886 8.84212 80.1367 7.84863 80.1367C6.38574 80.1367 5.26237 79.6947 4.47852 78.8105C3.69466 77.9219 3.30273 76.6527 3.30273 75.0029C3.30273 73.9639 3.49186 73.0547 3.87012 72.2754C4.25293 71.4961 4.80436 70.8991 5.52441 70.4844C6.24447 70.0697 7.08984 69.8623 8.06055 69.8623C9.08138 69.8623 10.0247 70.0765 10.8906 70.5049L10.3027 71.8652C9.96549 71.7057 9.60775 71.5667 9.22949 71.4482C8.85579 71.3252 8.46159 71.2637 8.04688 71.2637ZM19.1484 80H17.5352V75.3516C17.5352 74.7682 17.4167 74.333 17.1797 74.0459C16.9473 73.7588 16.5758 73.6152 16.0654 73.6152C15.391 73.6152 14.8942 73.818 14.5752 74.2236C14.2607 74.6247 14.1035 75.2992 14.1035 76.2471V80H12.4971V69.3633H14.1035V72.0635C14.1035 72.4964 14.0762 72.959 14.0215 73.4512H14.124C14.3428 73.0866 14.6458 72.804 15.0332 72.6035C15.4251 72.403 15.8809 72.3027 16.4004 72.3027C18.2324 72.3027 19.1484 73.2256 19.1484 75.0713V80ZM28.0898 76.2061C28.0898 77.4411 27.7731 78.4049 27.1396 79.0977C26.5062 79.7904 25.6243 80.1367 24.4941 80.1367C23.7878 80.1367 23.1634 79.9772 22.6211 79.6582C22.0788 79.3392 21.6618 78.8812 21.3701 78.2842C21.0785 77.6872 20.9326 76.9945 20.9326 76.2061C20.9326 74.9801 21.2471 74.0231 21.876 73.335C22.5049 72.6468 23.3913 72.3027 24.5352 72.3027C25.6289 72.3027 26.4948 72.6559 27.1328 73.3623C27.7708 74.0641 28.0898 75.012 28.0898 76.2061ZM22.5869 76.2061C22.5869 77.9515 23.2318 78.8242 24.5215 78.8242C25.7975 78.8242 26.4355 77.9515 26.4355 76.2061C26.4355 74.4788 25.793 73.6152 24.5078 73.6152C23.8333 73.6152 23.3434 73.8385 23.0381 74.2852C22.7373 74.7318 22.5869 75.3721 22.5869 76.2061ZM31.5488 80H29.9424V72.4395H31.5488V80ZM29.8467 70.4365C29.8467 70.1494 29.9242 69.9284 30.0791 69.7734C30.2386 69.6185 30.4642 69.541 30.7559 69.541C31.0384 69.541 31.2572 69.6185 31.4121 69.7734C31.5716 69.9284 31.6514 70.1494 31.6514 70.4365C31.6514 70.71 31.5716 70.9264 31.4121 71.0859C31.2572 71.2409 31.0384 71.3184 30.7559 71.3184C30.4642 71.3184 30.2386 71.2409 30.0791 71.0859C29.9242 70.9264 29.8467 70.71 29.8467 70.4365ZM36.9014 80.1367C35.7575 80.1367 34.887 79.804 34.29 79.1387C33.6976 78.4688 33.4014 77.5094 33.4014 76.2607C33.4014 74.9893 33.7113 74.0117 34.3311 73.3281C34.9554 72.6445 35.8555 72.3027 37.0312 72.3027C37.8288 72.3027 38.5465 72.4508 39.1846 72.7471L38.6992 74.0391C38.0202 73.7747 37.4596 73.6426 37.0176 73.6426C35.7096 73.6426 35.0557 74.5107 35.0557 76.2471C35.0557 77.0947 35.2174 77.7327 35.541 78.1611C35.8691 78.585 36.3477 78.7969 36.9766 78.7969C37.6921 78.7969 38.3688 78.6191 39.0068 78.2637V79.665C38.7197 79.8337 38.4121 79.9544 38.084 80.0273C37.7604 80.1003 37.3662 80.1367 36.9014 80.1367ZM44.0859 80.1367C42.9102 80.1367 41.9896 79.7949 41.3242 79.1113C40.6634 78.4232 40.333 77.4775 40.333 76.2744C40.333 75.0394 40.6406 74.0687 41.2559 73.3623C41.8711 72.6559 42.7165 72.3027 43.792 72.3027C44.79 72.3027 45.5785 72.6058 46.1572 73.2119C46.736 73.818 47.0254 74.652 47.0254 75.7139V76.582H41.9873C42.0101 77.3158 42.2083 77.8809 42.582 78.2773C42.9557 78.6693 43.4821 78.8652 44.1611 78.8652C44.6077 78.8652 45.0225 78.8242 45.4053 78.7422C45.7926 78.6556 46.2074 78.5143 46.6494 78.3184V79.624C46.2575 79.8109 45.861 79.943 45.46 80.0205C45.0589 80.098 44.6009 80.1367 44.0859 80.1367ZM43.792 73.5195C43.2816 73.5195 42.8714 73.6813 42.5615 74.0049C42.2562 74.3285 42.0739 74.8001 42.0146 75.4199H45.4463C45.4372 74.7956 45.2868 74.3239 44.9951 74.0049C44.7035 73.6813 44.3024 73.5195 43.792 73.5195ZM53.9297 77.8467C53.9297 78.585 53.6608 79.1523 53.123 79.5488C52.5853 79.9408 51.8151 80.1367 50.8125 80.1367C49.8053 80.1367 48.9964 79.984 48.3857 79.6787V78.291C49.2744 78.7012 50.1016 78.9062 50.8672 78.9062C51.8561 78.9062 52.3506 78.6077 52.3506 78.0107C52.3506 77.8193 52.2959 77.6598 52.1865 77.5322C52.0771 77.4046 51.8971 77.2725 51.6465 77.1357C51.3958 76.999 51.0472 76.8441 50.6006 76.6709C49.7301 76.3337 49.14 75.9964 48.8301 75.6592C48.5247 75.3219 48.3721 74.8844 48.3721 74.3467C48.3721 73.6995 48.6318 73.1982 49.1514 72.8428C49.6755 72.4827 50.3864 72.3027 51.2842 72.3027C52.1729 72.3027 53.0137 72.4827 53.8066 72.8428L53.2871 74.0527C52.4714 73.7155 51.7855 73.5469 51.2295 73.5469C50.3818 73.5469 49.958 73.7884 49.958 74.2715C49.958 74.5085 50.0674 74.709 50.2861 74.873C50.5094 75.0371 50.9925 75.2627 51.7354 75.5498C52.3597 75.7913 52.8132 76.0124 53.0957 76.2129C53.3783 76.4134 53.5879 76.6458 53.7246 76.9102C53.8613 77.1699 53.9297 77.4821 53.9297 77.8467Z" fill="#505F79"/>
<circle cx="28" cy="28" r="28" fill="#FFEFEB"/>
<path d="M24.1746 22H14.3968C13.6254 22 13 22.6254 13 23.3968V33.1746C13 33.9461 13.6254 34.5714 14.3968 34.5714H24.1746C24.9461 34.5714 25.5714 33.9461 25.5714 33.1746V23.3968C25.5714 22.6254 24.9461 22 24.1746 22Z" fill="#FFCDBF" stroke="#A24035" stroke-width="1.5" stroke-linecap="round" stroke-linejoin="round"/>
<path d="M40.9366 22H31.1588C30.3873 22 29.762 22.6254 29.762 23.3968V33.1746C29.762 33.9461 30.3873 34.5714 31.1588 34.5714H40.9366C41.708 34.5714 42.3334 33.9461 42.3334 33.1746V23.3968C42.3334 22.6254 41.708 22 40.9366 22Z" fill="#FFCDBF" stroke="#A24035" stroke-width="1.5" stroke-linecap="round" stroke-linejoin="round"/>
<path d="M32 28.5L35.4056 30.8352L40.5 25" stroke="#A24035" stroke-linecap="round" stroke-linejoin="round"/>
</svg>
