<svg width="32" height="32" viewBox="0 0 32 32" fill="none" xmlns="http://www.w3.org/2000/svg">
<path d="M10.668 16.2666H20.0013" stroke="#092682" stroke-width="1.5" stroke-miterlimit="10" stroke-linecap="round" stroke-linejoin="round"/>
<path d="M10.668 21.5996H16.508" stroke="#092682" stroke-width="1.5" stroke-miterlimit="10" stroke-linecap="round" stroke-linejoin="round"/>
<path d="M13.3346 8.00033H18.668C21.3346 8.00033 21.3346 6.66699 21.3346 5.33366C21.3346 2.66699 20.0013 2.66699 18.668 2.66699H13.3346C12.0013 2.66699 10.668 2.66699 10.668 5.33366C10.668 8.00033 12.0013 8.00033 13.3346 8.00033Z" stroke="#092682" stroke-width="1.5" stroke-miterlimit="10" stroke-linecap="round" stroke-linejoin="round"/>
<path d="M21.3333 5.36035C25.7733 5.60035 28 7.24035 28 13.3337V21.3337C28 26.667 26.6667 29.3337 20 29.3337H12C5.33333 29.3337 4 26.667 4 21.3337V13.3337C4 7.25368 6.22667 5.60035 10.6667 5.36035" stroke="#092682" stroke-width="1.5" stroke-miterlimit="10" stroke-linecap="round" stroke-linejoin="round"/>
</svg>
