<svg width="64" height="85" viewBox="0 0 64 85" fill="none" xmlns="http://www.w3.org/2000/svg">
<path d="M9.56445 74.9072C9.56445 76.557 9.10645 77.8193 8.19043 78.6943C7.27441 79.5648 5.95508 80 4.23242 80H1.43652V70.0059H4.52637C6.11686 70.0059 7.35417 70.4342 8.23828 71.291C9.1224 72.1478 9.56445 73.3532 9.56445 74.9072ZM7.8418 74.9619C7.8418 72.5693 6.72298 71.373 4.48535 71.373H3.07031V78.626H4.23242C6.63867 78.626 7.8418 77.4046 7.8418 74.9619ZM16.2773 80L15.9561 78.9473H15.9014C15.5368 79.4076 15.1699 79.722 14.8008 79.8906C14.4316 80.0547 13.9577 80.1367 13.3789 80.1367C12.6361 80.1367 12.055 79.9362 11.6357 79.5352C11.221 79.1341 11.0137 78.5667 11.0137 77.833C11.0137 77.0537 11.3031 76.4658 11.8818 76.0693C12.4606 75.6729 13.3424 75.4564 14.5273 75.4199L15.833 75.3789V74.9756C15.833 74.4925 15.7191 74.1325 15.4912 73.8955C15.2679 73.654 14.9193 73.5332 14.4453 73.5332C14.0579 73.5332 13.6865 73.5902 13.3311 73.7041C12.9756 73.818 12.6338 73.9525 12.3057 74.1074L11.7861 72.959C12.1963 72.7448 12.6452 72.583 13.1328 72.4736C13.6204 72.3597 14.0807 72.3027 14.5137 72.3027C15.4753 72.3027 16.1999 72.5124 16.6875 72.9316C17.1797 73.3509 17.4258 74.0094 17.4258 74.9072V80H16.2773ZM13.8848 78.9062C14.4681 78.9062 14.9352 78.7445 15.2861 78.4209C15.6416 78.0928 15.8193 77.6348 15.8193 77.0469V76.3906L14.8486 76.4316C14.0921 76.459 13.5407 76.5866 13.1943 76.8145C12.8525 77.0378 12.6816 77.3818 12.6816 77.8467C12.6816 78.1839 12.7819 78.446 12.9824 78.6328C13.1829 78.8151 13.4837 78.9062 13.8848 78.9062ZM22.4844 78.8379C22.8763 78.8379 23.2682 78.7764 23.6602 78.6533V79.8633C23.4824 79.9408 23.2523 80.0046 22.9697 80.0547C22.6917 80.1094 22.4023 80.1367 22.1016 80.1367C20.5794 80.1367 19.8184 79.3346 19.8184 77.7305V73.6562H18.7861V72.9453L19.8936 72.3574L20.4404 70.7578H21.4316V72.4395H23.585V73.6562H21.4316V77.7031C21.4316 78.0905 21.5273 78.3776 21.7188 78.5645C21.9147 78.7467 22.1699 78.8379 22.4844 78.8379ZM29.9082 80L29.5869 78.9473H29.5322C29.1676 79.4076 28.8008 79.722 28.4316 79.8906C28.0625 80.0547 27.5885 80.1367 27.0098 80.1367C26.2669 80.1367 25.6859 79.9362 25.2666 79.5352C24.8519 79.1341 24.6445 78.5667 24.6445 77.833C24.6445 77.0537 24.9339 76.4658 25.5127 76.0693C26.0915 75.6729 26.9733 75.4564 28.1582 75.4199L29.4639 75.3789V74.9756C29.4639 74.4925 29.3499 74.1325 29.1221 73.8955C28.8988 73.654 28.5501 73.5332 28.0762 73.5332C27.6888 73.5332 27.3174 73.5902 26.9619 73.7041C26.6064 73.818 26.2646 73.9525 25.9365 74.1074L25.417 72.959C25.8271 72.7448 26.276 72.583 26.7637 72.4736C27.2513 72.3597 27.7116 72.3027 28.1445 72.3027C29.1061 72.3027 29.8307 72.5124 30.3184 72.9316C30.8105 73.3509 31.0566 74.0094 31.0566 74.9072V80H29.9082ZM27.5156 78.9062C28.099 78.9062 28.5661 78.7445 28.917 78.4209C29.2725 78.0928 29.4502 77.6348 29.4502 77.0469V76.3906L28.4795 76.4316C27.723 76.459 27.1715 76.5866 26.8252 76.8145C26.4834 77.0378 26.3125 77.3818 26.3125 77.8467C26.3125 78.1839 26.4128 78.446 26.6133 78.6328C26.8138 78.8151 27.1146 78.9062 27.5156 78.9062ZM37.1611 72.3027C38.1045 72.3027 38.8382 72.6445 39.3623 73.3281C39.891 74.0117 40.1553 74.971 40.1553 76.2061C40.1553 77.4456 39.8887 78.4118 39.3555 79.1045C38.8223 79.7926 38.0817 80.1367 37.1338 80.1367C36.1768 80.1367 35.4339 79.7926 34.9053 79.1045H34.7959L34.502 80H33.2988V69.3633H34.9053V71.8926C34.9053 72.0794 34.8962 72.3574 34.8779 72.7266C34.8597 73.0957 34.846 73.3304 34.8369 73.4307H34.9053C35.4157 72.6787 36.1676 72.3027 37.1611 72.3027ZM36.7441 73.6152C36.097 73.6152 35.6299 73.8066 35.3428 74.1895C35.0602 74.5677 34.9144 75.2035 34.9053 76.0967V76.2061C34.9053 77.1266 35.0511 77.7943 35.3428 78.209C35.6344 78.6191 36.1107 78.8242 36.7715 78.8242C37.3411 78.8242 37.7718 78.5986 38.0635 78.1475C38.3597 77.6963 38.5078 77.0446 38.5078 76.1924C38.5078 74.4743 37.9199 73.6152 36.7441 73.6152ZM46.752 80L46.4307 78.9473H46.376C46.0114 79.4076 45.6445 79.722 45.2754 79.8906C44.9062 80.0547 44.4323 80.1367 43.8535 80.1367C43.1107 80.1367 42.5296 79.9362 42.1104 79.5352C41.6956 79.1341 41.4883 78.5667 41.4883 77.833C41.4883 77.0537 41.7777 76.4658 42.3564 76.0693C42.9352 75.6729 43.8171 75.4564 45.002 75.4199L46.3076 75.3789V74.9756C46.3076 74.4925 46.1937 74.1325 45.9658 73.8955C45.7425 73.654 45.3939 73.5332 44.9199 73.5332C44.5326 73.5332 44.1611 73.5902 43.8057 73.7041C43.4502 73.818 43.1084 73.9525 42.7803 74.1074L42.2607 72.959C42.6709 72.7448 43.1198 72.583 43.6074 72.4736C44.0951 72.3597 44.5553 72.3027 44.9883 72.3027C45.9499 72.3027 46.6745 72.5124 47.1621 72.9316C47.6543 73.3509 47.9004 74.0094 47.9004 74.9072V80H46.752ZM44.3594 78.9062C44.9427 78.9062 45.4098 78.7445 45.7607 78.4209C46.1162 78.0928 46.2939 77.6348 46.2939 77.0469V76.3906L45.3232 76.4316C44.5667 76.459 44.0153 76.5866 43.6689 76.8145C43.3271 77.0378 43.1562 77.3818 43.1562 77.8467C43.1562 78.1839 43.2565 78.446 43.457 78.6328C43.6576 78.8151 43.9583 78.9062 44.3594 78.9062ZM55.2217 77.8467C55.2217 78.585 54.9528 79.1523 54.415 79.5488C53.8773 79.9408 53.1071 80.1367 52.1045 80.1367C51.0973 80.1367 50.2884 79.984 49.6777 79.6787V78.291C50.5664 78.7012 51.3936 78.9062 52.1592 78.9062C53.1481 78.9062 53.6426 78.6077 53.6426 78.0107C53.6426 77.8193 53.5879 77.6598 53.4785 77.5322C53.3691 77.4046 53.1891 77.2725 52.9385 77.1357C52.6878 76.999 52.3392 76.8441 51.8926 76.6709C51.0221 76.3337 50.432 75.9964 50.1221 75.6592C49.8167 75.3219 49.6641 74.8844 49.6641 74.3467C49.6641 73.6995 49.9238 73.1982 50.4434 72.8428C50.9674 72.4827 51.6784 72.3027 52.5762 72.3027C53.4648 72.3027 54.3057 72.4827 55.0986 72.8428L54.5791 74.0527C53.7633 73.7155 53.0775 73.5469 52.5215 73.5469C51.6738 73.5469 51.25 73.7884 51.25 74.2715C51.25 74.5085 51.3594 74.709 51.5781 74.873C51.8014 75.0371 52.2845 75.2627 53.0273 75.5498C53.6517 75.7913 54.1051 76.0124 54.3877 76.2129C54.6702 76.4134 54.8799 76.6458 55.0166 76.9102C55.1533 77.1699 55.2217 77.4821 55.2217 77.8467ZM60.2666 80.1367C59.0908 80.1367 58.1702 79.7949 57.5049 79.1113C56.8441 78.4232 56.5137 77.4775 56.5137 76.2744C56.5137 75.0394 56.8213 74.0687 57.4365 73.3623C58.0518 72.6559 58.8971 72.3027 59.9727 72.3027C60.9707 72.3027 61.7591 72.6058 62.3379 73.2119C62.9167 73.818 63.2061 74.652 63.2061 75.7139V76.582H58.168C58.1908 77.3158 58.389 77.8809 58.7627 78.2773C59.1364 78.6693 59.6628 78.8652 60.3418 78.8652C60.7884 78.8652 61.2031 78.8242 61.5859 78.7422C61.9733 78.6556 62.388 78.5143 62.8301 78.3184V79.624C62.4382 79.8109 62.0417 79.943 61.6406 80.0205C61.2396 80.098 60.7816 80.1367 60.2666 80.1367ZM59.9727 73.5195C59.4622 73.5195 59.0521 73.6813 58.7422 74.0049C58.4368 74.3285 58.2546 74.8001 58.1953 75.4199H61.627C61.6178 74.7956 61.4674 74.3239 61.1758 74.0049C60.8841 73.6813 60.4831 73.5195 59.9727 73.5195Z" fill="#505F79"/>
<circle cx="32" cy="28" r="28" fill="#ECF2FF"/>
<path d="M20 18.6665V37.3332C20 39.5465 25.3333 41.3332 32 41.3332C38.6667 41.3332 44 39.5465 44 37.3332V18.6665" fill="#BED4FF"/>
<path d="M20 18.6665V37.3332C20 39.5465 25.3333 41.3332 32 41.3332C38.6667 41.3332 44 39.5465 44 37.3332V18.6665" stroke="#3A5DA3" stroke-width="1.5" stroke-linecap="round" stroke-linejoin="round"/>
<path d="M32 22.6665C38.6274 22.6665 44 20.8756 44 18.6665C44 16.4574 38.6274 14.6665 32 14.6665C25.3726 14.6665 20 16.4574 20 18.6665C20 20.8756 25.3726 22.6665 32 22.6665Z" fill="#BED4FF" stroke="#3A5DA3" stroke-width="1.5" stroke-linecap="round" stroke-linejoin="round"/>
<path d="M44 28C44 30.2133 38.6667 32 32 32C25.3333 32 20 30.2133 20 28" stroke="#3A5DA3" stroke-width="1.5" stroke-linecap="round" stroke-linejoin="round"/>
</svg>
