<svg width="16" height="15" viewBox="0 0 16 15" fill="none" xmlns="http://www.w3.org/2000/svg">
    <path
        d="M7.83452 10.6747C7.85046 10.6951 7.87083 10.7116 7.89409 10.7229C7.91735 10.7342 7.94288 10.7401 7.96875 10.7401C7.99462 10.7401 8.02015 10.7342 8.04341 10.7229C8.06667 10.7116 8.08704 10.6951 8.10298 10.6747L10.4893 7.65554C10.5767 7.54474 10.4979 7.38068 10.3551 7.38068H8.77628V0.170455C8.77628 0.0767045 8.69957 0 8.60582 0H7.32741C7.23366 0 7.15696 0.0767045 7.15696 0.170455V7.37855H5.58239C5.43963 7.37855 5.3608 7.54261 5.44815 7.65341L7.83452 10.6747ZM15.767 9.92898H14.4886C14.3949 9.92898 14.3182 10.0057 14.3182 10.0994V13.3807H1.61932V10.0994C1.61932 10.0057 1.54261 9.92898 1.44886 9.92898H0.170455C0.0767045 9.92898 0 10.0057 0 10.0994V14.3182C0 14.6953 0.304688 15 0.681818 15H15.2557C15.6328 15 15.9375 14.6953 15.9375 14.3182V10.0994C15.9375 10.0057 15.8608 9.92898 15.767 9.92898Z"
        fill="#092682" />
</svg>