<svg width="14" height="14" viewBox="0 0 14 14" fill="none" xmlns="http://www.w3.org/2000/svg">
    <path
        d="M12.8327 6.12533V9.04199C12.8327 11.0837 11.666 11.9587 9.91602 11.9587H4.08268C2.33268 11.9587 1.16602 11.0837 1.16602 9.04199V4.95866C1.16602 2.91699 2.33268 2.04199 4.08268 2.04199H8.16602"
        stroke="#092682" stroke-miterlimit="10" stroke-linecap="round" stroke-linejoin="round" />
    <path d="M4.08398 5.25L5.90982 6.70833C6.51065 7.18667 7.49649 7.18667 8.09732 6.70833L8.78565 6.16"
        stroke="#092682" stroke-miterlimit="10" stroke-linecap="round" stroke-linejoin="round" />
    <path
        d="M11.3743 4.66667C12.1798 4.66667 12.8327 4.01375 12.8327 3.20833C12.8327 2.40292 12.1798 1.75 11.3743 1.75C10.5689 1.75 9.91602 2.40292 9.91602 3.20833C9.91602 4.01375 10.5689 4.66667 11.3743 4.66667Z"
        stroke="#092682" stroke-miterlimit="10" stroke-linecap="round" stroke-linejoin="round" />
</svg>