<svg width="13" height="13" viewBox="0 0 13 13" fill="none" xmlns="http://www.w3.org/2000/svg">
    <path d="M6.49935 4.87516V1.0835L5.41602 2.16683" stroke="#092682" stroke-linecap="round" stroke-linejoin="round" />
    <path d="M6.5 1.0835L7.58333 2.16683" stroke="#092682" stroke-linecap="round" stroke-linejoin="round" />
    <path
        d="M1.07227 7.0415H3.46102C3.66685 7.0415 3.85102 7.15525 3.9431 7.33942L4.57685 8.60692C4.76102 8.97525 5.13477 9.20817 5.54643 9.20817H7.45852C7.87018 9.20817 8.24393 8.97525 8.4281 8.60692L9.06185 7.33942C9.15393 7.15525 9.34352 7.0415 9.54393 7.0415H11.9056"
        stroke="#092682" stroke-linecap="round" stroke-linejoin="round" />
    <path
        d="M3.79232 2.77881C1.87482 3.06048 1.08398 4.18714 1.08398 6.50006V8.12506C1.08398 10.8334 2.16732 11.9167 4.87565 11.9167H8.12565C10.834 11.9167 11.9173 10.8334 11.9173 8.12506V6.50006C11.9173 4.18714 11.1265 3.06048 9.20898 2.77881"
        stroke="#092682" stroke-linecap="round" stroke-linejoin="round" />
</svg>