<svg width="89" height="85" viewBox="0 0 89 85" fill="none" xmlns="http://www.w3.org/2000/svg">
<path d="M7.1416 80H1.48828V70.0059H7.1416V71.3867H3.12207V74.1074H6.88867V75.4746H3.12207V78.6123H7.1416V80ZM10.8193 76.1377L8.2832 72.4395H10.1152L11.8379 75.085L13.5742 72.4395H15.3926L12.8496 76.1377L15.5225 80H13.7041L11.8379 77.1699L9.97852 80H8.16016L10.8193 76.1377ZM19.665 78.8379C20.057 78.8379 20.4489 78.7764 20.8408 78.6533V79.8633C20.6631 79.9408 20.4329 80.0046 20.1504 80.0547C19.8724 80.1094 19.583 80.1367 19.2822 80.1367C17.7601 80.1367 16.999 79.3346 16.999 77.7305V73.6562H15.9668V72.9453L17.0742 72.3574L17.6211 70.7578H18.6123V72.4395H20.7656V73.6562H18.6123V77.7031C18.6123 78.0905 18.708 78.3776 18.8994 78.5645C19.0954 78.7467 19.3506 78.8379 19.665 78.8379ZM25.6602 80.1367C24.4844 80.1367 23.5638 79.7949 22.8984 79.1113C22.2376 78.4232 21.9072 77.4775 21.9072 76.2744C21.9072 75.0394 22.2148 74.0687 22.8301 73.3623C23.4453 72.6559 24.2907 72.3027 25.3662 72.3027C26.3643 72.3027 27.1527 72.6058 27.7314 73.2119C28.3102 73.818 28.5996 74.652 28.5996 75.7139V76.582H23.5615C23.5843 77.3158 23.7826 77.8809 24.1562 78.2773C24.5299 78.6693 25.0563 78.8652 25.7354 78.8652C26.182 78.8652 26.5967 78.8242 26.9795 78.7422C27.3669 78.6556 27.7816 78.5143 28.2236 78.3184V79.624C27.8317 79.8109 27.4352 79.943 27.0342 80.0205C26.6331 80.098 26.1751 80.1367 25.6602 80.1367ZM25.3662 73.5195C24.8558 73.5195 24.4456 73.6813 24.1357 74.0049C23.8304 74.3285 23.6481 74.8001 23.5889 75.4199H27.0205C27.0114 74.7956 26.861 74.3239 26.5693 74.0049C26.2777 73.6813 25.8766 73.5195 25.3662 73.5195ZM34.2598 72.3027C34.5833 72.3027 34.8499 72.3255 35.0596 72.3711L34.9023 73.8682C34.6745 73.8135 34.4375 73.7861 34.1914 73.7861C33.5488 73.7861 33.027 73.9958 32.626 74.415C32.2295 74.8343 32.0312 75.3789 32.0312 76.0488V80H30.4248V72.4395H31.6826L31.8945 73.7725H31.9766C32.2272 73.3213 32.5531 72.9635 32.9541 72.6992C33.3597 72.4349 33.7949 72.3027 34.2598 72.3027ZM43.1191 80H41.5059V75.3516C41.5059 74.7682 41.3874 74.333 41.1504 74.0459C40.918 73.7588 40.5465 73.6152 40.0361 73.6152C39.3571 73.6152 38.8604 73.8158 38.5459 74.2168C38.2314 74.6178 38.0742 75.29 38.0742 76.2334V80H36.4678V72.4395H37.7256L37.9512 73.4307H38.0332C38.2611 73.0706 38.5846 72.7926 39.0039 72.5967C39.4232 72.4007 39.888 72.3027 40.3984 72.3027C42.2122 72.3027 43.1191 73.2256 43.1191 75.0713V80ZM50.085 80L49.7637 78.9473H49.709C49.3444 79.4076 48.9775 79.722 48.6084 79.8906C48.2393 80.0547 47.7653 80.1367 47.1865 80.1367C46.4437 80.1367 45.8626 79.9362 45.4434 79.5352C45.0286 79.1341 44.8213 78.5667 44.8213 77.833C44.8213 77.0537 45.1107 76.4658 45.6895 76.0693C46.2682 75.6729 47.1501 75.4564 48.335 75.4199L49.6406 75.3789V74.9756C49.6406 74.4925 49.5267 74.1325 49.2988 73.8955C49.0755 73.654 48.7269 73.5332 48.2529 73.5332C47.8656 73.5332 47.4941 73.5902 47.1387 73.7041C46.7832 73.818 46.4414 73.9525 46.1133 74.1074L45.5938 72.959C46.0039 72.7448 46.4528 72.583 46.9404 72.4736C47.4281 72.3597 47.8883 72.3027 48.3213 72.3027C49.2829 72.3027 50.0075 72.5124 50.4951 72.9316C50.9873 73.3509 51.2334 74.0094 51.2334 74.9072V80H50.085ZM47.6924 78.9062C48.2757 78.9062 48.7428 78.7445 49.0938 78.4209C49.4492 78.0928 49.627 77.6348 49.627 77.0469V76.3906L48.6562 76.4316C47.8997 76.459 47.3483 76.5866 47.002 76.8145C46.6602 77.0378 46.4893 77.3818 46.4893 77.8467C46.4893 78.1839 46.5895 78.446 46.79 78.6328C46.9906 78.8151 47.2913 78.9062 47.6924 78.9062ZM55.082 80H53.4756V69.3633H55.082V80ZM64.6455 80H63.0117V71.4072H60.0723V70.0059H67.585V71.4072H64.6455V80ZM75.6582 76.2061C75.6582 77.4411 75.3415 78.4049 74.708 79.0977C74.0745 79.7904 73.1927 80.1367 72.0625 80.1367C71.3561 80.1367 70.7318 79.9772 70.1895 79.6582C69.6471 79.3392 69.2301 78.8812 68.9385 78.2842C68.6468 77.6872 68.501 76.9945 68.501 76.2061C68.501 74.9801 68.8154 74.0231 69.4443 73.335C70.0732 72.6468 70.9596 72.3027 72.1035 72.3027C73.1973 72.3027 74.0632 72.6559 74.7012 73.3623C75.3392 74.0641 75.6582 75.012 75.6582 76.2061ZM70.1553 76.2061C70.1553 77.9515 70.8001 78.8242 72.0898 78.8242C73.3659 78.8242 74.0039 77.9515 74.0039 76.2061C74.0039 74.4788 73.3613 73.6152 72.0762 73.6152C71.4017 73.6152 70.9118 73.8385 70.6064 74.2852C70.3057 74.7318 70.1553 75.3721 70.1553 76.2061ZM84.2168 76.2061C84.2168 77.4411 83.9001 78.4049 83.2666 79.0977C82.6331 79.7904 81.7513 80.1367 80.6211 80.1367C79.9147 80.1367 79.2904 79.9772 78.748 79.6582C78.2057 79.3392 77.7887 78.8812 77.4971 78.2842C77.2054 77.6872 77.0596 76.9945 77.0596 76.2061C77.0596 74.9801 77.374 74.0231 78.0029 73.335C78.6318 72.6468 79.5182 72.3027 80.6621 72.3027C81.7559 72.3027 82.6217 72.6559 83.2598 73.3623C83.8978 74.0641 84.2168 75.012 84.2168 76.2061ZM78.7139 76.2061C78.7139 77.9515 79.3587 78.8242 80.6484 78.8242C81.9245 78.8242 82.5625 77.9515 82.5625 76.2061C82.5625 74.4788 81.9199 73.6152 80.6348 73.6152C79.9603 73.6152 79.4704 73.8385 79.165 74.2852C78.8643 74.7318 78.7139 75.3721 78.7139 76.2061ZM87.6758 80H86.0693V69.3633H87.6758V80Z" fill="#505F79"/>
<circle cx="44" cy="28" r="28" fill="#FFE7EB"/>
<path d="M35.2667 18.8135L30.6667 28.0002V36.0002C30.6667 36.7074 30.9477 37.3857 31.4478 37.8858C31.9479 38.3859 32.6262 38.6668 33.3334 38.6668H54.6667C55.374 38.6668 56.0523 38.3859 56.5524 37.8858C57.0525 37.3857 57.3334 36.7074 57.3334 36.0002V28.0002L52.7334 18.8135C52.5126 18.3692 52.1723 17.9953 51.7507 17.7339C51.3291 17.4724 50.8429 17.3338 50.3467 17.3335H37.6534C37.1573 17.3338 36.6711 17.4724 36.2495 17.7339C35.8278 17.9953 35.4875 18.3692 35.2667 18.8135V18.8135Z" fill="#FFB9C5" stroke="#BA4157" stroke-width="1.5" stroke-linecap="round" stroke-linejoin="round"/>
<path d="M57.3334 28H30.6667" stroke="#BA4157" stroke-width="1.5" stroke-linecap="round" stroke-linejoin="round"/>
<path d="M36 33.3335H36.0133" stroke="#BA4157" stroke-width="2" stroke-linecap="round" stroke-linejoin="round"/>
<path d="M41.3333 33.3335H41.3466" stroke="#BA4157" stroke-width="2" stroke-linecap="round" stroke-linejoin="round"/>
</svg>
