<svg width="116" height="85" viewBox="0 0 116 85" fill="none" xmlns="http://www.w3.org/2000/svg">
<path d="M3.3125 80H1.69238V70.0059H7.33203V71.3867H3.3125V74.5107H7.0791V75.8984H3.3125V80ZM12.2744 80.1367C11.0986 80.1367 10.1781 79.7949 9.5127 79.1113C8.85189 78.4232 8.52148 77.4775 8.52148 76.2744C8.52148 75.0394 8.8291 74.0687 9.44434 73.3623C10.0596 72.6559 10.9049 72.3027 11.9805 72.3027C12.9785 72.3027 13.7669 72.6058 14.3457 73.2119C14.9245 73.818 15.2139 74.652 15.2139 75.7139V76.582H10.1758C10.1986 77.3158 10.3968 77.8809 10.7705 78.2773C11.1442 78.6693 11.6706 78.8652 12.3496 78.8652C12.7962 78.8652 13.2109 78.8242 13.5938 78.7422C13.9811 78.6556 14.3958 78.5143 14.8379 78.3184V79.624C14.446 79.8109 14.0495 79.943 13.6484 80.0205C13.2474 80.098 12.7894 80.1367 12.2744 80.1367ZM11.9805 73.5195C11.4701 73.5195 11.0599 73.6813 10.75 74.0049C10.4447 74.3285 10.2624 74.8001 10.2031 75.4199H13.6348C13.6257 74.7956 13.4753 74.3239 13.1836 74.0049C12.8919 73.6813 12.4909 73.5195 11.9805 73.5195ZM20.3408 80.1367C19.165 80.1367 18.2445 79.7949 17.5791 79.1113C16.9183 78.4232 16.5879 77.4775 16.5879 76.2744C16.5879 75.0394 16.8955 74.0687 17.5107 73.3623C18.126 72.6559 18.9714 72.3027 20.0469 72.3027C21.0449 72.3027 21.8333 72.6058 22.4121 73.2119C22.9909 73.818 23.2803 74.652 23.2803 75.7139V76.582H18.2422C18.265 77.3158 18.4632 77.8809 18.8369 78.2773C19.2106 78.6693 19.737 78.8652 20.416 78.8652C20.8626 78.8652 21.2773 78.8242 21.6602 78.7422C22.0475 78.6556 22.4622 78.5143 22.9043 78.3184V79.624C22.5124 79.8109 22.1159 79.943 21.7148 80.0205C21.3138 80.098 20.8558 80.1367 20.3408 80.1367ZM20.0469 73.5195C19.5365 73.5195 19.1263 73.6813 18.8164 74.0049C18.5111 74.3285 18.3288 74.8001 18.2695 75.4199H21.7012C21.6921 74.7956 21.5417 74.3239 21.25 74.0049C20.9583 73.6813 20.5573 73.5195 20.0469 73.5195ZM27.6553 80.1367C26.7119 80.1367 25.9759 79.7949 25.4473 79.1113C24.9186 78.4277 24.6543 77.4684 24.6543 76.2334C24.6543 74.9938 24.9209 74.0299 25.4541 73.3418C25.9919 72.6491 26.7347 72.3027 27.6826 72.3027C28.6761 72.3027 29.4326 72.6696 29.9521 73.4033H30.0342C29.9567 72.861 29.918 72.4326 29.918 72.1182V69.3633H31.5312V80H30.2734L29.9932 79.0088H29.918C29.403 79.7607 28.6488 80.1367 27.6553 80.1367ZM28.0859 78.8379C28.7467 78.8379 29.2275 78.6533 29.5283 78.2842C29.8291 77.9105 29.984 77.3066 29.9932 76.4727V76.2471C29.9932 75.2946 29.8382 74.6178 29.5283 74.2168C29.2184 73.8158 28.7331 73.6152 28.0723 73.6152C27.5072 73.6152 27.0719 73.8454 26.7666 74.3057C26.4613 74.7614 26.3086 75.4131 26.3086 76.2607C26.3086 77.0993 26.4567 77.7396 26.7529 78.1816C27.0492 78.6191 27.4935 78.8379 28.0859 78.8379ZM37.6904 72.3027C38.6338 72.3027 39.3675 72.6445 39.8916 73.3281C40.4202 74.0117 40.6846 74.971 40.6846 76.2061C40.6846 77.4456 40.418 78.4118 39.8848 79.1045C39.3516 79.7926 38.611 80.1367 37.6631 80.1367C36.7061 80.1367 35.9632 79.7926 35.4346 79.1045H35.3252L35.0312 80H33.8281V69.3633H35.4346V71.8926C35.4346 72.0794 35.4255 72.3574 35.4072 72.7266C35.389 73.0957 35.3753 73.3304 35.3662 73.4307H35.4346C35.945 72.6787 36.6969 72.3027 37.6904 72.3027ZM37.2734 73.6152C36.6263 73.6152 36.1592 73.8066 35.8721 74.1895C35.5895 74.5677 35.4437 75.2035 35.4346 76.0967V76.2061C35.4346 77.1266 35.5804 77.7943 35.8721 78.209C36.1637 78.6191 36.64 78.8242 37.3008 78.8242C37.8704 78.8242 38.3011 78.5986 38.5928 78.1475C38.889 77.6963 39.0371 77.0446 39.0371 76.1924C39.0371 74.4743 38.4492 73.6152 37.2734 73.6152ZM47.2812 80L46.96 78.9473H46.9053C46.5407 79.4076 46.1738 79.722 45.8047 79.8906C45.4355 80.0547 44.9616 80.1367 44.3828 80.1367C43.64 80.1367 43.0589 79.9362 42.6396 79.5352C42.2249 79.1341 42.0176 78.5667 42.0176 77.833C42.0176 77.0537 42.307 76.4658 42.8857 76.0693C43.4645 75.6729 44.3464 75.4564 45.5312 75.4199L46.8369 75.3789V74.9756C46.8369 74.4925 46.723 74.1325 46.4951 73.8955C46.2718 73.654 45.9232 73.5332 45.4492 73.5332C45.0618 73.5332 44.6904 73.5902 44.335 73.7041C43.9795 73.818 43.6377 73.9525 43.3096 74.1074L42.79 72.959C43.2002 72.7448 43.6491 72.583 44.1367 72.4736C44.6243 72.3597 45.0846 72.3027 45.5176 72.3027C46.4792 72.3027 47.2038 72.5124 47.6914 72.9316C48.1836 73.3509 48.4297 74.0094 48.4297 74.9072V80H47.2812ZM44.8887 78.9062C45.472 78.9062 45.9391 78.7445 46.29 78.4209C46.6455 78.0928 46.8232 77.6348 46.8232 77.0469V76.3906L45.8525 76.4316C45.096 76.459 44.5446 76.5866 44.1982 76.8145C43.8564 77.0378 43.6855 77.3818 43.6855 77.8467C43.6855 78.1839 43.7858 78.446 43.9863 78.6328C44.1868 78.8151 44.4876 78.9062 44.8887 78.9062ZM53.7207 80.1367C52.5768 80.1367 51.7064 79.804 51.1094 79.1387C50.5169 78.4688 50.2207 77.5094 50.2207 76.2607C50.2207 74.9893 50.5306 74.0117 51.1504 73.3281C51.7747 72.6445 52.6748 72.3027 53.8506 72.3027C54.6481 72.3027 55.3659 72.4508 56.0039 72.7471L55.5186 74.0391C54.8395 73.7747 54.279 73.6426 53.8369 73.6426C52.529 73.6426 51.875 74.5107 51.875 76.2471C51.875 77.0947 52.0368 77.7327 52.3604 78.1611C52.6885 78.585 53.167 78.7969 53.7959 78.7969C54.5114 78.7969 55.1882 78.6191 55.8262 78.2637V79.665C55.5391 79.8337 55.2314 79.9544 54.9033 80.0273C54.5798 80.1003 54.1855 80.1367 53.7207 80.1367ZM59.1553 76.0078L60.0645 74.873L62.3477 72.4395H64.2002L61.1582 75.6865L64.3916 80H62.5049L60.0781 76.6846L59.1963 77.4092V80H57.6035V69.3633H59.1963V74.5518L59.1143 76.0078H59.1553ZM69.8125 70.0059L66.0938 80H64.5762L68.3018 70.0059H69.8125ZM77.0176 77.2861C77.0176 78.1748 76.6963 78.8721 76.0537 79.3779C75.4111 79.8838 74.5247 80.1367 73.3945 80.1367C72.2643 80.1367 71.3392 79.9613 70.6191 79.6104V78.0654C71.0749 78.2796 71.5579 78.4482 72.0684 78.5713C72.5833 78.6943 73.0618 78.7559 73.5039 78.7559C74.151 78.7559 74.6273 78.6328 74.9326 78.3867C75.2425 78.1406 75.3975 77.8102 75.3975 77.3955C75.3975 77.0218 75.2562 76.7051 74.9736 76.4453C74.6911 76.1855 74.1077 75.8779 73.2236 75.5225C72.3122 75.1533 71.6696 74.7318 71.2959 74.2578C70.9222 73.7839 70.7354 73.2142 70.7354 72.5488C70.7354 71.7148 71.0316 71.0586 71.624 70.5801C72.2165 70.1016 73.0117 69.8623 74.0098 69.8623C74.9668 69.8623 75.9193 70.0719 76.8672 70.4912L76.3477 71.8242C75.459 71.4505 74.666 71.2637 73.9688 71.2637C73.4401 71.2637 73.0391 71.3799 72.7656 71.6123C72.4922 71.8402 72.3555 72.1432 72.3555 72.5215C72.3555 72.7812 72.4102 73.0046 72.5195 73.1914C72.6289 73.3737 72.8089 73.5469 73.0596 73.7109C73.3102 73.875 73.7614 74.0915 74.4131 74.3604C75.1468 74.6657 75.6846 74.9505 76.0264 75.2148C76.3682 75.4792 76.6188 75.7777 76.7783 76.1104C76.9378 76.443 77.0176 76.835 77.0176 77.2861ZM84.1133 80L83.8877 79.0088H83.8057C83.5824 79.3597 83.2633 79.6354 82.8486 79.8359C82.4385 80.0365 81.9691 80.1367 81.4404 80.1367C80.5244 80.1367 79.8408 79.9089 79.3896 79.4531C78.9385 78.9974 78.7129 78.307 78.7129 77.3818V72.4395H80.333V77.1016C80.333 77.6803 80.4515 78.1156 80.6885 78.4072C80.9255 78.6943 81.2969 78.8379 81.8027 78.8379C82.4772 78.8379 82.9717 78.6374 83.2861 78.2363C83.6051 77.8307 83.7646 77.154 83.7646 76.2061V72.4395H85.3779V80H84.1133ZM91.5029 72.3027C91.8265 72.3027 92.0931 72.3255 92.3027 72.3711L92.1455 73.8682C91.9176 73.8135 91.6807 73.7861 91.4346 73.7861C90.792 73.7861 90.2702 73.9958 89.8691 74.415C89.4727 74.8343 89.2744 75.3789 89.2744 76.0488V80H87.668V72.4395H88.9258L89.1377 73.7725H89.2197C89.4704 73.3213 89.7962 72.9635 90.1973 72.6992C90.6029 72.4349 91.0381 72.3027 91.5029 72.3027ZM95.4336 80L92.5625 72.4395H94.2578L95.7959 76.835C96.0602 77.5732 96.2197 78.1702 96.2744 78.626H96.3291C96.3701 78.2979 96.5296 77.7008 96.8076 76.835L98.3457 72.4395H100.055L97.1699 80H95.4336ZM104.505 80.1367C103.329 80.1367 102.409 79.7949 101.743 79.1113C101.082 78.4232 100.752 77.4775 100.752 76.2744C100.752 75.0394 101.06 74.0687 101.675 73.3623C102.29 72.6559 103.135 72.3027 104.211 72.3027C105.209 72.3027 105.997 72.6058 106.576 73.2119C107.155 73.818 107.444 74.652 107.444 75.7139V76.582H102.406C102.429 77.3158 102.627 77.8809 103.001 78.2773C103.375 78.6693 103.901 78.8652 104.58 78.8652C105.027 78.8652 105.441 78.8242 105.824 78.7422C106.212 78.6556 106.626 78.5143 107.068 78.3184V79.624C106.676 79.8109 106.28 79.943 105.879 80.0205C105.478 80.098 105.02 80.1367 104.505 80.1367ZM104.211 73.5195C103.701 73.5195 103.29 73.6813 102.98 74.0049C102.675 74.3285 102.493 74.8001 102.434 75.4199H105.865C105.856 74.7956 105.706 74.3239 105.414 74.0049C105.122 73.6813 104.721 73.5195 104.211 73.5195ZM108.121 72.4395H109.871L111.409 76.7256C111.642 77.3363 111.797 77.9105 111.874 78.4482H111.929C111.97 78.1976 112.045 77.8945 112.154 77.5391C112.264 77.179 112.842 75.4792 113.891 72.4395H115.627L112.394 81.0049C111.806 82.5771 110.826 83.3633 109.454 83.3633C109.099 83.3633 108.752 83.3245 108.415 83.2471V81.9756C108.657 82.0303 108.932 82.0576 109.242 82.0576C110.017 82.0576 110.562 81.6087 110.876 80.7109L111.156 80L108.121 72.4395Z" fill="#505F79"/>
<circle cx="58" cy="28" r="28" fill="#FDF3DD"/>
<path d="M66.7834 14L68.5705 17.6204L72.5668 18.2045L69.6751 21.021L70.3575 25L66.7834 23.1204L63.2093 25L63.8917 21.021L61 18.2045L64.9963 17.6204L66.7834 14Z" fill="#FFE9B6" stroke="#B08113" stroke-width="1.5" stroke-linecap="round" stroke-linejoin="round"/>
<path d="M52.5 41C57.7467 41 62 36.7467 62 31.5C62 26.2533 57.7467 22 52.5 22C47.2533 22 43 26.2533 43 31.5C43 36.7467 47.2533 41 52.5 41Z" fill="#FFE9B6" stroke="#B08113" stroke-width="1.5" stroke-linecap="round" stroke-linejoin="round"/>
<path d="M48.7 33.3999C48.7 33.3999 50.125 35.2999 52.5 35.2999C54.875 35.2999 56.3 33.3999 56.3 33.3999" stroke="#B08113" stroke-width="1.5" stroke-linecap="round" stroke-linejoin="round"/>
<path d="M49.6501 28.6499H49.6575" stroke="#B08113" stroke-width="1.9" stroke-linecap="round" stroke-linejoin="round"/>
<path d="M55.3501 28.6499H55.3575" stroke="#B08113" stroke-width="1.9" stroke-linecap="round" stroke-linejoin="round"/>
</svg>
