<svg width="58" height="85" viewBox="0 0 58 85" fill="none" xmlns="http://www.w3.org/2000/svg">
<path d="M5.42969 74.5791H9.10742V79.5967C8.50586 79.7926 7.92708 79.9316 7.37109 80.0137C6.81966 80.0957 6.22266 80.1367 5.58008 80.1367C4.06706 80.1367 2.90039 79.6901 2.08008 78.7969C1.25977 77.8991 0.849609 76.6344 0.849609 75.0029C0.849609 73.3942 1.31217 72.1364 2.2373 71.2295C3.16243 70.318 4.4362 69.8623 6.05859 69.8623C7.10221 69.8623 8.09115 70.0628 9.02539 70.4639L8.45117 71.8242C7.63997 71.4505 6.82878 71.2637 6.01758 71.2637C4.95117 71.2637 4.10807 71.5986 3.48828 72.2686C2.86849 72.9385 2.55859 73.8545 2.55859 75.0166C2.55859 76.238 2.83659 77.1676 3.39258 77.8057C3.95312 78.4391 4.75749 78.7559 5.80566 78.7559C6.33431 78.7559 6.89941 78.6898 7.50098 78.5576V75.9805H5.42969V74.5791ZM12.9492 80H11.3428V69.3633H12.9492V80ZM21.959 76.2061C21.959 77.4411 21.6423 78.4049 21.0088 79.0977C20.3753 79.7904 19.4935 80.1367 18.3633 80.1367C17.6569 80.1367 17.0326 79.9772 16.4902 79.6582C15.9479 79.3392 15.5309 78.8812 15.2393 78.2842C14.9476 77.6872 14.8018 76.9945 14.8018 76.2061C14.8018 74.9801 15.1162 74.0231 15.7451 73.335C16.374 72.6468 17.2604 72.3027 18.4043 72.3027C19.498 72.3027 20.3639 72.6559 21.002 73.3623C21.64 74.0641 21.959 75.012 21.959 76.2061ZM16.4561 76.2061C16.4561 77.9515 17.1009 78.8242 18.3906 78.8242C19.6667 78.8242 20.3047 77.9515 20.3047 76.2061C20.3047 74.4788 19.6621 73.6152 18.377 73.6152C17.7025 73.6152 17.2126 73.8385 16.9072 74.2852C16.6064 74.7318 16.4561 75.3721 16.4561 76.2061ZM28.8906 77.8467C28.8906 78.585 28.6217 79.1523 28.084 79.5488C27.5462 79.9408 26.776 80.1367 25.7734 80.1367C24.7663 80.1367 23.9574 79.984 23.3467 79.6787V78.291C24.2354 78.7012 25.0625 78.9062 25.8281 78.9062C26.8171 78.9062 27.3115 78.6077 27.3115 78.0107C27.3115 77.8193 27.2568 77.6598 27.1475 77.5322C27.0381 77.4046 26.8581 77.2725 26.6074 77.1357C26.3568 76.999 26.0081 76.8441 25.5615 76.6709C24.6911 76.3337 24.1009 75.9964 23.791 75.6592C23.4857 75.3219 23.333 74.8844 23.333 74.3467C23.333 73.6995 23.5928 73.1982 24.1123 72.8428C24.6364 72.4827 25.3473 72.3027 26.2451 72.3027C27.1338 72.3027 27.9746 72.4827 28.7676 72.8428L28.248 74.0527C27.4323 73.7155 26.7464 73.5469 26.1904 73.5469C25.3428 73.5469 24.9189 73.7884 24.9189 74.2715C24.9189 74.5085 25.0283 74.709 25.2471 74.873C25.4704 75.0371 25.9535 75.2627 26.6963 75.5498C27.3206 75.7913 27.7741 76.0124 28.0566 76.2129C28.3392 76.4134 28.5488 76.6458 28.6855 76.9102C28.8223 77.1699 28.8906 77.4821 28.8906 77.8467ZM35.7129 77.8467C35.7129 78.585 35.444 79.1523 34.9062 79.5488C34.3685 79.9408 33.5983 80.1367 32.5957 80.1367C31.5885 80.1367 30.7796 79.984 30.1689 79.6787V78.291C31.0576 78.7012 31.8848 78.9062 32.6504 78.9062C33.6393 78.9062 34.1338 78.6077 34.1338 78.0107C34.1338 77.8193 34.0791 77.6598 33.9697 77.5322C33.8604 77.4046 33.6803 77.2725 33.4297 77.1357C33.179 76.999 32.8304 76.8441 32.3838 76.6709C31.5133 76.3337 30.9232 75.9964 30.6133 75.6592C30.3079 75.3219 30.1553 74.8844 30.1553 74.3467C30.1553 73.6995 30.415 73.1982 30.9346 72.8428C31.4587 72.4827 32.1696 72.3027 33.0674 72.3027C33.9561 72.3027 34.7969 72.4827 35.5898 72.8428L35.0703 74.0527C34.2546 73.7155 33.5687 73.5469 33.0127 73.5469C32.165 73.5469 31.7412 73.7884 31.7412 74.2715C31.7412 74.5085 31.8506 74.709 32.0693 74.873C32.2926 75.0371 32.7757 75.2627 33.5186 75.5498C34.1429 75.7913 34.5964 76.0124 34.8789 76.2129C35.1615 76.4134 35.3711 76.6458 35.5078 76.9102C35.6445 77.1699 35.7129 77.4821 35.7129 77.8467ZM42.1865 80L41.8652 78.9473H41.8105C41.446 79.4076 41.0791 79.722 40.71 79.8906C40.3408 80.0547 39.8669 80.1367 39.2881 80.1367C38.5452 80.1367 37.9642 79.9362 37.5449 79.5352C37.1302 79.1341 36.9229 78.5667 36.9229 77.833C36.9229 77.0537 37.2122 76.4658 37.791 76.0693C38.3698 75.6729 39.2516 75.4564 40.4365 75.4199L41.7422 75.3789V74.9756C41.7422 74.4925 41.6283 74.1325 41.4004 73.8955C41.1771 73.654 40.8285 73.5332 40.3545 73.5332C39.9671 73.5332 39.5957 73.5902 39.2402 73.7041C38.8848 73.818 38.543 73.9525 38.2148 74.1074L37.6953 72.959C38.1055 72.7448 38.5544 72.583 39.042 72.4736C39.5296 72.3597 39.9899 72.3027 40.4229 72.3027C41.3844 72.3027 42.109 72.5124 42.5967 72.9316C43.0889 73.3509 43.335 74.0094 43.335 74.9072V80H42.1865ZM39.7939 78.9062C40.3773 78.9062 40.8444 78.7445 41.1953 78.4209C41.5508 78.0928 41.7285 77.6348 41.7285 77.0469V76.3906L40.7578 76.4316C40.0013 76.459 39.4499 76.5866 39.1035 76.8145C38.7617 77.0378 38.5908 77.3818 38.5908 77.8467C38.5908 78.1839 38.6911 78.446 38.8916 78.6328C39.0921 78.8151 39.3929 78.9062 39.7939 78.9062ZM49.4121 72.3027C49.7357 72.3027 50.0023 72.3255 50.2119 72.3711L50.0547 73.8682C49.8268 73.8135 49.5898 73.7861 49.3438 73.7861C48.7012 73.7861 48.1794 73.9958 47.7783 74.415C47.3818 74.8343 47.1836 75.3789 47.1836 76.0488V80H45.5771V72.4395H46.835L47.0469 73.7725H47.1289C47.3796 73.3213 47.7054 72.9635 48.1064 72.6992C48.512 72.4349 48.9473 72.3027 49.4121 72.3027ZM50.4717 72.4395H52.2217L53.7598 76.7256C53.9922 77.3363 54.1471 77.9105 54.2246 78.4482H54.2793C54.3203 78.1976 54.3955 77.8945 54.5049 77.5391C54.6143 77.179 55.193 75.4792 56.2412 72.4395H57.9775L54.7441 81.0049C54.1562 82.5771 53.1764 83.3633 51.8047 83.3633C51.4492 83.3633 51.1029 83.3245 50.7656 83.2471V81.9756C51.0072 82.0303 51.2829 82.0576 51.5928 82.0576C52.3675 82.0576 52.9121 81.6087 53.2266 80.7109L53.5068 80L50.4717 72.4395Z" fill="#505F79"/>
<circle cx="29" cy="28" r="28" fill="#EEEFFF"/>
<path d="M21.6666 14.6665H39.6666V41.3332H21.6666C20.7825 41.3332 19.9347 40.982 19.3096 40.3569C18.6844 39.7317 18.3333 38.8839 18.3333 37.9998V17.9998C18.3333 17.1158 18.6844 16.2679 19.3096 15.6428C19.9347 15.0177 20.7825 14.6665 21.6666 14.6665V14.6665Z" fill="#B1B7FE" stroke="#424EDE" stroke-width="1.5" stroke-linecap="round" stroke-linejoin="round"/>
<path d="M18.3333 37.9998C18.3333 37.1158 18.6844 36.2679 19.3096 35.6428C19.9347 35.0177 20.7825 34.6665 21.6666 34.6665H39.6666" stroke="#424EDE" stroke-width="1.5" stroke-linecap="round" stroke-linejoin="round"/>
</svg>
