<svg width="11" height="11" viewBox="0 0 11 11" fill="none" xmlns="http://www.w3.org/2000/svg">
    <path
        d="M9.16683 3.7806V8.24935C9.16683 9.62435 8.34641 10.0827 7.3335 10.0827H3.66683C2.65391 10.0827 1.8335 9.62435 1.8335 8.24935V3.7806C1.8335 2.29102 2.65391 1.94727 3.66683 1.94727C3.66683 2.23143 3.7814 2.4881 3.96932 2.67601C4.15723 2.86393 4.41391 2.97852 4.69808 2.97852H6.30225C6.87058 2.97852 7.3335 2.5156 7.3335 1.94727C8.34641 1.94727 9.16683 2.29102 9.16683 3.7806Z"
        stroke="#092682" stroke-width="0.8" stroke-linecap="round" stroke-linejoin="round" />
    <path
        d="M7.33317 1.94727C7.33317 2.5156 6.87025 2.97852 6.30192 2.97852H4.69775C4.41359 2.97852 4.15691 2.86393 3.96899 2.67601C3.78107 2.4881 3.6665 2.23143 3.6665 1.94727C3.6665 1.37893 4.12942 0.916016 4.69775 0.916016H6.30192C6.58609 0.916016 6.84277 1.0306 7.03068 1.21852C7.2186 1.40643 7.33317 1.6631 7.33317 1.94727Z"
        stroke="#092682" stroke-width="0.8" stroke-linecap="round" stroke-linejoin="round" />
    <path d="M3.6665 5.95898H5.49984" stroke="#092682" stroke-width="0.8" stroke-linecap="round"
        stroke-linejoin="round" />
    <path d="M3.6665 7.79102H7.33317" stroke="#092682" stroke-width="0.8" stroke-linecap="round"
        stroke-linejoin="round" />
</svg>