<svg width="33" height="33" viewBox="0 0 33 33" fill="none" xmlns="http://www.w3.org/2000/svg">
    <rect opacity="0.1" width="32.5055" height="32.5055" rx="6" fill="#F2564A" />
    <path fill-rule="evenodd" clip-rule="evenodd"
        d="M12.8478 11.0397C12.5513 11.1195 12.2631 11.3453 12.1349 11.5983C11.9927 11.8788 12.0001 11.6381 12.0001 16.0013C12.0001 20.3645 11.9927 20.1238 12.1349 20.4043C12.2157 20.5639 12.4363 20.7844 12.5959 20.8652C12.8703 21.0042 12.7798 21 15.4616 21C18.1433 21 18.0528 21.0042 18.3273 20.8652C18.5888 20.7327 18.8359 20.4029 18.8981 20.1033C18.9157 20.0188 18.9221 19.5505 18.9177 18.6879C18.9112 17.4285 18.9099 17.3971 18.8615 17.3323C18.7673 17.2062 18.6905 17.1669 18.5385 17.1669C18.3865 17.1669 18.3097 17.2062 18.2155 17.3323C18.1672 17.3969 18.1656 17.4327 18.1539 18.7006C18.1404 20.1633 18.1505 20.0865 17.9582 20.1846C17.8682 20.2305 17.8071 20.2315 15.4318 20.2253L13.09 20.2192C13.0299 20.219 12.9714 20.2002 12.9225 20.1653C12.7574 20.0476 12.7693 20.3706 12.7693 16.0013C12.7693 11.632 12.7574 11.955 12.9225 11.8372C12.9714 11.8024 13.0299 11.7836 13.09 11.7834L15.4332 11.7773C18.131 11.7703 17.9717 11.7614 18.0882 11.9248C18.1417 11.9998 18.1419 12.0028 18.1539 13.302C18.1656 14.5698 18.1672 14.6057 18.2155 14.6703C18.3097 14.7964 18.3865 14.8357 18.5385 14.8357C18.6905 14.8357 18.7673 14.7964 18.8615 14.6703C18.9099 14.6055 18.9112 14.5741 18.9177 13.3147C18.9221 12.4521 18.9157 11.9838 18.8981 11.8993C18.8131 11.4901 18.4809 11.1467 18.0651 11.0385C17.8653 10.9864 13.0413 10.9875 12.8478 11.0397ZM19.8121 14.5077C19.6337 14.6025 19.5596 14.8046 19.6355 14.9889C19.6765 15.0884 19.7188 15.1267 20.0364 15.3524C20.1474 15.4313 20.092 15.6062 19.9558 15.6068L17.8561 15.6168C15.3424 15.6287 15.3203 15.6292 15.2545 15.6784C15.1283 15.7725 15.089 15.8493 15.089 16.0013C15.089 16.1533 15.1283 16.2301 15.2545 16.3242C15.3205 16.3735 15.3374 16.3738 17.9169 16.3801L20.1031 16.3854C20.2403 16.3858 20.3011 16.5581 20.1946 16.6445C19.8135 16.9532 19.7792 16.995 19.7792 17.1506C19.7792 17.4287 20.0443 17.6145 20.3015 17.5168C20.3342 17.5043 20.7115 17.2139 21.14 16.8714C21.949 16.2247 22 16.1731 22 16.0029C22 15.8834 21.9419 15.7756 21.8286 15.6846C21.6577 15.5474 20.2405 14.5523 20.15 14.5059C20.0428 14.451 19.9177 14.4517 19.8121 14.5077Z"
        fill="#F2564A" />
</svg>