<svg width="17" height="17" viewBox="0 0 17 17" fill="none" xmlns="http://www.w3.org/2000/svg">
    <path opacity="0.8" fill-rule="evenodd" clip-rule="evenodd"
        d="M6.89114 2.43042C6.01477 3.76717 5.29276 4.87419 5.28668 4.89046C5.28056 4.90677 5.4901 4.92043 5.75232 4.92084C6.14512 4.92146 6.25302 4.93289 6.36537 4.98563C6.52944 5.06273 6.64628 5.22166 6.66617 5.39479C6.67422 5.46487 6.61349 6.01703 6.5312 6.62182C6.44892 7.22661 6.38582 7.72584 6.39101 7.73121C6.3962 7.73658 6.49658 7.70172 6.61409 7.6538C7.63168 7.23858 8.8491 7.17744 9.91877 7.48779C10.0822 7.5352 10.3055 7.61165 10.4149 7.65765C10.5244 7.70365 10.6179 7.73723 10.6227 7.73224C10.6274 7.72729 10.5636 7.21526 10.4808 6.59443C10.3931 5.93731 10.3388 5.41777 10.3509 5.35116C10.3793 5.19451 10.4882 5.06136 10.65 4.98532C10.7616 4.93292 10.8704 4.92146 11.2624 4.92084C11.5246 4.92043 11.7341 4.90722 11.728 4.89146C11.6993 4.81735 8.52757 0 8.50752 0C8.49488 0 7.76755 1.0937 6.89114 2.43042ZM2.39761 3.27857L0.661564 5.76304L1.2335 5.78045C1.59275 5.79139 1.83195 5.81351 1.87669 5.8399C1.9936 5.90882 2.11729 6.08374 2.14077 6.21335C2.15511 6.29221 2.08549 6.87955 1.94218 7.88962C1.82081 8.74482 1.7217 9.46927 1.72193 9.49955C1.72226 9.54779 1.75619 9.54438 1.99669 9.47196C2.64051 9.27804 3.4134 9.2424 4.04594 9.37748L4.32406 9.43686L4.458 9.26865C4.53164 9.17613 4.73719 8.95335 4.91476 8.77358L5.23762 8.44672L5.39278 7.27691C5.47809 6.63352 5.54777 6.08002 5.54757 6.04689C5.54724 5.99143 5.49063 5.98668 4.82772 5.98668C4.16185 5.98668 4.10006 5.98145 3.99858 5.91656C3.88081 5.84128 3.75069 5.60487 3.75189 5.46832C3.75319 5.31793 3.86597 5.12546 4.67532 3.89234L5.4741 2.67536L5.10937 2.15483C4.90874 1.86853 4.61466 1.44537 4.45577 1.2145C4.29689 0.983604 4.15943 0.794577 4.15028 0.794405C4.14113 0.794233 3.35244 1.91212 2.39761 3.27857ZM12.5585 1.21419C12.3993 1.44523 12.1049 1.86857 11.9042 2.15489L11.5393 2.67549L12.3386 3.89241C13.1488 5.12584 13.2615 5.31806 13.2628 5.46832C13.264 5.60487 13.1339 5.84128 13.0161 5.91656C12.9146 5.98145 12.8528 5.98668 12.187 5.98668C11.5242 5.98668 11.4674 5.99143 11.4668 6.04689C11.4664 6.08002 11.5358 6.63352 11.6211 7.27691L11.7761 8.44672L12.099 8.77358C12.2766 8.95335 12.4814 9.17634 12.5541 9.2691L12.6863 9.43776L12.9666 9.37793C13.6014 9.24243 14.3734 9.2778 15.018 9.47196C15.2675 9.5471 15.2924 9.54927 15.2924 9.49594C15.2924 9.4637 15.1951 8.75393 15.0762 7.91869C14.9573 7.08345 14.86 6.34805 14.86 6.28446C14.86 6.15382 14.9641 5.97636 15.1035 5.86942C15.1878 5.80474 15.256 5.79569 15.7749 5.78024L16.3525 5.76304L14.6168 3.27888C13.6621 1.91257 12.8736 0.794577 12.8644 0.794405C12.8553 0.794233 12.7176 0.983123 12.5585 1.21419ZM7.82342 8.41435C5.66351 8.78996 4.13012 10.8544 4.34941 13.0916C4.49821 14.6096 5.34778 15.8802 6.67103 16.5639C7.61162 17.05 8.80666 17.1357 9.81151 16.7891C11.2348 16.2983 12.293 15.0716 12.6005 13.556C12.6941 13.0947 12.7026 12.3449 12.6192 11.8973C12.2333 9.82473 10.499 8.34653 8.47409 8.36435C8.26372 8.36621 7.97093 8.38868 7.82342 8.41435ZM8.80084 9.65834C8.9401 9.76568 9.01257 9.92609 9.0314 10.1686L9.04862 10.3907H9.53013C10.1026 10.3907 10.2202 10.4344 10.3407 10.6918C10.4581 10.9425 10.3916 11.1882 10.1576 11.3691C10.0703 11.4366 10.0113 11.4409 8.94568 11.4573C8.32961 11.4667 7.80037 11.4873 7.76964 11.503C7.69258 11.5424 7.6385 11.7169 7.67369 11.8126C7.73631 11.983 7.76751 11.9895 8.62043 12.0078L9.422 12.025L9.63829 12.131C10.4586 12.5331 10.653 13.6419 10.0169 14.2906C9.81783 14.4937 9.56898 14.6204 9.27569 14.6682L9.04656 14.7055L9.03419 15.0514C9.02454 15.3209 9.00682 15.4238 8.95403 15.5173C8.75234 15.8745 8.31012 15.8878 8.06393 15.544C8.00905 15.4673 7.99411 15.3814 7.98174 15.0709L7.96664 14.6914H7.48487C6.91213 14.6914 6.79446 14.6478 6.67399 14.3903C6.55665 14.1396 6.62307 13.8939 6.85708 13.713C6.94443 13.6455 7.0033 13.6412 8.07647 13.6249C9.14837 13.6085 9.20731 13.6042 9.26937 13.5388C9.30529 13.501 9.34461 13.4278 9.35678 13.3763C9.37461 13.3007 9.35941 13.2624 9.27829 13.1784L9.17767 13.0744L8.46834 13.0739C7.53333 13.0734 7.32016 13.0133 6.98198 12.6549C6.49418 12.1379 6.50064 11.3022 6.99644 10.7893C7.08179 10.701 7.20598 10.6001 7.2724 10.5651C7.4397 10.4769 7.73272 10.3907 7.86483 10.3907C7.97412 10.3907 7.97519 10.3891 7.97665 10.2272C7.97931 9.92839 8.09316 9.70547 8.29116 9.61127C8.425 9.54762 8.68882 9.57198 8.80084 9.65834ZM2.78043 10.3934C2.09684 10.4971 1.45305 10.8251 0.966226 11.3176C-0.335673 12.6349 -0.319808 14.818 1.00095 16.0888C1.62328 16.6876 2.37938 17.0005 3.20237 17C3.7316 16.9997 4.18158 16.8934 4.62583 16.6637L4.8519 16.5469L4.63245 16.2987C3.72748 15.2752 3.23144 13.8515 3.29586 12.4625C3.3232 11.873 3.39308 11.4915 3.57135 10.9584C3.65361 10.7124 3.72399 10.488 3.72774 10.4597C3.73968 10.3694 3.19146 10.331 2.78043 10.3934ZM13.4298 10.3849C13.3239 10.4011 13.2822 10.423 13.287 10.4595C13.2907 10.4879 13.3611 10.7124 13.4433 10.9584C13.6211 11.4898 13.6915 11.8731 13.7184 12.455C13.7851 13.8958 13.2634 15.3447 12.3034 16.3851L12.1534 16.5478L12.4438 16.6886C12.6036 16.766 12.8796 16.8682 13.0571 16.9156C13.3501 16.9938 13.4261 17.0003 13.8789 16.9865C14.2962 16.9736 14.4267 16.956 14.6771 16.8784C15.7974 16.5314 16.6106 15.6748 16.9108 14.5256C16.9843 14.2441 16.9981 14.118 16.9999 13.7109C17.0023 13.1589 16.9552 12.8896 16.777 12.4374C16.5663 11.9029 16.1279 11.3263 15.6749 10.9881C15.4188 10.7968 14.8742 10.539 14.5607 10.4606C14.2607 10.3855 13.6789 10.3466 13.4298 10.3849Z"
        fill="white" />
</svg>