<svg width="13" height="12" viewBox="0 0 13 12" fill="none" xmlns="http://www.w3.org/2000/svg">
    <path
        d="M11.7526 9.165C11.7526 9.345 11.7124 9.53 11.627 9.71C11.5416 9.89 11.4311 10.06 11.2854 10.22C11.0392 10.49 10.7679 10.685 10.4614 10.81C10.16 10.935 9.83345 11 9.48178 11C8.96934 11 8.42173 10.88 7.84398 10.635C7.26624 10.39 6.68849 10.06 6.11576 9.645C5.53801 9.225 4.99041 8.76 4.46792 8.245C3.95046 7.725 3.48324 7.18 3.06625 6.61C2.65429 6.04 2.32272 5.47 2.08157 4.905C1.84042 4.335 1.71985 3.79 1.71985 3.27C1.71985 2.93 1.78014 2.605 1.90071 2.305C2.02128 2 2.21219 1.72 2.47846 1.47C2.79999 1.155 3.15166 1 3.52343 1C3.6641 1 3.80477 1.03 3.93037 1.09C4.06099 1.15 4.17654 1.24 4.26697 1.37L5.43251 3.005C5.52294 3.13 5.58825 3.245 5.63347 3.355C5.67868 3.46 5.7038 3.565 5.7038 3.66C5.7038 3.78 5.66864 3.9 5.5983 4.015C5.53299 4.13 5.43754 4.25 5.31696 4.37L4.93515 4.765C4.87988 4.82 4.85476 4.885 4.85476 4.965C4.85476 5.005 4.85979 5.04 4.86984 5.08C4.88491 5.12 4.89998 5.15 4.91003 5.18C5.00046 5.345 5.1562 5.56 5.37725 5.82C5.60332 6.08 5.84447 6.345 6.10571 6.61C6.37701 6.875 6.63825 7.12 6.90451 7.345C7.16576 7.565 7.38179 7.715 7.5526 7.805C7.57772 7.815 7.60786 7.83 7.64303 7.845C7.68322 7.86 7.72341 7.865 7.76863 7.865C7.85403 7.865 7.91934 7.835 7.97461 7.78L8.35642 7.405C8.48202 7.28 8.60259 7.185 8.71814 7.125C8.83369 7.055 8.94924 7.02 9.07484 7.02C9.17029 7.02 9.27077 7.04 9.3813 7.085C9.49182 7.13 9.60737 7.195 9.73297 7.28L11.3959 8.455C11.5265 8.545 11.6169 8.65 11.6722 8.775C11.7224 8.9 11.7526 9.025 11.7526 9.165Z"
        stroke="#092682" stroke-miterlimit="10" />
    <path d="M10.0093 4.5C10.0093 4.2 9.77322 3.74 9.42155 3.365C9.10002 3.02 8.67298 2.75 8.25098 2.75"
        stroke="#092682" stroke-linecap="round" stroke-linejoin="round" />
    <path d="M11.7677 4.5C11.7677 2.565 10.1952 1 8.25098 1" stroke="#092682" stroke-linecap="round"
        stroke-linejoin="round" />
</svg>