<svg width="87" height="85" viewBox="0 0 87 85" fill="none" xmlns="http://www.w3.org/2000/svg">
<path d="M7.93945 73.0273C7.93945 74.071 7.59766 74.8708 6.91406 75.4268C6.23047 75.9827 5.25749 76.2607 3.99512 76.2607H2.95605V80H1.32227V70.0059H4.2002C5.44889 70.0059 6.38314 70.2611 7.00293 70.7715C7.62728 71.2819 7.93945 72.0339 7.93945 73.0273ZM2.95605 74.8867H3.82422C4.66276 74.8867 5.27799 74.7409 5.66992 74.4492C6.06185 74.1576 6.25781 73.7018 6.25781 73.082C6.25781 72.5078 6.08236 72.0794 5.73145 71.7969C5.38053 71.5143 4.83366 71.373 4.09082 71.373H2.95605V74.8867ZM13.5996 72.3027C13.9232 72.3027 14.1898 72.3255 14.3994 72.3711L14.2422 73.8682C14.0143 73.8135 13.7773 73.7861 13.5312 73.7861C12.8887 73.7861 12.3669 73.9958 11.9658 74.415C11.5693 74.8343 11.3711 75.3789 11.3711 76.0488V80H9.76465V72.4395H11.0225L11.2344 73.7725H11.3164C11.5671 73.3213 11.8929 72.9635 12.2939 72.6992C12.6995 72.4349 13.1348 72.3027 13.5996 72.3027ZM19.1094 80.1367C17.9336 80.1367 17.013 79.7949 16.3477 79.1113C15.6868 78.4232 15.3564 77.4775 15.3564 76.2744C15.3564 75.0394 15.6641 74.0687 16.2793 73.3623C16.8945 72.6559 17.7399 72.3027 18.8154 72.3027C19.8135 72.3027 20.6019 72.6058 21.1807 73.2119C21.7594 73.818 22.0488 74.652 22.0488 75.7139V76.582H17.0107C17.0335 77.3158 17.2318 77.8809 17.6055 78.2773C17.9792 78.6693 18.5055 78.8652 19.1846 78.8652C19.6312 78.8652 20.0459 78.8242 20.4287 78.7422C20.8161 78.6556 21.2308 78.5143 21.6729 78.3184V79.624C21.2809 79.8109 20.8844 79.943 20.4834 80.0205C20.0824 80.098 19.6243 80.1367 19.1094 80.1367ZM18.8154 73.5195C18.305 73.5195 17.8949 73.6813 17.585 74.0049C17.2796 74.3285 17.0973 74.8001 17.0381 75.4199H20.4697C20.4606 74.7956 20.3102 74.3239 20.0186 74.0049C19.7269 73.6813 19.3258 73.5195 18.8154 73.5195ZM28.9531 77.8467C28.9531 78.585 28.6842 79.1523 28.1465 79.5488C27.6087 79.9408 26.8385 80.1367 25.8359 80.1367C24.8288 80.1367 24.0199 79.984 23.4092 79.6787V78.291C24.2979 78.7012 25.125 78.9062 25.8906 78.9062C26.8796 78.9062 27.374 78.6077 27.374 78.0107C27.374 77.8193 27.3193 77.6598 27.21 77.5322C27.1006 77.4046 26.9206 77.2725 26.6699 77.1357C26.4193 76.999 26.0706 76.8441 25.624 76.6709C24.7536 76.3337 24.1634 75.9964 23.8535 75.6592C23.5482 75.3219 23.3955 74.8844 23.3955 74.3467C23.3955 73.6995 23.6553 73.1982 24.1748 72.8428C24.6989 72.4827 25.4098 72.3027 26.3076 72.3027C27.1963 72.3027 28.0371 72.4827 28.8301 72.8428L28.3105 74.0527C27.4948 73.7155 26.8089 73.5469 26.2529 73.5469C25.4053 73.5469 24.9814 73.7884 24.9814 74.2715C24.9814 74.5085 25.0908 74.709 25.3096 74.873C25.5329 75.0371 26.016 75.2627 26.7588 75.5498C27.3831 75.7913 27.8366 76.0124 28.1191 76.2129C28.4017 76.4134 28.6113 76.6458 28.748 76.9102C28.8848 77.1699 28.9531 77.4821 28.9531 77.8467ZM33.998 80.1367C32.8223 80.1367 31.9017 79.7949 31.2363 79.1113C30.5755 78.4232 30.2451 77.4775 30.2451 76.2744C30.2451 75.0394 30.5527 74.0687 31.168 73.3623C31.7832 72.6559 32.6286 72.3027 33.7041 72.3027C34.7021 72.3027 35.4906 72.6058 36.0693 73.2119C36.6481 73.818 36.9375 74.652 36.9375 75.7139V76.582H31.8994C31.9222 77.3158 32.1204 77.8809 32.4941 78.2773C32.8678 78.6693 33.3942 78.8652 34.0732 78.8652C34.5199 78.8652 34.9346 78.8242 35.3174 78.7422C35.7048 78.6556 36.1195 78.5143 36.5615 78.3184V79.624C36.1696 79.8109 35.7731 79.943 35.3721 80.0205C34.971 80.098 34.513 80.1367 33.998 80.1367ZM33.7041 73.5195C33.1937 73.5195 32.7835 73.6813 32.4736 74.0049C32.1683 74.3285 31.986 74.8001 31.9268 75.4199H35.3584C35.3493 74.7956 35.1989 74.3239 34.9072 74.0049C34.6156 73.6813 34.2145 73.5195 33.7041 73.5195ZM45.4141 80H43.8008V75.3516C43.8008 74.7682 43.6823 74.333 43.4453 74.0459C43.2129 73.7588 42.8415 73.6152 42.3311 73.6152C41.652 73.6152 41.1553 73.8158 40.8408 74.2168C40.5264 74.6178 40.3691 75.29 40.3691 76.2334V80H38.7627V72.4395H40.0205L40.2461 73.4307H40.3281C40.556 73.0706 40.8796 72.7926 41.2988 72.5967C41.7181 72.4007 42.1829 72.3027 42.6934 72.3027C44.5072 72.3027 45.4141 73.2256 45.4141 75.0713V80ZM50.4658 78.8379C50.8577 78.8379 51.2497 78.7764 51.6416 78.6533V79.8633C51.4639 79.9408 51.2337 80.0046 50.9512 80.0547C50.6732 80.1094 50.3838 80.1367 50.083 80.1367C48.5609 80.1367 47.7998 79.3346 47.7998 77.7305V73.6562H46.7676V72.9453L47.875 72.3574L48.4219 70.7578H49.4131V72.4395H51.5664V73.6562H49.4131V77.7031C49.4131 78.0905 49.5088 78.3776 49.7002 78.5645C49.8962 78.7467 50.1514 78.8379 50.4658 78.8379ZM57.8896 80L57.5684 78.9473H57.5137C57.1491 79.4076 56.7822 79.722 56.4131 79.8906C56.0439 80.0547 55.57 80.1367 54.9912 80.1367C54.2484 80.1367 53.6673 79.9362 53.248 79.5352C52.8333 79.1341 52.626 78.5667 52.626 77.833C52.626 77.0537 52.9154 76.4658 53.4941 76.0693C54.0729 75.6729 54.9548 75.4564 56.1396 75.4199L57.4453 75.3789V74.9756C57.4453 74.4925 57.3314 74.1325 57.1035 73.8955C56.8802 73.654 56.5316 73.5332 56.0576 73.5332C55.6702 73.5332 55.2988 73.5902 54.9434 73.7041C54.5879 73.818 54.2461 73.9525 53.918 74.1074L53.3984 72.959C53.8086 72.7448 54.2575 72.583 54.7451 72.4736C55.2327 72.3597 55.693 72.3027 56.126 72.3027C57.0876 72.3027 57.8122 72.5124 58.2998 72.9316C58.792 73.3509 59.0381 74.0094 59.0381 74.9072V80H57.8896ZM55.4971 78.9062C56.0804 78.9062 56.5475 78.7445 56.8984 78.4209C57.2539 78.0928 57.4316 77.6348 57.4316 77.0469V76.3906L56.4609 76.4316C55.7044 76.459 55.153 76.5866 54.8066 76.8145C54.4648 77.0378 54.2939 77.3818 54.2939 77.8467C54.2939 78.1839 54.3942 78.446 54.5947 78.6328C54.7952 78.8151 55.096 78.9062 55.4971 78.9062ZM64.0967 78.8379C64.4886 78.8379 64.8805 78.7764 65.2725 78.6533V79.8633C65.0947 79.9408 64.8646 80.0046 64.582 80.0547C64.304 80.1094 64.0146 80.1367 63.7139 80.1367C62.1917 80.1367 61.4307 79.3346 61.4307 77.7305V73.6562H60.3984V72.9453L61.5059 72.3574L62.0527 70.7578H63.0439V72.4395H65.1973V73.6562H63.0439V77.7031C63.0439 78.0905 63.1396 78.3776 63.3311 78.5645C63.527 78.7467 63.7822 78.8379 64.0967 78.8379ZM68.3965 80H66.79V72.4395H68.3965V80ZM66.6943 70.4365C66.6943 70.1494 66.7718 69.9284 66.9268 69.7734C67.0863 69.6185 67.3118 69.541 67.6035 69.541C67.8861 69.541 68.1048 69.6185 68.2598 69.7734C68.4193 69.9284 68.499 70.1494 68.499 70.4365C68.499 70.71 68.4193 70.9264 68.2598 71.0859C68.1048 71.2409 67.8861 71.3184 67.6035 71.3184C67.3118 71.3184 67.0863 71.2409 66.9268 71.0859C66.7718 70.9264 66.6943 70.71 66.6943 70.4365ZM77.4062 76.2061C77.4062 77.4411 77.0895 78.4049 76.4561 79.0977C75.8226 79.7904 74.9408 80.1367 73.8105 80.1367C73.1042 80.1367 72.4798 79.9772 71.9375 79.6582C71.3952 79.3392 70.9782 78.8812 70.6865 78.2842C70.3949 77.6872 70.249 76.9945 70.249 76.2061C70.249 74.9801 70.5635 74.0231 71.1924 73.335C71.8213 72.6468 72.7077 72.3027 73.8516 72.3027C74.9453 72.3027 75.8112 72.6559 76.4492 73.3623C77.0872 74.0641 77.4062 75.012 77.4062 76.2061ZM71.9033 76.2061C71.9033 77.9515 72.5482 78.8242 73.8379 78.8242C75.1139 78.8242 75.752 77.9515 75.752 76.2061C75.752 74.4788 75.1094 73.6152 73.8242 73.6152C73.1497 73.6152 72.6598 73.8385 72.3545 74.2852C72.0537 74.7318 71.9033 75.3721 71.9033 76.2061ZM85.9102 80H84.2969V75.3516C84.2969 74.7682 84.1784 74.333 83.9414 74.0459C83.709 73.7588 83.3376 73.6152 82.8271 73.6152C82.1481 73.6152 81.6514 73.8158 81.3369 74.2168C81.0225 74.6178 80.8652 75.29 80.8652 76.2334V80H79.2588V72.4395H80.5166L80.7422 73.4307H80.8242C81.0521 73.0706 81.3757 72.7926 81.7949 72.5967C82.2142 72.4007 82.679 72.3027 83.1895 72.3027C85.0033 72.3027 85.9102 73.2256 85.9102 75.0713V80Z" fill="#505F79"/>
<circle cx="43" cy="28" r="28" fill="#E3F8FF"/>
<rect x="37.5" y="17" width="18" height="23" rx="1" fill="#F9FDFF" stroke="#1CAEE4" stroke-width="1.5"/>
<path d="M31 16.8755V39.1245C31 39.6257 31.371 40.0495 31.8678 40.1157L44.8678 41.849C45.4673 41.929 46 41.4626 46 40.8578V15.1422C46 14.5374 45.4673 14.071 44.8678 14.151L31.8678 15.8843C31.371 15.9505 31 16.3743 31 16.8755Z" fill="#CAF2FF" stroke="#1CAEE4" stroke-width="1.5"/>
<path d="M38.48 23.6101C39.3408 23.5512 40.1947 23.7992 40.89 24.3101C41.1689 24.5603 41.3881 24.8699 41.5318 25.216C41.6754 25.562 41.7397 25.9359 41.72 26.3101C41.737 26.8461 41.5964 27.3753 41.3155 27.8321C41.0347 28.2889 40.626 28.6533 40.14 28.8801C39.5848 29.1333 38.9802 29.2597 38.37 29.2501H36.71V32.3501H35V23.6101H38.48ZM36.7 27.9401H38.18C38.6453 27.9774 39.1081 27.8421 39.48 27.5601C39.6319 27.4135 39.75 27.2356 39.826 27.0387C39.9019 26.8418 39.934 26.6307 39.92 26.4201C39.92 25.4201 39.36 24.9701 38.23 24.9701H36.71L36.7 27.9401Z" fill="#1CAEE4"/>
</svg>
