<svg width="40" height="40" viewBox="0 0 40 40" fill="none" xmlns="http://www.w3.org/2000/svg">
<rect width="40" height="40" rx="4" fill="#E3F8FF"/>
<rect x="15.875" y="11.75" width="13.5" height="17.25" rx="0.75" fill="#F9FDFF" stroke="#1CAEE4" stroke-width="1.5"/>
<path d="M11 11.6566V28.3434C11 28.7193 11.2783 29.0371 11.6509 29.0868L21.4009 30.3868C21.8505 30.4467 22.25 30.097 22.25 29.6434V10.3566C22.25 9.90305 21.8505 9.55327 21.4009 9.61322L11.6509 10.9132C11.2783 10.9629 11 11.2807 11 11.6566Z" fill="#CAF2FF" stroke="#1CAEE4" stroke-width="1.5"/>
<path d="M16.61 16.7076C17.2556 16.6634 17.896 16.8494 18.4175 17.2325C18.6266 17.4203 18.7911 17.6524 18.8988 17.912C19.0065 18.1715 19.0548 18.4519 19.04 18.7325C19.0528 19.1345 18.9473 19.5314 18.7367 19.8741C18.526 20.2167 18.2195 20.49 17.855 20.6601C17.4386 20.85 16.9851 20.9447 16.5275 20.9376H15.2825V23.2625H14V16.7076H16.61ZM15.275 19.9551H16.385C16.734 19.983 17.081 19.8816 17.36 19.67C17.4739 19.5601 17.5625 19.4267 17.6195 19.279C17.6765 19.1313 17.7005 18.973 17.69 18.8151C17.69 18.0651 17.27 17.7275 16.4225 17.7275H15.2825L15.275 19.9551Z" fill="#1CAEE4"/>
</svg>
