<svg width="18" height="18" viewBox="0 0 18 18" fill="none" xmlns="http://www.w3.org/2000/svg">
<path fill-rule="evenodd" clip-rule="evenodd" d="M5.22708 0.0624058C4.20813 0.280648 3.40062 1.09658 3.19077 2.11996C3.14728 2.33209 3.13523 2.62357 3.13523 3.46421V4.53757H2.76466C1.95395 4.53757 1.33974 4.7769 0.802475 5.30208C0.413765 5.68209 0.170303 6.12655 0.0622456 6.6535C-0.0209942 7.05941 -0.0206426 11.5072 0.0626674 11.9104C0.16735 12.4171 0.388385 12.8319 0.757094 13.2135C1.28873 13.7636 1.93757 14.0264 2.76466 14.0264H3.13523V15.2898C3.13523 16.0988 3.14957 16.6202 3.17509 16.7395C3.30434 17.3433 3.78972 17.8285 4.39363 17.9577C4.65506 18.0137 13.3521 18.0143 13.6176 17.9584C14.2141 17.8328 14.7123 17.3348 14.837 16.7395C14.8613 16.623 14.876 16.08 14.876 15.2898V14.0264H15.2465C15.6416 14.0264 16.0381 13.9603 16.3308 13.8458C16.9352 13.6093 17.503 13.0617 17.7789 12.449C17.989 11.9827 17.9821 12.0796 17.9954 9.40581C18.0061 7.24827 18.0007 6.91226 17.9508 6.66647C17.8093 5.96792 17.3959 5.3593 16.7974 4.96829C16.3364 4.66714 15.8699 4.53757 15.2465 4.53757H14.876V3.46421C14.876 2.6195 14.8641 2.33314 14.82 2.12003C14.6059 1.08372 13.796 0.274006 12.7593 0.0599457C12.365 -0.0214822 5.60838 -0.0192681 5.22708 0.0624058ZM12.563 1.09753C13.1651 1.22412 13.652 1.71114 13.7815 2.31645C13.8061 2.43098 13.8214 2.89453 13.8214 3.52012V4.53757H9.0056H4.18978V3.52012C4.18978 2.90694 4.20536 2.4287 4.22898 2.31645C4.29299 2.01214 4.43195 1.76002 4.6618 1.53106C4.88498 1.30878 5.10655 1.18233 5.40253 1.10828C5.64117 1.04857 12.2828 1.03859 12.563 1.09753ZM15.6915 5.63106C16.2936 5.75765 16.7805 6.24467 16.9101 6.84999C16.965 7.1065 16.9658 11.4522 16.9109 11.7139C16.8546 11.9831 16.6522 12.3475 16.4587 12.5285C16.1289 12.837 15.7427 12.9721 15.1906 12.9721H14.876V12.0935V11.2149H15.0883C15.461 11.2149 15.7196 10.999 15.7196 10.6877C15.7196 10.5133 15.5953 10.3109 15.4393 10.2313C15.3018 10.1612 15.2452 10.1606 9.0056 10.1606C2.76596 10.1606 2.7094 10.1612 2.57188 10.2313C2.41591 10.3109 2.29158 10.5133 2.29158 10.6877C2.29158 10.999 2.55016 11.2149 2.92291 11.2149H3.13523V12.0935V12.9721H2.82058C2.23376 12.9721 1.87552 12.8404 1.53427 12.4992C1.30585 12.2708 1.16612 12.0175 1.10113 11.7139C1.04608 11.4567 1.04544 7.11135 1.10046 6.84999C1.16447 6.54568 1.30342 6.29356 1.53328 6.0646C1.75646 5.84231 1.97803 5.71587 2.274 5.64182C2.51416 5.58176 15.4079 5.57139 15.6915 5.63106ZM2.56439 6.85923C2.41598 6.93756 2.29158 7.14491 2.29158 7.31392C2.29158 7.4883 2.41591 7.69076 2.57188 7.77033C2.70078 7.83608 2.77784 7.84107 3.66251 7.84107C4.54717 7.84107 4.62423 7.83608 4.75313 7.77033C4.9091 7.69076 5.03343 7.4883 5.03343 7.31392C5.03343 7.13954 4.9091 6.93707 4.75313 6.85751C4.62388 6.79158 4.5489 6.78687 3.65512 6.78831C2.76958 6.78975 2.68574 6.7952 2.56439 6.85923ZM13.8214 13.8696C13.8214 16.4609 13.8197 16.5277 13.7507 16.6631C13.7051 16.7524 13.6304 16.827 13.5411 16.8725C13.4043 16.9423 13.3428 16.9433 9.003 16.9433H4.60359L4.46337 16.8645C4.38108 16.8182 4.29559 16.7317 4.25647 16.655C4.19274 16.5301 4.18978 16.4069 4.18978 13.8696V11.2149H9.0056H13.8214V13.8696ZM7.34506 12.4822C7.19665 12.5606 7.07224 12.7679 7.07224 12.9369C7.07224 13.1113 7.19658 13.3138 7.35254 13.3933C7.48521 13.461 7.55727 13.4641 9.0056 13.4641C10.4539 13.4641 10.526 13.461 10.6587 13.3933C10.8146 13.3138 10.939 13.1113 10.939 12.9369C10.939 12.7625 10.8146 12.5601 10.6587 12.4805C10.5258 12.4127 10.4556 12.4098 8.99822 12.4113C7.55263 12.4128 7.46992 12.4163 7.34506 12.4822ZM7.34506 14.7314C7.19665 14.8098 7.07224 15.0171 7.07224 15.1861C7.07224 15.3605 7.19658 15.563 7.35254 15.6425C7.48521 15.7102 7.55727 15.7133 9.0056 15.7133C10.4539 15.7133 10.526 15.7102 10.6587 15.6425C10.8146 15.563 10.939 15.3605 10.939 15.1861C10.939 15.0117 10.8146 14.8093 10.6587 14.7297C10.5258 14.6619 10.4556 14.659 8.99822 14.6605C7.55263 14.662 7.46992 14.6655 7.34506 14.7314Z" fill="#092682"/>
</svg>
