<svg width="36" height="36" viewBox="0 0 36 36" fill="none" xmlns="http://www.w3.org/2000/svg">
    <rect width="36" height="36" rx="4" transform="matrix(-1 0 0 1 36 0)" fill="#092682" />
    <path fill-rule="evenodd" clip-rule="evenodd"
        d="M14.2271 9.06241C13.2081 9.28065 12.4006 10.0966 12.1908 11.12C12.1473 11.3321 12.1352 11.6236 12.1352 12.4642V13.5376H11.7647C10.9539 13.5376 10.3397 13.7769 9.80247 14.3021C9.41376 14.6821 9.1703 15.1266 9.06225 15.6535C8.97901 16.0594 8.97936 20.5072 9.06267 20.9104C9.16735 21.4171 9.38839 21.8319 9.75709 22.2135C10.2887 22.7636 10.9376 23.0264 11.7647 23.0264H12.1352V24.2898C12.1352 25.0988 12.1496 25.6202 12.1751 25.7395C12.3043 26.3433 12.7897 26.8285 13.3936 26.9577C13.6551 27.0137 22.3521 27.0143 22.6176 26.9584C23.2141 26.8328 23.7123 26.3348 23.837 25.7395C23.8613 25.623 23.876 25.08 23.876 24.2898V23.0264H24.2465C24.6416 23.0264 25.0381 22.9603 25.3308 22.8458C25.9352 22.6093 26.503 22.0617 26.7789 21.449C26.989 20.9827 26.9821 21.0796 26.9954 18.4058C27.0061 16.2483 27.0007 15.9123 26.9508 15.6665C26.8093 14.9679 26.3959 14.3593 25.7974 13.9683C25.3364 13.6671 24.8699 13.5376 24.2465 13.5376H23.876V12.4642C23.876 11.6195 23.8641 11.3331 23.82 11.12C23.6059 10.0837 22.796 9.27401 21.7593 9.05995C21.365 8.97852 14.6084 8.98073 14.2271 9.06241ZM21.563 10.0975C22.1651 10.2241 22.652 10.7111 22.7815 11.3165C22.8061 11.431 22.8214 11.8945 22.8214 12.5201V13.5376H18.0056H13.1898V12.5201C13.1898 11.9069 13.2054 11.4287 13.229 11.3165C13.293 11.0121 13.4319 10.76 13.6618 10.5311C13.885 10.3088 14.1065 10.1823 14.4025 10.1083C14.6412 10.0486 21.2828 10.0386 21.563 10.0975ZM24.6915 14.6311C25.2936 14.7577 25.7805 15.2447 25.9101 15.85C25.965 16.1065 25.9658 20.4522 25.9109 20.7139C25.8546 20.9831 25.6522 21.3475 25.4587 21.5285C25.1289 21.837 24.7427 21.9721 24.1906 21.9721H23.876V21.0935V20.2149H24.0883C24.461 20.2149 24.7196 19.999 24.7196 19.6877C24.7196 19.5133 24.5953 19.3109 24.4393 19.2313C24.3018 19.1612 24.2452 19.1606 18.0056 19.1606C11.766 19.1606 11.7094 19.1612 11.5719 19.2313C11.4159 19.3109 11.2916 19.5133 11.2916 19.6877C11.2916 19.999 11.5502 20.2149 11.9229 20.2149H12.1352V21.0935V21.9721H11.8206C11.2338 21.9721 10.8755 21.8404 10.5343 21.4992C10.3059 21.2708 10.1661 21.0175 10.1011 20.7139C10.0461 20.4567 10.0454 16.1114 10.1005 15.85C10.1645 15.5457 10.3034 15.2936 10.5333 15.0646C10.7565 14.8423 10.978 14.7159 11.274 14.6418C11.5142 14.5818 24.4079 14.5714 24.6915 14.6311ZM11.5644 15.8592C11.416 15.9376 11.2916 16.1449 11.2916 16.3139C11.2916 16.4883 11.4159 16.6908 11.5719 16.7703C11.7008 16.8361 11.7778 16.8411 12.6625 16.8411C13.5472 16.8411 13.6242 16.8361 13.7531 16.7703C13.9091 16.6908 14.0334 16.4883 14.0334 16.3139C14.0334 16.1395 13.9091 15.9371 13.7531 15.8575C13.6239 15.7916 13.5489 15.7869 12.6551 15.7883C11.7696 15.7898 11.6857 15.7952 11.5644 15.8592ZM22.8214 22.8696C22.8214 25.4609 22.8197 25.5277 22.7507 25.6631C22.7051 25.7524 22.6304 25.827 22.5411 25.8725C22.4043 25.9423 22.3428 25.9433 18.003 25.9433H13.6036L13.4634 25.8645C13.3811 25.8182 13.2956 25.7317 13.2565 25.655C13.1927 25.5301 13.1898 25.4069 13.1898 22.8696V20.2149H18.0056H22.8214V22.8696ZM16.3451 21.4822C16.1966 21.5606 16.0722 21.7679 16.0722 21.9369C16.0722 22.1113 16.1966 22.3138 16.3525 22.3933C16.4852 22.461 16.5573 22.4641 18.0056 22.4641C19.4539 22.4641 19.526 22.461 19.6587 22.3933C19.8146 22.3138 19.939 22.1113 19.939 21.9369C19.939 21.7625 19.8146 21.5601 19.6587 21.4805C19.5258 21.4127 19.4556 21.4098 17.9982 21.4113C16.5526 21.4128 16.4699 21.4163 16.3451 21.4822ZM16.3451 23.7314C16.1966 23.8098 16.0722 24.0171 16.0722 24.1861C16.0722 24.3605 16.1966 24.563 16.3525 24.6425C16.4852 24.7102 16.5573 24.7133 18.0056 24.7133C19.4539 24.7133 19.526 24.7102 19.6587 24.6425C19.8146 24.563 19.939 24.3605 19.939 24.1861C19.939 24.0117 19.8146 23.8093 19.6587 23.7297C19.5258 23.6619 19.4556 23.659 17.9982 23.6605C16.5526 23.662 16.4699 23.6655 16.3451 23.7314Z"
        fill="white" />
</svg>