<svg width="13" height="19" viewBox="0 0 13 19" fill="none" xmlns="http://www.w3.org/2000/svg">
    <path
        d="M5.43055 19L0.750547 10.836V8.912H2.31055C2.93455 8.912 3.48055 8.82533 3.94855 8.652C4.43388 8.46133 4.83255 8.19267 5.14455 7.846C5.47388 7.49933 5.69921 7.08333 5.82055 6.598H0.750547V4.674H5.79455C5.69055 4.22333 5.50855 3.82467 5.24855 3.478C5.00588 3.13133 4.67655 2.86267 4.26055 2.672C3.86188 2.464 3.37655 2.36 2.80455 2.36H0.750547V0.435999H12.4765V2.36H8.39455C8.68921 2.68933 8.93188 3.04467 9.12255 3.426C9.33055 3.80733 9.46921 4.22333 9.53855 4.674H12.4765V6.598H9.59055C9.41721 7.88067 8.92321 8.886 8.10855 9.614C7.29388 10.3247 6.24521 10.81 4.96255 11.07L10.0585 19H5.43055Z"
        fill="#F14B2D" />
</svg>