<svg width="88" height="32" viewBox="0 0 88 32" fill="none" xmlns="http://www.w3.org/2000/svg">
    <path
        d="M49.5465 31.875C49.5465 31.8092 49.6341 31.4131 49.741 30.9948C49.9516 30.1713 49.9483 28.8104 49.733 27.6526C49.6769 27.351 49.5947 26.8779 49.5503 26.6014C49.4153 25.7601 49.2763 25.3217 48.9656 24.7569C48.681 24.2397 48.6756 24.2115 48.8391 24.0899C49.0874 23.9054 49.213 23.993 49.4413 24.51C49.6713 25.0309 49.9946 26.3876 50.2882 28.064C50.4422 28.9436 50.4866 29.0005 50.8894 28.8341C51.0627 28.7625 51.341 28.7034 51.5079 28.7029C52.2525 28.7004 52.4864 28.6076 52.6277 28.2586C52.811 27.806 53.0767 27.5866 53.3976 27.6229C53.7016 27.6573 53.8044 28.0317 53.6091 28.3926C53.3814 28.8133 53.5335 28.9027 54.4222 28.8704C55.1739 28.8431 55.2314 28.8537 55.2314 29.0198C55.2314 29.3999 53.437 29.6332 52.9561 29.3157C52.768 29.1915 52.6605 29.1763 52.4718 29.2473C52.3384 29.2974 51.961 29.3657 51.633 29.3989C50.9412 29.469 50.6164 29.723 50.5345 30.2579C50.4454 30.84 50.2316 31.7686 50.1604 31.8826C50.0652 32.0348 49.5465 32.0285 49.5465 31.875V31.875ZM37.2041 30.4635C36.5894 30.0186 36.2106 26.1439 36.7236 25.5486C37.8612 24.2286 40.4621 24.4491 40.4081 25.861C40.378 26.6493 38.7873 28.2784 38.577 27.7363C38.5389 27.6382 38.7157 27.3949 39.1249 26.9822C40.3427 25.7538 40.2109 25.1346 38.7592 25.2631C37.2919 25.393 36.9295 25.8353 37.004 27.405C37.0479 28.3317 37.3015 29.8319 37.3366 29.3726C37.3411 29.313 37.3927 29.1485 37.4513 29.0069C37.5098 28.8654 37.5493 28.6638 37.5391 28.5589C37.5176 28.3388 37.7504 28.11 37.9017 28.2025C37.9583 28.237 37.9751 28.3331 37.9391 28.416C37.9032 28.4989 37.8055 28.9984 37.7221 29.5259C37.5725 30.4721 37.4707 30.6564 37.2041 30.4635ZM69.4733 29.6572C69.3337 29.5191 69.2926 29.0686 69.2843 27.5839C69.2831 27.3652 69.2794 27.2004 69.148 27.1917C68.76 27.166 68.9831 27.3074 68.5647 27.7235C67.7163 28.5669 66.8117 29.321 66.6045 29.3575C66.2234 29.4246 66.3617 29.0857 66.9328 28.5528C67.2478 28.2588 67.6453 27.888 67.816 27.7288C68.0774 27.485 68.1264 27.3755 68.1264 27.0345C68.1264 26.5428 68.3063 26.3524 68.8105 26.3111C69.3004 26.2708 69.4547 26.0337 69.75 24.8676C69.9887 23.9251 70.3301 23.1126 70.542 22.9831C70.7281 22.8694 70.9066 23.2237 70.843 23.5803C70.6987 24.3889 70.3302 25.5248 70.1461 25.7284C69.9357 25.961 70.0765 26.0529 70.6453 26.0543C71.6539 26.0566 71.9471 26.3538 71.4549 26.8748C71.0913 27.2597 71.0816 27.245 72.0059 27.7132C73.1264 28.2807 73.316 28.7115 72.6011 29.0655C72.1768 29.2755 71.1266 29.3101 71.0514 29.1165C70.9667 28.8982 71.057 28.7953 71.3333 28.7953C71.626 28.7953 72.286 28.6061 72.286 28.5222C72.286 28.4483 71.1629 27.8812 71.0166 27.8812C70.5761 27.8812 70.2762 27.3192 70.5292 26.9679C70.7565 26.6521 70.6152 26.5622 70.1776 26.7442C69.7032 26.9414 69.609 27.6964 69.8897 29.0512C70.0237 29.6978 69.8176 29.9977 69.4733 29.6572ZM40.0824 29.3397C39.6377 28.8169 39.5035 27.8355 39.8768 27.8355C40.0734 27.8355 40.142 27.9407 40.3087 28.4982C40.4523 28.9786 40.63 28.9968 40.977 28.5668C41.2902 28.1785 41.5617 28.1555 42.1063 28.471C42.319 28.5944 42.6028 28.7149 42.7368 28.7389C43.11 28.8059 43.1816 28.8743 43.0782 29.0655C42.8998 29.3951 42.4812 29.4482 42.0109 29.2009C41.4694 28.9162 41.4576 28.9174 41.0945 29.2981C40.707 29.7045 40.4035 29.7169 40.0824 29.3397ZM85.2272 29.4309C85.2272 29.319 85.3381 29.1813 85.5031 29.0881C85.8195 28.9095 85.9661 28.6647 85.7119 28.7392C84.6939 29.0378 83.384 28.9929 83.1113 28.6502C82.8939 28.3769 82.8674 28.3771 82.308 28.6578C81.7462 28.9396 81.4899 28.9462 81.3039 28.6835C80.9579 28.1951 81.4382 27.4241 82.0885 27.4241C82.6279 27.4241 82.6601 27.6382 82.1537 27.8582C82.0139 27.919 81.8995 28.0107 81.8995 28.062C81.8995 28.2277 82.2343 28.1616 82.584 27.9269C83.0138 27.6384 83.0434 27.6402 83.3667 27.9747C83.6338 28.2511 83.6338 28.2511 85.1138 28.2421C86.9508 28.2308 87.4505 28.4608 86.8282 29.0311C86.3305 29.4872 85.2272 29.7628 85.2272 29.4309ZM61.3243 29.3513C60.4289 29.2933 59.899 29.043 59.7608 28.6125C59.6776 28.3532 59.5276 28.3834 59.042 28.7576C58.0825 29.4968 57.087 28.9935 57.7816 28.1202C58.1362 27.6744 59.0676 27.4404 59.0676 27.797C59.0676 27.8433 59.1489 27.8812 59.2482 27.8812C59.443 27.8812 59.4815 27.745 59.5645 26.7611C59.6429 25.8325 60.1753 24.9545 60.4235 25.3445C60.57 25.5746 60.4522 27.085 60.2626 27.4065C60.0126 27.8305 60.0396 28.0755 60.3739 28.4136C60.8542 28.8994 61.3785 28.886 61.3785 28.388C61.3785 28.1491 62.0244 27.4241 62.2372 27.4241C62.6036 27.4241 62.8109 28.2093 62.5402 28.5721C62.4207 28.7324 62.4319 28.7695 62.6558 28.9549C62.9357 29.1867 62.7639 29.4522 62.3545 29.4204C62.2498 29.4123 61.7862 29.3812 61.3243 29.3513ZM58.5823 28.4306C58.9288 28.2217 58.9717 28.064 58.682 28.064C58.4519 28.064 58.1432 28.3078 58.1432 28.4895C58.1432 28.6556 58.228 28.6442 58.5823 28.4306ZM45.3869 28.8932C44.9875 28.5527 44.8559 28.5484 44.2958 28.8577C43.5992 29.2423 43.5381 29.1717 43.5381 27.9808C43.5381 26.9864 43.6148 26.7321 43.8458 26.9605C43.9045 27.0186 43.9737 27.3009 43.9995 27.5879C44.0514 28.1633 44.0114 28.1424 44.8103 28.0123C45.1635 27.9549 45.2567 27.9826 45.7101 28.2803C46.0473 28.5017 46.3225 28.6125 46.5355 28.6125C47.2577 28.6125 46.976 29.056 46.2103 29.1244C45.7552 29.165 45.6814 29.1442 45.3869 28.8932ZM47.6514 28.8865C47.4358 28.4742 47.693 27.6069 48.0308 27.6069C48.3177 27.6069 48.4064 27.8262 48.267 28.1914C48.1744 28.434 48.1846 28.509 48.338 28.7143C48.5512 28.9995 48.4476 29.1609 48.0514 29.1609C47.8599 29.1609 47.7586 29.0914 47.6514 28.8865V28.8865ZM74.1155 29.001C74.0384 28.913 73.9124 28.6559 73.8356 28.4296C73.3433 26.979 73.3488 26.7261 73.8806 26.3915C74.3559 26.0924 74.2242 24.2933 73.7289 24.3194C73.3036 24.3419 73.2104 24.3255 73.2104 24.2282C73.2104 24.0783 73.6056 23.7676 73.7962 23.7676C73.9659 23.7676 73.9742 23.7175 73.9286 22.9677C73.8735 22.061 73.8976 21.9393 74.1326 21.9393C74.3638 21.9393 74.4121 22.1152 74.4121 22.9571C74.4121 23.6845 74.4126 23.6859 74.6894 23.7813C75.0146 23.8934 75.0729 24.2143 74.7818 24.2896C74.6121 24.3335 74.597 24.4143 74.597 25.2768C74.597 26.284 74.618 26.3272 75.1098 26.3272C75.8244 26.3272 76.2045 26.7803 76.2166 27.6468C76.2272 28.4075 76.3188 28.4689 76.7809 28.0251C77.1965 27.6259 77.1741 27.6261 77.5824 28.0183C77.9762 28.3965 78.2822 28.4269 79.0533 28.1646C79.5512 27.9952 79.5731 27.9951 79.9459 28.1601C80.5832 28.4423 80.4275 28.7409 79.6348 28.7566C79.3806 28.7617 79.0062 28.8126 78.8028 28.8698C78.1628 29.0498 77.6959 29.0067 77.3727 28.7378C77.0839 28.4974 77.0839 28.4974 76.8744 28.6921C76.259 29.2638 75.6589 28.8574 75.6818 27.8842C75.6985 27.1678 75.6193 27.0585 75.0831 27.0585C74.6674 27.0585 74.6674 27.0585 74.7328 27.9208C74.8228 29.1083 74.581 29.5316 74.1155 29.001V29.001ZM74.2161 27.6662C74.0993 27.0395 74.0075 26.9179 73.9011 27.2492C73.781 27.6236 74.0605 28.5397 74.2406 28.3616C74.2972 28.3056 74.2884 28.0542 74.2161 27.6662ZM9.00344 26.1071C8.90919 25.8643 9.0288 25.7114 9.35246 25.6611C9.5216 25.6348 9.93036 25.546 10.2608 25.4637C11.0069 25.278 11.6701 25.1346 13.0339 24.864C13.54 24.7637 14.0487 24.6579 15.0213 24.4511C15.428 24.3645 15.948 24.2606 16.1768 24.22C16.4056 24.1794 16.9255 24.0786 17.3323 23.9958C17.739 23.913 18.2713 23.8094 18.5153 23.7656C18.9369 23.6898 20.1939 23.4021 20.8911 23.222C21.069 23.176 21.6722 23.032 22.2314 22.9021C23.1748 22.6829 24.2759 22.4115 25.0507 22.2073C25.2287 22.1603 26.4974 21.8539 27.8701 21.5262C29.2428 21.1985 30.6154 20.8659 30.9205 20.787C31.2255 20.7081 31.6623 20.602 31.8911 20.5512C32.5002 20.4159 32.8316 20.3378 34.0633 20.0399C34.6734 19.8924 35.4222 19.7215 35.7272 19.6603C36.0323 19.5991 36.4274 19.5116 36.6054 19.4659C36.7833 19.4202 37.532 19.2562 38.2692 19.1015C40.4009 18.654 41.5202 18.3645 43.076 17.858C43.8439 17.608 45.167 16.941 45.4109 16.6809C46.0195 16.0318 44.6267 15.0022 42.3827 14.4422C42.1285 14.3788 41.6801 14.2495 41.3864 14.1548C41.0298 14.04 40.7993 14.0103 40.6931 14.0657C40.367 14.2357 39.587 14.4728 38.8721 14.6193C38.0922 14.7791 38.0405 14.8753 37.5808 17.0233C37.4255 17.7488 36.8576 17.4589 36.7489 16.5987C36.6277 15.6396 36.8463 14.869 37.4163 14.2452C37.7608 13.8681 37.7608 13.8681 37.7934 12.7389C37.8227 11.7268 37.8432 11.6097 37.9915 11.6097C38.233 11.6097 38.2692 11.7841 38.2692 12.9455C38.2692 14.196 38.2477 14.1763 39.3101 13.9002C40.3113 13.64 40.4877 13.5214 40.4877 13.1089C40.4877 12.7317 40.9012 12.2496 41.2247 12.2496C41.8459 12.2496 42.2169 12.7946 41.931 13.2872C41.7493 13.6002 41.7816 13.6425 42.3133 13.7877C43.3158 14.0615 43.5333 14.1314 44.139 14.3744C46.2114 15.206 46.786 16.505 45.4608 17.3629C44.2739 18.1313 40.302 19.3476 37.9919 19.65C37.1786 19.7565 35.7392 20.0744 31.5213 21.0792C30.7841 21.2548 29.8066 21.4842 29.3491 21.5889C28.8915 21.6936 28.4339 21.81 28.3323 21.8476C28.2306 21.8852 27.8146 21.9871 26.5401 22.2831C25.2655 22.5792 25.1432 22.6258 25.1432 22.6827C25.1432 22.7533 25.2679 22.7662 25.536 22.7234C25.7521 22.6889 26.1993 22.6238 26.5297 22.5788C26.8602 22.5338 28.5539 22.2982 29.5665 22.1613C31.0342 21.9628 32.8034 21.733 33.9709 21.5755C36.7903 21.1953 38.854 20.9663 41.4121 20.7496C41.8951 20.7087 42.7062 20.6317 43.2146 20.5784C48.3654 20.0383 52.2927 20.0523 52.4722 20.6114C52.5682 20.9105 50.745 21.8711 50.2629 21.7753C49.876 21.6984 50.1097 21.4331 50.8141 21.1496C51.2063 20.9918 51.5425 20.817 51.5613 20.7611C51.6126 20.609 47.3015 20.6311 45.1137 20.7943C40.8192 21.1146 37.7028 21.3873 36.9529 21.5114C36.2029 21.6355 35.4869 21.7159 35.0802 21.765C33.4583 21.9609 32.8282 22.0319 30.9012 22.3054C28.9743 22.5789 27.1587 22.8365 25.744 23.0667C25.2865 23.1412 24.4753 23.2484 23.9415 23.3049C23.4077 23.3614 22.7837 23.4536 22.5549 23.5096C22.3262 23.5656 21.931 23.6428 21.6768 23.6811C20.9545 23.7898 20.178 23.9222 19.2734 24.0909C18.8159 24.1762 18.2543 24.2773 18.0255 24.3156C17.6092 24.3853 15.2404 24.8722 13.5886 25.2276C13.1056 25.3315 12.4166 25.498 11.4903 25.8031C10.5641 26.1082 9.08218 26.3101 9.00344 26.1071ZM41.3196 13.0266C41.3196 13.0015 41.2989 12.9809 41.2734 12.9809C41.248 12.9809 41.2272 13.0015 41.2272 13.0266C41.2272 13.0517 41.248 13.0723 41.2734 13.0723C41.2989 13.0723 41.3196 13.0517 41.3196 13.0266ZM79.7129 26.1031C79.3842 25.9617 79.2395 25.6544 79.4074 25.4543C79.5812 25.2472 79.7358 25.2943 80.0859 25.6613C80.5485 26.1463 80.3526 26.3784 79.7129 26.1031ZM42.4894 25.4287C42.1429 25.05 42.4232 24.5423 43.0565 24.4016C43.8034 24.2357 44.1241 24.7053 43.3995 24.9038C43.0996 24.9859 43.013 25.0609 42.9413 25.3005C42.8411 25.635 42.7118 25.6717 42.4894 25.4287ZM22.3005 18.3065C22.1608 18.1613 21.8229 17.7366 21.5496 17.3628C20.9974 16.6076 20.5869 16.3004 19.4121 15.7635C18.9799 15.566 17.7528 14.9692 16.6852 14.4373C14.4483 13.3229 13.7153 13.0317 11.0465 12.1972C9.97889 11.8633 8.93897 11.5369 8.73561 11.4718C7.31016 11.0157 4.87776 10.4901 2.35746 10.0937C0.592237 9.81613 0.460347 9.29163 2.08369 9.00503C3.64158 8.72999 3.83695 8.69408 4.25242 8.60644C4.65274 8.52198 6.23531 8.24827 7.48771 8.04687C8.08824 7.9503 9.13213 7.80116 11.0465 7.53843C11.6058 7.46168 12.5833 7.31782 13.2188 7.21874C13.8543 7.11966 14.6654 6.99598 15.0213 6.94388C15.3772 6.89179 15.918 6.80947 16.223 6.76096C16.8788 6.65667 19.2683 6.3262 20.2209 6.20805C20.5895 6.16234 21.2134 6.08252 21.6075 6.03068C22.3884 5.92793 23.265 5.82225 24.5188 5.6797C24.9634 5.62915 25.3663 5.56386 25.4142 5.53462C25.462 5.50537 25.8886 5.44134 26.3621 5.39233C26.8356 5.34333 27.535 5.26177 27.9163 5.21109C28.2976 5.16041 28.9215 5.07972 29.3028 5.03177C29.6841 4.98382 30.4329 4.88124 30.9667 4.80381C31.5005 4.72638 32.2493 4.6219 32.6306 4.57164C33.0119 4.52138 33.5318 4.43954 33.786 4.38978C34.0402 4.34001 34.7474 4.23309 35.3575 4.15216C35.9675 4.07124 37.3194 3.86292 38.3617 3.68922C39.4039 3.51553 40.4854 3.33639 40.765 3.29114C41.0446 3.24588 41.5022 3.16867 41.7818 3.11956C42.0615 3.07044 42.9142 2.92068 43.6768 2.78676C44.4394 2.65284 45.2921 2.50791 45.5718 2.46471C45.8514 2.4215 46.3089 2.34494 46.5886 2.29457C47.0535 2.21082 49.8879 1.72635 50.6558 1.59938C51.7579 1.41714 52.1719 1.33818 52.8743 1.17627C53.9706 0.923556 53.986 0.921095 54.1311 0.976144C54.6125 1.15884 54.0237 1.79716 53.4576 1.70631C53.2583 1.67433 52.6439 1.74163 51.9573 1.87065C50.6944 2.10795 49.4995 2.31323 48.4835 2.46743C48.1276 2.52144 47.6077 2.60793 47.3281 2.65963C47.0484 2.71133 46.6117 2.78941 46.3575 2.83315C46.1033 2.87689 45.2921 3.02084 44.5549 3.15304C43.8178 3.28524 42.9858 3.43205 42.7062 3.47929C42.4266 3.52652 41.7402 3.64686 41.181 3.7467C40.3009 3.90384 36.8209 4.44277 34.6642 4.75593C34.2829 4.8113 33.7213 4.89388 33.4163 4.93945C33.1112 4.98502 32.1129 5.1265 31.1978 5.25385C30.2827 5.3812 29.2844 5.52571 28.9793 5.57497C28.6743 5.62424 27.9255 5.72766 27.3154 5.80479C26.7054 5.88192 25.9358 5.98355 25.6054 6.03062C25.2749 6.07769 24.6301 6.16103 24.1726 6.21583C23.715 6.27062 23.0703 6.35336 22.7398 6.39968C22.4094 6.446 21.619 6.55067 20.9835 6.63227C19.3145 6.84658 17.3665 7.11587 16.4079 7.2648C15.6864 7.37688 14.6883 7.52158 12.2251 7.87119C11.9074 7.91629 11.3666 7.99446 11.0234 8.0449C10.6803 8.09534 10.0875 8.17627 9.7062 8.22475C9.32489 8.27322 8.63855 8.37785 8.18099 8.45725C7.72342 8.53665 7.09947 8.63843 6.79443 8.68341C5.82495 8.82639 4.1897 9.14393 3.16156 9.38886C2.58636 9.52589 2.85854 9.64468 4.40955 9.93356C6.1206 10.2523 7.10906 10.4778 8.36586 10.8365C8.82342 10.967 9.32258 11.1078 9.47511 11.1494C10.5212 11.4344 14.2314 12.6677 14.5734 12.8441C14.7181 12.9187 14.874 12.98 14.9199 12.9803C14.9658 12.9806 15.8185 13.3867 16.8149 13.8827C17.8112 14.3787 18.9383 14.9175 19.3196 15.08C21.0904 15.8349 21.3857 16.0362 22.0725 16.9573C22.6849 17.7786 22.8216 17.5925 23.0126 15.6776C23.0627 15.1748 23.1921 14.2904 23.3002 13.7122C23.4423 12.9517 23.4824 12.4673 23.4453 11.9609C23.4042 11.4008 23.4207 11.2508 23.5277 11.2102C23.7896 11.1108 23.8718 11.5066 23.8367 12.6977C23.8028 13.8493 23.8028 13.8493 24.2188 13.8248C24.7358 13.7944 24.9546 13.9077 24.7801 14.1156C24.7141 14.1943 24.6239 14.2365 24.5797 14.2095C24.0196 13.8672 23.6398 14.431 23.5599 15.7233C23.4231 17.9368 22.9258 18.9569 22.3005 18.3065ZM28.6275 15.4448C27.6651 14.8572 29.4548 12.7398 30.6609 13.0392C31.2662 13.1894 31.1228 13.6176 30.2699 14.2073C29.4474 14.7758 29.1292 14.6925 29.7787 14.0786C30.117 13.759 30.0405 13.7172 29.6321 13.9986C29.2265 14.278 28.9056 14.6978 28.9702 14.8645C29.1105 15.2259 30.3801 14.608 31.4137 13.6751C32.1682 12.9942 32.2542 12.8492 32.6381 11.6097C33.0921 10.1438 33.7644 8.64027 34.0446 8.46426C35.0029 7.86218 34.4498 11.0066 33.3344 12.5012C32.8839 13.1049 32.8473 13.2388 33.008 13.6948C33.1382 14.0639 33.3539 14.1223 33.8977 13.9356C34.1413 13.852 34.611 13.7486 34.9415 13.7059C35.272 13.6632 35.7228 13.6001 35.9434 13.5657C36.3274 13.5058 36.3431 13.5124 36.3131 13.7211C36.2722 14.0064 35.9159 14.1687 35.1109 14.2686C34.7577 14.3125 34.2825 14.4109 34.0548 14.4873C33.3112 14.737 33.0195 14.682 32.5732 14.2081C32.1793 13.7898 32.1793 13.7898 31.585 14.2884C30.427 15.2598 29.1454 15.7609 28.6275 15.4448ZM36.7264 8.62636C36.6499 8.42929 36.8141 8.18172 37.0213 8.18172C37.2285 8.18172 37.3927 8.42929 37.3162 8.62636C37.2404 8.82191 36.8023 8.82191 36.7264 8.62636Z"
        fill="black" />
</svg>