<svg width="15" height="14" viewBox="0 0 15 14" fill="none" xmlns="http://www.w3.org/2000/svg">
    <path
        d="M12.9552 6.12533V9.04199C12.9552 11.0837 11.783 11.9587 10.0246 11.9587H4.1634C2.40503 11.9587 1.23279 11.0837 1.23279 9.04199V4.95866C1.23279 2.91699 2.40503 2.04199 4.1634 2.04199H8.26625"
        stroke="#092682" stroke-miterlimit="10" stroke-linecap="round" stroke-linejoin="round" />
    <path d="M4.16626 5.25L6.00082 6.70833C6.60453 7.18667 7.59507 7.18667 8.19878 6.70833L8.8904 6.16" stroke="#092682"
        stroke-miterlimit="10" stroke-linecap="round" stroke-linejoin="round" />
    <path
        d="M11.4906 4.66667C12.2998 4.66667 12.9559 4.01375 12.9559 3.20833C12.9559 2.40292 12.2998 1.75 11.4906 1.75C10.6813 1.75 10.0253 2.40292 10.0253 3.20833C10.0253 4.01375 10.6813 4.66667 11.4906 4.66667Z"
        stroke="#092682" stroke-miterlimit="10" stroke-linecap="round" stroke-linejoin="round" />
</svg>