<svg width="37" height="37" viewBox="0 0 37 37" fill="none" xmlns="http://www.w3.org/2000/svg">
<rect x="0.3" y="0.3" width="36.4" height="36.4" rx="3.7" fill="white"/>
<path d="M21.21 24L20.4854 21.6211H16.8418L16.1172 24H13.834L17.3613 13.9648H19.9521L23.4932 24H21.21ZM19.9795 19.8438L19.2549 17.5195C19.2093 17.3646 19.1478 17.1663 19.0703 16.9248C18.9974 16.6787 18.9222 16.4303 18.8447 16.1797C18.7718 15.9245 18.7126 15.7035 18.667 15.5166C18.6214 15.7035 18.5576 15.9359 18.4756 16.2139C18.3981 16.4873 18.3229 16.7471 18.25 16.9932C18.1771 17.2393 18.1247 17.4147 18.0928 17.5195L17.375 19.8438H19.9795Z" fill="#092682"/>
<path d="M13.834 24.8545H23.4932V25.1963H13.834V24.8545Z" fill="#092682"/>
<rect x="0.3" y="0.3" width="36.4" height="36.4" rx="3.7" stroke="#092682" stroke-width="0.6"/>
</svg>
