<svg width="18" height="18" viewBox="0 0 18 18" fill="none" xmlns="http://www.w3.org/2000/svg">
    <path
        d="M14.4752 5.93962V9.80214C14.4752 12.1121 13.1552 13.1021 11.1752 13.1021H4.58271C4.24521 13.1021 3.92271 13.0722 3.62271 13.0047C3.43521 12.9747 3.25522 12.9222 3.09022 12.8622C1.96522 12.4422 1.28271 11.4671 1.28271 9.80214V5.93962C1.28271 3.62962 2.60271 2.63965 4.58271 2.63965H11.1752C12.8552 2.63965 14.0627 3.35214 14.3852 4.97964C14.4377 5.27964 14.4752 5.58712 14.4752 5.93962Z"
        stroke="#0084FF" stroke-width="1.5" stroke-miterlimit="10" stroke-linecap="round" stroke-linejoin="round" />
    <path
        d="M16.726 8.18947V12.052C16.726 14.362 15.406 15.352 13.426 15.352H6.83353C6.27853 15.352 5.77604 15.277 5.34104 15.112C4.44854 14.782 3.84104 14.0995 3.62354 13.0045C3.92354 13.072 4.24603 13.102 4.58353 13.102H11.176C13.156 13.102 14.476 12.112 14.476 9.80199V5.93947C14.476 5.58697 14.446 5.27199 14.386 4.97949C15.811 5.27949 16.726 6.28447 16.726 8.18947Z"
        stroke="#0084FF" stroke-width="1.5" stroke-miterlimit="10" stroke-linecap="round" stroke-linejoin="round" />
    <path
        d="M7.87405 9.85455C8.96758 9.85455 9.85406 8.96807 9.85406 7.87454C9.85406 6.78102 8.96758 5.89453 7.87405 5.89453C6.78053 5.89453 5.89404 6.78102 5.89404 7.87454C5.89404 8.96807 6.78053 9.85455 7.87405 9.85455Z"
        stroke="#0084FF" stroke-width="1.5" stroke-miterlimit="10" stroke-linecap="round" stroke-linejoin="round" />
    <path d="M3.58545 6.22461V9.52463" stroke="#0084FF" stroke-width="1.5" stroke-miterlimit="10" stroke-linecap="round"
        stroke-linejoin="round" />
    <path d="M12.1665 6.22461V9.52463" stroke="#0084FF" stroke-width="1.5" stroke-miterlimit="10" stroke-linecap="round"
        stroke-linejoin="round" />
</svg>