<svg width="33" height="33" viewBox="0 0 33 33" fill="none" xmlns="http://www.w3.org/2000/svg">
    <rect opacity="0.1" width="32.5055" height="32.5055" rx="6" fill="#00BA35" />
    <path
        d="M20.9366 12.5333C21.0213 12.1667 20.9366 11.7667 20.6826 11.4667C20.4624 11.1667 20.0899 11 19.7004 11H12.2827C11.8932 11 11.5206 11.1667 11.2835 11.4667C11.0464 11.7667 10.9448 12.15 11.0295 12.5333C11.4296 14.2514 11.4465 17.7486 11.0464 19.4667C10.9618 19.8333 11.0464 20.2333 11.3005 20.5333C11.5206 20.8333 11.8932 21 12.2827 21H19.7173C20.1068 21 20.4624 20.8333 20.7165 20.5333C20.9536 20.2333 21.0552 19.85 20.9705 19.4667C20.5542 17.7566 20.5548 14.2514 20.9366 12.5333ZM20.1237 19.65C20.1576 19.7833 20.1237 19.9 20.0391 20C19.9544 20.1 19.8358 20.15 19.7004 20.15H12.2827C12.1472 20.15 12.0287 20.1 11.944 20C11.8593 19.9 11.8255 19.7667 11.8593 19.65C12.2996 17.75 14.0101 16.4167 15.9915 16.4167C17.973 16.4167 19.6834 17.75 20.1237 19.65ZM15.9915 15.5833C14.0101 15.5833 12.2996 14.25 11.8593 12.35C11.8255 12.2167 11.8593 12.1 11.944 12C12.0287 11.8833 12.1472 11.8333 12.2827 11.8333H19.7173C19.8528 11.8333 19.9713 11.8833 20.056 11.9833C20.1407 12.0833 20.1745 12.2167 20.1407 12.3333C19.6834 14.25 17.973 15.5833 15.9915 15.5833ZM18.5996 13.6167C17.9222 14.2667 16.9907 14.65 15.9915 14.65C15.0093 14.65 14.0778 14.25 13.3835 13.6167C13.0617 13.3 13.2819 12.75 13.7391 12.75H18.227C18.7012 12.7667 18.9213 13.3167 18.5996 13.6167Z"
        fill="#00BA35" />
</svg>