<svg width="20" height="21" viewBox="0 0 20 21" fill="none" xmlns="http://www.w3.org/2000/svg">
    <path
        d="M10.2281 9.36446C7.88904 9.36446 6.04473 7.56857 6.04473 5.43518C6.04473 3.30179 7.88904 1.50589 10.2281 1.50589C12.5671 1.50589 14.4114 3.30179 14.4114 5.43518C14.4114 7.56857 12.5671 9.36446 10.2281 9.36446ZM17.4431 19.5264L16.0204 19.5264L3.01307 19.5264C2.02158 19.5264 1.21781 18.7226 1.21781 17.7311C1.21781 15.9853 1.95297 14.76 3.13985 13.946C4.35647 13.1115 6.091 12.684 8.08277 12.684H12.3734C14.3646 12.684 16.0991 13.1115 17.3159 13.946C18.503 14.7601 19.2383 15.9854 19.2383 17.7311C19.2383 18.7226 18.4346 19.5264 17.4431 19.5264Z"
        stroke="#505F79" stroke-width="1.28718" />
</svg>