<svg width="32" height="32" viewBox="0 0 32 32" fill="none" xmlns="http://www.w3.org/2000/svg">
<path d="M24.1858 28.827C23.0125 29.1737 21.6258 29.3337 19.9992 29.3337H11.9992C10.3725 29.3337 8.98583 29.1737 7.8125 28.827C8.10583 25.3603 11.6658 22.627 15.9992 22.627C20.3325 22.627 23.8925 25.3603 24.1858 28.827Z" stroke="#292D32" stroke-width="1.5" stroke-linecap="round" stroke-linejoin="round"/>
<path d="M20.0013 2.66699H12.0013C5.33464 2.66699 2.66797 5.33366 2.66797 12.0003V20.0003C2.66797 25.0403 4.18797 27.8003 7.81464 28.827C8.10797 25.3603 11.668 22.627 16.0013 22.627C20.3346 22.627 23.8946 25.3603 24.188 28.827C27.8146 27.8003 29.3346 25.0403 29.3346 20.0003V12.0003C29.3346 5.33366 26.668 2.66699 20.0013 2.66699ZM16.0013 18.8936C13.3613 18.8936 11.228 16.747 11.228 14.107C11.228 11.467 13.3613 9.33366 16.0013 9.33366C18.6413 9.33366 20.7746 11.467 20.7746 14.107C20.7746 16.747 18.6413 18.8936 16.0013 18.8936Z" stroke="#292D32" stroke-width="1.5" stroke-linecap="round" stroke-linejoin="round"/>
<path d="M20.7732 14.1064C20.7732 16.7464 18.6399 18.893 15.9999 18.893C13.3599 18.893 11.2266 16.7464 11.2266 14.1064C11.2266 11.4664 13.3599 9.33301 15.9999 9.33301C18.6399 9.33301 20.7732 11.4664 20.7732 14.1064Z" stroke="#292D32" stroke-width="1.5" stroke-linecap="round" stroke-linejoin="round"/>
</svg>
