<svg width="120" height="85" viewBox="0 0 120 85" fill="none" xmlns="http://www.w3.org/2000/svg">
<path d="M7.10352 70.0059H8.79883L5.29883 80H3.57617L0.0898438 70.0059H1.77148L3.85645 76.2197C3.96582 76.516 4.08203 76.8988 4.20508 77.3682C4.32812 77.833 4.40788 78.1794 4.44434 78.4072C4.50358 78.0609 4.59473 77.6598 4.71777 77.2041C4.84082 76.7484 4.94108 76.4111 5.01855 76.1924L7.10352 70.0059ZM11.5537 80H9.94727V72.4395H11.5537V80ZM9.85156 70.4365C9.85156 70.1494 9.92904 69.9284 10.084 69.7734C10.2435 69.6185 10.4691 69.541 10.7607 69.541C11.0433 69.541 11.262 69.6185 11.417 69.7734C11.5765 69.9284 11.6562 70.1494 11.6562 70.4365C11.6562 70.71 11.5765 70.9264 11.417 71.0859C11.262 71.2409 11.0433 71.3184 10.7607 71.3184C10.4691 71.3184 10.2435 71.2409 10.084 71.0859C9.92904 70.9264 9.85156 70.71 9.85156 70.4365ZM17.6924 72.3027C18.016 72.3027 18.2826 72.3255 18.4922 72.3711L18.335 73.8682C18.1071 73.8135 17.8701 73.7861 17.624 73.7861C16.9814 73.7861 16.4596 73.9958 16.0586 74.415C15.6621 74.8343 15.4639 75.3789 15.4639 76.0488V80H13.8574V72.4395H15.1152L15.3271 73.7725H15.4092C15.6598 73.3213 15.9857 72.9635 16.3867 72.6992C16.7923 72.4349 17.2275 72.3027 17.6924 72.3027ZM22.7168 78.8379C23.1087 78.8379 23.5007 78.7764 23.8926 78.6533V79.8633C23.7148 79.9408 23.4847 80.0046 23.2021 80.0547C22.9242 80.1094 22.6348 80.1367 22.334 80.1367C20.8118 80.1367 20.0508 79.3346 20.0508 77.7305V73.6562H19.0186V72.9453L20.126 72.3574L20.6729 70.7578H21.6641V72.4395H23.8174V73.6562H21.6641V77.7031C21.6641 78.0905 21.7598 78.3776 21.9512 78.5645C22.1471 78.7467 22.4023 78.8379 22.7168 78.8379ZM30.7422 80L30.5166 79.0088H30.4346C30.2113 79.3597 29.8923 79.6354 29.4775 79.8359C29.0674 80.0365 28.598 80.1367 28.0693 80.1367C27.1533 80.1367 26.4697 79.9089 26.0186 79.4531C25.5674 78.9974 25.3418 78.307 25.3418 77.3818V72.4395H26.9619V77.1016C26.9619 77.6803 27.0804 78.1156 27.3174 78.4072C27.5544 78.6943 27.9258 78.8379 28.4316 78.8379C29.1061 78.8379 29.6006 78.6374 29.915 78.2363C30.234 77.8307 30.3936 77.154 30.3936 76.2061V72.4395H32.0068V80H30.7422ZM39.0273 80L38.7061 78.9473H38.6514C38.2868 79.4076 37.9199 79.722 37.5508 79.8906C37.1816 80.0547 36.7077 80.1367 36.1289 80.1367C35.3861 80.1367 34.805 79.9362 34.3857 79.5352C33.971 79.1341 33.7637 78.5667 33.7637 77.833C33.7637 77.0537 34.0531 76.4658 34.6318 76.0693C35.2106 75.6729 36.0924 75.4564 37.2773 75.4199L38.583 75.3789V74.9756C38.583 74.4925 38.4691 74.1325 38.2412 73.8955C38.0179 73.654 37.6693 73.5332 37.1953 73.5332C36.8079 73.5332 36.4365 73.5902 36.0811 73.7041C35.7256 73.818 35.3838 73.9525 35.0557 74.1074L34.5361 72.959C34.9463 72.7448 35.3952 72.583 35.8828 72.4736C36.3704 72.3597 36.8307 72.3027 37.2637 72.3027C38.2253 72.3027 38.9499 72.5124 39.4375 72.9316C39.9297 73.3509 40.1758 74.0094 40.1758 74.9072V80H39.0273ZM36.6348 78.9062C37.2181 78.9062 37.6852 78.7445 38.0361 78.4209C38.3916 78.0928 38.5693 77.6348 38.5693 77.0469V76.3906L37.5986 76.4316C36.8421 76.459 36.2907 76.5866 35.9443 76.8145C35.6025 77.0378 35.4316 77.3818 35.4316 77.8467C35.4316 78.1839 35.5319 78.446 35.7324 78.6328C35.9329 78.8151 36.2337 78.9062 36.6348 78.9062ZM44.0244 80H42.418V69.3633H44.0244V80ZM54.3877 71.2637C53.4489 71.2637 52.7106 71.5964 52.1729 72.2617C51.6351 72.9271 51.3662 73.8454 51.3662 75.0166C51.3662 76.2425 51.6237 77.1699 52.1387 77.7988C52.6582 78.4277 53.4079 78.7422 54.3877 78.7422C54.8115 78.7422 55.2217 78.7012 55.6182 78.6191C56.0146 78.5326 56.4271 78.4232 56.8555 78.291V79.6924C56.0716 79.9886 55.1829 80.1367 54.1895 80.1367C52.7266 80.1367 51.6032 79.6947 50.8193 78.8105C50.0355 77.9219 49.6436 76.6527 49.6436 75.0029C49.6436 73.9639 49.8327 73.0547 50.2109 72.2754C50.5938 71.4961 51.1452 70.8991 51.8652 70.4844C52.5853 70.0697 53.4307 69.8623 54.4014 69.8623C55.4222 69.8623 56.3656 70.0765 57.2314 70.5049L56.6436 71.8652C56.3063 71.7057 55.9486 71.5667 55.5703 71.4482C55.1966 71.3252 54.8024 71.2637 54.3877 71.2637ZM60.4443 80H58.8379V69.3633H60.4443V80ZM67.4785 80L67.1572 78.9473H67.1025C66.738 79.4076 66.3711 79.722 66.002 79.8906C65.6328 80.0547 65.1589 80.1367 64.5801 80.1367C63.8372 80.1367 63.2562 79.9362 62.8369 79.5352C62.4222 79.1341 62.2148 78.5667 62.2148 77.833C62.2148 77.0537 62.5042 76.4658 63.083 76.0693C63.6618 75.6729 64.5436 75.4564 65.7285 75.4199L67.0342 75.3789V74.9756C67.0342 74.4925 66.9202 74.1325 66.6924 73.8955C66.4691 73.654 66.1204 73.5332 65.6465 73.5332C65.2591 73.5332 64.8877 73.5902 64.5322 73.7041C64.1768 73.818 63.835 73.9525 63.5068 74.1074L62.9873 72.959C63.3975 72.7448 63.8464 72.583 64.334 72.4736C64.8216 72.3597 65.2819 72.3027 65.7148 72.3027C66.6764 72.3027 67.401 72.5124 67.8887 72.9316C68.3809 73.3509 68.627 74.0094 68.627 74.9072V80H67.4785ZM65.0859 78.9062C65.6693 78.9062 66.1364 78.7445 66.4873 78.4209C66.8428 78.0928 67.0205 77.6348 67.0205 77.0469V76.3906L66.0498 76.4316C65.2933 76.459 64.7419 76.5866 64.3955 76.8145C64.0537 77.0378 63.8828 77.3818 63.8828 77.8467C63.8828 78.1839 63.9831 78.446 64.1836 78.6328C64.3841 78.8151 64.6849 78.9062 65.0859 78.9062ZM75.9482 77.8467C75.9482 78.585 75.6794 79.1523 75.1416 79.5488C74.6038 79.9408 73.8337 80.1367 72.8311 80.1367C71.8239 80.1367 71.015 79.984 70.4043 79.6787V78.291C71.293 78.7012 72.1201 78.9062 72.8857 78.9062C73.8747 78.9062 74.3691 78.6077 74.3691 78.0107C74.3691 77.8193 74.3145 77.6598 74.2051 77.5322C74.0957 77.4046 73.9157 77.2725 73.665 77.1357C73.4144 76.999 73.0658 76.8441 72.6191 76.6709C71.7487 76.3337 71.1585 75.9964 70.8486 75.6592C70.5433 75.3219 70.3906 74.8844 70.3906 74.3467C70.3906 73.6995 70.6504 73.1982 71.1699 72.8428C71.694 72.4827 72.4049 72.3027 73.3027 72.3027C74.1914 72.3027 75.0322 72.4827 75.8252 72.8428L75.3057 74.0527C74.4899 73.7155 73.804 73.5469 73.248 73.5469C72.4004 73.5469 71.9766 73.7884 71.9766 74.2715C71.9766 74.5085 72.0859 74.709 72.3047 74.873C72.528 75.0371 73.0111 75.2627 73.7539 75.5498C74.3783 75.7913 74.8317 76.0124 75.1143 76.2129C75.3968 76.4134 75.6064 76.6458 75.7432 76.9102C75.8799 77.1699 75.9482 77.4821 75.9482 77.8467ZM82.7705 77.8467C82.7705 78.585 82.5016 79.1523 81.9639 79.5488C81.4261 79.9408 80.6559 80.1367 79.6533 80.1367C78.6462 80.1367 77.8372 79.984 77.2266 79.6787V78.291C78.1152 78.7012 78.9424 78.9062 79.708 78.9062C80.6969 78.9062 81.1914 78.6077 81.1914 78.0107C81.1914 77.8193 81.1367 77.6598 81.0273 77.5322C80.918 77.4046 80.738 77.2725 80.4873 77.1357C80.2367 76.999 79.888 76.8441 79.4414 76.6709C78.571 76.3337 77.9808 75.9964 77.6709 75.6592C77.3656 75.3219 77.2129 74.8844 77.2129 74.3467C77.2129 73.6995 77.4727 73.1982 77.9922 72.8428C78.5163 72.4827 79.2272 72.3027 80.125 72.3027C81.0137 72.3027 81.8545 72.4827 82.6475 72.8428L82.1279 74.0527C81.3122 73.7155 80.6263 73.5469 80.0703 73.5469C79.2227 73.5469 78.7988 73.7884 78.7988 74.2715C78.7988 74.5085 78.9082 74.709 79.127 74.873C79.3503 75.0371 79.8333 75.2627 80.5762 75.5498C81.2005 75.7913 81.654 76.0124 81.9365 76.2129C82.2191 76.4134 82.4287 76.6458 82.5654 76.9102C82.7021 77.1699 82.7705 77.4821 82.7705 77.8467ZM88.3486 72.3027C88.6722 72.3027 88.9388 72.3255 89.1484 72.3711L88.9912 73.8682C88.7633 73.8135 88.5264 73.7861 88.2803 73.7861C87.6377 73.7861 87.1159 73.9958 86.7148 74.415C86.3184 74.8343 86.1201 75.3789 86.1201 76.0488V80H84.5137V72.4395H85.7715L85.9834 73.7725H86.0654C86.3161 73.3213 86.6419 72.9635 87.043 72.6992C87.4486 72.4349 87.8838 72.3027 88.3486 72.3027ZM97.2627 76.2061C97.2627 77.4411 96.946 78.4049 96.3125 79.0977C95.679 79.7904 94.7972 80.1367 93.667 80.1367C92.9606 80.1367 92.3363 79.9772 91.7939 79.6582C91.2516 79.3392 90.8346 78.8812 90.543 78.2842C90.2513 77.6872 90.1055 76.9945 90.1055 76.2061C90.1055 74.9801 90.4199 74.0231 91.0488 73.335C91.6777 72.6468 92.5641 72.3027 93.708 72.3027C94.8018 72.3027 95.6676 72.6559 96.3057 73.3623C96.9437 74.0641 97.2627 75.012 97.2627 76.2061ZM91.7598 76.2061C91.7598 77.9515 92.4046 78.8242 93.6943 78.8242C94.9704 78.8242 95.6084 77.9515 95.6084 76.2061C95.6084 74.4788 94.9658 73.6152 93.6807 73.6152C93.0062 73.6152 92.5163 73.8385 92.2109 74.2852C91.9102 74.7318 91.7598 75.3721 91.7598 76.2061ZM105.821 76.2061C105.821 77.4411 105.505 78.4049 104.871 79.0977C104.238 79.7904 103.356 80.1367 102.226 80.1367C101.519 80.1367 100.895 79.9772 100.353 79.6582C99.8102 79.3392 99.3932 78.8812 99.1016 78.2842C98.8099 77.6872 98.6641 76.9945 98.6641 76.2061C98.6641 74.9801 98.9785 74.0231 99.6074 73.335C100.236 72.6468 101.123 72.3027 102.267 72.3027C103.36 72.3027 104.226 72.6559 104.864 73.3623C105.502 74.0641 105.821 75.012 105.821 76.2061ZM100.318 76.2061C100.318 77.9515 100.963 78.8242 102.253 78.8242C103.529 78.8242 104.167 77.9515 104.167 76.2061C104.167 74.4788 103.524 73.6152 102.239 73.6152C101.565 73.6152 101.075 73.8385 100.77 74.2852C100.469 74.7318 100.318 75.3721 100.318 76.2061ZM114.045 80H112.432V75.3379C112.432 74.7591 112.322 74.3285 112.104 74.0459C111.885 73.7588 111.543 73.6152 111.078 73.6152C110.458 73.6152 110.003 73.818 109.711 74.2236C109.424 74.6247 109.28 75.2946 109.28 76.2334V80H107.674V72.4395H108.932L109.157 73.4307H109.239C109.449 73.0706 109.752 72.7926 110.148 72.5967C110.549 72.4007 110.989 72.3027 111.468 72.3027C112.63 72.3027 113.4 72.6992 113.778 73.4922H113.888C114.111 73.1185 114.425 72.8268 114.831 72.6172C115.237 72.4076 115.701 72.3027 116.226 72.3027C117.128 72.3027 117.784 72.5306 118.194 72.9863C118.609 73.4421 118.816 74.137 118.816 75.0713V80H117.21V75.3379C117.21 74.7591 117.098 74.3285 116.875 74.0459C116.656 73.7588 116.314 73.6152 115.85 73.6152C115.225 73.6152 114.767 73.8112 114.476 74.2031C114.188 74.5905 114.045 75.1875 114.045 75.9941V80Z" fill="#505F79"/>
<circle cx="60" cy="28" r="28" fill="#FFF3E1"/>
<path d="M73.3333 30.6668V20.0002C73.3333 19.2929 73.0523 18.6146 72.5522 18.1145C72.0521 17.6144 71.3738 17.3335 70.6666 17.3335H49.3333C48.626 17.3335 47.9477 17.6144 47.4476 18.1145C46.9475 18.6146 46.6666 19.2929 46.6666 20.0002V36.0002C46.6666 36.7074 46.9475 37.3857 47.4476 37.8858C47.9477 38.3859 48.626 38.6668 49.3333 38.6668H65.3333H69.3333C71.2189 38.6668 72.1617 38.6668 72.7475 38.081C73.3333 37.4953 73.3333 36.5524 73.3333 34.6668V30.6668Z" fill="#FFE2B7" stroke="#B1741B" stroke-width="1.5" stroke-linecap="round" stroke-linejoin="round"/>
<path d="M59 36.25V35C59 34.337 58.7366 33.7011 58.2678 33.2322C57.7989 32.7634 57.163 32.5 56.5 32.5H51.5C50.837 32.5 50.2011 32.7634 49.7322 33.2322C49.2634 33.7011 49 34.337 49 35V36.25" stroke="#B1741B" stroke-width="1.25" stroke-linecap="round" stroke-linejoin="round"/>
<rect x="55" y="20" width="16" height="11" rx="0.5" fill="#FFF0DA"/>
<path d="M69 25H58" stroke="#B1741B" stroke-width="1.5" stroke-linecap="round" stroke-linejoin="round"/>
<path d="M69 28H58" stroke="#B1741B" stroke-width="1.5" stroke-linecap="round" stroke-linejoin="round"/>
<path d="M61 22H59.5H58" stroke="#B1741B" stroke-width="1.5" stroke-linecap="round" stroke-linejoin="round"/>
<path d="M54 30C55.3807 30 56.5 28.8807 56.5 27.5C56.5 26.1193 55.3807 25 54 25C52.6193 25 51.5 26.1193 51.5 27.5C51.5 28.8807 52.6193 30 54 30Z" fill="#FFF0DA" stroke="#B1741B" stroke-width="1.25" stroke-linecap="round" stroke-linejoin="round"/>
</svg>
