<svg width="56" height="85" viewBox="0 0 56 85" fill="none" xmlns="http://www.w3.org/2000/svg">
<path d="M24.001 80H22.2236L20.5283 74.0391C20.4554 73.7793 20.3643 73.4056 20.2549 72.918C20.1455 72.4258 20.0794 72.084 20.0566 71.8926C20.0111 72.1842 19.9359 72.5625 19.8311 73.0273C19.7308 73.4922 19.6465 73.8385 19.5781 74.0664L17.9238 80H16.1465L14.8545 74.9961L13.542 70.0059H15.21L16.6387 75.8301C16.862 76.7643 17.0215 77.5892 17.1172 78.3047C17.1673 77.9173 17.2425 77.4844 17.3428 77.0059C17.443 76.5273 17.5342 76.14 17.6162 75.8438L19.2432 70.0059H20.8633L22.5312 75.8711C22.6908 76.4134 22.8594 77.2246 23.0371 78.3047C23.1055 77.653 23.2695 76.8236 23.5293 75.8164L24.9512 70.0059H26.6055L24.001 80ZM29.4629 80H27.8564V72.4395H29.4629V80ZM27.7607 70.4365C27.7607 70.1494 27.8382 69.9284 27.9932 69.7734C28.1527 69.6185 28.3783 69.541 28.6699 69.541C28.9525 69.541 29.1712 69.6185 29.3262 69.7734C29.4857 69.9284 29.5654 70.1494 29.5654 70.4365C29.5654 70.71 29.4857 70.9264 29.3262 71.0859C29.1712 71.2409 28.9525 71.3184 28.6699 71.3184C28.3783 71.3184 28.1527 71.2409 27.9932 71.0859C27.8382 70.9264 27.7607 70.71 27.7607 70.4365ZM33.3184 76.0078L34.2275 74.873L36.5107 72.4395H38.3633L35.3213 75.6865L38.5547 80H36.668L34.2412 76.6846L33.3594 77.4092V80H31.7666V69.3633H33.3594V74.5518L33.2773 76.0078H33.3184ZM41.3848 80H39.7783V72.4395H41.3848V80ZM39.6826 70.4365C39.6826 70.1494 39.7601 69.9284 39.915 69.7734C40.0745 69.6185 40.3001 69.541 40.5918 69.541C40.8743 69.541 41.0931 69.6185 41.248 69.7734C41.4076 69.9284 41.4873 70.1494 41.4873 70.4365C41.4873 70.71 41.4076 70.9264 41.248 71.0859C41.0931 71.2409 40.8743 71.3184 40.5918 71.3184C40.3001 71.3184 40.0745 71.2409 39.915 71.0859C39.7601 70.9264 39.6826 70.71 39.6826 70.4365Z" fill="#505F79"/>
<circle cx="28" cy="28" r="28" fill="#F1FFEE"/>
<path fill-rule="evenodd" clip-rule="evenodd" d="M42.2126 19.3025C42.2126 19.405 42.1801 19.4975 42.1176 19.5825C42.0526 19.665 41.9851 19.7075 41.9076 19.7075C41.2851 19.7675 40.7726 19.9675 40.3776 20.31C39.9801 20.65 39.5726 21.3025 39.1501 22.2625L32.7001 36.7975C32.6576 36.9325 32.5401 37 32.3451 37C32.1926 37 32.0751 36.9325 31.9901 36.7975L28.3726 29.2325L24.2126 36.7975C24.1276 36.9325 24.0101 37 23.8576 37C23.6726 37 23.5501 36.9325 23.4901 36.7975L17.1526 22.2625C16.7576 21.36 16.3401 20.73 15.9001 20.3725C15.4626 20.015 14.8501 19.7925 14.0676 19.7075C14.0001 19.7075 13.9351 19.6725 13.8776 19.6C13.8176 19.53 13.7876 19.4475 13.7876 19.355C13.7876 19.1175 13.8551 19 13.9901 19C14.5551 19 15.1451 19.025 15.7626 19.075C16.3351 19.1275 16.8751 19.1525 17.3801 19.1525C17.8951 19.1525 18.5026 19.1275 19.2026 19.075C19.9351 19.025 20.5851 19 21.1501 19C21.2851 19 21.3526 19.1175 21.3526 19.355C21.3526 19.59 21.3101 19.7075 21.2276 19.7075C20.6626 19.75 20.2176 19.895 19.8926 20.1375C19.5676 20.3825 19.4051 20.7025 19.4051 21.1C19.4051 21.3025 19.4726 21.555 19.6076 21.8575L24.8451 33.685L27.8176 28.07L25.0476 22.2625C24.5501 21.2275 24.1401 20.5575 23.8201 20.2575C23.5001 19.96 23.0151 19.775 22.3651 19.7075C22.3051 19.7075 22.2501 19.6725 22.1951 19.6C22.1401 19.53 22.1126 19.4475 22.1126 19.355C22.1126 19.1175 22.1701 19 22.2901 19C22.8551 19 23.3726 19.025 23.8451 19.075C24.3001 19.1275 24.7851 19.1525 25.3001 19.1525C25.8051 19.1525 26.3401 19.1275 26.9051 19.075C27.4876 19.025 28.0601 19 28.6251 19C28.7601 19 28.8276 19.1175 28.8276 19.355C28.8276 19.59 28.7876 19.7075 28.7026 19.7075C27.5726 19.785 27.0076 20.105 27.0076 20.67C27.0076 20.9225 27.1376 21.315 27.4001 21.845L29.2326 25.565L31.0551 22.1625C31.3076 21.6825 31.4351 21.2775 31.4351 20.9475C31.4351 20.1725 30.8701 19.76 29.7401 19.7075C29.6376 19.7075 29.5876 19.59 29.5876 19.355C29.5876 19.27 29.6126 19.19 29.6626 19.115C29.7151 19.0375 29.7651 19 29.8151 19C30.2201 19 30.7176 19.025 31.3076 19.075C31.8726 19.1275 32.3376 19.1525 32.7001 19.1525C32.9601 19.1525 33.3451 19.13 33.8501 19.0875C34.4901 19.03 35.0276 19 35.4576 19C35.5576 19 35.6076 19.1 35.6076 19.3025C35.6076 19.5725 35.5151 19.7075 35.3301 19.7075C34.6726 19.775 34.1426 19.9575 33.7426 20.2525C33.3426 20.5475 32.8426 21.2175 32.2451 22.2625L29.8151 26.755L33.1051 33.4575L37.9626 22.1625C38.1301 21.75 38.2151 21.37 38.2151 21.025C38.2151 20.1975 37.6501 19.76 36.5201 19.7075C36.4176 19.7075 36.3676 19.59 36.3676 19.355C36.3676 19.1175 36.4426 19 36.5951 19C37.0076 19 37.4976 19.025 38.0626 19.075C38.5851 19.1275 39.0251 19.1525 39.3776 19.1525C39.7501 19.1525 40.1801 19.1275 40.6676 19.075C41.1751 19.025 41.6301 19 42.0351 19C42.1526 19 42.2126 19.1 42.2126 19.3025Z" fill="#3A9723"/>
</svg>
