<svg width="69" height="85" viewBox="0 0 69 85" fill="none" xmlns="http://www.w3.org/2000/svg">
<path d="M10.6152 80H8.83789L7.14258 74.0391C7.06966 73.7793 6.97852 73.4056 6.86914 72.918C6.75977 72.4258 6.69368 72.084 6.6709 71.8926C6.62533 72.1842 6.55013 72.5625 6.44531 73.0273C6.34505 73.4922 6.26074 73.8385 6.19238 74.0664L4.53809 80H2.76074L1.46875 74.9961L0.15625 70.0059H1.82422L3.25293 75.8301C3.47624 76.7643 3.63574 77.5892 3.73145 78.3047C3.78158 77.9173 3.85677 77.4844 3.95703 77.0059C4.05729 76.5273 4.14844 76.14 4.23047 75.8438L5.85742 70.0059H7.47754L9.14551 75.8711C9.30501 76.4134 9.47363 77.2246 9.65137 78.3047C9.71973 77.653 9.88379 76.8236 10.1436 75.8164L11.5654 70.0059H13.2197L10.6152 80ZM21.1768 76.2061C21.1768 77.4411 20.86 78.4049 20.2266 79.0977C19.5931 79.7904 18.7113 80.1367 17.5811 80.1367C16.8747 80.1367 16.2503 79.9772 15.708 79.6582C15.1657 79.3392 14.7487 78.8812 14.457 78.2842C14.1654 77.6872 14.0195 76.9945 14.0195 76.2061C14.0195 74.9801 14.334 74.0231 14.9629 73.335C15.5918 72.6468 16.4782 72.3027 17.6221 72.3027C18.7158 72.3027 19.5817 72.6559 20.2197 73.3623C20.8577 74.0641 21.1768 75.012 21.1768 76.2061ZM15.6738 76.2061C15.6738 77.9515 16.3187 78.8242 17.6084 78.8242C18.8844 78.8242 19.5225 77.9515 19.5225 76.2061C19.5225 74.4788 18.8799 73.6152 17.5947 73.6152C16.9202 73.6152 16.4303 73.8385 16.125 74.2852C15.8242 74.7318 15.6738 75.3721 15.6738 76.2061ZM26.8643 72.3027C27.1878 72.3027 27.4544 72.3255 27.6641 72.3711L27.5068 73.8682C27.279 73.8135 27.042 73.7861 26.7959 73.7861C26.1533 73.7861 25.6315 73.9958 25.2305 74.415C24.834 74.8343 24.6357 75.3789 24.6357 76.0488V80H23.0293V72.4395H24.2871L24.499 73.7725H24.5811C24.8317 73.3213 25.1576 72.9635 25.5586 72.6992C25.9642 72.4349 26.3994 72.3027 26.8643 72.3027ZM30.624 76.0078L31.5332 74.873L33.8164 72.4395H35.6689L32.627 75.6865L35.8604 80H33.9736L31.5469 76.6846L30.665 77.4092V80H29.0723V69.3633H30.665V74.5518L30.583 76.0078H30.624ZM42.1631 77.8467C42.1631 78.585 41.8942 79.1523 41.3564 79.5488C40.8187 79.9408 40.0485 80.1367 39.0459 80.1367C38.0387 80.1367 37.2298 79.984 36.6191 79.6787V78.291C37.5078 78.7012 38.335 78.9062 39.1006 78.9062C40.0895 78.9062 40.584 78.6077 40.584 78.0107C40.584 77.8193 40.5293 77.6598 40.4199 77.5322C40.3105 77.4046 40.1305 77.2725 39.8799 77.1357C39.6292 76.999 39.2806 76.8441 38.834 76.6709C37.9635 76.3337 37.3734 75.9964 37.0635 75.6592C36.7581 75.3219 36.6055 74.8844 36.6055 74.3467C36.6055 73.6995 36.8652 73.1982 37.3848 72.8428C37.9089 72.4827 38.6198 72.3027 39.5176 72.3027C40.4062 72.3027 41.2471 72.4827 42.04 72.8428L41.5205 74.0527C40.7048 73.7155 40.0189 73.5469 39.4629 73.5469C38.6152 73.5469 38.1914 73.7884 38.1914 74.2715C38.1914 74.5085 38.3008 74.709 38.5195 74.873C38.7428 75.0371 39.2259 75.2627 39.9688 75.5498C40.5931 75.7913 41.0465 76.0124 41.3291 76.2129C41.6117 76.4134 41.8213 76.6458 41.958 76.9102C42.0947 77.1699 42.1631 77.4821 42.1631 77.8467ZM50.5576 80H48.9443V75.3516C48.9443 74.7682 48.8258 74.333 48.5889 74.0459C48.3564 73.7588 47.985 73.6152 47.4746 73.6152C46.8001 73.6152 46.3034 73.818 45.9844 74.2236C45.6699 74.6247 45.5127 75.2992 45.5127 76.2471V80H43.9062V69.3633H45.5127V72.0635C45.5127 72.4964 45.4854 72.959 45.4307 73.4512H45.5332C45.752 73.0866 46.055 72.804 46.4424 72.6035C46.8343 72.403 47.29 72.3027 47.8096 72.3027C49.6416 72.3027 50.5576 73.2256 50.5576 75.0713V80ZM59.499 76.2061C59.499 77.4411 59.1823 78.4049 58.5488 79.0977C57.9154 79.7904 57.0335 80.1367 55.9033 80.1367C55.1969 80.1367 54.5726 79.9772 54.0303 79.6582C53.488 79.3392 53.071 78.8812 52.7793 78.2842C52.4876 77.6872 52.3418 76.9945 52.3418 76.2061C52.3418 74.9801 52.6562 74.0231 53.2852 73.335C53.9141 72.6468 54.8005 72.3027 55.9443 72.3027C57.0381 72.3027 57.904 72.6559 58.542 73.3623C59.18 74.0641 59.499 75.012 59.499 76.2061ZM53.9961 76.2061C53.9961 77.9515 54.641 78.8242 55.9307 78.8242C57.2067 78.8242 57.8447 77.9515 57.8447 76.2061C57.8447 74.4788 57.2021 73.6152 55.917 73.6152C55.2425 73.6152 54.7526 73.8385 54.4473 74.2852C54.1465 74.7318 53.9961 75.3721 53.9961 76.2061ZM65.1865 80.1367C64.2295 80.1367 63.4867 79.7926 62.958 79.1045H62.8623C62.9261 79.7425 62.958 80.1299 62.958 80.2666V83.3633H61.3516V72.4395H62.6504C62.6868 72.5807 62.762 72.918 62.876 73.4512H62.958C63.4593 72.6855 64.2113 72.3027 65.2139 72.3027C66.1572 72.3027 66.891 72.6445 67.415 73.3281C67.9437 74.0117 68.208 74.971 68.208 76.2061C68.208 77.4411 67.9391 78.4049 67.4014 79.0977C66.8682 79.7904 66.1299 80.1367 65.1865 80.1367ZM64.7969 73.6152C64.1589 73.6152 63.6917 73.8021 63.3955 74.1758C63.1038 74.5495 62.958 75.1465 62.958 75.9668V76.2061C62.958 77.1266 63.1038 77.7943 63.3955 78.209C63.6872 78.6191 64.1634 78.8242 64.8242 78.8242C65.3802 78.8242 65.8086 78.5964 66.1094 78.1406C66.4102 77.6849 66.5605 77.0355 66.5605 76.1924C66.5605 75.3447 66.4102 74.7044 66.1094 74.2715C65.8132 73.834 65.3757 73.6152 64.7969 73.6152Z" fill="#505F79"/>
<circle cx="34" cy="28" r="28" fill="#FFE0F8"/>
<path d="M47.3333 30.6668V20.0002C47.3333 19.2929 47.0523 18.6146 46.5522 18.1145C46.0521 17.6144 45.3738 17.3335 44.6666 17.3335H23.3333C22.626 17.3335 21.9477 17.6144 21.4476 18.1145C20.9475 18.6146 20.6666 19.2929 20.6666 20.0002V36.0002C20.6666 36.7074 20.9475 37.3857 21.4476 37.8858C21.9477 38.3859 22.626 38.6668 23.3333 38.6668H39.3333H43.3333C45.2189 38.6668 46.1617 38.6668 46.7475 38.081C47.3333 37.4953 47.3333 36.5524 47.3333 34.6668V30.6668Z" fill="#FFC0F1" stroke="#99548A" stroke-width="1.5" stroke-linecap="round" stroke-linejoin="round"/>
<path d="M30.0014 28.6381C30.9054 28.6381 31.6383 27.9052 31.6383 27.0012C31.6383 26.0971 30.9054 25.3643 30.0014 25.3643C29.0974 25.3643 28.3645 26.0971 28.3645 27.0012C28.3645 27.9052 29.0974 28.6381 30.0014 28.6381Z" stroke="#99548A" stroke-linecap="round" stroke-linejoin="round"/>
<path d="M34.0364 28.6364C33.9638 28.8009 33.9421 28.9834 33.9742 29.1603C34.0063 29.3373 34.0906 29.5005 34.2164 29.6291L34.2491 29.6618C34.3505 29.7631 34.431 29.8834 34.4859 30.0159C34.5408 30.1483 34.569 30.2903 34.569 30.4336C34.569 30.577 34.5408 30.719 34.4859 30.8514C34.431 30.9838 34.3505 31.1041 34.2491 31.2055C34.1478 31.3069 34.0275 31.3873 33.895 31.4422C33.7626 31.4971 33.6206 31.5254 33.4773 31.5254C33.3339 31.5254 33.192 31.4971 33.0595 31.4422C32.9271 31.3873 32.8068 31.3069 32.7055 31.2055L32.6727 31.1727C32.5442 31.047 32.3809 30.9626 32.204 30.9305C32.027 30.8985 31.8445 30.9201 31.68 30.9927C31.5187 31.0619 31.3811 31.1767 31.2842 31.323C31.1873 31.4694 31.1352 31.6408 31.1345 31.8164V31.9091C31.1345 32.1984 31.0196 32.4759 30.815 32.6805C30.6104 32.8851 30.333 33 30.0436 33C29.7543 33 29.4768 32.8851 29.2722 32.6805C29.0677 32.4759 28.9527 32.1984 28.9527 31.9091V31.86C28.9485 31.6795 28.8901 31.5044 28.785 31.3575C28.6799 31.2106 28.5331 31.0987 28.3636 31.0364C28.1991 30.9638 28.0166 30.9421 27.8397 30.9742C27.6627 31.0063 27.4995 31.0906 27.3709 31.2164L27.3382 31.2491C27.2369 31.3505 27.1166 31.431 26.9841 31.4859C26.8517 31.5408 26.7097 31.569 26.5664 31.569C26.423 31.569 26.281 31.5408 26.1486 31.4859C26.0162 31.431 25.8959 31.3505 25.7945 31.2491C25.6931 31.1478 25.6127 31.0275 25.5578 30.895C25.5029 30.7626 25.4746 30.6206 25.4746 30.4773C25.4746 30.3339 25.5029 30.192 25.5578 30.0595C25.6127 29.9271 25.6931 29.8068 25.7945 29.7055L25.8273 29.6727C25.953 29.5442 26.0374 29.3809 26.0695 29.204C26.1015 29.027 26.0799 28.8445 26.0073 28.68C25.9381 28.5187 25.8233 28.3811 25.677 28.2842C25.5306 28.1873 25.3592 28.1352 25.1836 28.1345H25.0909C24.8016 28.1345 24.5241 28.0196 24.3195 27.815C24.1149 27.6104 24 27.333 24 27.0436C24 26.7543 24.1149 26.4768 24.3195 26.2722C24.5241 26.0677 24.8016 25.9527 25.0909 25.9527H25.14C25.3205 25.9485 25.4956 25.8901 25.6425 25.785C25.7894 25.6799 25.9013 25.5331 25.9636 25.3636C26.0362 25.1991 26.0579 25.0166 26.0258 24.8397C25.9937 24.6627 25.9094 24.4995 25.7836 24.3709L25.7509 24.3382C25.6495 24.2369 25.569 24.1166 25.5141 23.9841C25.4592 23.8517 25.431 23.7097 25.431 23.5664C25.431 23.423 25.4592 23.281 25.5141 23.1486C25.569 23.0162 25.6495 22.8959 25.7509 22.7945C25.8522 22.6931 25.9725 22.6127 26.105 22.5578C26.2374 22.5029 26.3794 22.4746 26.5227 22.4746C26.6661 22.4746 26.808 22.5029 26.9405 22.5578C27.0729 22.6127 27.1932 22.6931 27.2945 22.7945L27.3273 22.8273C27.4558 22.953 27.6191 23.0374 27.796 23.0695C27.973 23.1015 28.1555 23.0799 28.32 23.0073H28.3636C28.525 22.9381 28.6626 22.8233 28.7595 22.677C28.8564 22.5306 28.9084 22.3592 28.9091 22.1836V22.0909C28.9091 21.8016 29.024 21.5241 29.2286 21.3195C29.4332 21.1149 29.7107 21 30 21C30.2893 21 30.5668 21.1149 30.7714 21.3195C30.976 21.5241 31.0909 21.8016 31.0909 22.0909V22.14C31.0916 22.3155 31.1436 22.487 31.2405 22.6333C31.3374 22.7797 31.475 22.8945 31.6364 22.9636C31.8009 23.0362 31.9834 23.0579 32.1603 23.0258C32.3373 22.9937 32.5005 22.9094 32.6291 22.7836L32.6618 22.7509C32.7631 22.6495 32.8834 22.569 33.0159 22.5141C33.1483 22.4592 33.2903 22.431 33.4336 22.431C33.577 22.431 33.719 22.4592 33.8514 22.5141C33.9838 22.569 34.1041 22.6495 34.2055 22.7509C34.3069 22.8522 34.3873 22.9725 34.4422 23.105C34.4971 23.2374 34.5254 23.3794 34.5254 23.5227C34.5254 23.6661 34.4971 23.808 34.4422 23.9405C34.3873 24.0729 34.3069 24.1932 34.2055 24.2945L34.1727 24.3273C34.047 24.4558 33.9626 24.6191 33.9305 24.796C33.8985 24.973 33.9201 25.1555 33.9927 25.32V25.3636C34.0619 25.525 34.1767 25.6626 34.323 25.7595C34.4694 25.8564 34.6408 25.9084 34.8164 25.9091H34.9091C35.1984 25.9091 35.4759 26.024 35.6805 26.2286C35.8851 26.4332 36 26.7107 36 27C36 27.2893 35.8851 27.5668 35.6805 27.7714C35.4759 27.976 35.1984 28.0909 34.9091 28.0909H34.86C34.6845 28.0916 34.513 28.1436 34.3667 28.2405C34.2203 28.3374 34.1055 28.475 34.0364 28.6364V28.6364Z" stroke="#99548A" stroke-linecap="round" stroke-linejoin="round"/>
<path d="M42.0519 27.3342C42.1579 27.2283 42.2837 27.1442 42.4221 27.0869C42.5606 27.0295 42.709 27 42.8588 27C43.0087 27 43.1571 27.0295 43.2955 27.0869C43.434 27.1442 43.5598 27.2283 43.6658 27.3342C43.7717 27.4402 43.8558 27.566 43.9131 27.7045C43.9705 27.8429 44 27.9913 44 28.1412C44 28.291 43.9705 28.4394 43.9131 28.5779C43.8558 28.7163 43.7717 28.8421 43.6658 28.9481L38.219 34.3948L36 35L36.6052 32.781L42.0519 27.3342Z" stroke="#99548A" stroke-linecap="round" stroke-linejoin="round"/>
</svg>
