<svg width="33" height="33" viewBox="0 0 33 33" fill="none" xmlns="http://www.w3.org/2000/svg">
    <rect opacity="0.1" width="32.5055" height="32.5055" rx="6" fill="#092682" />
    <path fill-rule="evenodd" clip-rule="evenodd"
        d="M14.5253 11.0216C14.2508 11.0773 13.9732 11.3001 13.8564 11.5583C13.7772 11.7332 13.7494 11.8831 13.7494 12.1341C13.7494 12.2429 13.6611 12.3311 13.5523 12.3311H12.4039C11.3366 12.3311 11.0605 12.3368 11.0683 12.3589C11.0738 12.3742 11.3513 13.2347 11.6851 14.2711C12.1154 15.6071 12.3076 16.1746 12.3452 16.2208C12.3743 16.2566 12.4339 16.2962 12.4774 16.3087C12.5257 16.3226 12.915 16.3315 13.4753 16.3316L14.1931 16.3317C14.3041 16.3317 14.3941 16.2418 14.3941 16.1308C14.3941 15.8832 14.4371 15.7774 14.5654 15.7097C14.6478 15.6663 14.6896 15.665 16.0059 15.665C17.3221 15.665 17.3639 15.6663 17.4463 15.7097C17.5746 15.7774 17.6177 15.8832 17.6177 16.1308C17.6177 16.2418 17.7076 16.3317 17.8186 16.3317L18.5364 16.3316C19.0967 16.3315 19.486 16.3226 19.5343 16.3087C19.5779 16.2962 19.6374 16.2566 19.6666 16.2208C19.7042 16.1746 19.8963 15.6071 20.3266 14.2711C20.6604 13.2347 20.938 12.3742 20.9434 12.3589C20.9512 12.3368 20.6751 12.3311 19.6078 12.3311H18.4594C18.3506 12.3311 18.2624 12.2429 18.2624 12.1341C18.2624 12.0258 18.2525 11.8833 18.2404 11.8175C18.1672 11.4183 17.8555 11.0959 17.4696 11.0202C17.3278 10.9924 14.6629 10.9937 14.5253 11.0216ZM17.4463 11.7091C17.5746 11.7768 17.6177 11.8826 17.6177 12.1302C17.6177 12.2411 17.5277 12.3311 17.4167 12.3311H16.0059H14.595C14.484 12.3311 14.3941 12.2411 14.3941 12.1302C14.3941 11.8866 14.4373 11.7776 14.5609 11.7101C14.6384 11.6679 14.6896 11.6663 16.0013 11.6653C17.3231 11.6643 17.3639 11.6656 17.4463 11.7091ZM10.506 16.4009C10.5049 18.804 10.5118 20.1007 10.5262 20.1792C10.5994 20.5784 10.9111 20.9008 11.2971 20.9765C11.4571 21.0078 20.5547 21.0078 20.7146 20.9765C21.1006 20.9008 21.4123 20.5784 21.4855 20.1792C21.4999 20.1007 21.5069 18.804 21.5057 16.4009L21.5049 14.6461C21.5048 14.3035 21.0236 14.2277 20.9181 14.5537C20.5959 15.5499 20.3101 16.4096 20.2832 16.4641C20.2129 16.606 20.0224 16.8033 19.8876 16.8739C19.6571 16.9945 19.6204 16.998 18.5794 16.9982L17.8186 16.9985C17.7076 16.9985 17.6177 17.0885 17.6177 17.1994C17.6177 17.447 17.5746 17.5528 17.4463 17.6205C17.3639 17.664 17.3221 17.6653 16.0059 17.6653C14.6896 17.6653 14.6478 17.664 14.5654 17.6205C14.4371 17.5528 14.3941 17.447 14.3941 17.1994C14.3941 17.0885 14.3041 16.9985 14.1931 16.9985L13.4324 16.9982C12.3913 16.998 12.3546 16.9945 12.1241 16.8739C11.9893 16.8033 11.7988 16.606 11.7286 16.4641C11.7016 16.4096 11.4158 15.5499 11.0936 14.5537C10.9882 14.2277 10.5069 14.3035 10.5068 14.6461L10.506 16.4009ZM15.0388 16.6651C15.0388 16.8492 15.188 16.9985 15.3722 16.9985H16.0059H16.6395C16.8237 16.9985 16.9729 16.8492 16.9729 16.6651C16.9729 16.481 16.8237 16.3317 16.6395 16.3317H16.0059H15.3722C15.188 16.3317 15.0388 16.481 15.0388 16.6651Z"
        fill="#092682" />
</svg>