<svg width="119" height="90" viewBox="0 0 119 90" fill="none" xmlns="http://www.w3.org/2000/svg">
<circle cx="1.5" cy="11.5" r="1.5" fill="#84A5FF"/>
<circle cx="1.5" cy="19.5" r="1.5" fill="#84A5FF"/>
<circle cx="1.5" cy="27.5" r="1.5" fill="#84A5FF"/>
<circle cx="9.5" cy="11.5" r="1.5" fill="#84A5FF"/>
<circle cx="9.5" cy="19.5" r="1.5" fill="#84A5FF"/>
<circle cx="9.5" cy="27.5" r="1.5" fill="#84A5FF"/>
<circle cx="17.5" cy="11.5" r="1.5" fill="#84A5FF"/>
<circle cx="17.5" cy="19.5" r="1.5" fill="#84A5FF"/>
<circle cx="17.5" cy="27.5" r="1.5" fill="#84A5FF"/>
<circle cx="25.5" cy="11.5" r="1.5" fill="#84A5FF"/>
<circle cx="33.5" cy="11.5" r="1.5" fill="#84A5FF"/>
<circle cx="41.5" cy="11.5" r="1.5" fill="#84A5FF"/>
<circle cx="25.5" cy="19.5" r="1.5" fill="#84A5FF"/>
<circle cx="33.5" cy="19.5" r="1.5" fill="#84A5FF"/>
<circle cx="41.5" cy="19.5" r="1.5" fill="#84A5FF"/>
<circle cx="25.5" cy="27.5" r="1.5" fill="#84A5FF"/>
<circle cx="33.5" cy="27.5" r="1.5" fill="#84A5FF"/>
<circle cx="41.5" cy="27.5" r="1.5" fill="#84A5FF"/>
<rect x="23.667" y="1.5" width="63" height="87" rx="6.5" fill="white" stroke="#42526E" stroke-width="3"/>
<rect x="35.167" y="18.9023" width="24" height="5" rx="2.5" fill="#84A5FF"/>
<rect x="35.167" y="28.7031" width="40" height="4" rx="2" fill="#BED0FF"/>
<rect x="35.167" y="35.3008" width="32" height="4" rx="2" fill="#BED0FF"/>
<rect x="35.167" y="50.7002" width="24" height="5" rx="2.5" fill="#84A5FF"/>
<rect x="35.167" y="60.501" width="35" height="4" rx="2" fill="#BED0FF"/>
<rect x="35.167" y="67.0986" width="22" height="4" rx="2" fill="#BED0FF"/>
<g filter="url(#filter0_f_2_86480)">
<rect x="75.5195" y="46.2656" width="37.8132" height="37.8132" rx="5.11341" fill="#2862FF" fill-opacity="0.2"/>
</g>
<rect x="72" y="42" width="37.8132" height="37.8132" rx="5.11341" fill="#52C15A"/>
<path d="M99 55L88 66L83 61" stroke="white" stroke-width="3" stroke-linecap="round" stroke-linejoin="round"/>
<defs>
<filter id="filter0_f_2_86480" x="70.4061" y="41.1522" width="48.0403" height="48.0403" filterUnits="userSpaceOnUse" color-interpolation-filters="sRGB">
<feFlood flood-opacity="0" result="BackgroundImageFix"/>
<feBlend mode="normal" in="SourceGraphic" in2="BackgroundImageFix" result="shape"/>
<feGaussianBlur stdDeviation="2.55671" result="effect1_foregroundBlur_2_86480"/>
</filter>
</defs>
</svg>
