<svg width="369" height="291" viewBox="0 0 369 291" fill="none" xmlns="http://www.w3.org/2000/svg">
<path d="M0 16C0 7.16345 7.16344 0 16 0H353C361.837 0 369 7.16344 369 16V275C369 283.837 361.837 291 353 291H16C7.16344 291 0 283.837 0 275V16Z" fill="#F5F5F5"/>
<path d="M71 144C71 87.1147 117.115 41 174 41C230.885 41 277 87.1147 277 144C277 200.885 230.885 247 174 247C117.115 247 71 200.885 71 144Z" fill="#5540C5"/>
<path d="M174 144H277C277 172.363 265.268 198.041 246.628 216.628L174 144Z" fill="#855CF8"/>
<path d="M174 144H277C277 115.637 265.268 89.959 246.628 71.3718L174 144Z" fill="#A492FF"/>
<path d="M174 144V41C202.363 41 228.041 52.7325 246.628 71.3718L174 144Z" fill="#A492FF"/>
<path opacity="0.6" d="M129.492 150.755C129.492 148.777 129.909 147.305 130.743 146.339C131.582 145.373 132.835 144.89 134.503 144.89C135.073 144.89 135.519 144.924 135.843 144.992V146.681C135.437 146.59 135.036 146.544 134.64 146.544C133.915 146.544 133.323 146.653 132.862 146.872C132.407 147.091 132.065 147.414 131.837 147.843C131.609 148.271 131.475 148.88 131.434 149.668H131.522C131.974 148.893 132.696 148.506 133.689 148.506C134.583 148.506 135.282 148.786 135.788 149.347C136.294 149.907 136.547 150.682 136.547 151.671C136.547 152.737 136.246 153.583 135.645 154.207C135.043 154.827 134.209 155.137 133.143 155.137C132.404 155.137 131.759 154.966 131.208 154.624C130.661 154.282 130.237 153.783 129.937 153.127C129.64 152.471 129.492 151.68 129.492 150.755ZM133.102 153.448C133.553 153.448 133.899 153.298 134.141 152.997C134.382 152.692 134.503 152.259 134.503 151.698C134.503 151.211 134.389 150.828 134.161 150.55C133.938 150.267 133.598 150.126 133.143 150.126C132.714 150.126 132.347 150.265 132.042 150.543C131.741 150.821 131.591 151.145 131.591 151.514C131.591 152.056 131.732 152.514 132.015 152.888C132.302 153.261 132.664 153.448 133.102 153.448ZM144.49 150.003C144.49 151.748 144.203 153.04 143.629 153.879C143.059 154.717 142.18 155.137 140.99 155.137C139.837 155.137 138.967 154.704 138.379 153.838C137.796 152.972 137.504 151.694 137.504 150.003C137.504 148.239 137.789 146.94 138.358 146.106C138.928 145.268 139.805 144.849 140.99 144.849C142.143 144.849 143.014 145.286 143.602 146.161C144.194 147.036 144.49 148.317 144.49 150.003ZM139.603 150.003C139.603 151.229 139.707 152.108 139.917 152.642C140.131 153.17 140.489 153.435 140.99 153.435C141.482 153.435 141.838 153.166 142.057 152.628C142.275 152.09 142.385 151.215 142.385 150.003C142.385 148.777 142.273 147.897 142.05 147.364C141.831 146.826 141.478 146.558 140.99 146.558C140.493 146.558 140.138 146.826 139.924 147.364C139.71 147.897 139.603 148.777 139.603 150.003Z" fill="white"/>
<path opacity="0.6" d="M129.492 150.755C129.492 148.777 129.909 147.305 130.743 146.339C131.582 145.373 132.835 144.89 134.503 144.89C135.073 144.89 135.519 144.924 135.843 144.992V146.681C135.437 146.59 135.036 146.544 134.64 146.544C133.915 146.544 133.323 146.653 132.862 146.872C132.407 147.091 132.065 147.414 131.837 147.843C131.609 148.271 131.475 148.88 131.434 149.668H131.522C131.974 148.893 132.696 148.506 133.689 148.506C134.583 148.506 135.282 148.786 135.788 149.347C136.294 149.907 136.547 150.682 136.547 151.671C136.547 152.737 136.246 153.583 135.645 154.207C135.043 154.827 134.209 155.137 133.143 155.137C132.404 155.137 131.759 154.966 131.208 154.624C130.661 154.282 130.237 153.783 129.937 153.127C129.64 152.471 129.492 151.68 129.492 150.755ZM133.102 153.448C133.553 153.448 133.899 153.298 134.141 152.997C134.382 152.692 134.503 152.259 134.503 151.698C134.503 151.211 134.389 150.828 134.161 150.55C133.938 150.267 133.598 150.126 133.143 150.126C132.714 150.126 132.347 150.265 132.042 150.543C131.741 150.821 131.591 151.145 131.591 151.514C131.591 152.056 131.732 152.514 132.015 152.888C132.302 153.261 132.664 153.448 133.102 153.448ZM144.49 150.003C144.49 151.748 144.203 153.04 143.629 153.879C143.059 154.717 142.18 155.137 140.99 155.137C139.837 155.137 138.967 154.704 138.379 153.838C137.796 152.972 137.504 151.694 137.504 150.003C137.504 148.239 137.789 146.94 138.358 146.106C138.928 145.268 139.805 144.849 140.99 144.849C142.143 144.849 143.014 145.286 143.602 146.161C144.194 147.036 144.49 148.317 144.49 150.003ZM139.603 150.003C139.603 151.229 139.707 152.108 139.917 152.642C140.131 153.17 140.489 153.435 140.99 153.435C141.482 153.435 141.838 153.166 142.057 152.628C142.275 152.09 142.385 151.215 142.385 150.003C142.385 148.777 142.273 147.897 142.05 147.364C141.831 146.826 141.478 146.558 140.99 146.558C140.493 146.558 140.138 146.826 139.924 147.364C139.71 147.897 139.603 148.777 139.603 150.003Z" fill="white"/>
<path opacity="0.6" d="M129.492 150.755C129.492 148.777 129.909 147.305 130.743 146.339C131.582 145.373 132.835 144.89 134.503 144.89C135.073 144.89 135.519 144.924 135.843 144.992V146.681C135.437 146.59 135.036 146.544 134.64 146.544C133.915 146.544 133.323 146.653 132.862 146.872C132.407 147.091 132.065 147.414 131.837 147.843C131.609 148.271 131.475 148.88 131.434 149.668H131.522C131.974 148.893 132.696 148.506 133.689 148.506C134.583 148.506 135.282 148.786 135.788 149.347C136.294 149.907 136.547 150.682 136.547 151.671C136.547 152.737 136.246 153.583 135.645 154.207C135.043 154.827 134.209 155.137 133.143 155.137C132.404 155.137 131.759 154.966 131.208 154.624C130.661 154.282 130.237 153.783 129.937 153.127C129.64 152.471 129.492 151.68 129.492 150.755ZM133.102 153.448C133.553 153.448 133.899 153.298 134.141 152.997C134.382 152.692 134.503 152.259 134.503 151.698C134.503 151.211 134.389 150.828 134.161 150.55C133.938 150.267 133.598 150.126 133.143 150.126C132.714 150.126 132.347 150.265 132.042 150.543C131.741 150.821 131.591 151.145 131.591 151.514C131.591 152.056 131.732 152.514 132.015 152.888C132.302 153.261 132.664 153.448 133.102 153.448ZM144.49 150.003C144.49 151.748 144.203 153.04 143.629 153.879C143.059 154.717 142.18 155.137 140.99 155.137C139.837 155.137 138.967 154.704 138.379 153.838C137.796 152.972 137.504 151.694 137.504 150.003C137.504 148.239 137.789 146.94 138.358 146.106C138.928 145.268 139.805 144.849 140.99 144.849C142.143 144.849 143.014 145.286 143.602 146.161C144.194 147.036 144.49 148.317 144.49 150.003ZM139.603 150.003C139.603 151.229 139.707 152.108 139.917 152.642C140.131 153.17 140.489 153.435 140.99 153.435C141.482 153.435 141.838 153.166 142.057 152.628C142.275 152.09 142.385 151.215 142.385 150.003C142.385 148.777 142.273 147.897 142.05 147.364C141.831 146.826 141.478 146.558 140.99 146.558C140.493 146.558 140.138 146.826 139.924 147.364C139.71 147.897 139.603 148.777 139.603 150.003Z" fill="white"/>
<path opacity="0.6" d="M211.547 104H204.561V102.53L207.069 99.9941C207.812 99.2331 208.298 98.7067 208.525 98.415C208.753 98.1188 208.917 97.8454 209.018 97.5947C209.118 97.3441 209.168 97.0843 209.168 96.8154C209.168 96.4144 209.056 96.1159 208.833 95.9199C208.614 95.724 208.32 95.626 207.951 95.626C207.564 95.626 207.188 95.7148 206.823 95.8926C206.459 96.0703 206.078 96.3232 205.682 96.6514L204.533 95.291C205.025 94.8717 205.433 94.5755 205.757 94.4023C206.08 94.2292 206.434 94.097 206.816 94.0059C207.199 93.9102 207.628 93.8623 208.102 93.8623C208.726 93.8623 209.277 93.9762 209.756 94.2041C210.234 94.432 210.606 94.751 210.87 95.1611C211.134 95.5713 211.267 96.0407 211.267 96.5693C211.267 97.0296 211.185 97.4626 211.021 97.8682C210.861 98.2692 210.61 98.6816 210.269 99.1055C209.931 99.5293 209.334 100.133 208.478 100.917L207.192 102.127V102.223H211.547V104ZM216.195 97.6152C217.161 97.6152 217.929 97.8864 218.499 98.4287C219.073 98.971 219.36 99.7139 219.36 100.657C219.36 101.774 219.016 102.633 218.328 103.234C217.64 103.836 216.656 104.137 215.375 104.137C214.263 104.137 213.365 103.957 212.682 103.597V101.771C213.042 101.963 213.461 102.12 213.939 102.243C214.418 102.362 214.871 102.421 215.3 102.421C216.59 102.421 217.234 101.892 217.234 100.835C217.234 99.8278 216.567 99.3242 215.231 99.3242C214.99 99.3242 214.723 99.3493 214.432 99.3994C214.14 99.445 213.903 99.4951 213.721 99.5498L212.88 99.0986L213.256 94.0059H218.677V95.7969H215.108L214.924 97.7588L215.163 97.7109C215.441 97.6471 215.785 97.6152 216.195 97.6152Z" fill="white"/>
<path opacity="0.6" d="M211.547 104H204.561V102.53L207.069 99.9941C207.812 99.2331 208.298 98.7067 208.525 98.415C208.753 98.1188 208.917 97.8454 209.018 97.5947C209.118 97.3441 209.168 97.0843 209.168 96.8154C209.168 96.4144 209.056 96.1159 208.833 95.9199C208.614 95.724 208.32 95.626 207.951 95.626C207.564 95.626 207.188 95.7148 206.823 95.8926C206.459 96.0703 206.078 96.3232 205.682 96.6514L204.533 95.291C205.025 94.8717 205.433 94.5755 205.757 94.4023C206.08 94.2292 206.434 94.097 206.816 94.0059C207.199 93.9102 207.628 93.8623 208.102 93.8623C208.726 93.8623 209.277 93.9762 209.756 94.2041C210.234 94.432 210.606 94.751 210.87 95.1611C211.134 95.5713 211.267 96.0407 211.267 96.5693C211.267 97.0296 211.185 97.4626 211.021 97.8682C210.861 98.2692 210.61 98.6816 210.269 99.1055C209.931 99.5293 209.334 100.133 208.478 100.917L207.192 102.127V102.223H211.547V104ZM216.195 97.6152C217.161 97.6152 217.929 97.8864 218.499 98.4287C219.073 98.971 219.36 99.7139 219.36 100.657C219.36 101.774 219.016 102.633 218.328 103.234C217.64 103.836 216.656 104.137 215.375 104.137C214.263 104.137 213.365 103.957 212.682 103.597V101.771C213.042 101.963 213.461 102.12 213.939 102.243C214.418 102.362 214.871 102.421 215.3 102.421C216.59 102.421 217.234 101.892 217.234 100.835C217.234 99.8278 216.567 99.3242 215.231 99.3242C214.99 99.3242 214.723 99.3493 214.432 99.3994C214.14 99.445 213.903 99.4951 213.721 99.5498L212.88 99.0986L213.256 94.0059H218.677V95.7969H215.108L214.924 97.7588L215.163 97.7109C215.441 97.6471 215.785 97.6152 216.195 97.6152Z" fill="white"/>
<path opacity="0.6" d="M211.547 104H204.561V102.53L207.069 99.9941C207.812 99.2331 208.298 98.7067 208.525 98.415C208.753 98.1188 208.917 97.8454 209.018 97.5947C209.118 97.3441 209.168 97.0843 209.168 96.8154C209.168 96.4144 209.056 96.1159 208.833 95.9199C208.614 95.724 208.32 95.626 207.951 95.626C207.564 95.626 207.188 95.7148 206.823 95.8926C206.459 96.0703 206.078 96.3232 205.682 96.6514L204.533 95.291C205.025 94.8717 205.433 94.5755 205.757 94.4023C206.08 94.2292 206.434 94.097 206.816 94.0059C207.199 93.9102 207.628 93.8623 208.102 93.8623C208.726 93.8623 209.277 93.9762 209.756 94.2041C210.234 94.432 210.606 94.751 210.87 95.1611C211.134 95.5713 211.267 96.0407 211.267 96.5693C211.267 97.0296 211.185 97.4626 211.021 97.8682C210.861 98.2692 210.61 98.6816 210.269 99.1055C209.931 99.5293 209.334 100.133 208.478 100.917L207.192 102.127V102.223H211.547V104ZM216.195 97.6152C217.161 97.6152 217.929 97.8864 218.499 98.4287C219.073 98.971 219.36 99.7139 219.36 100.657C219.36 101.774 219.016 102.633 218.328 103.234C217.64 103.836 216.656 104.137 215.375 104.137C214.263 104.137 213.365 103.957 212.682 103.597V101.771C213.042 101.963 213.461 102.12 213.939 102.243C214.418 102.362 214.871 102.421 215.3 102.421C216.59 102.421 217.234 101.892 217.234 100.835C217.234 99.8278 216.567 99.3242 215.231 99.3242C214.99 99.3242 214.723 99.3493 214.432 99.3994C214.14 99.445 213.903 99.4951 213.721 99.5498L212.88 99.0986L213.256 94.0059H218.677V95.7969H215.108L214.924 97.7588L215.163 97.7109C215.441 97.6471 215.785 97.6152 216.195 97.6152Z" fill="white"/>
<path opacity="0.6" d="M233.783 172H231.671V166.217L231.691 165.267L231.726 164.228C231.375 164.578 231.131 164.809 230.994 164.918L229.846 165.841L228.827 164.569L232.047 162.006H233.783V172ZM240.195 165.615C241.161 165.615 241.929 165.886 242.499 166.429C243.073 166.971 243.36 167.714 243.36 168.657C243.36 169.774 243.016 170.633 242.328 171.234C241.64 171.836 240.656 172.137 239.375 172.137C238.263 172.137 237.365 171.957 236.682 171.597V169.771C237.042 169.963 237.461 170.12 237.939 170.243C238.418 170.362 238.871 170.421 239.3 170.421C240.59 170.421 241.234 169.892 241.234 168.835C241.234 167.828 240.567 167.324 239.231 167.324C238.99 167.324 238.723 167.349 238.432 167.399C238.14 167.445 237.903 167.495 237.721 167.55L236.88 167.099L237.256 162.006H242.677V163.797H239.108L238.924 165.759L239.163 165.711C239.441 165.647 239.785 165.615 240.195 165.615Z" fill="white"/>
<path opacity="0.6" d="M233.783 172H231.671V166.217L231.691 165.267L231.726 164.228C231.375 164.578 231.131 164.809 230.994 164.918L229.846 165.841L228.827 164.569L232.047 162.006H233.783V172ZM240.195 165.615C241.161 165.615 241.929 165.886 242.499 166.429C243.073 166.971 243.36 167.714 243.36 168.657C243.36 169.774 243.016 170.633 242.328 171.234C241.64 171.836 240.656 172.137 239.375 172.137C238.263 172.137 237.365 171.957 236.682 171.597V169.771C237.042 169.963 237.461 170.12 237.939 170.243C238.418 170.362 238.871 170.421 239.3 170.421C240.59 170.421 241.234 169.892 241.234 168.835C241.234 167.828 240.567 167.324 239.231 167.324C238.99 167.324 238.723 167.349 238.432 167.399C238.14 167.445 237.903 167.495 237.721 167.55L236.88 167.099L237.256 162.006H242.677V163.797H239.108L238.924 165.759L239.163 165.711C239.441 165.647 239.785 165.615 240.195 165.615Z" fill="white"/>
<path opacity="0.6" d="M233.783 172H231.671V166.217L231.691 165.267L231.726 164.228C231.375 164.578 231.131 164.809 230.994 164.918L229.846 165.841L228.827 164.569L232.047 162.006H233.783V172ZM240.195 165.615C241.161 165.615 241.929 165.886 242.499 166.429C243.073 166.971 243.36 167.714 243.36 168.657C243.36 169.774 243.016 170.633 242.328 171.234C241.64 171.836 240.656 172.137 239.375 172.137C238.263 172.137 237.365 171.957 236.682 171.597V169.771C237.042 169.963 237.461 170.12 237.939 170.243C238.418 170.362 238.871 170.421 239.3 170.421C240.59 170.421 241.234 169.892 241.234 168.835C241.234 167.828 240.567 167.324 239.231 167.324C238.99 167.324 238.723 167.349 238.432 167.399C238.14 167.445 237.903 167.495 237.721 167.55L236.88 167.099L237.256 162.006H242.677V163.797H239.108L238.924 165.759L239.163 165.711C239.441 165.647 239.785 165.615 240.195 165.615Z" fill="white"/>
</svg>
