<svg width="373" height="291" viewBox="0 0 373 291" fill="none" xmlns="http://www.w3.org/2000/svg">
<path d="M0 16C0 7.16345 7.16344 0 16 0H357C365.837 0 373 7.16344 373 16V275C373 283.837 365.837 291 357 291H16C7.16344 291 0 283.837 0 275V16Z" fill="#F5F5F5"/>
<path d="M15.512 169.064H23V170.072H15.512V172.736H14.624V166.4H15.512V169.064ZM15.356 164.233C15.356 164.441 15.308 164.593 15.212 164.689C15.108 164.777 14.976 164.821 14.816 164.821H14.66C14.5 164.821 14.372 164.777 14.276 164.689C14.172 164.593 14.12 164.441 14.12 164.233C14.12 164.025 14.172 163.877 14.276 163.789C14.372 163.693 14.5 163.645 14.66 163.645H14.816C14.976 163.645 15.108 163.693 15.212 163.789C15.308 163.877 15.356 164.025 15.356 164.233ZM16.808 164.713V163.753H23V164.713H16.808ZM23 161.313H16.808V160.353H17.816V160.305C17.656 160.233 17.508 160.153 17.372 160.065C17.228 159.969 17.104 159.857 17 159.729C16.896 159.593 16.816 159.437 16.76 159.261C16.696 159.085 16.664 158.877 16.664 158.637C16.664 158.229 16.764 157.853 16.964 157.509C17.156 157.165 17.476 156.909 17.924 156.741V156.717C17.588 156.605 17.296 156.397 17.048 156.093C16.792 155.781 16.664 155.361 16.664 154.833C16.664 154.201 16.872 153.709 17.288 153.357C17.696 152.997 18.276 152.817 19.028 152.817H23V153.777H19.196C18.644 153.777 18.228 153.885 17.948 154.101C17.668 154.317 17.528 154.661 17.528 155.133C17.528 155.325 17.552 155.509 17.6 155.685C17.648 155.853 17.72 156.005 17.816 156.141C17.912 156.277 18.036 156.385 18.188 156.465C18.332 156.545 18.504 156.585 18.704 156.585H23V157.545H19.196C18.644 157.545 18.228 157.653 17.948 157.869C17.668 158.085 17.528 158.421 17.528 158.877C17.528 159.069 17.552 159.253 17.6 159.429C17.648 159.605 17.72 159.761 17.816 159.897C17.912 160.033 18.036 160.145 18.188 160.233C18.332 160.313 18.504 160.353 18.704 160.353H23V161.313ZM23.144 148.108C23.144 148.532 23.068 148.916 22.916 149.26C22.764 149.596 22.548 149.888 22.268 150.136C21.98 150.376 21.64 150.564 21.248 150.7C20.848 150.828 20.4 150.892 19.904 150.892C19.416 150.892 18.972 150.828 18.572 150.7C18.172 150.564 17.832 150.376 17.552 150.136C17.264 149.888 17.044 149.596 16.892 149.26C16.74 148.916 16.664 148.532 16.664 148.108C16.664 147.692 16.74 147.32 16.892 146.992C17.044 146.664 17.256 146.384 17.528 146.152C17.792 145.92 18.108 145.744 18.476 145.624C18.844 145.496 19.248 145.432 19.688 145.432H20.144V149.884H20.432C20.696 149.884 20.944 149.844 21.176 149.764C21.4 149.676 21.596 149.556 21.764 149.404C21.932 149.244 22.064 149.052 22.16 148.828C22.256 148.596 22.304 148.336 22.304 148.048C22.304 147.656 22.212 147.316 22.028 147.028C21.844 146.732 21.58 146.504 21.236 146.344L21.728 145.66C22.152 145.86 22.496 146.172 22.76 146.596C23.016 147.02 23.144 147.524 23.144 148.108ZM17.468 148.108C17.468 148.372 17.516 148.612 17.612 148.828C17.7 149.044 17.828 149.232 17.996 149.392C18.164 149.544 18.364 149.664 18.596 149.752C18.82 149.84 19.068 149.884 19.34 149.884H19.424V146.464H19.292C18.74 146.464 18.3 146.616 17.972 146.92C17.636 147.216 17.468 147.612 17.468 148.108ZM19.256 140.238C18.68 140.238 18.124 140.182 17.588 140.07C17.052 139.958 16.556 139.806 16.1 139.614C15.636 139.414 15.216 139.182 14.84 138.918C14.464 138.654 14.144 138.37 13.88 138.066V137.154C14.184 137.49 14.528 137.794 14.912 138.066C15.296 138.33 15.704 138.558 16.136 138.75C16.568 138.934 17.008 139.078 17.456 139.182C17.904 139.286 18.336 139.338 18.752 139.338H19.784C20.208 139.338 20.644 139.286 21.092 139.182C21.54 139.078 21.98 138.93 22.412 138.738C22.844 138.546 23.252 138.318 23.636 138.054C24.02 137.782 24.356 137.482 24.644 137.154V138.066C24.396 138.362 24.084 138.642 23.708 138.906C23.332 139.17 22.912 139.402 22.448 139.602C21.984 139.794 21.484 139.95 20.948 140.07C20.404 140.182 19.84 140.238 19.256 140.238ZM15.944 129.171V129.231L17.348 129.939L20.996 131.943L17.348 133.947L15.944 134.655V134.715H23V135.699H14.624V134.355L19.136 131.955V131.895L14.624 129.483V128.187H23V129.171H15.944ZM15.356 125.177C15.356 125.385 15.308 125.537 15.212 125.633C15.108 125.721 14.976 125.765 14.816 125.765H14.66C14.5 125.765 14.372 125.721 14.276 125.633C14.172 125.537 14.12 125.385 14.12 125.177C14.12 124.969 14.172 124.821 14.276 124.733C14.372 124.637 14.5 124.589 14.66 124.589H14.816C14.976 124.589 15.108 124.637 15.212 124.733C15.308 124.821 15.356 124.969 15.356 125.177ZM16.808 125.657L16.808 124.697H23V125.657H16.808ZM23 122.257H16.808V121.297H17.816V121.249C17.464 121.097 17.184 120.885 16.976 120.613C16.768 120.333 16.664 119.961 16.664 119.497C16.664 118.857 16.872 118.353 17.288 117.985C17.696 117.609 18.276 117.421 19.028 117.421H23V118.381H19.196C18.084 118.381 17.528 118.849 17.528 119.785C17.528 119.977 17.552 120.165 17.6 120.349C17.648 120.525 17.72 120.685 17.816 120.829C17.912 120.973 18.036 121.089 18.188 121.177C18.332 121.257 18.504 121.297 18.704 121.297H23V122.257ZM23.144 114.424C23.144 114.68 23.08 114.868 22.952 114.988C22.824 115.1 22.656 115.156 22.448 115.156H22.292C22.084 115.156 21.916 115.1 21.788 114.988C21.66 114.868 21.596 114.68 21.596 114.424C21.596 114.168 21.66 113.984 21.788 113.872C21.916 113.752 22.084 113.692 22.292 113.692H22.448C22.656 113.692 22.824 113.752 22.952 113.872C23.08 113.984 23.144 114.168 23.144 114.424ZM19.256 109.363C19.84 109.363 20.404 109.423 20.948 109.543C21.484 109.655 21.984 109.811 22.448 110.011C22.912 110.203 23.332 110.431 23.708 110.695C24.084 110.959 24.396 111.239 24.644 111.535V112.447C24.356 112.119 24.02 111.823 23.636 111.559C23.252 111.287 22.844 111.055 22.412 110.863C21.98 110.671 21.54 110.523 21.092 110.419C20.644 110.315 20.208 110.263 19.784 110.263H18.752C18.336 110.263 17.904 110.315 17.456 110.419C17.008 110.523 16.568 110.671 16.136 110.863C15.704 111.047 15.296 111.275 14.912 111.547C14.528 111.811 14.184 112.111 13.88 112.447V111.535C14.144 111.231 14.464 110.947 14.84 110.683C15.216 110.419 15.636 110.191 16.1 109.999C16.556 109.799 17.052 109.643 17.588 109.531C18.124 109.419 18.68 109.363 19.256 109.363Z" fill="#092682"/>
<path d="M189.261 251.735H189.201L188.493 253.139L186.489 256.787L184.485 253.139L183.777 251.735H183.717V258.791H182.733V250.415H184.077L186.477 254.927H186.537L188.949 250.415H190.245V258.791H189.261V251.735ZM195.115 258.935C194.699 258.935 194.319 258.859 193.975 258.707C193.631 258.555 193.335 258.339 193.087 258.059C192.847 257.771 192.659 257.431 192.523 257.039C192.387 256.639 192.319 256.191 192.319 255.695C192.319 255.207 192.387 254.763 192.523 254.363C192.659 253.963 192.847 253.623 193.087 253.343C193.335 253.055 193.631 252.835 193.975 252.683C194.319 252.531 194.699 252.455 195.115 252.455C195.531 252.455 195.907 252.531 196.243 252.683C196.587 252.835 196.883 253.055 197.131 253.343C197.379 253.623 197.571 253.963 197.707 254.363C197.843 254.763 197.911 255.207 197.911 255.695C197.911 256.191 197.843 256.639 197.707 257.039C197.571 257.431 197.379 257.771 197.131 258.059C196.883 258.339 196.587 258.555 196.243 258.707C195.907 258.859 195.531 258.935 195.115 258.935ZM195.115 258.083C195.635 258.083 196.059 257.923 196.387 257.603C196.715 257.283 196.879 256.795 196.879 256.139V255.251C196.879 254.595 196.715 254.107 196.387 253.787C196.059 253.467 195.635 253.307 195.115 253.307C194.595 253.307 194.171 253.467 193.843 253.787C193.515 254.107 193.351 254.595 193.351 255.251V256.139C193.351 256.795 193.515 257.283 193.843 257.603C194.171 257.923 194.595 258.083 195.115 258.083ZM203.85 257.783H203.802C203.426 258.551 202.822 258.935 201.99 258.935C201.606 258.935 201.258 258.859 200.946 258.707C200.634 258.555 200.366 258.339 200.142 258.059C199.926 257.779 199.758 257.439 199.638 257.039C199.526 256.639 199.47 256.191 199.47 255.695C199.47 255.199 199.526 254.751 199.638 254.351C199.758 253.951 199.926 253.611 200.142 253.331C200.366 253.051 200.634 252.835 200.946 252.683C201.258 252.531 201.606 252.455 201.99 252.455C202.422 252.455 202.79 252.551 203.094 252.743C203.406 252.927 203.642 253.215 203.802 253.607H203.85V249.911H204.81V258.791H203.85V257.783ZM202.254 258.071C202.47 258.071 202.674 258.043 202.866 257.987C203.066 257.931 203.238 257.851 203.382 257.747C203.526 257.635 203.638 257.503 203.718 257.351C203.806 257.191 203.85 257.011 203.85 256.811V254.507C203.85 254.339 203.806 254.183 203.718 254.039C203.638 253.887 203.526 253.759 203.382 253.655C203.238 253.551 203.066 253.471 202.866 253.415C202.674 253.351 202.47 253.319 202.254 253.319C201.71 253.319 201.282 253.491 200.97 253.835C200.658 254.171 200.502 254.615 200.502 255.167V256.223C200.502 256.775 200.658 257.223 200.97 257.567C201.282 257.903 201.71 258.071 202.254 258.071ZM209.579 258.935C209.155 258.935 208.771 258.859 208.427 258.707C208.091 258.555 207.799 258.339 207.551 258.059C207.311 257.771 207.123 257.431 206.987 257.039C206.859 256.639 206.795 256.191 206.795 255.695C206.795 255.207 206.859 254.763 206.987 254.363C207.123 253.963 207.311 253.623 207.551 253.343C207.799 253.055 208.091 252.835 208.427 252.683C208.771 252.531 209.155 252.455 209.579 252.455C209.995 252.455 210.367 252.531 210.695 252.683C211.023 252.835 211.303 253.047 211.535 253.319C211.767 253.583 211.943 253.899 212.063 254.267C212.191 254.635 212.255 255.039 212.255 255.479V255.935H207.803V256.223C207.803 256.487 207.843 256.735 207.923 256.967C208.011 257.191 208.131 257.387 208.283 257.555C208.443 257.723 208.635 257.855 208.859 257.951C209.091 258.047 209.351 258.095 209.639 258.095C210.031 258.095 210.371 258.003 210.659 257.819C210.955 257.635 211.183 257.371 211.343 257.027L212.027 257.519C211.827 257.943 211.515 258.287 211.091 258.551C210.667 258.807 210.163 258.935 209.579 258.935ZM209.579 253.259C209.315 253.259 209.075 253.307 208.859 253.403C208.643 253.491 208.455 253.619 208.295 253.787C208.143 253.955 208.023 254.155 207.935 254.387C207.847 254.611 207.803 254.859 207.803 255.131V255.215H211.223V255.083C211.223 254.531 211.071 254.091 210.767 253.763C210.471 253.427 210.075 253.259 209.579 253.259ZM214.237 258.791V252.599H215.197V253.739H215.257C215.369 253.443 215.569 253.179 215.857 252.947C216.145 252.715 216.541 252.599 217.045 252.599H217.417V253.559H216.853C216.333 253.559 215.925 253.659 215.629 253.859C215.341 254.051 215.197 254.295 215.197 254.591V258.791H214.237ZM223.496 258.791C223.136 258.791 222.876 258.695 222.716 258.503C222.564 258.311 222.468 258.071 222.428 257.783H222.368C222.232 258.167 222.008 258.455 221.696 258.647C221.384 258.839 221.012 258.935 220.58 258.935C219.924 258.935 219.412 258.767 219.044 258.431C218.684 258.095 218.504 257.639 218.504 257.063C218.504 256.479 218.716 256.031 219.14 255.719C219.572 255.407 220.24 255.251 221.144 255.251H222.368V254.639C222.368 254.199 222.248 253.863 222.008 253.631C221.768 253.399 221.4 253.283 220.904 253.283C220.528 253.283 220.212 253.367 219.956 253.535C219.708 253.703 219.5 253.927 219.332 254.207L218.756 253.667C218.924 253.331 219.192 253.047 219.56 252.815C219.928 252.575 220.392 252.455 220.952 252.455C221.704 252.455 222.288 252.639 222.704 253.007C223.12 253.375 223.328 253.887 223.328 254.543V257.951H224.036V258.791H223.496ZM220.736 258.119C220.976 258.119 221.196 258.091 221.396 258.035C221.596 257.979 221.768 257.899 221.912 257.795C222.056 257.691 222.168 257.571 222.248 257.435C222.328 257.299 222.368 257.151 222.368 256.991V255.971H221.096C220.544 255.971 220.14 256.051 219.884 256.211C219.636 256.371 219.512 256.603 219.512 256.907V257.159C219.512 257.463 219.62 257.699 219.836 257.867C220.06 258.035 220.36 258.119 220.736 258.119ZM227.174 258.791C226.838 258.791 226.582 258.699 226.406 258.515C226.238 258.323 226.154 258.075 226.154 257.771V253.439H225.134V252.599H225.71C225.918 252.599 226.058 252.559 226.13 252.479C226.21 252.391 226.25 252.243 226.25 252.035V250.883H227.114V252.599H228.47V253.439H227.114V257.951H228.374V258.791H227.174ZM232.694 258.935C232.27 258.935 231.886 258.859 231.542 258.707C231.206 258.555 230.914 258.339 230.666 258.059C230.426 257.771 230.238 257.431 230.102 257.039C229.974 256.639 229.91 256.191 229.91 255.695C229.91 255.207 229.974 254.763 230.102 254.363C230.238 253.963 230.426 253.623 230.666 253.343C230.914 253.055 231.206 252.835 231.542 252.683C231.886 252.531 232.27 252.455 232.694 252.455C233.11 252.455 233.482 252.531 233.81 252.683C234.138 252.835 234.418 253.047 234.65 253.319C234.882 253.583 235.058 253.899 235.178 254.267C235.306 254.635 235.37 255.039 235.37 255.479V255.935H230.918V256.223C230.918 256.487 230.958 256.735 231.038 256.967C231.126 257.191 231.246 257.387 231.398 257.555C231.558 257.723 231.75 257.855 231.974 257.951C232.206 258.047 232.466 258.095 232.754 258.095C233.146 258.095 233.486 258.003 233.774 257.819C234.07 257.635 234.298 257.371 234.458 257.027L235.142 257.519C234.942 257.943 234.63 258.287 234.206 258.551C233.782 258.807 233.278 258.935 232.694 258.935ZM232.694 253.259C232.43 253.259 232.19 253.307 231.974 253.403C231.758 253.491 231.57 253.619 231.41 253.787C231.258 253.955 231.138 254.155 231.05 254.387C230.962 254.611 230.918 254.859 230.918 255.131V255.215H234.338V255.083C234.338 254.531 234.186 254.091 233.882 253.763C233.586 253.427 233.19 253.259 232.694 253.259Z" fill="#263238"/>
<path d="M85.116 250.624H87.924C88.444 250.624 88.916 250.712 89.34 250.888C89.764 251.064 90.124 251.328 90.42 251.68C90.724 252.024 90.956 252.46 91.116 252.988C91.276 253.508 91.356 254.116 91.356 254.812C91.356 255.508 91.276 256.12 91.116 256.648C90.956 257.168 90.724 257.604 90.42 257.956C90.124 258.3 89.764 258.56 89.34 258.736C88.916 258.912 88.444 259 87.924 259H85.116V250.624ZM87.924 258.112C88.268 258.112 88.584 258.056 88.872 257.944C89.16 257.824 89.408 257.652 89.616 257.428C89.824 257.204 89.984 256.932 90.096 256.612C90.216 256.284 90.276 255.912 90.276 255.496V254.128C90.276 253.712 90.216 253.344 90.096 253.024C89.984 252.696 89.824 252.42 89.616 252.196C89.408 251.972 89.16 251.804 88.872 251.692C88.584 251.572 88.268 251.512 87.924 251.512H86.124V258.112H87.924ZM93.9508 251.356C93.7428 251.356 93.5908 251.308 93.4948 251.212C93.4068 251.108 93.3628 250.976 93.3628 250.816V250.66C93.3628 250.5 93.4068 250.372 93.4948 250.276C93.5908 250.172 93.7428 250.12 93.9508 250.12C94.1588 250.12 94.3068 250.172 94.3948 250.276C94.4908 250.372 94.5388 250.5 94.5388 250.66V250.816C94.5388 250.976 94.4908 251.108 94.3948 251.212C94.3068 251.308 94.1588 251.356 93.9508 251.356ZM93.4708 252.808H94.4308V259H93.4708V252.808ZM97.2068 253.648H96.1988V252.808H97.2068V251.56C97.2068 251.128 97.3188 250.78 97.5428 250.516C97.7668 250.252 98.1068 250.12 98.5628 250.12H99.4988V250.96H98.1668V252.808H99.4988V253.648H98.1668V259H97.2068V253.648ZM101.497 253.648H100.489V252.808H101.497V251.56C101.497 251.128 101.609 250.78 101.833 250.516C102.057 250.252 102.397 250.12 102.853 250.12H103.789V250.96H102.457V252.808H105.925V259H104.965V253.648H102.457V259H101.497V253.648ZM105.445 251.356C105.237 251.356 105.085 251.308 104.989 251.212C104.901 251.108 104.857 250.976 104.857 250.816V250.66C104.857 250.5 104.901 250.372 104.989 250.276C105.085 250.172 105.237 250.12 105.445 250.12C105.653 250.12 105.801 250.172 105.889 250.276C105.985 250.372 106.033 250.5 106.033 250.66V250.816C106.033 250.976 105.985 251.108 105.889 251.212C105.801 251.308 105.653 251.356 105.445 251.356ZM110.674 259.144C110.242 259.144 109.854 259.068 109.51 258.916C109.166 258.764 108.874 258.548 108.634 258.268C108.402 257.988 108.222 257.648 108.094 257.248C107.974 256.848 107.914 256.4 107.914 255.904C107.914 255.408 107.974 254.96 108.094 254.56C108.222 254.16 108.402 253.82 108.634 253.54C108.874 253.26 109.166 253.044 109.51 252.892C109.854 252.74 110.242 252.664 110.674 252.664C111.29 252.664 111.782 252.8 112.15 253.072C112.526 253.336 112.806 253.684 112.99 254.116L112.186 254.524C112.074 254.204 111.89 253.956 111.634 253.78C111.378 253.604 111.058 253.516 110.674 253.516C110.386 253.516 110.134 253.564 109.918 253.66C109.702 253.748 109.522 253.876 109.378 254.044C109.234 254.204 109.126 254.4 109.054 254.632C108.982 254.856 108.946 255.104 108.946 255.376V256.432C108.946 256.976 109.09 257.424 109.378 257.776C109.674 258.12 110.106 258.292 110.674 258.292C111.45 258.292 112.01 257.932 112.354 257.212L113.05 257.68C112.85 258.128 112.55 258.484 112.15 258.748C111.758 259.012 111.266 259.144 110.674 259.144ZM118.621 257.992H118.573C118.509 258.136 118.429 258.28 118.333 258.424C118.245 258.56 118.133 258.684 117.997 258.796C117.861 258.9 117.697 258.984 117.505 259.048C117.313 259.112 117.089 259.144 116.833 259.144C116.193 259.144 115.685 258.94 115.309 258.532C114.933 258.116 114.745 257.532 114.745 256.78V252.808H115.705V256.612C115.705 257.724 116.177 258.28 117.121 258.28C117.313 258.28 117.497 258.256 117.673 258.208C117.857 258.16 118.017 258.088 118.153 257.992C118.297 257.896 118.409 257.776 118.489 257.632C118.577 257.48 118.621 257.3 118.621 257.092V252.808H119.581V259H118.621V257.992ZM123.045 259C122.709 259 122.453 258.908 122.277 258.724C122.109 258.532 122.025 258.292 122.025 258.004V250.12H122.985V258.16H123.897V259H123.045ZM127.004 259C126.668 259 126.412 258.908 126.236 258.724C126.068 258.532 125.984 258.284 125.984 257.98V253.648H124.964V252.808H125.54C125.748 252.808 125.888 252.768 125.96 252.688C126.04 252.6 126.08 252.452 126.08 252.244V251.092H126.944V252.808H128.3V253.648H126.944V258.16H128.204V259H127.004Z" fill="#263238"/>
<path d="M291.116 255V246.624H296.228V247.512H292.124V250.32H295.988V251.208H292.124V254.112H296.228V255H291.116ZM302.916 255C302.556 255 302.296 254.904 302.136 254.712C301.984 254.52 301.888 254.28 301.848 253.992H301.788C301.652 254.376 301.428 254.664 301.116 254.856C300.804 255.048 300.432 255.144 300 255.144C299.344 255.144 298.832 254.976 298.464 254.64C298.104 254.304 297.924 253.848 297.924 253.272C297.924 252.688 298.136 252.24 298.56 251.928C298.992 251.616 299.66 251.46 300.564 251.46H301.788V250.848C301.788 250.408 301.668 250.072 301.428 249.84C301.188 249.608 300.82 249.492 300.324 249.492C299.948 249.492 299.632 249.576 299.376 249.744C299.128 249.912 298.92 250.136 298.752 250.416L298.176 249.876C298.344 249.54 298.612 249.256 298.98 249.024C299.348 248.784 299.812 248.664 300.372 248.664C301.124 248.664 301.708 248.848 302.124 249.216C302.54 249.584 302.748 250.096 302.748 250.752V254.16H303.456V255H302.916ZM300.156 254.328C300.396 254.328 300.616 254.3 300.816 254.244C301.016 254.188 301.188 254.108 301.332 254.004C301.476 253.9 301.588 253.78 301.668 253.644C301.748 253.508 301.788 253.36 301.788 253.2V252.18H300.516C299.964 252.18 299.56 252.26 299.304 252.42C299.056 252.58 298.932 252.812 298.932 253.116V253.368C298.932 253.672 299.04 253.908 299.256 254.076C299.48 254.244 299.78 254.328 300.156 254.328ZM307.086 255.144C306.51 255.144 306.026 255.036 305.634 254.82C305.25 254.596 304.918 254.3 304.638 253.932L305.322 253.38C305.562 253.684 305.83 253.92 306.126 254.088C306.422 254.248 306.766 254.328 307.158 254.328C307.566 254.328 307.882 254.24 308.106 254.064C308.338 253.888 308.454 253.64 308.454 253.32C308.454 253.08 308.374 252.876 308.214 252.708C308.062 252.532 307.782 252.412 307.374 252.348L306.882 252.276C306.594 252.236 306.33 252.176 306.09 252.096C305.85 252.008 305.638 251.896 305.454 251.76C305.278 251.616 305.138 251.44 305.034 251.232C304.938 251.024 304.89 250.776 304.89 250.488C304.89 250.184 304.946 249.92 305.058 249.696C305.17 249.464 305.322 249.272 305.514 249.12C305.714 248.968 305.95 248.856 306.222 248.784C306.494 248.704 306.786 248.664 307.098 248.664C307.602 248.664 308.022 248.752 308.358 248.928C308.702 249.104 309.002 249.348 309.258 249.66L308.622 250.236C308.486 250.044 308.286 249.872 308.022 249.72C307.758 249.56 307.426 249.48 307.026 249.48C306.626 249.48 306.322 249.568 306.114 249.744C305.914 249.912 305.814 250.144 305.814 250.44C305.814 250.744 305.914 250.964 306.114 251.1C306.322 251.236 306.618 251.336 307.002 251.4L307.482 251.472C308.17 251.576 308.658 251.776 308.946 252.072C309.234 252.36 309.378 252.74 309.378 253.212C309.378 253.812 309.174 254.284 308.766 254.628C308.358 254.972 307.798 255.144 307.086 255.144ZM315.079 248.808H316.027L313.255 256.44C313.183 256.624 313.111 256.776 313.039 256.896C312.967 257.024 312.879 257.124 312.775 257.196C312.671 257.268 312.539 257.32 312.379 257.352C312.227 257.384 312.039 257.4 311.815 257.4H311.323V256.56H312.295L312.763 255.24L310.447 248.808H311.407L312.895 253.02L313.183 254.028H313.243L313.579 253.02L315.079 248.808Z" fill="#263238"/>
<path d="M41.6 243.259C40.6 243.259 39.868 242.879 39.404 242.119C38.948 241.359 38.72 240.295 38.72 238.927C38.72 237.559 38.948 236.495 39.404 235.735C39.868 234.975 40.6 234.595 41.6 234.595C42.6 234.595 43.328 234.975 43.784 235.735C44.248 236.495 44.48 237.559 44.48 238.927C44.48 240.295 44.248 241.359 43.784 242.119C43.328 242.879 42.6 243.259 41.6 243.259ZM41.6 242.383C41.928 242.383 42.208 242.315 42.44 242.179C42.672 242.043 42.86 241.851 43.004 241.603C43.148 241.355 43.252 241.063 43.316 240.727C43.388 240.391 43.424 240.019 43.424 239.611V238.243C43.424 237.835 43.388 237.463 43.316 237.127C43.252 236.791 43.148 236.499 43.004 236.251C42.86 236.003 42.672 235.811 42.44 235.675C42.208 235.539 41.928 235.471 41.6 235.471C41.272 235.471 40.992 235.539 40.76 235.675C40.528 235.811 40.34 236.003 40.196 236.251C40.052 236.499 39.944 236.791 39.872 237.127C39.808 237.463 39.776 237.835 39.776 238.243V239.611C39.776 240.019 39.808 240.391 39.872 240.727C39.944 241.063 40.052 241.355 40.196 241.603C40.34 241.851 40.528 242.043 40.76 242.179C40.992 242.315 41.272 242.383 41.6 242.383Z" fill="#263238"/>
<path d="M41.132 211.046C41.7 211.046 42.124 210.918 42.404 210.662C42.692 210.398 42.836 210.062 42.836 209.654V209.57C42.836 209.13 42.696 208.802 42.416 208.586C42.144 208.362 41.784 208.25 41.336 208.25C40.904 208.25 40.552 208.346 40.28 208.538C40.008 208.722 39.784 208.974 39.608 209.294L38.864 208.718C38.968 208.55 39.092 208.386 39.236 208.226C39.388 208.058 39.564 207.91 39.764 207.782C39.964 207.654 40.196 207.55 40.46 207.47C40.724 207.39 41.024 207.35 41.36 207.35C41.712 207.35 42.044 207.398 42.356 207.494C42.668 207.582 42.936 207.718 43.16 207.902C43.392 208.078 43.572 208.298 43.7 208.562C43.836 208.826 43.904 209.126 43.904 209.462C43.904 209.734 43.86 209.978 43.772 210.194C43.692 210.41 43.58 210.598 43.436 210.758C43.292 210.918 43.12 211.054 42.92 211.166C42.728 211.278 42.52 211.362 42.296 211.418V211.466C42.52 211.514 42.736 211.594 42.944 211.706C43.16 211.81 43.348 211.95 43.508 212.126C43.676 212.294 43.808 212.502 43.904 212.75C44.008 212.99 44.06 213.266 44.06 213.578C44.06 213.938 43.992 214.27 43.856 214.574C43.72 214.87 43.528 215.126 43.28 215.342C43.032 215.55 42.732 215.714 42.38 215.834C42.028 215.954 41.64 216.014 41.216 216.014C40.856 216.014 40.536 215.974 40.256 215.894C39.976 215.814 39.728 215.706 39.512 215.57C39.296 215.434 39.104 215.282 38.936 215.114C38.776 214.946 38.632 214.77 38.504 214.586L39.26 214.01C39.364 214.178 39.476 214.33 39.596 214.466C39.724 214.602 39.864 214.718 40.016 214.814C40.168 214.91 40.34 214.986 40.532 215.042C40.724 215.09 40.948 215.114 41.204 215.114C41.796 215.114 42.244 214.982 42.548 214.718C42.852 214.446 43.004 214.062 43.004 213.566V213.47C43.004 212.974 42.852 212.594 42.548 212.33C42.244 212.058 41.796 211.922 41.204 211.922H40.22V211.046H41.132ZM49.1953 216.014C48.1953 216.014 47.4633 215.634 46.9993 214.874C46.5433 214.114 46.3153 213.05 46.3153 211.682C46.3153 210.314 46.5433 209.25 46.9993 208.49C47.4633 207.73 48.1953 207.35 49.1953 207.35C50.1953 207.35 50.9233 207.73 51.3793 208.49C51.8433 209.25 52.0753 210.314 52.0753 211.682C52.0753 213.05 51.8433 214.114 51.3793 214.874C50.9233 215.634 50.1953 216.014 49.1953 216.014ZM49.1953 215.138C49.5233 215.138 49.8033 215.07 50.0353 214.934C50.2673 214.798 50.4553 214.606 50.5993 214.358C50.7433 214.11 50.8473 213.818 50.9113 213.482C50.9833 213.146 51.0193 212.774 51.0193 212.366V210.998C51.0193 210.59 50.9833 210.218 50.9113 209.882C50.8473 209.546 50.7433 209.254 50.5993 209.006C50.4553 208.758 50.2673 208.566 50.0353 208.43C49.8033 208.294 49.5233 208.226 49.1953 208.226C48.8673 208.226 48.5873 208.294 48.3553 208.43C48.1233 208.566 47.9353 208.758 47.7913 209.006C47.6473 209.254 47.5393 209.546 47.4673 209.882C47.4033 210.218 47.3713 210.59 47.3713 210.998V212.366C47.3713 212.774 47.4033 213.146 47.4673 213.482C47.5393 213.818 47.6473 214.11 47.7913 214.358C47.9353 214.606 48.1233 214.798 48.3553 214.934C48.5873 215.07 48.8673 215.138 49.1953 215.138Z" fill="#263238"/>
<path d="M41.612 181.663C41.18 181.663 40.788 181.591 40.436 181.447C40.092 181.295 39.796 181.083 39.548 180.811C39.308 180.531 39.124 180.191 38.996 179.791C38.868 179.391 38.804 178.943 38.804 178.447C38.804 177.823 38.896 177.239 39.08 176.695C39.264 176.143 39.5 175.643 39.788 175.195C40.084 174.739 40.408 174.339 40.76 173.995C41.112 173.643 41.456 173.359 41.792 173.143H43.088C42.64 173.471 42.24 173.791 41.888 174.103C41.536 174.415 41.228 174.743 40.964 175.087C40.7 175.423 40.476 175.787 40.292 176.179C40.108 176.563 39.96 176.999 39.848 177.487L39.908 177.511C40.108 177.167 40.364 176.883 40.676 176.659C40.996 176.427 41.412 176.311 41.924 176.311C42.284 176.311 42.616 176.371 42.92 176.491C43.224 176.611 43.484 176.783 43.7 177.007C43.916 177.231 44.084 177.503 44.204 177.823C44.332 178.143 44.396 178.499 44.396 178.891C44.396 179.299 44.328 179.675 44.192 180.019C44.064 180.355 43.876 180.647 43.628 180.895C43.388 181.135 43.096 181.323 42.752 181.459C42.408 181.595 42.028 181.663 41.612 181.663ZM41.6 180.787C42.152 180.787 42.58 180.635 42.884 180.331C43.196 180.027 43.352 179.591 43.352 179.023V178.927C43.352 178.359 43.196 177.923 42.884 177.619C42.58 177.315 42.152 177.163 41.6 177.163C41.048 177.163 40.616 177.315 40.304 177.619C40 177.923 39.848 178.359 39.848 178.927V179.023C39.848 179.591 40 180.027 40.304 180.331C40.616 180.635 41.048 180.787 41.6 180.787ZM49.1953 181.663C48.1953 181.663 47.4633 181.283 46.9993 180.523C46.5433 179.763 46.3153 178.699 46.3153 177.331C46.3153 175.963 46.5433 174.899 46.9993 174.139C47.4633 173.379 48.1953 172.999 49.1953 172.999C50.1953 172.999 50.9233 173.379 51.3793 174.139C51.8433 174.899 52.0753 175.963 52.0753 177.331C52.0753 178.699 51.8433 179.763 51.3793 180.523C50.9233 181.283 50.1953 181.663 49.1953 181.663ZM49.1953 180.787C49.5233 180.787 49.8033 180.719 50.0353 180.583C50.2673 180.447 50.4553 180.255 50.5993 180.007C50.7433 179.759 50.8473 179.467 50.9113 179.131C50.9833 178.795 51.0193 178.423 51.0193 178.015V176.647C51.0193 176.239 50.9833 175.867 50.9113 175.531C50.8473 175.195 50.7433 174.903 50.5993 174.655C50.4553 174.407 50.2673 174.215 50.0353 174.079C49.8033 173.943 49.5233 173.875 49.1953 173.875C48.8673 173.875 48.5873 173.943 48.3553 174.079C48.1233 174.215 47.9353 174.407 47.7913 174.655C47.6473 174.903 47.5393 175.195 47.4673 175.531C47.4033 175.867 47.3713 176.239 47.3713 176.647V178.015C47.3713 178.423 47.4033 178.795 47.4673 179.131C47.5393 179.467 47.6473 179.759 47.7913 180.007C47.9353 180.255 48.1233 180.447 48.3553 180.583C48.5873 180.719 48.8673 180.787 49.1953 180.787Z" fill="#263238"/>
<path d="M44.396 142.968C44.396 143.592 44.304 144.18 44.12 144.732C43.936 145.276 43.696 145.776 43.4 146.232C43.112 146.68 42.792 147.08 42.44 147.432C42.088 147.776 41.744 148.056 41.408 148.272H40.112C40.56 147.944 40.96 147.624 41.312 147.312C41.664 147 41.972 146.676 42.236 146.34C42.5 145.996 42.724 145.632 42.908 145.248C43.092 144.856 43.24 144.416 43.352 143.928L43.292 143.904C43.092 144.248 42.832 144.536 42.512 144.768C42.2 144.992 41.788 145.104 41.276 145.104C40.916 145.104 40.584 145.044 40.28 144.924C39.976 144.804 39.716 144.632 39.5 144.408C39.284 144.184 39.112 143.916 38.984 143.604C38.864 143.284 38.804 142.924 38.804 142.524C38.804 142.116 38.868 141.744 38.996 141.408C39.132 141.064 39.32 140.772 39.56 140.532C39.808 140.284 40.1 140.092 40.436 139.956C40.78 139.82 41.164 139.752 41.588 139.752C42.02 139.752 42.408 139.828 42.752 139.98C43.104 140.124 43.4 140.336 43.64 140.616C43.888 140.888 44.076 141.224 44.204 141.624C44.332 142.024 44.396 142.472 44.396 142.968ZM41.6 144.252C42.152 144.252 42.58 144.1 42.884 143.796C43.196 143.492 43.352 143.056 43.352 142.488V142.392C43.352 141.824 43.196 141.388 42.884 141.084C42.58 140.78 42.152 140.628 41.6 140.628C41.048 140.628 40.616 140.78 40.304 141.084C40 141.388 39.848 141.824 39.848 142.392V142.488C39.848 143.056 40 143.492 40.304 143.796C40.616 144.1 41.048 144.252 41.6 144.252ZM49.1953 148.416C48.1953 148.416 47.4633 148.036 46.9993 147.276C46.5433 146.516 46.3153 145.452 46.3153 144.084C46.3153 142.716 46.5433 141.652 46.9993 140.892C47.4633 140.132 48.1953 139.752 49.1953 139.752C50.1953 139.752 50.9233 140.132 51.3793 140.892C51.8433 141.652 52.0753 142.716 52.0753 144.084C52.0753 145.452 51.8433 146.516 51.3793 147.276C50.9233 148.036 50.1953 148.416 49.1953 148.416ZM49.1953 147.54C49.5233 147.54 49.8033 147.472 50.0353 147.336C50.2673 147.2 50.4553 147.008 50.5993 146.76C50.7433 146.512 50.8473 146.22 50.9113 145.884C50.9833 145.548 51.0193 145.176 51.0193 144.768V143.4C51.0193 142.992 50.9833 142.62 50.9113 142.284C50.8473 141.948 50.7433 141.656 50.5993 141.408C50.4553 141.16 50.2673 140.968 50.0353 140.832C49.8033 140.696 49.5233 140.628 49.1953 140.628C48.8673 140.628 48.5873 140.696 48.3553 140.832C48.1233 140.968 47.9353 141.16 47.7913 141.408C47.6473 141.656 47.5393 141.948 47.4673 142.284C47.4033 142.62 47.3713 142.992 47.3713 143.4V144.768C47.3713 145.176 47.4033 145.548 47.4673 145.884C47.5393 146.22 47.6473 146.512 47.7913 146.76C47.9353 147.008 48.1233 147.2 48.3553 147.336C48.5873 147.472 48.8673 147.54 49.1953 147.54Z" fill="#263238"/>
<path d="M39.056 116V115.112H41.396V108.368H41.312L39.2 110.336L38.612 109.7L40.832 107.624H42.404V115.112H44.564V116H39.056ZM51.9913 116H46.4953V114.968L49.2313 112.448C49.6233 112.088 49.9513 111.708 50.2153 111.308C50.4793 110.9 50.6113 110.492 50.6113 110.084V109.94C50.6113 109.476 50.4833 109.1 50.2273 108.812C49.9713 108.524 49.5833 108.38 49.0633 108.38C48.8073 108.38 48.5833 108.416 48.3913 108.488C48.1993 108.56 48.0313 108.66 47.8873 108.788C47.7513 108.916 47.6353 109.068 47.5393 109.244C47.4513 109.412 47.3793 109.596 47.3233 109.796L46.4233 109.448C46.5033 109.2 46.6113 108.96 46.7473 108.728C46.8913 108.488 47.0673 108.276 47.2753 108.092C47.4913 107.908 47.7473 107.76 48.0433 107.648C48.3473 107.536 48.7033 107.48 49.1113 107.48C49.5193 107.48 49.8833 107.54 50.2033 107.66C50.5233 107.78 50.7913 107.948 51.0073 108.164C51.2233 108.38 51.3873 108.636 51.4993 108.932C51.6193 109.228 51.6793 109.556 51.6793 109.916C51.6793 110.244 51.6313 110.548 51.5353 110.828C51.4473 111.108 51.3233 111.376 51.1633 111.632C51.0033 111.88 50.8073 112.124 50.5753 112.364C50.3513 112.604 50.1073 112.844 49.8433 113.084L47.5873 115.112H51.9913V116ZM56.7906 116.144C55.7906 116.144 55.0586 115.764 54.5946 115.004C54.1386 114.244 53.9106 113.18 53.9106 111.812C53.9106 110.444 54.1386 109.38 54.5946 108.62C55.0586 107.86 55.7906 107.48 56.7906 107.48C57.7906 107.48 58.5186 107.86 58.9746 108.62C59.4386 109.38 59.6706 110.444 59.6706 111.812C59.6706 113.18 59.4386 114.244 58.9746 115.004C58.5186 115.764 57.7906 116.144 56.7906 116.144ZM56.7906 115.268C57.1186 115.268 57.3986 115.2 57.6306 115.064C57.8626 114.928 58.0506 114.736 58.1946 114.488C58.3386 114.24 58.4426 113.948 58.5066 113.612C58.5786 113.276 58.6146 112.904 58.6146 112.496V111.128C58.6146 110.72 58.5786 110.348 58.5066 110.012C58.4426 109.676 58.3386 109.384 58.1946 109.136C58.0506 108.888 57.8626 108.696 57.6306 108.56C57.3986 108.424 57.1186 108.356 56.7906 108.356C56.4626 108.356 56.1826 108.424 55.9506 108.56C55.7186 108.696 55.5306 108.888 55.3866 109.136C55.2426 109.384 55.1346 109.676 55.0626 110.012C54.9986 110.348 54.9666 110.72 54.9666 111.128V112.496C54.9666 112.904 54.9986 113.276 55.0626 113.612C55.1346 113.948 55.2426 114.24 55.3866 114.488C55.5306 114.736 55.7186 114.928 55.9506 115.064C56.1826 115.2 56.4626 115.268 56.7906 115.268Z" fill="#263238"/>
<path d="M97.056 102V101.112H99.396V94.368H99.312L97.2 96.336L96.612 95.7L98.832 93.624H100.404V101.112H102.564V102H97.056ZM109.991 102H104.495V100.968L107.231 98.448C107.623 98.088 107.951 97.708 108.215 97.308C108.479 96.9 108.611 96.492 108.611 96.084V95.94C108.611 95.476 108.483 95.1 108.227 94.812C107.971 94.524 107.583 94.38 107.063 94.38C106.807 94.38 106.583 94.416 106.391 94.488C106.199 94.56 106.031 94.66 105.887 94.788C105.751 94.916 105.635 95.068 105.539 95.244C105.451 95.412 105.379 95.596 105.323 95.796L104.423 95.448C104.503 95.2 104.611 94.96 104.747 94.728C104.891 94.488 105.067 94.276 105.275 94.092C105.491 93.908 105.747 93.76 106.043 93.648C106.347 93.536 106.703 93.48 107.111 93.48C107.519 93.48 107.883 93.54 108.203 93.66C108.523 93.78 108.791 93.948 109.007 94.164C109.223 94.38 109.387 94.636 109.499 94.932C109.619 95.228 109.679 95.556 109.679 95.916C109.679 96.244 109.631 96.548 109.535 96.828C109.447 97.108 109.323 97.376 109.163 97.632C109.003 97.88 108.807 98.124 108.575 98.364C108.351 98.604 108.107 98.844 107.843 99.084L105.587 101.112H109.991V102ZM114.791 102.144C113.791 102.144 113.059 101.764 112.595 101.004C112.139 100.244 111.911 99.18 111.911 97.812C111.911 96.444 112.139 95.38 112.595 94.62C113.059 93.86 113.791 93.48 114.791 93.48C115.791 93.48 116.519 93.86 116.975 94.62C117.439 95.38 117.671 96.444 117.671 97.812C117.671 99.18 117.439 100.244 116.975 101.004C116.519 101.764 115.791 102.144 114.791 102.144ZM114.791 101.268C115.119 101.268 115.399 101.2 115.631 101.064C115.863 100.928 116.051 100.736 116.195 100.488C116.339 100.24 116.443 99.948 116.507 99.612C116.579 99.276 116.615 98.904 116.615 98.496V97.128C116.615 96.72 116.579 96.348 116.507 96.012C116.443 95.676 116.339 95.384 116.195 95.136C116.051 94.888 115.863 94.696 115.631 94.56C115.399 94.424 115.119 94.356 114.791 94.356C114.463 94.356 114.183 94.424 113.951 94.56C113.719 94.696 113.531 94.888 113.387 95.136C113.243 95.384 113.135 95.676 113.063 96.012C112.999 96.348 112.967 96.72 112.967 97.128V98.496C112.967 98.904 112.999 99.276 113.063 99.612C113.135 99.948 113.243 100.24 113.387 100.488C113.531 100.736 113.719 100.928 113.951 101.064C114.183 101.2 114.463 101.268 114.791 101.268Z" fill="#092682"/>
<path d="M205.396 135.696C205.396 136.32 205.304 136.908 205.12 137.46C204.936 138.004 204.696 138.504 204.4 138.96C204.112 139.408 203.792 139.808 203.44 140.16C203.088 140.504 202.744 140.784 202.408 141H201.112C201.56 140.672 201.96 140.352 202.312 140.04C202.664 139.728 202.972 139.404 203.236 139.068C203.5 138.724 203.724 138.36 203.908 137.976C204.092 137.584 204.24 137.144 204.352 136.656L204.292 136.632C204.092 136.976 203.832 137.264 203.512 137.496C203.2 137.72 202.788 137.832 202.276 137.832C201.916 137.832 201.584 137.772 201.28 137.652C200.976 137.532 200.716 137.36 200.5 137.136C200.284 136.912 200.112 136.644 199.984 136.332C199.864 136.012 199.804 135.652 199.804 135.252C199.804 134.844 199.868 134.472 199.996 134.136C200.132 133.792 200.32 133.5 200.56 133.26C200.808 133.012 201.1 132.82 201.436 132.684C201.78 132.548 202.164 132.48 202.588 132.48C203.02 132.48 203.408 132.556 203.752 132.708C204.104 132.852 204.4 133.064 204.64 133.344C204.888 133.616 205.076 133.952 205.204 134.352C205.332 134.752 205.396 135.2 205.396 135.696ZM202.6 136.98C203.152 136.98 203.58 136.828 203.884 136.524C204.196 136.22 204.352 135.784 204.352 135.216V135.12C204.352 134.552 204.196 134.116 203.884 133.812C203.58 133.508 203.152 133.356 202.6 133.356C202.048 133.356 201.616 133.508 201.304 133.812C201 134.116 200.848 134.552 200.848 135.12V135.216C200.848 135.784 201 136.22 201.304 136.524C201.616 136.828 202.048 136.98 202.6 136.98ZM210.195 141.144C209.195 141.144 208.463 140.764 207.999 140.004C207.543 139.244 207.315 138.18 207.315 136.812C207.315 135.444 207.543 134.38 207.999 133.62C208.463 132.86 209.195 132.48 210.195 132.48C211.195 132.48 211.923 132.86 212.379 133.62C212.843 134.38 213.075 135.444 213.075 136.812C213.075 138.18 212.843 139.244 212.379 140.004C211.923 140.764 211.195 141.144 210.195 141.144ZM210.195 140.268C210.523 140.268 210.803 140.2 211.035 140.064C211.267 139.928 211.455 139.736 211.599 139.488C211.743 139.24 211.847 138.948 211.911 138.612C211.983 138.276 212.019 137.904 212.019 137.496V136.128C212.019 135.72 211.983 135.348 211.911 135.012C211.847 134.676 211.743 134.384 211.599 134.136C211.455 133.888 211.267 133.696 211.035 133.56C210.803 133.424 210.523 133.356 210.195 133.356C209.867 133.356 209.587 133.424 209.355 133.56C209.123 133.696 208.935 133.888 208.791 134.136C208.647 134.384 208.539 134.676 208.467 135.012C208.403 135.348 208.371 135.72 208.371 136.128V137.496C208.371 137.904 208.403 138.276 208.467 138.612C208.539 138.948 208.647 139.24 208.791 139.488C208.935 139.736 209.123 139.928 209.355 140.064C209.587 140.2 209.867 140.268 210.195 140.268Z" fill="#092682"/>
<path d="M302.132 204.176C302.7 204.176 303.124 204.048 303.404 203.792C303.692 203.528 303.836 203.192 303.836 202.784V202.7C303.836 202.26 303.696 201.932 303.416 201.716C303.144 201.492 302.784 201.38 302.336 201.38C301.904 201.38 301.552 201.476 301.28 201.668C301.008 201.852 300.784 202.104 300.608 202.424L299.864 201.848C299.968 201.68 300.092 201.516 300.236 201.356C300.388 201.188 300.564 201.04 300.764 200.912C300.964 200.784 301.196 200.68 301.46 200.6C301.724 200.52 302.024 200.48 302.36 200.48C302.712 200.48 303.044 200.528 303.356 200.624C303.668 200.712 303.936 200.848 304.16 201.032C304.392 201.208 304.572 201.428 304.7 201.692C304.836 201.956 304.904 202.256 304.904 202.592C304.904 202.864 304.86 203.108 304.772 203.324C304.692 203.54 304.58 203.728 304.436 203.888C304.292 204.048 304.12 204.184 303.92 204.296C303.728 204.408 303.52 204.492 303.296 204.548V204.596C303.52 204.644 303.736 204.724 303.944 204.836C304.16 204.94 304.348 205.08 304.508 205.256C304.676 205.424 304.808 205.632 304.904 205.88C305.008 206.12 305.06 206.396 305.06 206.708C305.06 207.068 304.992 207.4 304.856 207.704C304.72 208 304.528 208.256 304.28 208.472C304.032 208.68 303.732 208.844 303.38 208.964C303.028 209.084 302.64 209.144 302.216 209.144C301.856 209.144 301.536 209.104 301.256 209.024C300.976 208.944 300.728 208.836 300.512 208.7C300.296 208.564 300.104 208.412 299.936 208.244C299.776 208.076 299.632 207.9 299.504 207.716L300.26 207.14C300.364 207.308 300.476 207.46 300.596 207.596C300.724 207.732 300.864 207.848 301.016 207.944C301.168 208.04 301.34 208.116 301.532 208.172C301.724 208.22 301.948 208.244 302.204 208.244C302.796 208.244 303.244 208.112 303.548 207.848C303.852 207.576 304.004 207.192 304.004 206.696V206.6C304.004 206.104 303.852 205.724 303.548 205.46C303.244 205.188 302.796 205.052 302.204 205.052H301.22V204.176H302.132ZM310.195 209.144C309.195 209.144 308.463 208.764 307.999 208.004C307.543 207.244 307.315 206.18 307.315 204.812C307.315 203.444 307.543 202.38 307.999 201.62C308.463 200.86 309.195 200.48 310.195 200.48C311.195 200.48 311.923 200.86 312.379 201.62C312.843 202.38 313.075 203.444 313.075 204.812C313.075 206.18 312.843 207.244 312.379 208.004C311.923 208.764 311.195 209.144 310.195 209.144ZM310.195 208.268C310.523 208.268 310.803 208.2 311.035 208.064C311.267 207.928 311.455 207.736 311.599 207.488C311.743 207.24 311.847 206.948 311.911 206.612C311.983 206.276 312.019 205.904 312.019 205.496V204.128C312.019 203.72 311.983 203.348 311.911 203.012C311.847 202.676 311.743 202.384 311.599 202.136C311.455 201.888 311.267 201.696 311.035 201.56C310.803 201.424 310.523 201.356 310.195 201.356C309.867 201.356 309.587 201.424 309.355 201.56C309.123 201.696 308.935 201.888 308.791 202.136C308.647 202.384 308.539 202.676 308.467 203.012C308.403 203.348 308.371 203.72 308.371 204.128V205.496C308.371 205.904 308.403 206.276 308.467 206.612C308.539 206.948 308.647 207.24 308.791 207.488C308.935 207.736 309.123 207.928 309.355 208.064C309.587 208.2 309.867 208.268 310.195 208.268Z" fill="#092682"/>
<path d="M39.056 82.042V81.154H41.396V74.41H41.312L39.2 76.378L38.612 75.742L40.832 73.666H42.404V81.154H44.564V82.042H39.056ZM51.5713 74.554H47.8993L47.6593 77.746H47.7433C47.9433 77.466 48.1673 77.242 48.4153 77.074C48.6713 76.906 49.0193 76.822 49.4593 76.822C49.8193 76.822 50.1513 76.882 50.4553 77.002C50.7593 77.122 51.0233 77.294 51.2473 77.518C51.4713 77.734 51.6433 78.002 51.7633 78.322C51.8913 78.642 51.9553 79.006 51.9553 79.414C51.9553 79.822 51.8913 80.198 51.7633 80.542C51.6353 80.878 51.4473 81.17 51.1993 81.418C50.9593 81.658 50.6633 81.846 50.3113 81.982C49.9673 82.118 49.5753 82.186 49.1353 82.186C48.7833 82.186 48.4713 82.146 48.1993 82.066C47.9353 81.986 47.6993 81.878 47.4913 81.742C47.2833 81.606 47.0993 81.454 46.9393 81.286C46.7873 81.118 46.6473 80.942 46.5193 80.758L47.2753 80.182C47.3793 80.35 47.4873 80.502 47.5993 80.638C47.7193 80.774 47.8473 80.89 47.9833 80.986C48.1273 81.082 48.2913 81.158 48.4753 81.214C48.6593 81.262 48.8793 81.286 49.1353 81.286C49.7113 81.286 50.1473 81.134 50.4433 80.83C50.7393 80.526 50.8873 80.098 50.8873 79.546V79.426C50.8873 78.874 50.7393 78.446 50.4433 78.142C50.1473 77.838 49.7113 77.686 49.1353 77.686C48.7513 77.686 48.4473 77.758 48.2233 77.902C48.0073 78.038 47.8113 78.202 47.6353 78.394L46.7833 78.274L47.0833 73.666H51.5713V74.554ZM56.7906 82.186C55.7906 82.186 55.0586 81.806 54.5946 81.046C54.1386 80.286 53.9106 79.222 53.9106 77.854C53.9106 76.486 54.1386 75.422 54.5946 74.662C55.0586 73.902 55.7906 73.522 56.7906 73.522C57.7906 73.522 58.5186 73.902 58.9746 74.662C59.4386 75.422 59.6706 76.486 59.6706 77.854C59.6706 79.222 59.4386 80.286 58.9746 81.046C58.5186 81.806 57.7906 82.186 56.7906 82.186ZM56.7906 81.31C57.1186 81.31 57.3986 81.242 57.6306 81.106C57.8626 80.97 58.0506 80.778 58.1946 80.53C58.3386 80.282 58.4426 79.99 58.5066 79.654C58.5786 79.318 58.6146 78.946 58.6146 78.538V77.17C58.6146 76.762 58.5786 76.39 58.5066 76.054C58.4426 75.718 58.3386 75.426 58.1946 75.178C58.0506 74.93 57.8626 74.738 57.6306 74.602C57.3986 74.466 57.1186 74.398 56.7906 74.398C56.4626 74.398 56.1826 74.466 55.9506 74.602C55.7186 74.738 55.5306 74.93 55.3866 75.178C55.2426 75.426 55.1346 75.718 55.0626 76.054C54.9986 76.39 54.9666 76.762 54.9666 77.17V78.538C54.9666 78.946 54.9986 79.318 55.0626 79.654C55.1346 79.99 55.2426 80.282 55.3866 80.53C55.5306 80.778 55.7186 80.97 55.9506 81.106C56.1826 81.242 56.4626 81.31 56.7906 81.31Z" fill="#263238"/>
<path d="M76.7751 240.059H348.649V240.953H76.7751V240.059Z" fill="#E3E3E3"/>
<path d="M76.7751 213.708H348.649V214.602H76.7751V213.708Z" fill="#E3E3E3"/>
<path d="M76.7751 178.462H348.649V179.357H76.7751V178.462Z" fill="#E3E3E3"/>
<path d="M76.7751 145.216H348.649V146.111H76.7751V145.216Z" fill="#E3E3E3"/>
<path d="M76.7751 111.865H348.649V112.76H76.7751V111.865Z" fill="#E3E3E3"/>
<path d="M76.7751 78.0913H348.649V78.9857H76.7751V78.0913Z" fill="#E3E3E3"/>
<path d="M39.056 49.042V48.154H41.396V41.41H41.312L39.2 43.378L38.612 42.742L40.832 40.666H42.404V48.154H44.564V49.042H39.056ZM49.1953 49.186C48.7153 49.186 48.2953 49.126 47.9353 49.006C47.5753 48.878 47.2713 48.706 47.0233 48.49C46.7833 48.274 46.5993 48.018 46.4713 47.722C46.3513 47.426 46.2913 47.106 46.2913 46.762C46.2913 46.186 46.4473 45.73 46.7593 45.394C47.0713 45.058 47.4793 44.822 47.9833 44.686V44.59C47.5433 44.438 47.1913 44.194 46.9273 43.858C46.6713 43.514 46.5433 43.102 46.5433 42.622C46.5433 41.982 46.7753 41.474 47.2393 41.098C47.7033 40.714 48.3553 40.522 49.1953 40.522C50.0353 40.522 50.6873 40.714 51.1513 41.098C51.6153 41.474 51.8473 41.982 51.8473 42.622C51.8473 43.102 51.7153 43.514 51.4513 43.858C51.1953 44.194 50.8473 44.438 50.4073 44.59V44.686C50.9113 44.822 51.3193 45.058 51.6313 45.394C51.9433 45.73 52.0993 46.186 52.0993 46.762C52.0993 47.106 52.0353 47.426 51.9073 47.722C51.7873 48.018 51.6033 48.274 51.3553 48.49C51.1153 48.706 50.8153 48.878 50.4553 49.006C50.0953 49.126 49.6753 49.186 49.1953 49.186ZM49.1953 48.31C49.7793 48.31 50.2313 48.182 50.5513 47.926C50.8713 47.662 51.0313 47.29 51.0313 46.81V46.558C51.0313 46.078 50.8713 45.71 50.5513 45.454C50.2313 45.19 49.7793 45.058 49.1953 45.058C48.6113 45.058 48.1593 45.19 47.8393 45.454C47.5193 45.71 47.3593 46.078 47.3593 46.558V46.81C47.3593 47.29 47.5193 47.662 47.8393 47.926C48.1593 48.182 48.6113 48.31 49.1953 48.31ZM49.1953 44.218C49.7233 44.218 50.1233 44.106 50.3953 43.882C50.6673 43.658 50.8033 43.33 50.8033 42.898V42.718C50.8033 42.286 50.6673 41.958 50.3953 41.734C50.1233 41.51 49.7233 41.398 49.1953 41.398C48.6673 41.398 48.2673 41.51 47.9953 41.734C47.7233 41.958 47.5873 42.286 47.5873 42.718V42.898C47.5873 43.33 47.7233 43.658 47.9953 43.882C48.2673 44.106 48.6673 44.218 49.1953 44.218ZM56.7906 49.186C55.7906 49.186 55.0586 48.806 54.5946 48.046C54.1386 47.286 53.9106 46.222 53.9106 44.854C53.9106 43.486 54.1386 42.422 54.5946 41.662C55.0586 40.902 55.7906 40.522 56.7906 40.522C57.7906 40.522 58.5186 40.902 58.9746 41.662C59.4386 42.422 59.6706 43.486 59.6706 44.854C59.6706 46.222 59.4386 47.286 58.9746 48.046C58.5186 48.806 57.7906 49.186 56.7906 49.186ZM56.7906 48.31C57.1186 48.31 57.3986 48.242 57.6306 48.106C57.8626 47.97 58.0506 47.778 58.1946 47.53C58.3386 47.282 58.4426 46.99 58.5066 46.654C58.5786 46.318 58.6146 45.946 58.6146 45.538V44.17C58.6146 43.762 58.5786 43.39 58.5066 43.054C58.4426 42.718 58.3386 42.426 58.1946 42.178C58.0506 41.93 57.8626 41.738 57.6306 41.602C57.3986 41.466 57.1186 41.398 56.7906 41.398C56.4626 41.398 56.1826 41.466 55.9506 41.602C55.7186 41.738 55.5306 41.93 55.3866 42.178C55.2426 42.426 55.1346 42.718 55.0626 43.054C54.9986 43.39 54.9666 43.762 54.9666 44.17V45.538C54.9666 45.946 54.9986 46.318 55.0626 46.654C55.1346 46.99 55.2426 47.282 55.3866 47.53C55.5306 47.778 55.7186 47.97 55.9506 48.106C56.1826 48.242 56.4626 48.31 56.7906 48.31Z" fill="#263238"/>
<path d="M76.7751 45.0908H348.649V45.9852H76.7751V45.0908Z" fill="#E3E3E3"/>
<rect x="99.1252" y="185" width="15" height="55.0591" fill="#6554C0"/>
<rect x="99" y="112" width="15" height="73" fill="#A492FF"/>
<rect x="199.125" y="208.423" width="15" height="32.6358" fill="#6554C0"/>
<rect x="199" y="145" width="15" height="63.4233" fill="#A492FF"/>
<rect x="299.125" y="231.866" width="15" height="9.19328" fill="#6554C0"/>
<rect x="299" y="214" width="15" height="17.8659" fill="#A492FF"/>
</svg>
