<svg width="373" height="291" viewBox="0 0 373 291" fill="none" xmlns="http://www.w3.org/2000/svg">
<path d="M0 16C0 7.16345 7.16344 0 16 0H357C365.837 0 373 7.16344 373 16V275C373 283.837 365.837 291 357 291H16C7.16344 291 0 283.837 0 275V16Z" fill="#F5F5F5"/>
<path d="M183.685 256.144C182.621 256.144 181.793 255.784 181.201 255.064C180.609 254.336 180.313 253.268 180.313 251.86C180.313 250.452 180.609 249.372 181.201 248.62C181.793 247.86 182.621 247.48 183.685 247.48C184.389 247.48 184.977 247.64 185.449 247.96C185.929 248.28 186.301 248.732 186.565 249.316L185.749 249.808C185.581 249.376 185.325 249.032 184.981 248.776C184.637 248.512 184.205 248.38 183.685 248.38C183.325 248.38 183.001 248.448 182.713 248.584C182.433 248.72 182.193 248.916 181.993 249.172C181.801 249.42 181.653 249.72 181.549 250.072C181.445 250.416 181.393 250.804 181.393 251.236V252.484C181.393 253.348 181.593 254.024 181.993 254.512C182.393 255 182.957 255.244 183.685 255.244C184.221 255.244 184.669 255.108 185.029 254.836C185.389 254.556 185.653 254.188 185.821 253.732L186.625 254.236C186.361 254.828 185.981 255.296 185.485 255.64C184.989 255.976 184.389 256.144 183.685 256.144ZM188.49 247.12H189.45V250.816H189.498C189.65 250.464 189.862 250.184 190.134 249.976C190.414 249.768 190.786 249.664 191.25 249.664C191.89 249.664 192.394 249.872 192.762 250.288C193.138 250.696 193.326 251.276 193.326 252.028V256H192.366V252.196C192.366 251.084 191.898 250.528 190.962 250.528C190.77 250.528 190.582 250.552 190.398 250.6C190.222 250.648 190.062 250.72 189.918 250.816C189.774 250.912 189.658 251.036 189.57 251.188C189.49 251.332 189.45 251.504 189.45 251.704V256H188.49V247.12ZM198.038 256.144C197.614 256.144 197.23 256.068 196.886 255.916C196.55 255.764 196.258 255.548 196.01 255.268C195.77 254.98 195.582 254.64 195.446 254.248C195.318 253.848 195.254 253.4 195.254 252.904C195.254 252.416 195.318 251.972 195.446 251.572C195.582 251.172 195.77 250.832 196.01 250.552C196.258 250.264 196.55 250.044 196.886 249.892C197.23 249.74 197.614 249.664 198.038 249.664C198.454 249.664 198.826 249.74 199.154 249.892C199.482 250.044 199.762 250.256 199.994 250.528C200.226 250.792 200.402 251.108 200.522 251.476C200.65 251.844 200.714 252.248 200.714 252.688V253.144H196.262V253.432C196.262 253.696 196.302 253.944 196.382 254.176C196.47 254.4 196.59 254.596 196.742 254.764C196.902 254.932 197.094 255.064 197.318 255.16C197.55 255.256 197.81 255.304 198.098 255.304C198.49 255.304 198.83 255.212 199.118 255.028C199.414 254.844 199.642 254.58 199.802 254.236L200.486 254.728C200.286 255.152 199.974 255.496 199.55 255.76C199.126 256.016 198.622 256.144 198.038 256.144ZM198.038 250.468C197.774 250.468 197.534 250.516 197.318 250.612C197.102 250.7 196.914 250.828 196.754 250.996C196.602 251.164 196.482 251.364 196.394 251.596C196.306 251.82 196.262 252.068 196.262 252.34V252.424H199.682V252.292C199.682 251.74 199.53 251.3 199.226 250.972C198.93 250.636 198.534 250.468 198.038 250.468ZM202.696 256V249.808H203.656V250.816H203.704C203.776 250.656 203.856 250.508 203.944 250.372C204.04 250.228 204.152 250.104 204.28 250C204.416 249.896 204.572 249.816 204.748 249.76C204.924 249.696 205.132 249.664 205.372 249.664C205.78 249.664 206.156 249.764 206.5 249.964C206.844 250.156 207.1 250.476 207.268 250.924H207.292C207.404 250.588 207.612 250.296 207.916 250.048C208.228 249.792 208.648 249.664 209.176 249.664C209.808 249.664 210.3 249.872 210.652 250.288C211.012 250.696 211.192 251.276 211.192 252.028V256H210.232V252.196C210.232 251.644 210.124 251.228 209.908 250.948C209.692 250.668 209.348 250.528 208.876 250.528C208.684 250.528 208.5 250.552 208.324 250.6C208.156 250.648 208.004 250.72 207.868 250.816C207.732 250.912 207.624 251.036 207.544 251.188C207.464 251.332 207.424 251.504 207.424 251.704V256H206.464V252.196C206.464 251.644 206.356 251.228 206.14 250.948C205.924 250.668 205.588 250.528 205.132 250.528C204.94 250.528 204.756 250.552 204.58 250.6C204.404 250.648 204.248 250.72 204.112 250.816C203.976 250.912 203.864 251.036 203.776 251.188C203.696 251.332 203.656 251.504 203.656 251.704V256H202.696ZM214.053 248.356C213.845 248.356 213.693 248.308 213.597 248.212C213.509 248.108 213.465 247.976 213.465 247.816V247.66C213.465 247.5 213.509 247.372 213.597 247.276C213.693 247.172 213.845 247.12 214.053 247.12C214.261 247.12 214.409 247.172 214.497 247.276C214.593 247.372 214.641 247.5 214.641 247.66V247.816C214.641 247.976 214.593 248.108 214.497 248.212C214.409 248.308 214.261 248.356 214.053 248.356ZM213.573 249.808H214.533V256H213.573V249.808ZM218.833 256.144C218.257 256.144 217.773 256.036 217.381 255.82C216.997 255.596 216.665 255.3 216.385 254.932L217.069 254.38C217.309 254.684 217.577 254.92 217.873 255.088C218.169 255.248 218.513 255.328 218.905 255.328C219.313 255.328 219.629 255.24 219.853 255.064C220.085 254.888 220.201 254.64 220.201 254.32C220.201 254.08 220.121 253.876 219.961 253.708C219.809 253.532 219.529 253.412 219.121 253.348L218.629 253.276C218.341 253.236 218.077 253.176 217.837 253.096C217.597 253.008 217.385 252.896 217.201 252.76C217.025 252.616 216.885 252.44 216.781 252.232C216.685 252.024 216.637 251.776 216.637 251.488C216.637 251.184 216.693 250.92 216.805 250.696C216.917 250.464 217.069 250.272 217.261 250.12C217.461 249.968 217.697 249.856 217.969 249.784C218.241 249.704 218.533 249.664 218.845 249.664C219.349 249.664 219.769 249.752 220.105 249.928C220.449 250.104 220.749 250.348 221.005 250.66L220.369 251.236C220.233 251.044 220.033 250.872 219.769 250.72C219.505 250.56 219.173 250.48 218.773 250.48C218.373 250.48 218.069 250.568 217.861 250.744C217.661 250.912 217.561 251.144 217.561 251.44C217.561 251.744 217.661 251.964 217.861 252.1C218.069 252.236 218.365 252.336 218.749 252.4L219.229 252.472C219.917 252.576 220.405 252.776 220.693 253.072C220.981 253.36 221.125 253.74 221.125 254.212C221.125 254.812 220.921 255.284 220.513 255.628C220.105 255.972 219.545 256.144 218.833 256.144ZM224.506 256C224.17 256 223.914 255.908 223.738 255.724C223.57 255.532 223.486 255.284 223.486 254.98V250.648H222.466V249.808H223.042C223.25 249.808 223.39 249.768 223.462 249.688C223.542 249.6 223.582 249.452 223.582 249.244V248.092H224.446V249.808H225.802V250.648H224.446V255.16H225.706V256H224.506ZM227.745 256V249.808H228.705V250.948H228.765C228.877 250.652 229.077 250.388 229.365 250.156C229.653 249.924 230.049 249.808 230.553 249.808H230.925V250.768H230.361C229.841 250.768 229.433 250.868 229.137 251.068C228.849 251.26 228.705 251.504 228.705 251.8V256H227.745ZM236.485 249.808H237.433L234.661 257.44C234.589 257.624 234.517 257.776 234.445 257.896C234.373 258.024 234.285 258.124 234.181 258.196C234.077 258.268 233.945 258.32 233.785 258.352C233.633 258.384 233.445 258.4 233.221 258.4H232.729V257.56H233.701L234.169 256.24L231.853 249.808H232.813L234.301 254.02L234.589 255.028H234.649L234.985 254.02L236.485 249.808Z" fill="#092682"/>
<path d="M84.1431 256V247.624H87.4791C88.2311 247.624 88.8071 247.84 89.2071 248.272C89.6151 248.696 89.8191 249.28 89.8191 250.024C89.8191 250.768 89.6151 251.356 89.2071 251.788C88.8071 252.212 88.2311 252.424 87.4791 252.424H85.1511V256H84.1431ZM85.1511 251.536H87.4791C87.8791 251.536 88.1871 251.432 88.4031 251.224C88.6271 251.016 88.7391 250.72 88.7391 250.336V249.712C88.7391 249.328 88.6271 249.032 88.4031 248.824C88.1871 248.616 87.8791 248.512 87.4791 248.512H85.1511V251.536ZM91.7244 247.12H92.6844V250.816H92.7324C92.8844 250.464 93.0964 250.184 93.3684 249.976C93.6484 249.768 94.0204 249.664 94.4844 249.664C95.1244 249.664 95.6284 249.872 95.9964 250.288C96.3724 250.696 96.5604 251.276 96.5604 252.028V256H95.6004V252.196C95.6004 251.084 95.1324 250.528 94.1964 250.528C94.0044 250.528 93.8164 250.552 93.6324 250.6C93.4564 250.648 93.2964 250.72 93.1524 250.816C93.0084 250.912 92.8924 251.036 92.8044 251.188C92.7244 251.332 92.6844 251.504 92.6844 251.704V256H91.7244V247.12ZM102.667 249.808H103.615L100.843 257.44C100.771 257.624 100.699 257.776 100.627 257.896C100.555 258.024 100.467 258.124 100.363 258.196C100.259 258.268 100.127 258.32 99.967 258.352C99.815 258.384 99.627 258.4 99.403 258.4H98.911V257.56H99.883L100.351 256.24L98.035 249.808H98.995L100.483 254.02L100.771 255.028H100.831L101.167 254.02L102.667 249.808ZM107.052 256.144C106.476 256.144 105.992 256.036 105.6 255.82C105.216 255.596 104.884 255.3 104.604 254.932L105.288 254.38C105.528 254.684 105.796 254.92 106.092 255.088C106.388 255.248 106.732 255.328 107.124 255.328C107.532 255.328 107.848 255.24 108.072 255.064C108.304 254.888 108.42 254.64 108.42 254.32C108.42 254.08 108.34 253.876 108.18 253.708C108.028 253.532 107.748 253.412 107.34 253.348L106.848 253.276C106.56 253.236 106.296 253.176 106.056 253.096C105.816 253.008 105.604 252.896 105.42 252.76C105.244 252.616 105.104 252.44 105 252.232C104.904 252.024 104.856 251.776 104.856 251.488C104.856 251.184 104.912 250.92 105.024 250.696C105.136 250.464 105.288 250.272 105.48 250.12C105.68 249.968 105.916 249.856 106.188 249.784C106.46 249.704 106.752 249.664 107.064 249.664C107.568 249.664 107.988 249.752 108.324 249.928C108.668 250.104 108.968 250.348 109.224 250.66L108.588 251.236C108.452 251.044 108.252 250.872 107.988 250.72C107.724 250.56 107.392 250.48 106.992 250.48C106.592 250.48 106.288 250.568 106.08 250.744C105.88 250.912 105.78 251.144 105.78 251.44C105.78 251.744 105.88 251.964 106.08 252.1C106.288 252.236 106.584 252.336 106.968 252.4L107.448 252.472C108.136 252.576 108.624 252.776 108.912 253.072C109.2 253.36 109.344 253.74 109.344 254.212C109.344 254.812 109.14 255.284 108.732 255.628C108.324 255.972 107.764 256.144 107.052 256.144ZM111.92 248.356C111.712 248.356 111.56 248.308 111.464 248.212C111.376 248.108 111.332 247.976 111.332 247.816V247.66C111.332 247.5 111.376 247.372 111.464 247.276C111.56 247.172 111.712 247.12 111.92 247.12C112.128 247.12 112.276 247.172 112.364 247.276C112.46 247.372 112.508 247.5 112.508 247.66V247.816C112.508 247.976 112.46 248.108 112.364 248.212C112.276 248.308 112.128 248.356 111.92 248.356ZM111.44 249.808H112.4V256H111.44V249.808ZM117.144 256.144C116.712 256.144 116.324 256.068 115.98 255.916C115.636 255.764 115.344 255.548 115.104 255.268C114.872 254.988 114.692 254.648 114.564 254.248C114.444 253.848 114.384 253.4 114.384 252.904C114.384 252.408 114.444 251.96 114.564 251.56C114.692 251.16 114.872 250.82 115.104 250.54C115.344 250.26 115.636 250.044 115.98 249.892C116.324 249.74 116.712 249.664 117.144 249.664C117.76 249.664 118.252 249.8 118.62 250.072C118.996 250.336 119.276 250.684 119.46 251.116L118.656 251.524C118.544 251.204 118.36 250.956 118.104 250.78C117.848 250.604 117.528 250.516 117.144 250.516C116.856 250.516 116.604 250.564 116.388 250.66C116.172 250.748 115.992 250.876 115.848 251.044C115.704 251.204 115.596 251.4 115.524 251.632C115.452 251.856 115.416 252.104 115.416 252.376V253.432C115.416 253.976 115.56 254.424 115.848 254.776C116.144 255.12 116.576 255.292 117.144 255.292C117.92 255.292 118.48 254.932 118.824 254.212L119.52 254.68C119.32 255.128 119.02 255.484 118.62 255.748C118.228 256.012 117.736 256.144 117.144 256.144ZM123.135 256.144C122.559 256.144 122.075 256.036 121.683 255.82C121.299 255.596 120.967 255.3 120.687 254.932L121.371 254.38C121.611 254.684 121.879 254.92 122.175 255.088C122.471 255.248 122.815 255.328 123.207 255.328C123.615 255.328 123.931 255.24 124.155 255.064C124.387 254.888 124.503 254.64 124.503 254.32C124.503 254.08 124.423 253.876 124.263 253.708C124.111 253.532 123.831 253.412 123.423 253.348L122.931 253.276C122.643 253.236 122.379 253.176 122.139 253.096C121.899 253.008 121.687 252.896 121.503 252.76C121.327 252.616 121.187 252.44 121.083 252.232C120.987 252.024 120.939 251.776 120.939 251.488C120.939 251.184 120.995 250.92 121.107 250.696C121.219 250.464 121.371 250.272 121.563 250.12C121.763 249.968 121.999 249.856 122.271 249.784C122.543 249.704 122.835 249.664 123.147 249.664C123.651 249.664 124.071 249.752 124.407 249.928C124.751 250.104 125.051 250.348 125.307 250.66L124.671 251.236C124.535 251.044 124.335 250.872 124.071 250.72C123.807 250.56 123.475 250.48 123.075 250.48C122.675 250.48 122.371 250.568 122.163 250.744C121.963 250.912 121.863 251.144 121.863 251.44C121.863 251.744 121.963 251.964 122.163 252.1C122.371 252.236 122.667 252.336 123.051 252.4L123.531 252.472C124.219 252.576 124.707 252.776 124.995 253.072C125.283 253.36 125.427 253.74 125.427 254.212C125.427 254.812 125.223 255.284 124.815 255.628C124.407 255.972 123.847 256.144 123.135 256.144Z" fill="#092682"/>
<path d="M15.4894 159.21V159.27L16.8934 159.978L20.5414 161.982L16.8934 163.986L15.4894 164.694V164.754H22.5454V165.738H14.1694V164.394L18.6814 161.994V161.934L14.1694 159.522V158.226H22.5454V159.21H15.4894ZM22.5454 151.196C22.5454 151.556 22.4494 151.816 22.2574 151.976C22.0654 152.128 21.8254 152.224 21.5374 152.264V152.324C21.9214 152.46 22.2094 152.684 22.4014 152.996C22.5934 153.308 22.6894 153.68 22.6894 154.112C22.6894 154.768 22.5214 155.28 22.1854 155.648C21.8494 156.008 21.3934 156.188 20.8174 156.188C20.2334 156.188 19.7854 155.976 19.4734 155.552C19.1614 155.12 19.0054 154.452 19.0054 153.548V152.324H18.3934C17.9534 152.324 17.6174 152.444 17.3854 152.684C17.1534 152.924 17.0374 153.292 17.0374 153.788C17.0374 154.164 17.1214 154.48 17.2894 154.736C17.4574 154.984 17.6814 155.192 17.9614 155.36L17.4214 155.936C17.0854 155.768 16.8014 155.5 16.5694 155.132C16.3294 154.764 16.2094 154.3 16.2094 153.74C16.2094 152.988 16.3934 152.404 16.7614 151.988C17.1294 151.572 17.6414 151.364 18.2974 151.364H21.7054V150.656H22.5454V151.196ZM21.8734 153.956C21.8734 153.716 21.8454 153.496 21.7894 153.296C21.7334 153.096 21.6534 152.924 21.5494 152.78C21.4454 152.636 21.3254 152.524 21.1894 152.444C21.0534 152.364 20.9054 152.324 20.7454 152.324H19.7254V153.596C19.7254 154.148 19.8054 154.552 19.9654 154.808C20.1254 155.056 20.3574 155.18 20.6614 155.18H20.9134C21.2174 155.18 21.4534 155.072 21.6214 154.856C21.7894 154.632 21.8734 154.332 21.8734 153.956ZM22.5454 148.886H16.3534V147.926H17.4934V147.866C17.1974 147.754 16.9334 147.554 16.7014 147.266C16.4694 146.978 16.3534 146.582 16.3534 146.078V145.706H17.3134V146.27C17.3134 146.79 17.4134 147.198 17.6134 147.494C17.8054 147.782 18.0494 147.926 18.3454 147.926H22.5454V148.886ZM13.6654 144.08L13.6654 143.12H19.2934V143.072L18.2374 142.124L16.3534 140.372V139.208L18.8014 141.5L22.5454 138.98V140.144L19.3894 142.196L20.3374 143.12H22.5454V144.08H13.6654ZM22.6894 135.609C22.6894 136.185 22.5814 136.669 22.3654 137.061C22.1414 137.445 21.8454 137.777 21.4774 138.057L20.9254 137.373C21.2294 137.133 21.4654 136.865 21.6334 136.569C21.7934 136.273 21.8734 135.929 21.8734 135.537C21.8734 135.129 21.7854 134.813 21.6094 134.589C21.4334 134.357 21.1854 134.241 20.8654 134.241C20.6254 134.241 20.4214 134.321 20.2534 134.481C20.0774 134.633 19.9574 134.913 19.8934 135.321L19.8214 135.813C19.7814 136.101 19.7214 136.365 19.6414 136.605C19.5534 136.845 19.4414 137.057 19.3054 137.241C19.1614 137.417 18.9854 137.557 18.7774 137.661C18.5694 137.757 18.3214 137.805 18.0334 137.805C17.7294 137.805 17.4654 137.749 17.2414 137.637C17.0094 137.525 16.8174 137.373 16.6654 137.181C16.5134 136.981 16.4014 136.745 16.3294 136.473C16.2494 136.201 16.2094 135.909 16.2094 135.597C16.2094 135.093 16.2974 134.673 16.4734 134.337C16.6494 133.993 16.8934 133.693 17.2054 133.437L17.7814 134.073C17.5894 134.209 17.4174 134.409 17.2654 134.673C17.1054 134.937 17.0254 135.269 17.0254 135.669C17.0254 136.069 17.1134 136.373 17.2894 136.581C17.4574 136.781 17.6894 136.881 17.9854 136.881C18.2894 136.881 18.5094 136.781 18.6454 136.581C18.7814 136.373 18.8814 136.077 18.9454 135.693L19.0174 135.213C19.1214 134.525 19.3214 134.037 19.6174 133.749C19.9054 133.461 20.2854 133.317 20.7574 133.317C21.3574 133.317 21.8294 133.521 22.1734 133.929C22.5174 134.337 22.6894 134.897 22.6894 135.609Z" fill="#092682"/>
<path d="M277.379 248.944H277.319L276.611 250.348L274.607 253.996L272.603 250.348L271.895 248.944H271.835V256H270.851V247.624H272.195L274.595 252.136H274.655L277.067 247.624H278.363V256H277.379V248.944ZM285.393 256C285.033 256 284.773 255.904 284.613 255.712C284.461 255.52 284.365 255.28 284.325 254.992H284.265C284.129 255.376 283.905 255.664 283.593 255.856C283.281 256.048 282.909 256.144 282.477 256.144C281.821 256.144 281.309 255.976 280.941 255.64C280.581 255.304 280.401 254.848 280.401 254.272C280.401 253.688 280.613 253.24 281.037 252.928C281.469 252.616 282.137 252.46 283.041 252.46H284.265V251.848C284.265 251.408 284.145 251.072 283.905 250.84C283.665 250.608 283.297 250.492 282.801 250.492C282.425 250.492 282.109 250.576 281.853 250.744C281.605 250.912 281.397 251.136 281.229 251.416L280.653 250.876C280.821 250.54 281.089 250.256 281.457 250.024C281.825 249.784 282.289 249.664 282.849 249.664C283.601 249.664 284.185 249.848 284.601 250.216C285.017 250.584 285.225 251.096 285.225 251.752V255.16H285.933V256H285.393ZM282.633 255.328C282.873 255.328 283.093 255.3 283.293 255.244C283.493 255.188 283.665 255.108 283.809 255.004C283.953 254.9 284.065 254.78 284.145 254.644C284.225 254.508 284.265 254.36 284.265 254.2V253.18H282.993C282.441 253.18 282.037 253.26 281.781 253.42C281.533 253.58 281.409 253.812 281.409 254.116V254.368C281.409 254.672 281.517 254.908 281.733 255.076C281.957 255.244 282.257 255.328 282.633 255.328ZM289.071 256C288.735 256 288.479 255.908 288.303 255.724C288.135 255.532 288.051 255.284 288.051 254.98V250.648H287.031V249.808H287.607C287.815 249.808 287.955 249.768 288.027 249.688C288.107 249.6 288.147 249.452 288.147 249.244V248.092H289.011V249.808H290.367V250.648H289.011V255.16H290.271V256H289.071ZM292.31 247.12H293.27V250.816H293.318C293.47 250.464 293.682 250.184 293.954 249.976C294.234 249.768 294.606 249.664 295.07 249.664C295.71 249.664 296.214 249.872 296.582 250.288C296.958 250.696 297.146 251.276 297.146 252.028V256H296.186V252.196C296.186 251.084 295.718 250.528 294.782 250.528C294.59 250.528 294.402 250.552 294.218 250.6C294.042 250.648 293.882 250.72 293.738 250.816C293.594 250.912 293.478 251.036 293.39 251.188C293.31 251.332 293.27 251.504 293.27 251.704V256H292.31V247.12ZM301.858 256.144C301.434 256.144 301.05 256.068 300.706 255.916C300.37 255.764 300.078 255.548 299.83 255.268C299.59 254.98 299.402 254.64 299.266 254.248C299.138 253.848 299.074 253.4 299.074 252.904C299.074 252.416 299.138 251.972 299.266 251.572C299.402 251.172 299.59 250.832 299.83 250.552C300.078 250.264 300.37 250.044 300.706 249.892C301.05 249.74 301.434 249.664 301.858 249.664C302.274 249.664 302.646 249.74 302.974 249.892C303.302 250.044 303.582 250.256 303.814 250.528C304.046 250.792 304.222 251.108 304.342 251.476C304.47 251.844 304.534 252.248 304.534 252.688V253.144H300.082V253.432C300.082 253.696 300.122 253.944 300.202 254.176C300.29 254.4 300.41 254.596 300.562 254.764C300.722 254.932 300.914 255.064 301.138 255.16C301.37 255.256 301.63 255.304 301.918 255.304C302.31 255.304 302.65 255.212 302.938 255.028C303.234 254.844 303.462 254.58 303.622 254.236L304.306 254.728C304.106 255.152 303.794 255.496 303.37 255.76C302.946 256.016 302.442 256.144 301.858 256.144ZM301.858 250.468C301.594 250.468 301.354 250.516 301.138 250.612C300.922 250.7 300.734 250.828 300.574 250.996C300.422 251.164 300.302 251.364 300.214 251.596C300.126 251.82 300.082 252.068 300.082 252.34V252.424H303.502V252.292C303.502 251.74 303.35 251.3 303.046 250.972C302.75 250.636 302.354 250.468 301.858 250.468ZM306.516 256V249.808H307.476V250.816H307.524C307.596 250.656 307.676 250.508 307.764 250.372C307.86 250.228 307.972 250.104 308.1 250C308.236 249.896 308.392 249.816 308.568 249.76C308.744 249.696 308.952 249.664 309.192 249.664C309.6 249.664 309.976 249.764 310.32 249.964C310.664 250.156 310.92 250.476 311.088 250.924H311.112C311.224 250.588 311.432 250.296 311.736 250.048C312.048 249.792 312.468 249.664 312.996 249.664C313.628 249.664 314.12 249.872 314.472 250.288C314.832 250.696 315.012 251.276 315.012 252.028V256H314.052V252.196C314.052 251.644 313.944 251.228 313.728 250.948C313.512 250.668 313.168 250.528 312.696 250.528C312.504 250.528 312.32 250.552 312.144 250.6C311.976 250.648 311.824 250.72 311.688 250.816C311.552 250.912 311.444 251.036 311.364 251.188C311.284 251.332 311.244 251.504 311.244 251.704V256H310.284V252.196C310.284 251.644 310.176 251.228 309.96 250.948C309.744 250.668 309.408 250.528 308.952 250.528C308.76 250.528 308.576 250.552 308.4 250.6C308.224 250.648 308.068 250.72 307.932 250.816C307.796 250.912 307.684 251.036 307.596 251.188C307.516 251.332 307.476 251.504 307.476 251.704V256H306.516ZM321.893 256C321.533 256 321.273 255.904 321.113 255.712C320.961 255.52 320.865 255.28 320.825 254.992H320.765C320.629 255.376 320.405 255.664 320.093 255.856C319.781 256.048 319.409 256.144 318.977 256.144C318.321 256.144 317.809 255.976 317.441 255.64C317.081 255.304 316.901 254.848 316.901 254.272C316.901 253.688 317.113 253.24 317.537 252.928C317.969 252.616 318.637 252.46 319.541 252.46H320.765V251.848C320.765 251.408 320.645 251.072 320.405 250.84C320.165 250.608 319.797 250.492 319.301 250.492C318.925 250.492 318.609 250.576 318.353 250.744C318.105 250.912 317.897 251.136 317.729 251.416L317.153 250.876C317.321 250.54 317.589 250.256 317.957 250.024C318.325 249.784 318.789 249.664 319.349 249.664C320.101 249.664 320.685 249.848 321.101 250.216C321.517 250.584 321.725 251.096 321.725 251.752V255.16H322.433V256H321.893ZM319.133 255.328C319.373 255.328 319.593 255.3 319.793 255.244C319.993 255.188 320.165 255.108 320.309 255.004C320.453 254.9 320.565 254.78 320.645 254.644C320.725 254.508 320.765 254.36 320.765 254.2V253.18H319.493C318.941 253.18 318.537 253.26 318.281 253.42C318.033 253.58 317.909 253.812 317.909 254.116V254.368C317.909 254.672 318.017 254.908 318.233 255.076C318.457 255.244 318.757 255.328 319.133 255.328ZM325.571 256C325.235 256 324.979 255.908 324.803 255.724C324.635 255.532 324.551 255.284 324.551 254.98V250.648H323.531V249.808H324.107C324.315 249.808 324.455 249.768 324.527 249.688C324.607 249.6 324.647 249.452 324.647 249.244V248.092H325.511V249.808H326.867V250.648H325.511V255.16H326.771V256H325.571ZM329.29 248.356C329.082 248.356 328.93 248.308 328.834 248.212C328.746 248.108 328.702 247.976 328.702 247.816V247.66C328.702 247.5 328.746 247.372 328.834 247.276C328.93 247.172 329.082 247.12 329.29 247.12C329.498 247.12 329.646 247.172 329.734 247.276C329.83 247.372 329.878 247.5 329.878 247.66V247.816C329.878 247.976 329.83 248.108 329.734 248.212C329.646 248.308 329.498 248.356 329.29 248.356ZM328.81 249.808H329.77V256H328.81V249.808ZM334.514 256.144C334.082 256.144 333.694 256.068 333.35 255.916C333.006 255.764 332.714 255.548 332.474 255.268C332.242 254.988 332.062 254.648 331.934 254.248C331.814 253.848 331.754 253.4 331.754 252.904C331.754 252.408 331.814 251.96 331.934 251.56C332.062 251.16 332.242 250.82 332.474 250.54C332.714 250.26 333.006 250.044 333.35 249.892C333.694 249.74 334.082 249.664 334.514 249.664C335.13 249.664 335.622 249.8 335.99 250.072C336.366 250.336 336.646 250.684 336.83 251.116L336.026 251.524C335.914 251.204 335.73 250.956 335.474 250.78C335.218 250.604 334.898 250.516 334.514 250.516C334.226 250.516 333.974 250.564 333.758 250.66C333.542 250.748 333.362 250.876 333.218 251.044C333.074 251.204 332.966 251.4 332.894 251.632C332.822 251.856 332.786 252.104 332.786 252.376V253.432C332.786 253.976 332.93 254.424 333.218 254.776C333.514 255.12 333.946 255.292 334.514 255.292C335.29 255.292 335.85 254.932 336.194 254.212L336.89 254.68C336.69 255.128 336.39 255.484 335.99 255.748C335.598 256.012 335.106 256.144 334.514 256.144ZM340.505 256.144C339.929 256.144 339.445 256.036 339.053 255.82C338.669 255.596 338.337 255.3 338.057 254.932L338.741 254.38C338.981 254.684 339.249 254.92 339.545 255.088C339.841 255.248 340.185 255.328 340.577 255.328C340.985 255.328 341.301 255.24 341.525 255.064C341.757 254.888 341.873 254.64 341.873 254.32C341.873 254.08 341.793 253.876 341.633 253.708C341.481 253.532 341.201 253.412 340.793 253.348L340.301 253.276C340.013 253.236 339.749 253.176 339.509 253.096C339.269 253.008 339.057 252.896 338.873 252.76C338.697 252.616 338.557 252.44 338.453 252.232C338.357 252.024 338.309 251.776 338.309 251.488C338.309 251.184 338.365 250.92 338.477 250.696C338.589 250.464 338.741 250.272 338.933 250.12C339.133 249.968 339.369 249.856 339.641 249.784C339.913 249.704 340.205 249.664 340.517 249.664C341.021 249.664 341.441 249.752 341.777 249.928C342.121 250.104 342.421 250.348 342.677 250.66L342.041 251.236C341.905 251.044 341.705 250.872 341.441 250.72C341.177 250.56 340.845 250.48 340.445 250.48C340.045 250.48 339.741 250.568 339.533 250.744C339.333 250.912 339.233 251.144 339.233 251.44C339.233 251.744 339.333 251.964 339.533 252.1C339.741 252.236 340.037 252.336 340.421 252.4L340.901 252.472C341.589 252.576 342.077 252.776 342.365 253.072C342.653 253.36 342.797 253.74 342.797 254.212C342.797 254.812 342.593 255.284 342.185 255.628C341.777 255.972 341.217 256.144 340.505 256.144Z" fill="#092682"/>
<path d="M41.6 243.259C40.6 243.259 39.868 242.879 39.404 242.119C38.948 241.359 38.72 240.295 38.72 238.927C38.72 237.559 38.948 236.495 39.404 235.735C39.868 234.975 40.6 234.595 41.6 234.595C42.6 234.595 43.328 234.975 43.784 235.735C44.248 236.495 44.48 237.559 44.48 238.927C44.48 240.295 44.248 241.359 43.784 242.119C43.328 242.879 42.6 243.259 41.6 243.259ZM41.6 242.383C41.928 242.383 42.208 242.315 42.44 242.179C42.672 242.043 42.86 241.851 43.004 241.603C43.148 241.355 43.252 241.063 43.316 240.727C43.388 240.391 43.424 240.019 43.424 239.611V238.243C43.424 237.835 43.388 237.463 43.316 237.127C43.252 236.791 43.148 236.499 43.004 236.251C42.86 236.003 42.672 235.811 42.44 235.675C42.208 235.539 41.928 235.471 41.6 235.471C41.272 235.471 40.992 235.539 40.76 235.675C40.528 235.811 40.34 236.003 40.196 236.251C40.052 236.499 39.944 236.791 39.872 237.127C39.808 237.463 39.776 237.835 39.776 238.243V239.611C39.776 240.019 39.808 240.391 39.872 240.727C39.944 241.063 40.052 241.355 40.196 241.603C40.34 241.851 40.528 242.043 40.76 242.179C40.992 242.315 41.272 242.383 41.6 242.383Z" fill="#263238"/>
<path d="M44.396 202.87H38.9V201.838L41.636 199.318C42.028 198.958 42.356 198.578 42.62 198.178C42.884 197.77 43.016 197.362 43.016 196.954V196.81C43.016 196.346 42.888 195.97 42.632 195.682C42.376 195.394 41.988 195.25 41.468 195.25C41.212 195.25 40.988 195.286 40.796 195.358C40.604 195.43 40.436 195.53 40.292 195.658C40.156 195.786 40.04 195.938 39.944 196.114C39.856 196.282 39.784 196.466 39.728 196.666L38.828 196.318C38.908 196.07 39.016 195.83 39.152 195.598C39.296 195.358 39.472 195.146 39.68 194.962C39.896 194.778 40.152 194.63 40.448 194.518C40.752 194.406 41.108 194.35 41.516 194.35C41.924 194.35 42.288 194.41 42.608 194.53C42.928 194.65 43.196 194.818 43.412 195.034C43.628 195.25 43.792 195.506 43.904 195.802C44.024 196.098 44.084 196.426 44.084 196.786C44.084 197.114 44.036 197.418 43.94 197.698C43.852 197.978 43.728 198.246 43.568 198.502C43.408 198.75 43.212 198.994 42.98 199.234C42.756 199.474 42.512 199.714 42.248 199.954L39.992 201.982H44.396V202.87ZM49.1953 203.014C48.1953 203.014 47.4633 202.634 46.9993 201.874C46.5433 201.114 46.3153 200.05 46.3153 198.682C46.3153 197.314 46.5433 196.25 46.9993 195.49C47.4633 194.73 48.1953 194.35 49.1953 194.35C50.1953 194.35 50.9233 194.73 51.3793 195.49C51.8433 196.25 52.0753 197.314 52.0753 198.682C52.0753 200.05 51.8433 201.114 51.3793 201.874C50.9233 202.634 50.1953 203.014 49.1953 203.014ZM49.1953 202.138C49.5233 202.138 49.8033 202.07 50.0353 201.934C50.2673 201.798 50.4553 201.606 50.5993 201.358C50.7433 201.11 50.8473 200.818 50.9113 200.482C50.9833 200.146 51.0193 199.774 51.0193 199.366V197.998C51.0193 197.59 50.9833 197.218 50.9113 196.882C50.8473 196.546 50.7433 196.254 50.5993 196.006C50.4553 195.758 50.2673 195.566 50.0353 195.43C49.8033 195.294 49.5233 195.226 49.1953 195.226C48.8673 195.226 48.5873 195.294 48.3553 195.43C48.1233 195.566 47.9353 195.758 47.7913 196.006C47.6473 196.254 47.5393 196.546 47.4673 196.882C47.4033 197.218 47.3713 197.59 47.3713 197.998V199.366C47.3713 199.774 47.4033 200.146 47.4673 200.482C47.5393 200.818 47.6473 201.11 47.7913 201.358C47.9353 201.606 48.1233 201.798 48.3553 201.934C48.5873 202.07 48.8673 202.138 49.1953 202.138Z" fill="#263238"/>
<path d="M42.5 163.518V161.874H38.456V160.986L41.96 155.142H43.46V161.034H44.672V161.874H43.46V163.518H42.5ZM39.404 161.034H42.5V155.922H42.44L39.404 161.034ZM49.1953 163.662C48.1953 163.662 47.4633 163.282 46.9993 162.522C46.5433 161.762 46.3153 160.698 46.3153 159.33C46.3153 157.962 46.5433 156.898 46.9993 156.138C47.4633 155.378 48.1953 154.998 49.1953 154.998C50.1953 154.998 50.9233 155.378 51.3793 156.138C51.8433 156.898 52.0753 157.962 52.0753 159.33C52.0753 160.698 51.8433 161.762 51.3793 162.522C50.9233 163.282 50.1953 163.662 49.1953 163.662ZM49.1953 162.786C49.5233 162.786 49.8033 162.718 50.0353 162.582C50.2673 162.446 50.4553 162.254 50.5993 162.006C50.7433 161.758 50.8473 161.466 50.9113 161.13C50.9833 160.794 51.0193 160.422 51.0193 160.014V158.646C51.0193 158.238 50.9833 157.866 50.9113 157.53C50.8473 157.194 50.7433 156.902 50.5993 156.654C50.4553 156.406 50.2673 156.214 50.0353 156.078C49.8033 155.942 49.5233 155.874 49.1953 155.874C48.8673 155.874 48.5873 155.942 48.3553 156.078C48.1233 156.214 47.9353 156.406 47.7913 156.654C47.6473 156.902 47.5393 157.194 47.4673 157.53C47.4033 157.866 47.3713 158.238 47.3713 158.646V160.014C47.3713 160.422 47.4033 160.794 47.4673 161.13C47.5393 161.466 47.6473 161.758 47.7913 162.006C47.9353 162.254 48.1233 162.446 48.3553 162.582C48.5873 162.718 48.8673 162.786 49.1953 162.786Z" fill="#263238"/>
<path d="M41.612 123.417C41.18 123.417 40.788 123.345 40.436 123.201C40.092 123.049 39.796 122.837 39.548 122.565C39.308 122.285 39.124 121.945 38.996 121.545C38.868 121.145 38.804 120.697 38.804 120.201C38.804 119.577 38.896 118.993 39.08 118.449C39.264 117.897 39.5 117.397 39.788 116.949C40.084 116.493 40.408 116.093 40.76 115.749C41.112 115.397 41.456 115.113 41.792 114.897H43.088C42.64 115.225 42.24 115.545 41.888 115.857C41.536 116.169 41.228 116.497 40.964 116.841C40.7 117.177 40.476 117.541 40.292 117.933C40.108 118.317 39.96 118.753 39.848 119.241L39.908 119.265C40.108 118.921 40.364 118.637 40.676 118.413C40.996 118.181 41.412 118.065 41.924 118.065C42.284 118.065 42.616 118.125 42.92 118.245C43.224 118.365 43.484 118.537 43.7 118.761C43.916 118.985 44.084 119.257 44.204 119.577C44.332 119.897 44.396 120.253 44.396 120.645C44.396 121.053 44.328 121.429 44.192 121.773C44.064 122.109 43.876 122.401 43.628 122.649C43.388 122.889 43.096 123.077 42.752 123.213C42.408 123.349 42.028 123.417 41.612 123.417ZM41.6 122.541C42.152 122.541 42.58 122.389 42.884 122.085C43.196 121.781 43.352 121.345 43.352 120.777V120.681C43.352 120.113 43.196 119.677 42.884 119.373C42.58 119.069 42.152 118.917 41.6 118.917C41.048 118.917 40.616 119.069 40.304 119.373C40 119.677 39.848 120.113 39.848 120.681V120.777C39.848 121.345 40 121.781 40.304 122.085C40.616 122.389 41.048 122.541 41.6 122.541ZM49.1953 123.417C48.1953 123.417 47.4633 123.037 46.9993 122.277C46.5433 121.517 46.3153 120.453 46.3153 119.085C46.3153 117.717 46.5433 116.653 46.9993 115.893C47.4633 115.133 48.1953 114.753 49.1953 114.753C50.1953 114.753 50.9233 115.133 51.3793 115.893C51.8433 116.653 52.0753 117.717 52.0753 119.085C52.0753 120.453 51.8433 121.517 51.3793 122.277C50.9233 123.037 50.1953 123.417 49.1953 123.417ZM49.1953 122.541C49.5233 122.541 49.8033 122.473 50.0353 122.337C50.2673 122.201 50.4553 122.009 50.5993 121.761C50.7433 121.513 50.8473 121.221 50.9113 120.885C50.9833 120.549 51.0193 120.177 51.0193 119.769V118.401C51.0193 117.993 50.9833 117.621 50.9113 117.285C50.8473 116.949 50.7433 116.657 50.5993 116.409C50.4553 116.161 50.2673 115.969 50.0353 115.833C49.8033 115.697 49.5233 115.629 49.1953 115.629C48.8673 115.629 48.5873 115.697 48.3553 115.833C48.1233 115.969 47.9353 116.161 47.7913 116.409C47.6473 116.657 47.5393 116.949 47.4673 117.285C47.4033 117.621 47.3713 117.993 47.3713 118.401V119.769C47.3713 120.177 47.4033 120.549 47.4673 120.885C47.5393 121.221 47.6473 121.513 47.7913 121.761C47.9353 122.009 48.1233 122.201 48.3553 122.337C48.5873 122.473 48.8673 122.541 49.1953 122.541Z" fill="#263238"/>
<path d="M41.6 84.9597C41.12 84.9597 40.7 84.8997 40.34 84.7797C39.98 84.6517 39.676 84.4797 39.428 84.2637C39.188 84.0477 39.004 83.7917 38.876 83.4957C38.756 83.1997 38.696 82.8797 38.696 82.5357C38.696 81.9597 38.852 81.5037 39.164 81.1677C39.476 80.8317 39.884 80.5957 40.388 80.4597V80.3637C39.948 80.2117 39.596 79.9677 39.332 79.6317C39.076 79.2877 38.948 78.8757 38.948 78.3957C38.948 77.7557 39.18 77.2477 39.644 76.8717C40.108 76.4877 40.76 76.2957 41.6 76.2957C42.44 76.2957 43.092 76.4877 43.556 76.8717C44.02 77.2477 44.252 77.7557 44.252 78.3957C44.252 78.8757 44.12 79.2877 43.856 79.6317C43.6 79.9677 43.252 80.2117 42.812 80.3637V80.4597C43.316 80.5957 43.724 80.8317 44.036 81.1677C44.348 81.5037 44.504 81.9597 44.504 82.5357C44.504 82.8797 44.44 83.1997 44.312 83.4957C44.192 83.7917 44.008 84.0477 43.76 84.2637C43.52 84.4797 43.22 84.6517 42.86 84.7797C42.5 84.8997 42.08 84.9597 41.6 84.9597ZM41.6 84.0837C42.184 84.0837 42.636 83.9557 42.956 83.6997C43.276 83.4357 43.436 83.0637 43.436 82.5837V82.3317C43.436 81.8517 43.276 81.4837 42.956 81.2277C42.636 80.9637 42.184 80.8317 41.6 80.8317C41.016 80.8317 40.564 80.9637 40.244 81.2277C39.924 81.4837 39.764 81.8517 39.764 82.3317V82.5837C39.764 83.0637 39.924 83.4357 40.244 83.6997C40.564 83.9557 41.016 84.0837 41.6 84.0837ZM41.6 79.9917C42.128 79.9917 42.528 79.8797 42.8 79.6557C43.072 79.4317 43.208 79.1037 43.208 78.6717V78.4917C43.208 78.0597 43.072 77.7317 42.8 77.5077C42.528 77.2837 42.128 77.1717 41.6 77.1717C41.072 77.1717 40.672 77.2837 40.4 77.5077C40.128 77.7317 39.992 78.0597 39.992 78.4917V78.6717C39.992 79.1037 40.128 79.4317 40.4 79.6557C40.672 79.8797 41.072 79.9917 41.6 79.9917ZM49.1953 84.9597C48.1953 84.9597 47.4633 84.5797 46.9993 83.8197C46.5433 83.0597 46.3153 81.9957 46.3153 80.6277C46.3153 79.2597 46.5433 78.1957 46.9993 77.4357C47.4633 76.6757 48.1953 76.2957 49.1953 76.2957C50.1953 76.2957 50.9233 76.6757 51.3793 77.4357C51.8433 78.1957 52.0753 79.2597 52.0753 80.6277C52.0753 81.9957 51.8433 83.0597 51.3793 83.8197C50.9233 84.5797 50.1953 84.9597 49.1953 84.9597ZM49.1953 84.0837C49.5233 84.0837 49.8033 84.0157 50.0353 83.8797C50.2673 83.7437 50.4553 83.5517 50.5993 83.3037C50.7433 83.0557 50.8473 82.7637 50.9113 82.4277C50.9833 82.0917 51.0193 81.7197 51.0193 81.3117V79.9437C51.0193 79.5357 50.9833 79.1637 50.9113 78.8277C50.8473 78.4917 50.7433 78.1997 50.5993 77.9517C50.4553 77.7037 50.2673 77.5117 50.0353 77.3757C49.8033 77.2397 49.5233 77.1717 49.1953 77.1717C48.8673 77.1717 48.5873 77.2397 48.3553 77.3757C48.1233 77.5117 47.9353 77.7037 47.7913 77.9517C47.6473 78.1997 47.5393 78.4917 47.4673 78.8277C47.4033 79.1637 47.3713 79.5357 47.3713 79.9437V81.3117C47.3713 81.7197 47.4033 82.0917 47.4673 82.4277C47.5393 82.7637 47.6473 83.0557 47.7913 83.3037C47.9353 83.5517 48.1233 83.7437 48.3553 83.8797C48.5873 84.0157 48.8673 84.0837 49.1953 84.0837Z" fill="#263238"/>
<path d="M105.396 55.696C105.396 56.32 105.304 56.908 105.12 57.46C104.936 58.004 104.696 58.504 104.4 58.96C104.112 59.408 103.792 59.808 103.44 60.16C103.088 60.504 102.744 60.784 102.408 61H101.112C101.56 60.672 101.96 60.352 102.312 60.04C102.664 59.728 102.972 59.404 103.236 59.068C103.5 58.724 103.724 58.36 103.908 57.976C104.092 57.584 104.24 57.144 104.352 56.656L104.292 56.632C104.092 56.976 103.832 57.264 103.512 57.496C103.2 57.72 102.788 57.832 102.276 57.832C101.916 57.832 101.584 57.772 101.28 57.652C100.976 57.532 100.716 57.36 100.5 57.136C100.284 56.912 100.112 56.644 99.984 56.332C99.864 56.012 99.804 55.652 99.804 55.252C99.804 54.844 99.868 54.472 99.996 54.136C100.132 53.792 100.32 53.5 100.56 53.26C100.808 53.012 101.1 52.82 101.436 52.684C101.78 52.548 102.164 52.48 102.588 52.48C103.02 52.48 103.408 52.556 103.752 52.708C104.104 52.852 104.4 53.064 104.64 53.344C104.888 53.616 105.076 53.952 105.204 54.352C105.332 54.752 105.396 55.2 105.396 55.696ZM102.6 56.98C103.152 56.98 103.58 56.828 103.884 56.524C104.196 56.22 104.352 55.784 104.352 55.216V55.12C104.352 54.552 104.196 54.116 103.884 53.812C103.58 53.508 103.152 53.356 102.6 53.356C102.048 53.356 101.616 53.508 101.304 53.812C101 54.116 100.848 54.552 100.848 55.12V55.216C100.848 55.784 101 56.22 101.304 56.524C101.616 56.828 102.048 56.98 102.6 56.98ZM110.195 61.144C109.195 61.144 108.463 60.764 107.999 60.004C107.543 59.244 107.315 58.18 107.315 56.812C107.315 55.444 107.543 54.38 107.999 53.62C108.463 52.86 109.195 52.48 110.195 52.48C111.195 52.48 111.923 52.86 112.379 53.62C112.843 54.38 113.075 55.444 113.075 56.812C113.075 58.18 112.843 59.244 112.379 60.004C111.923 60.764 111.195 61.144 110.195 61.144ZM110.195 60.268C110.523 60.268 110.803 60.2 111.035 60.064C111.267 59.928 111.455 59.736 111.599 59.488C111.743 59.24 111.847 58.948 111.911 58.612C111.983 58.276 112.019 57.904 112.019 57.496V56.128C112.019 55.72 111.983 55.348 111.911 55.012C111.847 54.676 111.743 54.384 111.599 54.136C111.455 53.888 111.267 53.696 111.035 53.56C110.803 53.424 110.523 53.356 110.195 53.356C109.867 53.356 109.587 53.424 109.355 53.56C109.123 53.696 108.935 53.888 108.791 54.136C108.647 54.384 108.539 54.676 108.467 55.012C108.403 55.348 108.371 55.72 108.371 56.128V57.496C108.371 57.904 108.403 58.276 108.467 58.612C108.539 58.948 108.647 59.24 108.791 59.488C108.935 59.736 109.123 59.928 109.355 60.064C109.587 60.2 109.867 60.268 110.195 60.268Z" fill="#092682"/>
<path d="M202.1 93L205.304 85.488H201.728V87.048H200.828V84.624H206.324V85.512L203.18 93H202.1ZM213.571 85.512H209.899L209.659 88.704H209.743C209.943 88.424 210.167 88.2 210.415 88.032C210.671 87.864 211.019 87.78 211.459 87.78C211.819 87.78 212.151 87.84 212.455 87.96C212.759 88.08 213.023 88.252 213.247 88.476C213.471 88.692 213.643 88.96 213.763 89.28C213.891 89.6 213.955 89.964 213.955 90.372C213.955 90.78 213.891 91.156 213.763 91.5C213.635 91.836 213.447 92.128 213.199 92.376C212.959 92.616 212.663 92.804 212.311 92.94C211.967 93.076 211.575 93.144 211.135 93.144C210.783 93.144 210.471 93.104 210.199 93.024C209.935 92.944 209.699 92.836 209.491 92.7C209.283 92.564 209.099 92.412 208.939 92.244C208.787 92.076 208.647 91.9 208.519 91.716L209.275 91.14C209.379 91.308 209.487 91.46 209.599 91.596C209.719 91.732 209.847 91.848 209.983 91.944C210.127 92.04 210.291 92.116 210.475 92.172C210.659 92.22 210.879 92.244 211.135 92.244C211.711 92.244 212.147 92.092 212.443 91.788C212.739 91.484 212.887 91.056 212.887 90.504V90.384C212.887 89.832 212.739 89.404 212.443 89.1C212.147 88.796 211.711 88.644 211.135 88.644C210.751 88.644 210.447 88.716 210.223 88.86C210.007 88.996 209.811 89.16 209.635 89.352L208.783 89.232L209.083 84.624H213.571V85.512Z" fill="#092682"/>
<path d="M300.6 68.144C300.12 68.144 299.7 68.084 299.34 67.964C298.98 67.836 298.676 67.664 298.428 67.448C298.188 67.232 298.004 66.976 297.876 66.68C297.756 66.384 297.696 66.064 297.696 65.72C297.696 65.144 297.852 64.688 298.164 64.352C298.476 64.016 298.884 63.78 299.388 63.644V63.548C298.948 63.396 298.596 63.152 298.332 62.816C298.076 62.472 297.948 62.06 297.948 61.58C297.948 60.94 298.18 60.432 298.644 60.056C299.108 59.672 299.76 59.48 300.6 59.48C301.44 59.48 302.092 59.672 302.556 60.056C303.02 60.432 303.252 60.94 303.252 61.58C303.252 62.06 303.12 62.472 302.856 62.816C302.6 63.152 302.252 63.396 301.812 63.548V63.644C302.316 63.78 302.724 64.016 303.036 64.352C303.348 64.688 303.504 65.144 303.504 65.72C303.504 66.064 303.44 66.384 303.312 66.68C303.192 66.976 303.008 67.232 302.76 67.448C302.52 67.664 302.22 67.836 301.86 67.964C301.5 68.084 301.08 68.144 300.6 68.144ZM300.6 67.268C301.184 67.268 301.636 67.14 301.956 66.884C302.276 66.62 302.436 66.248 302.436 65.768V65.516C302.436 65.036 302.276 64.668 301.956 64.412C301.636 64.148 301.184 64.016 300.6 64.016C300.016 64.016 299.564 64.148 299.244 64.412C298.924 64.668 298.764 65.036 298.764 65.516V65.768C298.764 66.248 298.924 66.62 299.244 66.884C299.564 67.14 300.016 67.268 300.6 67.268ZM300.6 63.176C301.128 63.176 301.528 63.064 301.8 62.84C302.072 62.616 302.208 62.288 302.208 61.856V61.676C302.208 61.244 302.072 60.916 301.8 60.692C301.528 60.468 301.128 60.356 300.6 60.356C300.072 60.356 299.672 60.468 299.4 60.692C299.128 60.916 298.992 61.244 298.992 61.676V61.856C298.992 62.288 299.128 62.616 299.4 62.84C299.672 63.064 300.072 63.176 300.6 63.176ZM310.571 60.512H306.899L306.659 63.704H306.743C306.943 63.424 307.167 63.2 307.415 63.032C307.671 62.864 308.019 62.78 308.459 62.78C308.819 62.78 309.151 62.84 309.455 62.96C309.759 63.08 310.023 63.252 310.247 63.476C310.471 63.692 310.643 63.96 310.763 64.28C310.891 64.6 310.955 64.964 310.955 65.372C310.955 65.78 310.891 66.156 310.763 66.5C310.635 66.836 310.447 67.128 310.199 67.376C309.959 67.616 309.663 67.804 309.311 67.94C308.967 68.076 308.575 68.144 308.135 68.144C307.783 68.144 307.471 68.104 307.199 68.024C306.935 67.944 306.699 67.836 306.491 67.7C306.283 67.564 306.099 67.412 305.939 67.244C305.787 67.076 305.647 66.9 305.519 66.716L306.275 66.14C306.379 66.308 306.487 66.46 306.599 66.596C306.719 66.732 306.847 66.848 306.983 66.944C307.127 67.04 307.291 67.116 307.475 67.172C307.659 67.22 307.879 67.244 308.135 67.244C308.711 67.244 309.147 67.092 309.443 66.788C309.739 66.484 309.887 66.056 309.887 65.504V65.384C309.887 64.832 309.739 64.404 309.443 64.1C309.147 63.796 308.711 63.644 308.135 63.644C307.751 63.644 307.447 63.716 307.223 63.86C307.007 63.996 306.811 64.16 306.635 64.352L305.783 64.232L306.083 59.624H310.571V60.512Z" fill="#092682"/>
<path d="M39.056 49.0417V48.1537H41.396V41.4097H41.312L39.2 43.3777L38.612 42.7417L40.832 40.6657H42.404V48.1537H44.564V49.0417H39.056ZM49.1953 49.1857C48.1953 49.1857 47.4633 48.8057 46.9993 48.0457C46.5433 47.2857 46.3153 46.2217 46.3153 44.8537C46.3153 43.4857 46.5433 42.4217 46.9993 41.6617C47.4633 40.9017 48.1953 40.5217 49.1953 40.5217C50.1953 40.5217 50.9233 40.9017 51.3793 41.6617C51.8433 42.4217 52.0753 43.4857 52.0753 44.8537C52.0753 46.2217 51.8433 47.2857 51.3793 48.0457C50.9233 48.8057 50.1953 49.1857 49.1953 49.1857ZM49.1953 48.3097C49.5233 48.3097 49.8033 48.2417 50.0353 48.1057C50.2673 47.9697 50.4553 47.7777 50.5993 47.5297C50.7433 47.2817 50.8473 46.9897 50.9113 46.6537C50.9833 46.3177 51.0193 45.9457 51.0193 45.5377V44.1697C51.0193 43.7617 50.9833 43.3897 50.9113 43.0537C50.8473 42.7177 50.7433 42.4257 50.5993 42.1777C50.4553 41.9297 50.2673 41.7377 50.0353 41.6017C49.8033 41.4657 49.5233 41.3977 49.1953 41.3977C48.8673 41.3977 48.5873 41.4657 48.3553 41.6017C48.1233 41.7377 47.9353 41.9297 47.7913 42.1777C47.6473 42.4257 47.5393 42.7177 47.4673 43.0537C47.4033 43.3897 47.3713 43.7617 47.3713 44.1697V45.5377C47.3713 45.9457 47.4033 46.3177 47.4673 46.6537C47.5393 46.9897 47.6473 47.2817 47.7913 47.5297C47.9353 47.7777 48.1233 47.9697 48.3553 48.1057C48.5873 48.2417 48.8673 48.3097 49.1953 48.3097ZM56.7906 49.1857C55.7906 49.1857 55.0586 48.8057 54.5946 48.0457C54.1386 47.2857 53.9106 46.2217 53.9106 44.8537C53.9106 43.4857 54.1386 42.4217 54.5946 41.6617C55.0586 40.9017 55.7906 40.5217 56.7906 40.5217C57.7906 40.5217 58.5186 40.9017 58.9746 41.6617C59.4386 42.4217 59.6706 43.4857 59.6706 44.8537C59.6706 46.2217 59.4386 47.2857 58.9746 48.0457C58.5186 48.8057 57.7906 49.1857 56.7906 49.1857ZM56.7906 48.3097C57.1186 48.3097 57.3986 48.2417 57.6306 48.1057C57.8626 47.9697 58.0506 47.7777 58.1946 47.5297C58.3386 47.2817 58.4426 46.9897 58.5066 46.6537C58.5786 46.3177 58.6146 45.9457 58.6146 45.5377V44.1697C58.6146 43.7617 58.5786 43.3897 58.5066 43.0537C58.4426 42.7177 58.3386 42.4257 58.1946 42.1777C58.0506 41.9297 57.8626 41.7377 57.6306 41.6017C57.3986 41.4657 57.1186 41.3977 56.7906 41.3977C56.4626 41.3977 56.1826 41.4657 55.9506 41.6017C55.7186 41.7377 55.5306 41.9297 55.3866 42.1777C55.2426 42.4257 55.1346 42.7177 55.0626 43.0537C54.9986 43.3897 54.9666 43.7617 54.9666 44.1697V45.5377C54.9666 45.9457 54.9986 46.3177 55.0626 46.6537C55.1346 46.9897 55.2426 47.2817 55.3866 47.5297C55.5306 47.7777 55.7186 47.9697 55.9506 48.1057C56.1826 48.2417 56.4626 48.3097 56.7906 48.3097Z" fill="#263238"/>
<path d="M76.7751 240.059H348.649V240.953H76.7751V240.059Z" fill="#E3E3E3"/>
<path d="M76.7751 200.707H348.649V201.602H76.7751V200.707Z" fill="#E3E3E3"/>
<path d="M76.7751 160.462H348.649V161.356H76.7751V160.462Z" fill="#E3E3E3"/>
<path d="M76.7751 120.216H348.649V121.11H76.7751V120.216Z" fill="#E3E3E3"/>
<path d="M76.7751 80.8647H348.649V81.7591H76.7751V80.8647Z" fill="#E3E3E3"/>
<path d="M76.7751 45.0908H348.649V45.9852H76.7751V45.0908Z" fill="#E3E3E3"/>
<rect x="99.1252" y="65.7666" width="15" height="63.0265" fill="#A492FF"/>
<circle cx="107" cy="103" r="2" fill="#092682"/>
<rect x="99.1252" y="128.793" width="15" height="56.4612" fill="#855CF8"/>
<rect x="99.1252" y="185.254" width="15" height="55.8047" fill="#5540C5"/>
<path d="M101.392 97L104.351 90.6084H100.459V89.8613H105.21V90.5107L102.29 97H101.392ZM111.342 93.4209C111.342 94.6546 111.147 95.5758 110.756 96.1846C110.369 96.7933 109.775 97.0977 108.974 97.0977C108.206 97.0977 107.622 96.7868 107.221 96.165C106.821 95.54 106.621 94.6253 106.621 93.4209C106.621 92.1774 106.814 91.2546 107.202 90.6523C107.589 90.0501 108.18 89.749 108.974 89.749C109.749 89.749 110.337 90.0632 110.737 90.6914C111.141 91.3197 111.342 92.2295 111.342 93.4209ZM107.441 93.4209C107.441 94.4593 107.563 95.2161 107.807 95.6914C108.051 96.1634 108.44 96.3994 108.974 96.3994C109.515 96.3994 109.905 96.1602 110.146 95.6816C110.39 95.1999 110.512 94.4463 110.512 93.4209C110.512 92.3955 110.39 91.6452 110.146 91.1699C109.905 90.6914 109.515 90.4521 108.974 90.4521C108.44 90.4521 108.051 90.6882 107.807 91.1602C107.563 91.6289 107.441 92.3825 107.441 93.4209Z" fill="#505F79"/>
<rect x="200.187" y="100.646" width="15" height="50.4855" fill="#A492FF"/>
<circle cx="208" cy="144" r="2" fill="#092682"/>
<rect x="200.187" y="151.132" width="15" height="45.2266" fill="#855CF8"/>
<rect x="200.187" y="196.358" width="15" height="44.7007" fill="#5540C5"/>
<path d="M204.72 129.64C205.472 129.64 206.062 129.827 206.492 130.201C206.925 130.572 207.142 131.082 207.142 131.729C207.142 132.468 206.906 133.048 206.434 133.468C205.965 133.888 205.317 134.098 204.49 134.098C203.686 134.098 203.073 133.969 202.649 133.712V132.931C202.877 133.077 203.16 133.193 203.499 133.277C203.838 133.359 204.171 133.399 204.5 133.399C205.073 133.399 205.517 133.264 205.833 132.994C206.152 132.724 206.312 132.333 206.312 131.822C206.312 130.826 205.701 130.328 204.48 130.328C204.171 130.328 203.758 130.375 203.24 130.47L202.82 130.201L203.089 126.861H206.639V127.608H203.782L203.602 129.752C203.976 129.677 204.349 129.64 204.72 129.64ZM210.842 129.64C211.594 129.64 212.185 129.827 212.615 130.201C213.048 130.572 213.264 131.082 213.264 131.729C213.264 132.468 213.028 133.048 212.556 133.468C212.088 133.888 211.44 134.098 210.613 134.098C209.809 134.098 209.195 133.969 208.772 133.712V132.931C209 133.077 209.283 133.193 209.622 133.277C209.96 133.359 210.294 133.399 210.623 133.399C211.196 133.399 211.64 133.264 211.956 132.994C212.275 132.724 212.434 132.333 212.434 131.822C212.434 130.826 211.824 130.328 210.603 130.328C210.294 130.328 209.88 130.375 209.363 130.47L208.943 130.201L209.212 126.861H212.761V127.608H209.905L209.724 129.752C210.099 129.677 210.471 129.64 210.842 129.64Z" fill="#505F79"/>
<line x1="107.192" y1="102.538" x2="208.192" y2="144.538" stroke="#5E7AD1" stroke-dasharray="2 2"/>
<line x1="207.776" y1="144.553" x2="303.776" y2="96.5528" stroke="#5E7AD1" stroke-dasharray="2 2"/>
<rect x="296.777" y="72.8159" width="15" height="60.1324" fill="#A492FF"/>
<circle cx="304" cy="97" r="2" fill="#092682"/>
<rect x="296.777" y="132.948" width="15" height="53.8686" fill="#855CF8"/>
<rect x="296.777" y="186.817" width="15" height="53.2422" fill="#5540C5"/>
<path d="M299.392 110L302.351 103.608H298.459V102.861H303.21V103.511L300.29 110H299.392ZM309.342 106.421C309.342 107.655 309.147 108.576 308.756 109.185C308.369 109.793 307.775 110.098 306.974 110.098C306.206 110.098 305.622 109.787 305.221 109.165C304.821 108.54 304.621 107.625 304.621 106.421C304.621 105.177 304.814 104.255 305.202 103.652C305.589 103.05 306.18 102.749 306.974 102.749C307.749 102.749 308.337 103.063 308.737 103.691C309.141 104.32 309.342 105.229 309.342 106.421ZM305.441 106.421C305.441 107.459 305.563 108.216 305.807 108.691C306.051 109.163 306.44 109.399 306.974 109.399C307.515 109.399 307.905 109.16 308.146 108.682C308.39 108.2 308.512 107.446 308.512 106.421C308.512 105.396 308.39 104.645 308.146 104.17C307.905 103.691 307.515 103.452 306.974 103.452C306.44 103.452 306.051 103.688 305.807 104.16C305.563 104.629 305.441 105.382 305.441 106.421Z" fill="#505F79"/>
</svg>
