<svg width="119" height="90" viewBox="0 0 119 90" fill="none" xmlns="http://www.w3.org/2000/svg">
<circle cx="1.5" cy="11.5" r="1.5" fill="#84A5FF"/>
<circle cx="1.5" cy="19.5" r="1.5" fill="#84A5FF"/>
<circle cx="1.5" cy="27.5" r="1.5" fill="#84A5FF"/>
<circle cx="9.5" cy="11.5" r="1.5" fill="#84A5FF"/>
<circle cx="9.5" cy="19.5" r="1.5" fill="#84A5FF"/>
<circle cx="9.5" cy="27.5" r="1.5" fill="#84A5FF"/>
<circle cx="17.5" cy="11.5" r="1.5" fill="#84A5FF"/>
<circle cx="17.5" cy="19.5" r="1.5" fill="#84A5FF"/>
<circle cx="17.5" cy="27.5" r="1.5" fill="#84A5FF"/>
<circle cx="25.5" cy="11.5" r="1.5" fill="#84A5FF"/>
<circle cx="33.5" cy="11.5" r="1.5" fill="#84A5FF"/>
<circle cx="41.5" cy="11.5" r="1.5" fill="#84A5FF"/>
<circle cx="25.5" cy="19.5" r="1.5" fill="#84A5FF"/>
<circle cx="33.5" cy="19.5" r="1.5" fill="#84A5FF"/>
<circle cx="41.5" cy="19.5" r="1.5" fill="#84A5FF"/>
<circle cx="25.5" cy="27.5" r="1.5" fill="#84A5FF"/>
<circle cx="33.5" cy="27.5" r="1.5" fill="#84A5FF"/>
<circle cx="41.5" cy="27.5" r="1.5" fill="#84A5FF"/>
<rect x="23.666" y="1.5" width="63" height="87" rx="6.5" fill="white" stroke="#42526E" stroke-width="3"/>
<rect x="35.166" y="18.9023" width="24" height="5" rx="2.5" fill="#84A5FF"/>
<rect x="35.166" y="28.7012" width="40" height="4" rx="2" fill="#BED0FF"/>
<rect x="35.166" y="35.3008" width="32" height="4" rx="2" fill="#BED0FF"/>
<rect x="35.166" y="50.7002" width="24" height="5" rx="2.5" fill="#84A5FF"/>
<rect x="35.166" y="60.499" width="35" height="4" rx="2" fill="#BED0FF"/>
<rect x="35.166" y="67.0986" width="22" height="4" rx="2" fill="#BED0FF"/>
<g filter="url(#filter0_f_2_84016)">
<rect x="75.5195" y="46.2656" width="37.8132" height="37.8132" rx="5.11341" fill="#2862FF" fill-opacity="0.2"/>
</g>
<rect x="72" y="41.8682" width="37.8132" height="37.8132" rx="5.11341" fill="#2862FF"/>
<path d="M100.126 72.5523H82.2286C81.5505 72.5523 80.9002 72.283 80.4207 71.8035C79.9412 71.324 79.6719 70.6737 79.6719 69.9956V52.0987C79.6719 51.4206 79.9412 50.7703 80.4207 50.2908C80.9002 49.8114 81.5505 49.542 82.2286 49.542H96.2905L102.682 55.9338V69.9956C102.682 70.6737 102.413 71.324 101.933 71.8035C101.454 72.283 100.804 72.5523 100.126 72.5523Z" stroke="white" stroke-width="1.91753" stroke-linecap="round" stroke-linejoin="round"/>
<path d="M97.5687 72.552V62.3252H84.7852V72.552" stroke="white" stroke-width="1.91753" stroke-linecap="round" stroke-linejoin="round"/>
<path d="M84.7852 49.542V55.9338H95.012" stroke="white" stroke-width="1.91753" stroke-linecap="round" stroke-linejoin="round"/>
<defs>
<filter id="filter0_f_2_84016" x="70.4061" y="41.1522" width="48.0393" height="48.0403" filterUnits="userSpaceOnUse" color-interpolation-filters="sRGB">
<feFlood flood-opacity="0" result="BackgroundImageFix"/>
<feBlend mode="normal" in="SourceGraphic" in2="BackgroundImageFix" result="shape"/>
<feGaussianBlur stdDeviation="2.55671" result="effect1_foregroundBlur_2_84016"/>
</filter>
</defs>
</svg>
