<svg width="82" height="107" viewBox="0 0 82 107" fill="none" xmlns="http://www.w3.org/2000/svg">
<path d="M30.8137 53.5051L18.9565 91.284L30.4715 87.1433L37.5688 97.0752L49.4237 59.2964L30.8137 53.5051Z" fill="#FFC117"/>
<path d="M48.9047 54.6868L68.5525 100.228L57.0398 96.0852L49.9425 106.019L30.2947 60.478L48.9047 54.6868Z" fill="#FFE680"/>
<path d="M79.523 35.4519L81.0901 31.9093L78.1581 29.3734L79.1375 25.6295L75.8391 23.5908L76.1993 19.7398L72.6102 18.2485L72.3448 14.3913L68.5724 13.4978L67.6878 9.73495L63.8143 9.4518L62.3357 5.87773L58.4685 6.21752L56.4338 2.92661L52.6678 3.88305L50.1339 0.957094L46.5701 2.49873L43.5939 0.0195312L40.327 2.11489L36.9907 0.139086L34.103 2.72525L30.4886 1.30947L28.0621 4.32351L24.2645 3.5055L22.3498 6.87192L18.4701 6.66427L17.1241 10.295L13.2633 10.7103L12.5177 14.5046L8.77691 15.5365L8.65053 19.4L5.1246 21.0172L5.6238 24.8492L2.40117 27.0075L3.51329 30.7137L0.676119 33.3565L2.36958 36.8362L0 39.9006L2.23056 43.0656L0.385451 46.4698L3.09625 49.2322L1.82615 52.888L4.94768 55.1847L4.27788 58.9916L7.72798 60.7598L7.68375 64.6296L11.374 65.8251L11.949 69.6509L15.7909 70.2361L16.9725 73.9171L20.8523 73.8857L22.6152 77.3339L26.4445 76.6858L28.7382 79.8005L32.4158 78.5483L35.1835 81.2603L38.602 79.4355L41.7741 81.6693L44.8577 79.3223L48.3457 81.0212L51.0122 78.2148L54.7277 79.3349L56.9078 76.132L60.756 76.648L62.3925 73.1432L66.2723 73.0299L67.3276 69.3111L71.1379 68.5812L71.5739 64.7429L75.2198 63.4152L75.0366 59.5517L78.4235 57.6576L77.6147 53.8759L80.6541 51.466L79.245 47.8667L81.8547 45.0037L79.8895 41.6687L82 38.4282L79.523 35.4519Z" fill="#A87B00"/>
<path d="M41.1106 3.86505C20.6438 3.78325 3.98724 20.2441 3.90509 40.6251C3.82294 61.0061 20.3531 77.5991 40.8199 77.6746C61.2931 77.7564 77.9496 61.2955 78.0318 40.9145C78.1139 20.5335 61.5837 3.94056 41.1106 3.86505Z" fill="#A87B00"/>
<path d="M41.1168 3.26074H40.9652C20.2772 3.26074 3.38052 20.0236 3.29837 40.6248C3.26046 50.6423 7.14024 60.0809 14.23 67.1912C21.3198 74.3016 30.7602 78.2406 40.8198 78.2847H40.9715C61.6595 78.2847 78.5561 61.5218 78.6383 40.9206C78.7204 20.2313 61.8869 3.34254 41.1168 3.26074ZM40.9715 77.0765H40.8261C31.0888 77.0388 21.9454 73.2256 15.0894 66.3418C8.22709 59.4579 4.47368 50.3277 4.51159 40.6311C4.58742 20.6906 20.9407 4.46888 40.9652 4.46888H41.1105C61.2108 4.54439 77.5009 20.892 77.425 40.9143C77.3492 60.8548 60.996 77.0765 40.9715 77.0765Z" fill="white"/>
<path d="M41.0097 12.8125C39.6827 12.8125 38.3368 12.9069 37.0161 13.0957C21.6423 15.2728 10.9129 29.4936 13.0992 44.8029C15.0581 58.5392 27.0323 68.9027 40.9402 68.9027C42.2671 68.9027 43.613 68.8083 44.9337 68.6195C60.3075 66.4424 71.0369 52.2216 68.8506 36.9123C66.8918 23.176 54.9238 12.8125 41.0097 12.8125Z" fill="white"/>
<path d="M59.5554 19.3876C54.3866 14.9514 47.8023 12.51 41.0095 12.51C39.6699 12.51 38.3114 12.6044 36.9718 12.7932C21.4337 14.9892 10.5905 29.3673 12.7958 44.8402C13.7689 51.6423 17.1748 57.8465 22.3941 62.3267C27.563 66.7628 34.1536 69.2043 40.94 69.2043C42.2796 69.2043 43.6382 69.1099 44.9778 68.9211C60.5159 66.7251 71.3591 52.347 69.1538 36.8741C68.1807 30.072 64.7748 23.8614 59.5554 19.3876ZM44.8893 68.317C43.5624 68.5058 42.2417 68.5939 40.94 68.5939C27.2913 68.5939 15.3739 58.5953 13.3961 44.7521C11.235 29.5875 21.8254 15.5429 37.0602 13.3909C38.3872 13.2022 39.7078 13.1141 41.0095 13.1141C54.6583 13.1141 66.5757 23.1127 68.5535 36.9559C70.7146 52.1205 60.1241 66.1651 44.8893 68.317Z" fill="white"/>
<path d="M41.7632 68.5889L41.7632 13.1216C40.4678 13.1216 39.1598 13.2097 37.8455 13.3922C22.617 15.5442 12.0203 29.5887 14.1813 44.7534C16.1591 58.6092 28.0955 68.6014 41.7632 68.5889Z" fill="#FFFAE6"/>
<path d="M41.6729 7.97885L41.18 6.07227L40.447 7.90964L38.4692 7.78379L39.9984 9.04226L39.2717 10.8796L40.9462 9.82252L42.4754 11.0747L41.9825 9.16811L43.6507 8.1047L41.6729 7.97885Z" fill="#FFE680"/>
<path d="M48.3836 8.70193L48.2952 6.73242L47.202 8.38102L45.2937 7.85246L46.5259 9.40039L45.4327 11.049L47.2905 10.3505L48.529 11.8985L48.4405 9.92265L50.2982 9.23049L48.3836 8.70193Z" fill="#FFE680"/>
<path d="M55.1573 8.79712L53.7546 10.194L51.9853 9.29422L52.8826 11.0561L51.4861 12.453L53.4386 12.1447L54.3422 13.9065L54.6518 11.9559L56.6107 11.6476L54.8477 10.7478L55.1573 8.79712Z" fill="#FFE680"/>
<path d="M61.3941 12.1572L59.7386 13.2458L58.1841 12.0188L58.7149 13.9191L57.0657 15.014L59.0435 15.0958L59.5806 17.0024L60.2693 15.1524L62.2535 15.2342L60.699 14.0072L61.3941 12.1572Z" fill="#FFE680"/>
<path d="M66.8221 16.9085L64.9896 17.6635L63.7069 16.1597L63.8522 18.1229L62.0198 18.878L63.947 19.3436L64.0987 21.3131L65.135 19.6331L67.0686 20.0987L65.7795 18.5948L66.8221 16.9085Z" fill="#FFE680"/>
<path d="M69.0906 22.9541L68.1302 21.23L67.8901 23.1869L65.9438 23.5644L67.7384 24.4013L67.4983 26.3583L68.8505 24.9173L70.6514 25.7479L69.6909 24.0175L71.0369 22.5765L69.0906 22.9541Z" fill="#FFE680"/>
<path d="M71.991 28.9959L71.397 27.1145L70.7652 28.9833L68.7874 28.9708L70.3797 30.1411L69.7541 32.0163L71.3655 30.871L72.9578 32.0414L72.3638 30.16L73.9751 29.0085L71.991 28.9959Z" fill="#FFE680"/>
<path d="M73.6654 35.3248L73.4632 33.3616L72.4648 35.0668L70.5249 34.6452L71.8455 36.1239L70.8472 37.8292L72.6607 37.0363L73.9813 38.5087L73.7854 36.5392L75.599 35.7464L73.6654 35.3248Z" fill="#FFE680"/>
<path d="M74.3479 40.1455L73.0146 41.6053L71.2074 40.7936L72.1868 42.5114L70.8535 43.9713L72.7934 43.5686L73.7792 45.2864L74.0003 43.3232L75.9402 42.9204L74.133 42.1087L74.3479 40.1455Z" fill="#FFE680"/>
<path d="M73.9498 46.8788L72.3385 48.0303L70.7398 46.8662L71.3464 48.7413L69.7351 49.8991L71.7192 49.9054L72.3258 51.7868L72.9451 49.9117L74.9292 49.918L73.3305 48.7539L73.9498 46.8788Z" fill="#FFE680"/>
<path d="M72.1933 53.4974L70.3861 54.3028L69.0528 52.843L69.2676 54.8062L67.4541 55.6117L69.394 56.0207L69.6088 57.9839L70.5946 56.2724L72.5408 56.6751L71.2075 55.209L72.1933 53.4974Z" fill="#FFE680"/>
<path d="M67.1317 59.9541L66.1207 58.2615L65.9375 60.2247L64.0039 60.6589L65.8237 61.4454L65.6405 63.4086L66.9485 61.9236L68.7747 62.7039L67.7573 61.0049L69.0653 59.5262L67.1317 59.9541Z" fill="#FFE680"/>
<path d="M62.7022 64.8367L62.045 62.9741L61.4763 64.8618L59.4922 64.9122L61.1288 66.0385L60.5601 67.9262L62.1398 66.7307L63.7701 67.8507L63.1129 65.9882L64.6863 64.7863L62.7022 64.8367Z" fill="#FFE680"/>
<path d="M57.4133 68.5116L57.1353 66.5547L56.2064 68.304L54.2539 67.9642L55.6314 69.38L54.7025 71.1292L56.4845 70.2609L57.862 71.6767L57.5839 69.7197L59.3659 68.8577L57.4133 68.5116Z" fill="#FFE680"/>
<path d="M51.6251 69.1162L50.3613 70.639L48.5162 69.9153L49.5841 71.5828L48.3203 73.1056L50.2412 72.6085L51.3091 74.276L51.4292 72.3064L53.3501 71.8093L51.505 71.0857L51.6251 69.1162Z" fill="#FFE680"/>
<path d="M45.774 70.5437L44.2259 71.777L42.5704 70.6947L43.2718 72.5447L41.7236 73.778L43.7014 73.6836L44.4028 75.5336L44.9273 73.627L46.9051 73.5389L45.2496 72.4503L45.774 70.5437Z" fill="#FFE680"/>
<path d="M39.5436 70.9781L37.7743 71.8654L36.3778 70.4622L36.6811 72.4128L34.9055 73.3L36.8644 73.6209L37.1614 75.5716L38.0713 73.816L40.0301 74.1369L38.6337 72.7337L39.5436 70.9781Z" fill="#FFE680"/>
<path d="M31.5437 70.7015L30.4632 69.0403L30.3558 71.0161L28.4412 71.5195L30.2863 72.2368L30.1789 74.2063L31.43 72.6773L33.2814 73.3883L32.2072 71.7271L33.4583 70.1981L31.5437 70.7015Z" fill="#FFE680"/>
<path d="M25.6041 68.3478L24.8837 66.5042L24.3782 68.417L22.4004 68.524L24.0686 69.5937L23.5631 71.5066L25.0985 70.2544L26.7667 71.3241L26.0464 69.4804L27.5819 68.2346L25.6041 68.3478Z" fill="#FFE680"/>
<path d="M20.3405 64.6978L19.9993 62.7534L19.1273 64.5216L17.1621 64.2447L18.5902 65.6227L17.7182 67.3972L19.4685 66.4722L20.8902 67.8439L20.5553 65.8996L22.3057 64.9746L20.3405 64.6978Z" fill="#FFE680"/>
<path d="M15.9932 58.0662L14.7863 59.633L12.9159 58.9786L14.0406 60.6083L12.8337 62.1751L14.7357 61.6088L15.8605 63.2385L15.911 61.2627L17.813 60.6964L15.9426 60.042L15.9932 58.0662Z" fill="#FFE680"/>
<path d="M13.2253 52.6863L11.7341 53.9825L10.028 52.9757L10.8115 54.7879L9.31396 56.0905L11.2918 55.9143L12.0753 57.7265L12.5113 55.801L14.4891 55.6248L12.783 54.6117L13.2253 52.6863Z" fill="#FFE680"/>
<path d="M11.551 46.9341L9.8259 47.9031L8.35992 46.5754L8.75801 48.5072L7.03296 49.4825L8.99813 49.7027L9.39622 51.6408L10.2177 49.8412L12.1892 50.0614L10.7295 48.7337L11.551 46.9341Z" fill="#FFE680"/>
<path d="M9.17503 41.5167L8.01868 39.9121L8.01236 41.8879L6.1167 42.4857L7.99972 43.1086L7.98709 45.0844L9.16871 43.4925L11.0517 44.1154L9.89538 42.5109L11.0707 40.9189L9.17503 41.5167Z" fill="#FFE680"/>
<path d="M9.57943 34.9792L8.77693 33.167L8.35989 35.0988L6.38208 35.3001L8.10081 36.2943L7.67745 38.2261L9.15606 36.9047L10.8748 37.9051L10.0723 36.0929L11.5509 34.7778L9.57943 34.9792Z" fill="#FFE680"/>
<path d="M11.2855 28.7179L10.8748 26.7925L10.066 28.5921L8.09448 28.3907L9.5731 29.7121L8.76428 31.518L10.483 30.5239L11.9553 31.8453L11.5446 29.9135L13.2633 28.9256L11.2855 28.7179Z" fill="#FFE680"/>
<path d="M14.1669 22.917L14.148 20.9412L12.9916 22.552L11.1023 21.9605L12.2839 23.5462L11.1339 25.1508L13.0169 24.5278L14.1922 26.1135L14.1733 24.1377L16.0563 23.5085L14.1669 22.917Z" fill="#FFE680"/>
<path d="M18.7481 15.9514L17.3011 17.3043L15.5634 16.3541L16.4102 18.1412L14.9631 19.494L16.9283 19.2486L17.775 21.0357L18.1478 19.0913L20.113 18.8459L18.3753 17.8958L18.7481 15.9514Z" fill="#FFE680"/>
<path d="M24.2265 12.0561L22.5394 13.0943L21.0291 11.8232L21.5031 13.7361L19.8159 14.7807L21.7937 14.9254L22.2676 16.8446L23.0133 15.0135L24.9974 15.1582L23.4809 13.8808L24.2265 12.0561Z" fill="#FFE680"/>
<path d="M30.4129 9.4826L28.5551 10.1622L27.3229 8.61426L27.4051 10.5838L25.541 11.2696L27.4493 11.8045L27.5315 13.7803L28.6309 12.138L30.5392 12.6728L29.3134 11.1249L30.4129 9.4826Z" fill="#FFE680"/>
<path d="M34.9118 8.44418L34.0272 6.67603L33.7049 8.62666L31.7397 8.91611L33.4964 9.8285L33.1678 11.7791L34.5832 10.3948L36.3462 11.3072L35.4616 9.53905L36.877 8.15473L34.9118 8.44418Z" fill="#FFE680"/>
<path d="M41.6729 7.98515L41.1737 6.07227L40.447 7.90335L38.4692 7.78379L39.9984 9.04226L39.2717 10.8796L40.9462 9.82252L42.4754 11.0747L41.9825 9.16182L43.6507 8.1047L41.6729 7.98515Z" fill="#FFE680"/>
<path d="M40.0021 40.623C40.0021 44.4121 39.3673 47.1904 38.0978 48.958C36.8282 50.7158 34.8849 51.5947 32.2677 51.5947C29.7091 51.5947 27.7804 50.6768 26.4815 48.8408C25.1827 46.9951 24.5333 44.2559 24.5333 40.623C24.5333 36.8145 25.1681 34.0215 26.4376 32.2441C27.7071 30.4668 29.6505 29.5781 32.2677 29.5781C34.8165 29.5781 36.7403 30.5059 38.0392 32.3613C39.3478 34.207 40.0021 36.9609 40.0021 40.623ZM30.2901 40.623C30.2901 43.0449 30.4415 44.71 30.7442 45.6182C31.047 46.5264 31.5548 46.9805 32.2677 46.9805C32.9903 46.9805 33.4981 46.5117 33.7911 45.5742C34.0938 44.6367 34.2452 42.9863 34.2452 40.623C34.2452 38.25 34.0938 36.5898 33.7911 35.6426C33.4884 34.6855 32.9806 34.207 32.2677 34.207C31.5548 34.207 31.047 34.666 30.7442 35.584C30.4415 36.502 30.2901 38.1816 30.2901 40.623ZM54.2556 51.3018H48.3815V39.9639C48.3815 38.5869 48.4108 37.3271 48.4694 36.1846C48.1081 36.624 47.6589 37.083 47.1218 37.5615L44.6901 39.5684L41.6872 35.877L49.0407 29.8857H54.2556V51.3018Z" fill="#FFC117"/>
<path d="M38.0978 48.958L38.61 49.328L38.611 49.3266L38.0978 48.958ZM26.4815 48.8408L25.9648 49.2045L25.9657 49.2058L26.4815 48.8408ZM38.0392 32.3613L37.5215 32.7237L37.5237 32.7268L38.0392 32.3613ZM30.7442 45.6182L31.3437 45.4183L30.7442 45.6182ZM33.7911 45.5742L33.1898 45.38L33.188 45.3857L33.7911 45.5742ZM33.7911 35.6426L33.1886 35.8332L33.1892 35.8349L33.7911 35.6426ZM39.3702 40.623C39.3702 44.3669 38.7382 46.9832 37.5845 48.5894L38.611 49.3266C39.9964 47.3977 40.6339 44.4573 40.6339 40.623H39.3702ZM37.5855 48.588C36.4601 50.1463 34.7294 50.9628 32.2677 50.9628V52.2266C35.0403 52.2266 37.1964 51.2853 38.61 49.328L37.5855 48.588ZM32.2677 50.9628C29.8815 50.9628 28.1601 50.1194 26.9974 48.4759L25.9657 49.2058C27.4006 51.2341 29.5366 52.2266 32.2677 52.2266V50.9628ZM26.9983 48.4772C25.8075 46.785 25.1652 44.1985 25.1652 40.623H23.9014C23.9014 44.3133 24.5579 47.2052 25.9648 49.2045L26.9983 48.4772ZM25.1652 40.623C25.1652 36.8592 25.7973 34.2277 26.9518 32.6114L25.9234 31.8769C24.5388 33.8153 23.9014 36.7697 23.9014 40.623H25.1652ZM26.9518 32.6114C28.0783 31.0343 29.8087 30.21 32.2677 30.21V28.9462C29.4923 28.9462 27.3359 29.8993 25.9234 31.8769L26.9518 32.6114ZM32.2677 30.21C34.6403 30.21 36.3571 31.0603 37.5215 32.7237L38.5568 31.999C37.1235 29.9514 34.9927 28.9462 32.2677 28.9462V30.21ZM37.5237 32.7268C38.7227 34.4179 39.3702 37.0177 39.3702 40.623H40.6339C40.6339 36.9042 39.9728 33.9961 38.5546 31.9959L37.5237 32.7268ZM29.6583 40.623C29.6583 43.04 29.8057 44.8008 30.1448 45.818L31.3437 45.4183C31.0773 44.6191 30.922 43.0498 30.922 40.623H29.6583ZM30.1448 45.818C30.3176 46.3364 30.5684 46.7867 30.9309 47.1109C31.3065 47.4467 31.7637 47.6124 32.2677 47.6124V46.3486C32.0587 46.3486 31.9057 46.2872 31.7734 46.1689C31.6281 46.039 31.4736 45.8082 31.3437 45.4183L30.1448 45.818ZM32.2677 47.6124C32.7799 47.6124 33.2428 47.4406 33.6191 47.0932C33.9815 46.7587 34.2279 46.295 34.3942 45.7627L33.188 45.3857C33.0614 45.7909 32.9073 46.0304 32.7619 46.1646C32.6305 46.2859 32.4781 46.3486 32.2677 46.3486V47.6124ZM34.3924 45.7684C34.7289 44.7265 34.8771 42.9858 34.8771 40.623H33.6133C33.6133 42.9869 33.4588 44.547 33.1898 45.38L34.3924 45.7684ZM34.8771 40.623C34.8771 38.2501 34.7288 36.5008 34.393 35.4502L33.1892 35.8349C33.4589 36.6789 33.6133 38.2499 33.6133 40.623H34.8771ZM34.3936 35.452C34.2231 34.913 33.9758 34.4446 33.6166 34.106C33.2426 33.7537 32.7813 33.5751 32.2677 33.5751V34.8389C32.4669 34.8389 32.616 34.8997 32.7499 35.0258C32.8984 35.1658 33.0564 35.4151 33.1887 35.8332L34.3936 35.452ZM32.2677 33.5751C31.7618 33.5751 31.3037 33.7433 30.9284 34.0825C30.5665 34.4096 30.3164 34.8636 30.1441 35.3861L31.3443 35.7819C31.4748 35.3864 31.6299 35.1519 31.7759 35.0201C31.9084 34.9002 32.0607 34.8389 32.2677 34.8389V33.5751ZM30.1441 35.3861C29.8058 36.412 29.6583 38.1864 29.6583 40.623H30.922C30.922 38.1769 31.0772 36.5919 31.3443 35.7819L30.1441 35.3861ZM54.2556 51.3018V51.9336H54.8875V51.3018H54.2556ZM48.3815 51.3018H47.7497V51.9336H48.3815V51.3018ZM48.4694 36.1846L49.1005 36.2169L49.1987 34.3027L47.9813 35.7833L48.4694 36.1846ZM47.1218 37.5615L47.524 38.0489L47.5332 38.0413L47.5421 38.0333L47.1218 37.5615ZM44.6901 39.5684L44.2 39.9671L44.6015 40.4608L45.0923 40.0557L44.6901 39.5684ZM41.6872 35.877L41.2881 35.3871L40.7986 35.7859L41.197 36.2757L41.6872 35.877ZM49.0407 29.8857V29.2539H48.8159L48.6416 29.3959L49.0407 29.8857ZM54.2556 29.8857H54.8875V29.2539H54.2556V29.8857ZM54.2556 50.6699H48.3815V51.9336H54.2556V50.6699ZM49.0134 51.3018V39.9639H47.7497V51.3018H49.0134ZM49.0134 39.9639C49.0134 38.5956 49.0425 37.3468 49.1005 36.2169L47.8384 36.1522C47.7791 37.3075 47.7497 38.5782 47.7497 39.9639H49.0134ZM47.9813 35.7833C47.6453 36.1919 47.2202 36.6275 46.7014 37.0897L47.5421 38.0333C48.0975 37.5385 48.5709 37.0561 48.9575 36.5859L47.9813 35.7833ZM46.7196 37.0742L44.2879 39.081L45.0923 40.0557L47.524 38.0489L46.7196 37.0742ZM45.1803 39.1696L42.1774 35.4782L41.197 36.2757L44.2 39.9671L45.1803 39.1696ZM42.0863 36.3668L49.4398 30.3756L48.6416 29.3959L41.2881 35.3871L42.0863 36.3668ZM49.0407 30.5176H54.2556V29.2539H49.0407V30.5176ZM53.6237 29.8857V51.3018H54.8875V29.8857H53.6237Z" fill="#A87B00"/>
</svg>
