<svg width="24" height="24" viewBox="0 0 24 24" fill="none" xmlns="http://www.w3.org/2000/svg">
<path d="M13 2H6C5.46957 2 4.96086 2.21071 4.58579 2.58579C4.21071 2.96086 4 3.46957 4 4V20C4 20.5304 4.21071 21.0391 4.58579 21.4142C4.96086 21.7893 5.46957 22 6 22H18C18.5304 22 19.0391 21.7893 19.4142 21.4142C19.7893 21.0391 20 20.5304 20 20V9L13 2Z" stroke="#B49353" stroke-width="1.5" stroke-linecap="round" stroke-linejoin="round"/>
<path d="M13.6687 9.25785C13.7505 9.1761 13.8475 9.11125 13.9543 9.06701C14.0611 9.02277 14.1756 9 14.2912 9C14.4068 9 14.5213 9.02277 14.6281 9.06701C14.7349 9.11125 14.832 9.1761 14.9137 9.25785C14.9955 9.33959 15.0603 9.43664 15.1046 9.54345C15.1488 9.65026 15.1716 9.76474 15.1716 9.88034C15.1716 9.99595 15.1488 10.1104 15.1046 10.2172C15.0603 10.324 14.9955 10.4211 14.9137 10.5028L10.7119 14.7047L9 15.1716L9.46687 13.4597L13.6687 9.25785Z" stroke="#B49353" stroke-linecap="round" stroke-linejoin="round"/>
</svg>
