<svg width="16" height="16" viewBox="0 0 16 16" fill="none" xmlns="http://www.w3.org/2000/svg">
    <path
        d="M12.8692 5.27999V8.71334C12.8692 10.7667 11.6959 11.6466 9.93591 11.6466H4.07591C3.77591 11.6466 3.48924 11.62 3.22257 11.56C3.05591 11.5334 2.89591 11.4867 2.74925 11.4333C1.74925 11.06 1.14258 10.1933 1.14258 8.71334V5.27999C1.14258 3.22666 2.31591 2.34668 4.07591 2.34668H9.93591C11.4292 2.34668 12.5026 2.98001 12.7892 4.42668C12.8359 4.69334 12.8692 4.96666 12.8692 5.27999Z"
        stroke="#092682" stroke-width="0.8" stroke-miterlimit="10" stroke-linecap="round" stroke-linejoin="round" />
    <path
        d="M14.8693 7.28007V10.7134C14.8693 12.7668 13.696 13.6467 11.936 13.6467H6.07599C5.58266 13.6467 5.136 13.5801 4.74933 13.4334C3.956 13.1401 3.41599 12.5334 3.22266 11.5601C3.48932 11.6201 3.77599 11.6467 4.07599 11.6467H9.93599C11.696 11.6467 12.8693 10.7668 12.8693 8.71342V5.28007C12.8693 4.96674 12.8427 4.68676 12.7893 4.42676C14.056 4.69342 14.8693 5.58674 14.8693 7.28007Z"
        stroke="#092682" stroke-width="0.8" stroke-miterlimit="10" stroke-linecap="round" stroke-linejoin="round" />
    <path
        d="M7.00024 8.75928C7.97227 8.75928 8.76025 7.97129 8.76025 6.99927C8.76025 6.02725 7.97227 5.23926 7.00024 5.23926C6.02822 5.23926 5.24023 6.02725 5.24023 6.99927C5.24023 7.97129 6.02822 8.75928 7.00024 8.75928Z"
        stroke="#092682" stroke-width="0.8" stroke-miterlimit="10" stroke-linecap="round" stroke-linejoin="round" />
    <path d="M3.1875 5.5332V8.46655" stroke="#092682" stroke-width="0.8" stroke-miterlimit="10" stroke-linecap="round"
        stroke-linejoin="round" />
    <path d="M10.8164 5.5332V8.46655" stroke="#092682" stroke-width="0.8" stroke-miterlimit="10" stroke-linecap="round"
        stroke-linejoin="round" />
</svg>