<svg width="13" height="12" viewBox="0 0 13 12" fill="none" xmlns="http://www.w3.org/2000/svg">
<path d="M11.7525 9.165C11.7525 9.345 11.7123 9.53 11.6269 9.71C11.5415 9.89 11.4309 10.06 11.2852 10.22C11.0391 10.49 10.7678 10.685 10.4613 10.81C10.1599 10.935 9.83333 11 9.48165 11C8.96922 11 8.42161 10.88 7.84386 10.635C7.26611 10.39 6.68837 10.06 6.11564 9.645C5.53789 9.225 4.99029 8.76 4.4678 8.245C3.95034 7.725 3.48312 7.18 3.06613 6.61C2.65417 6.04 2.32259 5.47 2.08145 4.905C1.8403 4.335 1.71973 3.79 1.71973 3.27C1.71973 2.93 1.78001 2.605 1.90059 2.305C2.02116 2 2.21207 1.72 2.47834 1.47C2.79987 1.155 3.15154 1 3.52331 1C3.66398 1 3.80465 1.03 3.93024 1.09C4.06086 1.15 4.17641 1.24 4.26684 1.37L5.43239 3.005C5.52282 3.13 5.58813 3.245 5.63335 3.355C5.67856 3.46 5.70368 3.565 5.70368 3.66C5.70368 3.78 5.66851 3.9 5.59818 4.015C5.53287 4.13 5.43741 4.25 5.31684 4.37L4.93502 4.765C4.87976 4.82 4.85464 4.885 4.85464 4.965C4.85464 5.005 4.85967 5.04 4.86971 5.08C4.88478 5.12 4.89986 5.15 4.9099 5.18C5.00033 5.345 5.15608 5.56 5.37713 5.82C5.6032 6.08 5.84435 6.345 6.10559 6.61C6.37688 6.875 6.63813 7.12 6.90439 7.345C7.16564 7.565 7.38166 7.715 7.55248 7.805C7.5776 7.815 7.60774 7.83 7.64291 7.845C7.6831 7.86 7.72329 7.865 7.7685 7.865C7.85391 7.865 7.91922 7.835 7.97448 7.78L8.3563 7.405C8.4819 7.28 8.60247 7.185 8.71802 7.125C8.83357 7.055 8.94912 7.02 9.07472 7.02C9.17017 7.02 9.27065 7.04 9.38118 7.085C9.4917 7.13 9.60725 7.195 9.73285 7.28L11.3958 8.455C11.5264 8.545 11.6168 8.65 11.6721 8.775C11.7223 8.9 11.7525 9.025 11.7525 9.165Z" stroke="#092682" stroke-miterlimit="10"/>
<path d="M10.0093 4.5C10.0093 4.2 9.77322 3.74 9.42155 3.365C9.10002 3.02 8.67298 2.75 8.25098 2.75" stroke="#092682" stroke-linecap="round" stroke-linejoin="round"/>
<path d="M11.7677 4.5C11.7677 2.565 10.1952 1 8.25098 1" stroke="#092682" stroke-linecap="round" stroke-linejoin="round"/>
</svg>
