<svg width="16" height="16" viewBox="0 0 16 16" fill="none" xmlns="http://www.w3.org/2000/svg">
    <g opacity="0.2">
        <mask id="path-1-inside-1_267_47051" fill="white">
            <path
                d="M7.87151 0.148573C12.1369 0.148572 15.5946 3.60631 15.5946 7.87165C15.5946 12.137 12.1369 15.5947 7.87151 15.5947C3.60618 15.5947 0.148437 12.137 0.148437 7.87165C0.148437 3.60631 3.60618 0.148573 7.87151 0.148573ZM7.87151 13.6456C11.0604 13.6456 13.6455 11.0605 13.6455 7.87165C13.6455 4.68276 11.0604 2.09766 7.87151 2.09766C4.68263 2.09766 2.09752 4.68276 2.09752 7.87165C2.09752 11.0605 4.68263 13.6456 7.87151 13.6456Z" />
        </mask>
        <path
            d="M7.87151 0.148573C12.1369 0.148572 15.5946 3.60631 15.5946 7.87165C15.5946 12.137 12.1369 15.5947 7.87151 15.5947C3.60618 15.5947 0.148437 12.137 0.148437 7.87165C0.148437 3.60631 3.60618 0.148573 7.87151 0.148573ZM7.87151 13.6456C11.0604 13.6456 13.6455 11.0605 13.6455 7.87165C13.6455 4.68276 11.0604 2.09766 7.87151 2.09766C4.68263 2.09766 2.09752 4.68276 2.09752 7.87165C2.09752 11.0605 4.68263 13.6456 7.87151 13.6456Z"
            fill="#005B96" stroke="#505F79" stroke-width="2.57436" mask="url(#path-1-inside-1_267_47051)" />
    </g>
    <mask id="path-2-inside-2_267_47051" fill="white">
        <path
            d="M13.6627 2.76202C12.7653 1.74491 11.6158 0.982089 10.3299 0.55031C9.04409 0.118531 7.66719 0.0330245 6.33779 0.302396C5.00839 0.571767 3.77338 1.18651 2.75702 2.08478C1.74066 2.98305 0.978806 4.13315 0.548109 5.41937C0.117412 6.7056 0.033064 8.08257 0.303553 9.41174C0.574042 10.7409 1.18983 11.9754 2.08895 12.991C2.98807 14.0066 4.13882 14.7675 5.4254 15.1971C6.71198 15.6267 8.08903 15.7099 9.41797 15.4383L9.02769 13.5287C8.03413 13.7318 7.00462 13.6696 6.04273 13.3484C5.08084 13.0272 4.22051 12.4583 3.5483 11.699C2.8761 10.9397 2.41572 10.0168 2.21349 9.02307C2.01127 8.02934 2.07433 6.99987 2.39633 6.03826C2.71833 5.07664 3.28792 4.21679 4.04777 3.54522C4.80763 2.87365 5.73096 2.41405 6.72486 2.21266C7.71876 2.01127 8.74816 2.0752 9.70951 2.39801C10.6709 2.72082 11.5302 3.29113 12.2012 4.05155L13.6627 2.76202Z" />
    </mask>
    <path
        d="M13.6627 2.76202C12.7653 1.74491 11.6158 0.982089 10.3299 0.55031C9.04409 0.118531 7.66719 0.0330245 6.33779 0.302396C5.00839 0.571767 3.77338 1.18651 2.75702 2.08478C1.74066 2.98305 0.978806 4.13315 0.548109 5.41937C0.117412 6.7056 0.033064 8.08257 0.303553 9.41174C0.574042 10.7409 1.18983 11.9754 2.08895 12.991C2.98807 14.0066 4.13882 14.7675 5.4254 15.1971C6.71198 15.6267 8.08903 15.7099 9.41797 15.4383L9.02769 13.5287C8.03413 13.7318 7.00462 13.6696 6.04273 13.3484C5.08084 13.0272 4.22051 12.4583 3.5483 11.699C2.8761 10.9397 2.41572 10.0168 2.21349 9.02307C2.01127 8.02934 2.07433 6.99987 2.39633 6.03826C2.71833 5.07664 3.28792 4.21679 4.04777 3.54522C4.80763 2.87365 5.73096 2.41405 6.72486 2.21266C7.71876 2.01127 8.74816 2.0752 9.70951 2.39801C10.6709 2.72082 11.5302 3.29113 12.2012 4.05155L13.6627 2.76202Z"
        fill="#005B96" stroke="#505F79" stroke-width="2.57436" mask="url(#path-2-inside-2_267_47051)" />
</svg>