<svg width="12" height="12" viewBox="0 0 12 12" fill="none" xmlns="http://www.w3.org/2000/svg">
    <g opacity="0.2">
        <mask id="path-1-inside-1_258_54371" fill="white">
            <path
                d="M6 -2.62268e-07C9.31371 -4.07115e-07 12 2.68629 12 6C12 9.31371 9.31371 12 6 12C2.68629 12 -1.17422e-07 9.31371 -2.62268e-07 6C-4.07115e-07 2.68629 2.68629 -1.17422e-07 6 -2.62268e-07ZM6 10.4858C8.47742 10.4858 10.4858 8.47742 10.4858 6C10.4858 3.52258 8.47742 1.51423 6 1.51423C3.52258 1.51423 1.51423 3.52258 1.51423 6C1.51423 8.47742 3.52258 10.4858 6 10.4858Z" />
        </mask>
        <path
            d="M6 -2.62268e-07C9.31371 -4.07115e-07 12 2.68629 12 6C12 9.31371 9.31371 12 6 12C2.68629 12 -1.17422e-07 9.31371 -2.62268e-07 6C-4.07115e-07 2.68629 2.68629 -1.17422e-07 6 -2.62268e-07ZM6 10.4858C8.47742 10.4858 10.4858 8.47742 10.4858 6C10.4858 3.52258 8.47742 1.51423 6 1.51423C3.52258 1.51423 1.51423 3.52258 1.51423 6C1.51423 8.47742 3.52258 10.4858 6 10.4858Z"
            fill="#005B96" stroke="#092682" stroke-width="2" mask="url(#path-1-inside-1_258_54371)" />
    </g>
    <mask id="path-2-inside-2_258_54371" fill="white">
        <path
            d="M10.4991 2.03037C9.80192 1.24018 8.90891 0.647552 7.90994 0.312107C6.91096 -0.0233396 5.84126 -0.0897687 4.80846 0.119504C3.77566 0.328776 2.81619 0.806367 2.02659 1.50422C1.23699 2.20208 0.645107 3.09559 0.310502 4.09485C-0.0241038 5.0941 -0.0896328 6.16386 0.120508 7.19649C0.330649 8.22911 0.809047 9.18818 1.50757 9.97719C2.20609 10.7662 3.10009 11.3573 4.09963 11.6911C5.09917 12.0249 6.16898 12.0895 7.20143 11.8785L6.89822 10.3949C6.12634 10.5527 5.32651 10.5044 4.57923 10.2548C3.83195 10.0053 3.16357 9.56335 2.64133 8.97346C2.1191 8.38357 1.76143 7.66655 1.60433 6.89453C1.44722 6.12251 1.49621 5.32272 1.74637 4.57565C1.99653 3.82858 2.43904 3.16057 3.02936 2.63883C3.61969 2.11709 4.33702 1.76003 5.10917 1.60357C5.88132 1.44712 6.68106 1.49678 7.42792 1.74757C8.17479 1.99836 8.84242 2.44143 9.36367 3.03219L10.4991 2.03037Z" />
    </mask>
    <path
        d="M10.4991 2.03037C9.80192 1.24018 8.90891 0.647552 7.90994 0.312107C6.91096 -0.0233396 5.84126 -0.0897687 4.80846 0.119504C3.77566 0.328776 2.81619 0.806367 2.02659 1.50422C1.23699 2.20208 0.645107 3.09559 0.310502 4.09485C-0.0241038 5.0941 -0.0896328 6.16386 0.120508 7.19649C0.330649 8.22911 0.809047 9.18818 1.50757 9.97719C2.20609 10.7662 3.10009 11.3573 4.09963 11.6911C5.09917 12.0249 6.16898 12.0895 7.20143 11.8785L6.89822 10.3949C6.12634 10.5527 5.32651 10.5044 4.57923 10.2548C3.83195 10.0053 3.16357 9.56335 2.64133 8.97346C2.1191 8.38357 1.76143 7.66655 1.60433 6.89453C1.44722 6.12251 1.49621 5.32272 1.74637 4.57565C1.99653 3.82858 2.43904 3.16057 3.02936 2.63883C3.61969 2.11709 4.33702 1.76003 5.10917 1.60357C5.88132 1.44712 6.68106 1.49678 7.42792 1.74757C8.17479 1.99836 8.84242 2.44143 9.36367 3.03219L10.4991 2.03037Z"
        fill="#005B96" stroke="#092682" stroke-width="2" mask="url(#path-2-inside-2_258_54371)" />
</svg>