<svg width="12" height="13" viewBox="0 0 12 13" fill="none" xmlns="http://www.w3.org/2000/svg">
    <path
        d="M6 5.6579C4.63431 5.6579 3.5 4.51265 3.5 3.07895C3.5 1.64524 4.63431 0.5 6 0.5C7.36569 0.5 8.5 1.64524 8.5 3.07895C8.5 4.51265 7.36569 5.6579 6 5.6579ZM10.3579 12.5L9.6 12.5L1.6421 12.5C1.01133 12.5 0.5 11.9887 0.5 11.3579C0.5 10.1879 0.954783 9.38216 1.66654 8.85331C2.39829 8.30961 3.448 8.02632 4.66667 8.02632H7.33333C8.55164 8.02632 9.60137 8.3096 10.3332 8.85333C11.0451 9.3822 11.5 10.1879 11.5 11.3579C11.5 11.9887 10.9887 12.5 10.3579 12.5Z"
        stroke="#092682" />
</svg>