<svg width="14" height="16" viewBox="0 0 14 16" fill="none" xmlns="http://www.w3.org/2000/svg">
    <path
        d="M11.026 9.03267C10.746 9.30601 10.586 9.69934 10.626 10.1193C10.686 10.8393 11.346 11.366 12.066 11.366H13.3327V12.1593C13.3327 13.5393 12.206 14.666 10.826 14.666H3.17268C1.79268 14.666 0.666016 13.5393 0.666016 12.1593V7.67269C0.666016 6.29269 1.79268 5.16602 3.17268 5.16602H10.826C12.206 5.16602 13.3327 6.29269 13.3327 7.67269V8.63269H11.986C11.6127 8.63269 11.2727 8.77934 11.026 9.03267Z"
        stroke="#092682" stroke-linecap="round" stroke-linejoin="round" />
    <path
        d="M0.666016 8.27288V5.22625C0.666016 4.43291 1.15268 3.72622 1.89268 3.44622L7.18602 1.44622C8.01268 1.13289 8.89935 1.74624 8.89935 2.6329V5.16623"
        stroke="#092682" stroke-linecap="round" stroke-linejoin="round" />
</svg>